G04 #@! TF.GenerationSoftware,KiCad,Pcbnew,5.1.12-84ad8e8a86~92~ubuntu18.04.1*
G04 #@! TF.CreationDate,2023-10-05T13:55:54+02:00*
G04 #@! TF.ProjectId,acoustic-impact-ball,61636f75-7374-4696-932d-696d70616374,rev?*
G04 #@! TF.SameCoordinates,Original*
G04 #@! TF.FileFunction,Copper,L2,Bot*
G04 #@! TF.FilePolarity,Positive*
%FSLAX46Y46*%
G04 Gerber Fmt 4.6, Leading zero omitted, Abs format (unit mm)*
G04 Created by KiCad (PCBNEW 5.1.12-84ad8e8a86~92~ubuntu18.04.1) date 2023-10-05 13:55:54*
%MOMM*%
%LPD*%
G01*
G04 APERTURE LIST*
G04 #@! TA.AperFunction,ComponentPad*
%ADD10R,3.800000X2.700000*%
G04 #@! TD*
G04 #@! TA.AperFunction,ComponentPad*
%ADD11O,3.800000X2.700000*%
G04 #@! TD*
G04 #@! TA.AperFunction,ComponentPad*
%ADD12R,1.700000X1.700000*%
G04 #@! TD*
G04 #@! TA.AperFunction,ComponentPad*
%ADD13O,1.700000X1.700000*%
G04 #@! TD*
G04 #@! TA.AperFunction,ComponentPad*
%ADD14C,0.600000*%
G04 #@! TD*
G04 #@! TA.AperFunction,SMDPad,CuDef*
%ADD15R,1.450000X1.450000*%
G04 #@! TD*
G04 #@! TA.AperFunction,ViaPad*
%ADD16C,0.812800*%
G04 #@! TD*
G04 #@! TA.AperFunction,ViaPad*
%ADD17C,0.609600*%
G04 #@! TD*
G04 #@! TA.AperFunction,Conductor*
%ADD18C,0.406400*%
G04 #@! TD*
G04 #@! TA.AperFunction,Conductor*
%ADD19C,0.812800*%
G04 #@! TD*
G04 #@! TA.AperFunction,Conductor*
%ADD20C,1.219200*%
G04 #@! TD*
G04 #@! TA.AperFunction,Conductor*
%ADD21C,0.203200*%
G04 #@! TD*
G04 #@! TA.AperFunction,Conductor*
%ADD22C,0.100000*%
G04 #@! TD*
G04 APERTURE END LIST*
D10*
X19000000Y-76000000D03*
D11*
X19000000Y-4000000D03*
D12*
X32004000Y-54102000D03*
D13*
X34544000Y-54102000D03*
D14*
X22689000Y-49867000D03*
X23539000Y-49867000D03*
X22689000Y-50717000D03*
X23539000Y-50717000D03*
D15*
X23114000Y-50292000D03*
D16*
X15494000Y-2286000D03*
D17*
X7874000Y-68808600D03*
X8890000Y-68808600D03*
X9906000Y-68808600D03*
X10922000Y-68808600D03*
X10922000Y-67792600D03*
X9906000Y-67792600D03*
X8890000Y-67792600D03*
X7874000Y-67792600D03*
X7874000Y-66776600D03*
X8890000Y-66776600D03*
X9906000Y-66776600D03*
X10922000Y-66776600D03*
X11938000Y-68808600D03*
X11938000Y-67792600D03*
X11938000Y-66776600D03*
X6858000Y-66776600D03*
X6858000Y-67792600D03*
X6858000Y-68808600D03*
D16*
X21336000Y-81280000D03*
X21336000Y-82296000D03*
X21336000Y-83312000D03*
X6350000Y-83566000D03*
X4572000Y-68072000D03*
X4064000Y-69088000D03*
X13970000Y-70358000D03*
X14986000Y-70358000D03*
X14986000Y-69342000D03*
X13970000Y-69342000D03*
X5080000Y-69088000D03*
X16002000Y-69342000D03*
X16002000Y-70358000D03*
X30637000Y-10087000D03*
X28956000Y-11811000D03*
X33020000Y-8382000D03*
X31750000Y-3556000D03*
X29464000Y-3556000D03*
X35814000Y-76454000D03*
X28956000Y-85598000D03*
X2794000Y-83566000D03*
X25019000Y-52578000D03*
X26797000Y-57912000D03*
X26797000Y-56769000D03*
X17526000Y-55626000D03*
X26797000Y-45339000D03*
X21082000Y-35560000D03*
X7416800Y-22606000D03*
X21336000Y-19685000D03*
X27940000Y-26416000D03*
X7416800Y-28702000D03*
X17526000Y-56896000D03*
X17526000Y-58166000D03*
X27940000Y-56769000D03*
X27940000Y-57912000D03*
X28067000Y-67056000D03*
X27051000Y-67056000D03*
X31242000Y-74930000D03*
X32258000Y-74930000D03*
X31242000Y-78994000D03*
X32258000Y-78994000D03*
X29972000Y-76454000D03*
X29972000Y-77470000D03*
X13208000Y-80264000D03*
D17*
X25146000Y-71628000D03*
X25146000Y-70104000D03*
X25146000Y-70866000D03*
X24511000Y-70485000D03*
X24511000Y-71247000D03*
X24511000Y-72009000D03*
X25908000Y-70104000D03*
X26670000Y-70104000D03*
D16*
X6477000Y-10160000D03*
X5207000Y-10160000D03*
X3937000Y-10160000D03*
X7747000Y-10160000D03*
X6477000Y-11430000D03*
X7747000Y-11430000D03*
X5207000Y-11430000D03*
X3937000Y-11430000D03*
X3937000Y-12700000D03*
X5207000Y-12700000D03*
X7747000Y-12700000D03*
X6477000Y-12700000D03*
X34036000Y-25146000D03*
X34036000Y-23876000D03*
X34036000Y-26416000D03*
X9144000Y-19812000D03*
X10414000Y-19812000D03*
X11684000Y-19812000D03*
X14224000Y-39624000D03*
X14224000Y-40894000D03*
X14224000Y-42164000D03*
X11938000Y-59690000D03*
X10668000Y-59690000D03*
X9398000Y-59690000D03*
X27559000Y-2794000D03*
X25019000Y-1524000D03*
X26289000Y-2794000D03*
X26289000Y-1524000D03*
X26289000Y-5334000D03*
X27559000Y-5334000D03*
X27559000Y-4064000D03*
X27559000Y-1524000D03*
X26289000Y-4064000D03*
X25019000Y-2794000D03*
X25019000Y-4064000D03*
X25019000Y-5334000D03*
X34036000Y-39624000D03*
X34036000Y-38354000D03*
X34036000Y-40894000D03*
X5334000Y-37592000D03*
X6604000Y-37592000D03*
X7874000Y-37592000D03*
X3200400Y-65176400D03*
X3200400Y-64058800D03*
X4470400Y-15773400D03*
X9752000Y-49630000D03*
X9752000Y-50723800D03*
X5588000Y-15773400D03*
X9144000Y-82473800D03*
X25933400Y-66548000D03*
X18745200Y-65684400D03*
X16637000Y-82296000D03*
X16637000Y-83312000D03*
X16637000Y-81280000D03*
X25806400Y-80010000D03*
X26822400Y-80010000D03*
X11176000Y-78740000D03*
D17*
X22225000Y-27076400D03*
X5080000Y-54559200D03*
X21564600Y-26568400D03*
X5080000Y-55372000D03*
X22072600Y-29489400D03*
X7543800Y-46050200D03*
X19177000Y-29946600D03*
X8636000Y-46050200D03*
X20015200Y-30556200D03*
X10852000Y-46050200D03*
X20701000Y-31165800D03*
X13052000Y-46050200D03*
X18643600Y-14757400D03*
X16383000Y-22199600D03*
X17551400Y-22199600D03*
X18796000Y-13462000D03*
X33578800Y-65303400D03*
X35280600Y-65303400D03*
X24663400Y-31089600D03*
X15798800Y-26441400D03*
X32966000Y-10087000D03*
X31242000Y-17094200D03*
X14700000Y-31921200D03*
X16433800Y-37668200D03*
X16764000Y-33909000D03*
X17043400Y-38303200D03*
X17627600Y-33909000D03*
X17653000Y-37668200D03*
D16*
X33262000Y-84900200D03*
X26162000Y-73914000D03*
D17*
X18643600Y-9652000D03*
X20345400Y-22199600D03*
X5080000Y-53594000D03*
X28702000Y-24130000D03*
X6477000Y-5334000D03*
X13993500Y-8532500D03*
D18*
X6981800Y-76000000D02*
X19000000Y-76000000D01*
X6096000Y-75114200D02*
X6981800Y-76000000D01*
X6096000Y-62915800D02*
X6096000Y-75114200D01*
X3022600Y-3073400D02*
X3022600Y-59842400D01*
X15494000Y-2286000D02*
X3810000Y-2286000D01*
X3810000Y-2286000D02*
X3022600Y-3073400D01*
X3022600Y-59842400D02*
X6096000Y-62915800D01*
X3200400Y-65176400D02*
X3200400Y-64058800D01*
D19*
X4470400Y-15773400D02*
X5588000Y-15773400D01*
D18*
X3200400Y-64211200D02*
X3327400Y-64084200D01*
X3200400Y-81711800D02*
X3200400Y-64211200D01*
X9144000Y-82473800D02*
X3962400Y-82473800D01*
X3962400Y-82473800D02*
X3200400Y-81711800D01*
D19*
X3886200Y-48183800D02*
X3886200Y-16357600D01*
X4470400Y-48768000D02*
X3886200Y-48183800D01*
X3886200Y-16357600D02*
X4470400Y-15773400D01*
X9194800Y-48768000D02*
X4470400Y-48768000D01*
X9752000Y-50723800D02*
X9752000Y-49325200D01*
X9752000Y-49325200D02*
X9194800Y-48768000D01*
D18*
X25095200Y-65684400D02*
X25933400Y-66522600D01*
X18745200Y-65684400D02*
X25095200Y-65684400D01*
X16637000Y-82296000D02*
X16764000Y-82296000D01*
D20*
X16637000Y-83312000D02*
X16637000Y-80010000D01*
X26822400Y-80010000D02*
X16637000Y-80010000D01*
X15748000Y-78740000D02*
X11176000Y-78740000D01*
X16637000Y-80010000D02*
X16637000Y-79629000D01*
X16637000Y-79629000D02*
X15748000Y-78740000D01*
D21*
X23215600Y-27330400D02*
X22961600Y-27076400D01*
X22961600Y-33477200D02*
X22961600Y-30302200D01*
X22956506Y-33522416D02*
X22961600Y-33477200D01*
X22941477Y-33565365D02*
X22956506Y-33522416D01*
X22961600Y-34290000D02*
X22956506Y-34244783D01*
X22961600Y-42367200D02*
X22961600Y-34290000D01*
X22529800Y-42799000D02*
X22961600Y-42367200D01*
X23215600Y-30048200D02*
X23215600Y-27330400D01*
X22202981Y-34010293D02*
X22178773Y-33971765D01*
X22885094Y-34131131D02*
X22846566Y-34106923D01*
X22846566Y-34106923D02*
X22803617Y-34091894D01*
X5918200Y-54787800D02*
X15214600Y-54787800D01*
X22163744Y-33838383D02*
X22178773Y-33795434D01*
X22917269Y-34163306D02*
X22885094Y-34131131D01*
X22803617Y-33675305D02*
X22846566Y-33660276D01*
X5689600Y-54559200D02*
X5918200Y-54787800D01*
X5080000Y-54559200D02*
X5689600Y-54559200D01*
X22803617Y-34091894D02*
X22758400Y-34086800D01*
X15697200Y-54305200D02*
X15697200Y-43459400D01*
X22956506Y-34244783D02*
X22941477Y-34201834D01*
X22758400Y-33680400D02*
X22803617Y-33675305D01*
X16357600Y-42799000D02*
X22529800Y-42799000D01*
X15214600Y-54787800D02*
X15697200Y-54305200D01*
X15697200Y-43459400D02*
X16357600Y-42799000D01*
X22758400Y-34086800D02*
X22361849Y-34086800D01*
X22361849Y-34086800D02*
X22316633Y-34081705D01*
X22273684Y-34066676D02*
X22235156Y-34042468D01*
X22178773Y-33971765D02*
X22163744Y-33928816D01*
X22961600Y-30302200D02*
X23215600Y-30048200D01*
X22316633Y-34081705D02*
X22273684Y-34066676D01*
X22917269Y-33603893D02*
X22941477Y-33565365D01*
X22235156Y-34042468D02*
X22202981Y-34010293D01*
X22163744Y-33928816D02*
X22158649Y-33883600D01*
X22158649Y-33883600D02*
X22163744Y-33838383D01*
X22178773Y-33795434D02*
X22202981Y-33756906D01*
X22202981Y-33756906D02*
X22235156Y-33724731D01*
X22361849Y-33680400D02*
X22758400Y-33680400D01*
X22846566Y-33660276D02*
X22885094Y-33636068D01*
X22235156Y-33724731D02*
X22273684Y-33700523D01*
X22941477Y-34201834D02*
X22917269Y-34163306D01*
X22316633Y-33685494D02*
X22361849Y-33680400D01*
X22273684Y-33700523D02*
X22316633Y-33685494D01*
X22961600Y-27076400D02*
X22225000Y-27076400D01*
X22885094Y-33636068D02*
X22917269Y-33603893D01*
X22936200Y-26466800D02*
X21945600Y-26466800D01*
X23368000Y-30480000D02*
X23622000Y-30226000D01*
X23368000Y-42545000D02*
X23368000Y-30480000D01*
X21945600Y-26466800D02*
X21844000Y-26568400D01*
X22707600Y-43205400D02*
X23368000Y-42545000D01*
X5715000Y-55372000D02*
X5892800Y-55194200D01*
X16535400Y-43205400D02*
X22707600Y-43205400D01*
X5892800Y-55194200D02*
X15392400Y-55194200D01*
X23622000Y-27152600D02*
X22936200Y-26466800D01*
X5080000Y-55372000D02*
X5715000Y-55372000D01*
X23622000Y-30226000D02*
X23622000Y-27152600D01*
X16103600Y-54483000D02*
X16103600Y-43637200D01*
X21844000Y-26568400D02*
X21564600Y-26568400D01*
X15392400Y-55194200D02*
X16103600Y-54483000D01*
X16103600Y-43637200D02*
X16535400Y-43205400D01*
X21920200Y-29337000D02*
X22072600Y-29489400D01*
X18415000Y-29337000D02*
X21920200Y-29337000D01*
X10274300Y-29540200D02*
X18211800Y-29540200D01*
X7543800Y-46050200D02*
X7772400Y-46050200D01*
X7772400Y-46050200D02*
X8229600Y-45593000D01*
X8229600Y-45593000D02*
X8229600Y-44907200D01*
X8229600Y-44907200D02*
X9144000Y-43992800D01*
X9144000Y-43992800D02*
X9144000Y-30670500D01*
X18211800Y-29540200D02*
X18415000Y-29337000D01*
X9144000Y-30670500D02*
X10274300Y-29540200D01*
X10452100Y-29946600D02*
X19177000Y-29946600D01*
X9550400Y-30848300D02*
X10452100Y-29946600D01*
X8636000Y-46050200D02*
X8636000Y-45085000D01*
X9550400Y-44170600D02*
X9550400Y-30848300D01*
X8636000Y-45085000D02*
X9550400Y-44170600D01*
X18821390Y-30556200D02*
X20015200Y-30556200D01*
X10852000Y-45065800D02*
X9956800Y-44170600D01*
X9956800Y-44170600D02*
X9956800Y-31026100D01*
X9956800Y-31026100D02*
X10629890Y-30353010D01*
X10852000Y-46050200D02*
X10852000Y-45065800D01*
X10629890Y-30353010D02*
X18618200Y-30353010D01*
X18618200Y-30353010D02*
X18821390Y-30556200D01*
X18795980Y-31165800D02*
X20701000Y-31165800D01*
X11734800Y-46050200D02*
X11277600Y-45593000D01*
X13052000Y-46050200D02*
X11734800Y-46050200D01*
X11277600Y-45593000D02*
X11277600Y-44907200D01*
X18389600Y-30759420D02*
X18795980Y-31165800D01*
X11277600Y-44907200D02*
X10363200Y-43992800D01*
X10363200Y-43992800D02*
X10363200Y-31203900D01*
X10807680Y-30759420D02*
X18389600Y-30759420D01*
X10363200Y-31203900D02*
X10807680Y-30759420D01*
X18846800Y-14960600D02*
X18643600Y-14757400D01*
X18846800Y-21285190D02*
X18846800Y-14960600D01*
X18541990Y-21590000D02*
X18846800Y-21285190D01*
X17297400Y-21590000D02*
X18541990Y-21590000D01*
X16383000Y-22199600D02*
X16687800Y-22199600D01*
X16687800Y-22199600D02*
X17297400Y-21590000D01*
X19253200Y-13919200D02*
X18796000Y-13462000D01*
X19253200Y-21717000D02*
X19253200Y-13919200D01*
X17551400Y-22199600D02*
X18770600Y-22199600D01*
X18770600Y-22199600D02*
X19253200Y-21717000D01*
X35280600Y-65303400D02*
X33578800Y-65303400D01*
X24663400Y-25577800D02*
X24663400Y-31089600D01*
X24231600Y-25146000D02*
X24663400Y-25577800D01*
X16205200Y-25146000D02*
X24231600Y-25146000D01*
X15798800Y-26441400D02*
X15798800Y-25552400D01*
X15798800Y-25552400D02*
X16205200Y-25146000D01*
X32966000Y-16716400D02*
X32966000Y-10087000D01*
X31242000Y-17094200D02*
X32588200Y-17094200D01*
X32588200Y-17094200D02*
X32966000Y-16716400D01*
X14700000Y-37229800D02*
X14700000Y-31921200D01*
X16433800Y-37668200D02*
X15138400Y-37668200D01*
X15138400Y-37668200D02*
X14700000Y-37229800D01*
X17043400Y-34188400D02*
X16764000Y-33909000D01*
X17043400Y-38303200D02*
X17043400Y-34188400D01*
X17653000Y-37668200D02*
X17449800Y-37465000D01*
X17449800Y-37465000D02*
X17449800Y-34086800D01*
X17449800Y-34086800D02*
X17627600Y-33909000D01*
D18*
X33274000Y-84888200D02*
X33262000Y-84900200D01*
X33274000Y-75184000D02*
X33274000Y-84888200D01*
D21*
X33274000Y-75184000D02*
X33274000Y-75158600D01*
D18*
X33274000Y-75158600D02*
X33274000Y-74599800D01*
X32588200Y-73914000D02*
X33274000Y-74599800D01*
X26162000Y-73914000D02*
X32588200Y-73914000D01*
D21*
X19913600Y-9575800D02*
X18719800Y-9575800D01*
X18719800Y-9575800D02*
X18643600Y-9652000D01*
X20345400Y-22199600D02*
X20345400Y-10007600D01*
X20345400Y-10007600D02*
X19913600Y-9575800D01*
X23774400Y-33604200D02*
X23774400Y-42722800D01*
X15570200Y-55600600D02*
X6070600Y-55600600D01*
X25806400Y-31572200D02*
X23774400Y-33604200D01*
X25806400Y-24561800D02*
X25806400Y-31572200D01*
X28702000Y-24130000D02*
X26238200Y-24130000D01*
X23774400Y-42722800D02*
X22885400Y-43611800D01*
X22885400Y-43611800D02*
X16992600Y-43611800D01*
X26238200Y-24130000D02*
X25806400Y-24561800D01*
X16510000Y-44094400D02*
X16510000Y-54660800D01*
X16510000Y-54660800D02*
X15570200Y-55600600D01*
X6070600Y-55600600D02*
X5638800Y-56032400D01*
X16992600Y-43611800D02*
X16510000Y-44094400D01*
X5638800Y-56032400D02*
X4876800Y-56032400D01*
X4876800Y-56032400D02*
X4470400Y-55626000D01*
X4470400Y-55626000D02*
X4470400Y-53949600D01*
X4826000Y-53594000D02*
X5080000Y-53594000D01*
X4470400Y-53949600D02*
X4826000Y-53594000D01*
X13462000Y-5080000D02*
X6731000Y-5080000D01*
X13993500Y-8532500D02*
X13993500Y-5611500D01*
X6731000Y-5080000D02*
X6477000Y-5334000D01*
X13993500Y-5611500D02*
X13462000Y-5080000D01*
X37619401Y-89619400D02*
X380600Y-89619400D01*
X380600Y-87974655D01*
X30206400Y-87974655D01*
X30206400Y-88133345D01*
X30237359Y-88288985D01*
X30298087Y-88435595D01*
X30386250Y-88567540D01*
X30498460Y-88679750D01*
X30630405Y-88767913D01*
X30777015Y-88828641D01*
X30932655Y-88859600D01*
X31091345Y-88859600D01*
X31246985Y-88828641D01*
X31393595Y-88767913D01*
X31525540Y-88679750D01*
X31637750Y-88567540D01*
X31725913Y-88435595D01*
X31786641Y-88288985D01*
X31817600Y-88133345D01*
X31817600Y-87974655D01*
X33206400Y-87974655D01*
X33206400Y-88133345D01*
X33237359Y-88288985D01*
X33298087Y-88435595D01*
X33386250Y-88567540D01*
X33498460Y-88679750D01*
X33630405Y-88767913D01*
X33777015Y-88828641D01*
X33932655Y-88859600D01*
X34091345Y-88859600D01*
X34246985Y-88828641D01*
X34393595Y-88767913D01*
X34525540Y-88679750D01*
X34637750Y-88567540D01*
X34725913Y-88435595D01*
X34786641Y-88288985D01*
X34817600Y-88133345D01*
X34817600Y-87974655D01*
X34786641Y-87819015D01*
X34725913Y-87672405D01*
X34637750Y-87540460D01*
X34525540Y-87428250D01*
X34393595Y-87340087D01*
X34246985Y-87279359D01*
X34091345Y-87248400D01*
X33932655Y-87248400D01*
X33777015Y-87279359D01*
X33630405Y-87340087D01*
X33498460Y-87428250D01*
X33386250Y-87540460D01*
X33298087Y-87672405D01*
X33237359Y-87819015D01*
X33206400Y-87974655D01*
X31817600Y-87974655D01*
X31786641Y-87819015D01*
X31725913Y-87672405D01*
X31637750Y-87540460D01*
X31525540Y-87428250D01*
X31393595Y-87340087D01*
X31246985Y-87279359D01*
X31091345Y-87248400D01*
X30932655Y-87248400D01*
X30777015Y-87279359D01*
X30630405Y-87340087D01*
X30498460Y-87428250D01*
X30386250Y-87540460D01*
X30298087Y-87672405D01*
X30237359Y-87819015D01*
X30206400Y-87974655D01*
X380600Y-87974655D01*
X380600Y-87190504D01*
X3866400Y-87190504D01*
X3866400Y-87329496D01*
X3893516Y-87465816D01*
X3946705Y-87594227D01*
X4023925Y-87709794D01*
X4122206Y-87808075D01*
X4237773Y-87885295D01*
X4366184Y-87938484D01*
X4502504Y-87965600D01*
X4641496Y-87965600D01*
X4777816Y-87938484D01*
X4906227Y-87885295D01*
X5021794Y-87808075D01*
X5120075Y-87709794D01*
X5197295Y-87594227D01*
X5250484Y-87465816D01*
X5277600Y-87329496D01*
X5277600Y-87190504D01*
X5250484Y-87054184D01*
X5197295Y-86925773D01*
X5120075Y-86810206D01*
X5021794Y-86711925D01*
X4906227Y-86634705D01*
X4777816Y-86581516D01*
X4641496Y-86554400D01*
X4502504Y-86554400D01*
X4366184Y-86581516D01*
X4237773Y-86634705D01*
X4122206Y-86711925D01*
X4023925Y-86810206D01*
X3946705Y-86925773D01*
X3893516Y-87054184D01*
X3866400Y-87190504D01*
X380600Y-87190504D01*
X380600Y-85390504D01*
X3866400Y-85390504D01*
X3866400Y-85529496D01*
X3893516Y-85665816D01*
X3946705Y-85794227D01*
X4023925Y-85909794D01*
X4122206Y-86008075D01*
X4237773Y-86085295D01*
X4366184Y-86138484D01*
X4502504Y-86165600D01*
X4641496Y-86165600D01*
X4777816Y-86138484D01*
X4906227Y-86085295D01*
X5021794Y-86008075D01*
X5120075Y-85909794D01*
X5197295Y-85794227D01*
X5250484Y-85665816D01*
X5277600Y-85529496D01*
X5277600Y-85390504D01*
X5250484Y-85254184D01*
X5197295Y-85125773D01*
X5183185Y-85104655D01*
X15994400Y-85104655D01*
X15994400Y-85263345D01*
X16025359Y-85418985D01*
X16086087Y-85565595D01*
X16174250Y-85697540D01*
X16286460Y-85809750D01*
X16418405Y-85897913D01*
X16565015Y-85958641D01*
X16720655Y-85989600D01*
X16879345Y-85989600D01*
X17034985Y-85958641D01*
X17181595Y-85897913D01*
X17313540Y-85809750D01*
X17425750Y-85697540D01*
X17513913Y-85565595D01*
X17574641Y-85418985D01*
X17605600Y-85263345D01*
X17605600Y-85104655D01*
X20394400Y-85104655D01*
X20394400Y-85263345D01*
X20425359Y-85418985D01*
X20486087Y-85565595D01*
X20574250Y-85697540D01*
X20686460Y-85809750D01*
X20818405Y-85897913D01*
X20965015Y-85958641D01*
X21120655Y-85989600D01*
X21279345Y-85989600D01*
X21434985Y-85958641D01*
X21581595Y-85897913D01*
X21713540Y-85809750D01*
X21825750Y-85697540D01*
X21913913Y-85565595D01*
X21974641Y-85418985D01*
X22005600Y-85263345D01*
X22005600Y-85104655D01*
X21974641Y-84949015D01*
X21913913Y-84802405D01*
X21825750Y-84670460D01*
X21713540Y-84558250D01*
X21581595Y-84470087D01*
X21434985Y-84409359D01*
X21279345Y-84378400D01*
X21120655Y-84378400D01*
X20965015Y-84409359D01*
X20818405Y-84470087D01*
X20686460Y-84558250D01*
X20574250Y-84670460D01*
X20486087Y-84802405D01*
X20425359Y-84949015D01*
X20394400Y-85104655D01*
X17605600Y-85104655D01*
X17574641Y-84949015D01*
X17513913Y-84802405D01*
X17425750Y-84670460D01*
X17313540Y-84558250D01*
X17181595Y-84470087D01*
X17034985Y-84409359D01*
X16879345Y-84378400D01*
X16720655Y-84378400D01*
X16565015Y-84409359D01*
X16418405Y-84470087D01*
X16286460Y-84558250D01*
X16174250Y-84670460D01*
X16086087Y-84802405D01*
X16025359Y-84949015D01*
X15994400Y-85104655D01*
X5183185Y-85104655D01*
X5120075Y-85010206D01*
X5021794Y-84911925D01*
X4906227Y-84834705D01*
X4777816Y-84781516D01*
X4641496Y-84754400D01*
X4502504Y-84754400D01*
X4366184Y-84781516D01*
X4237773Y-84834705D01*
X4122206Y-84911925D01*
X4023925Y-85010206D01*
X3946705Y-85125773D01*
X3893516Y-85254184D01*
X3866400Y-85390504D01*
X380600Y-85390504D01*
X380600Y-63983750D01*
X2438400Y-63983750D01*
X2438400Y-64133850D01*
X2467683Y-64281067D01*
X2525124Y-64419742D01*
X2608516Y-64544547D01*
X2641601Y-64577632D01*
X2641600Y-64657569D01*
X2608516Y-64690653D01*
X2525124Y-64815458D01*
X2467683Y-64954133D01*
X2438400Y-65101350D01*
X2438400Y-65251450D01*
X2467683Y-65398667D01*
X2525124Y-65537342D01*
X2608516Y-65662147D01*
X2641601Y-65695232D01*
X2641600Y-81684358D01*
X2638897Y-81711800D01*
X2641600Y-81739242D01*
X2641600Y-81739243D01*
X2649686Y-81821343D01*
X2681639Y-81926677D01*
X2733527Y-82023754D01*
X2803357Y-82108843D01*
X2824681Y-82126343D01*
X3547862Y-82849524D01*
X3565357Y-82870843D01*
X3586674Y-82888337D01*
X3650445Y-82940673D01*
X3747522Y-82992561D01*
X3852855Y-83024514D01*
X3962400Y-83035303D01*
X3989844Y-83032600D01*
X8625169Y-83032600D01*
X8658253Y-83065684D01*
X8783058Y-83149076D01*
X8921733Y-83206517D01*
X9068950Y-83235800D01*
X9219050Y-83235800D01*
X9366267Y-83206517D01*
X9504942Y-83149076D01*
X9629747Y-83065684D01*
X9735884Y-82959547D01*
X9819276Y-82834742D01*
X9876717Y-82696067D01*
X9906000Y-82548850D01*
X9906000Y-82398750D01*
X9876717Y-82251533D01*
X9819276Y-82112858D01*
X9735884Y-81988053D01*
X9629747Y-81881916D01*
X9504942Y-81798524D01*
X9366267Y-81741083D01*
X9219050Y-81711800D01*
X9068950Y-81711800D01*
X8921733Y-81741083D01*
X8783058Y-81798524D01*
X8658253Y-81881916D01*
X8625169Y-81915000D01*
X4193863Y-81915000D01*
X3759200Y-81480338D01*
X3759200Y-78740000D01*
X10206130Y-78740000D01*
X10224766Y-78929212D01*
X10279957Y-79111153D01*
X10369583Y-79278831D01*
X10490198Y-79425802D01*
X10637169Y-79546417D01*
X10804847Y-79636043D01*
X10986788Y-79691234D01*
X11128585Y-79705200D01*
X15348202Y-79705200D01*
X15668674Y-80025672D01*
X15671801Y-80057425D01*
X15671800Y-83359414D01*
X15685766Y-83501211D01*
X15740957Y-83683152D01*
X15830583Y-83850831D01*
X15951198Y-83997802D01*
X16098169Y-84118417D01*
X16265847Y-84208043D01*
X16447788Y-84263234D01*
X16637000Y-84281870D01*
X16826211Y-84263234D01*
X17008152Y-84208043D01*
X17175831Y-84118417D01*
X17322802Y-83997802D01*
X17443417Y-83850831D01*
X17533043Y-83683153D01*
X17588234Y-83501212D01*
X17602200Y-83359415D01*
X17602200Y-80975200D01*
X26869815Y-80975200D01*
X27011612Y-80961234D01*
X27193553Y-80906043D01*
X27361231Y-80816417D01*
X27508202Y-80695802D01*
X27628817Y-80548831D01*
X27718443Y-80381153D01*
X27773634Y-80199212D01*
X27792270Y-80010000D01*
X27773634Y-79820788D01*
X27718443Y-79638847D01*
X27628817Y-79471169D01*
X27508202Y-79324198D01*
X27361231Y-79203583D01*
X27193553Y-79113957D01*
X27011612Y-79058766D01*
X26869815Y-79044800D01*
X17406184Y-79044800D01*
X17322802Y-78943198D01*
X17285969Y-78912970D01*
X16464037Y-78091040D01*
X16433802Y-78054198D01*
X16286831Y-77933583D01*
X16119153Y-77843957D01*
X15937212Y-77788766D01*
X15795415Y-77774800D01*
X15795412Y-77774800D01*
X15748000Y-77770130D01*
X15700588Y-77774800D01*
X11128585Y-77774800D01*
X10986788Y-77788766D01*
X10804847Y-77843957D01*
X10637169Y-77933583D01*
X10490198Y-78054198D01*
X10369583Y-78201169D01*
X10279957Y-78368847D01*
X10224766Y-78550788D01*
X10206130Y-78740000D01*
X3759200Y-78740000D01*
X3759200Y-65695231D01*
X3792284Y-65662147D01*
X3875676Y-65537342D01*
X3933117Y-65398667D01*
X3962400Y-65251450D01*
X3962400Y-65101350D01*
X3933117Y-64954133D01*
X3875676Y-64815458D01*
X3792284Y-64690653D01*
X3759200Y-64657569D01*
X3759200Y-64577631D01*
X3792284Y-64544547D01*
X3875676Y-64419742D01*
X3933117Y-64281067D01*
X3962400Y-64133850D01*
X3962400Y-63983750D01*
X3933117Y-63836533D01*
X3875676Y-63697858D01*
X3792284Y-63573053D01*
X3686147Y-63466916D01*
X3561342Y-63383524D01*
X3422667Y-63326083D01*
X3275450Y-63296800D01*
X3125350Y-63296800D01*
X2978133Y-63326083D01*
X2839458Y-63383524D01*
X2714653Y-63466916D01*
X2608516Y-63573053D01*
X2525124Y-63697858D01*
X2467683Y-63836533D01*
X2438400Y-63983750D01*
X380600Y-63983750D01*
X380600Y-3073400D01*
X2461097Y-3073400D01*
X2463800Y-3100842D01*
X2463801Y-59814948D01*
X2461097Y-59842400D01*
X2471887Y-59951944D01*
X2503839Y-60057277D01*
X2503840Y-60057278D01*
X2555728Y-60154354D01*
X2625558Y-60239443D01*
X2646876Y-60256938D01*
X5537200Y-63147263D01*
X5537201Y-75086748D01*
X5534497Y-75114200D01*
X5545287Y-75223744D01*
X5577239Y-75329077D01*
X5600972Y-75373478D01*
X5629128Y-75426154D01*
X5698958Y-75511243D01*
X5720276Y-75528738D01*
X6567257Y-76375719D01*
X6584757Y-76397043D01*
X6669846Y-76466873D01*
X6766922Y-76518761D01*
X6872256Y-76550714D01*
X6954356Y-76558800D01*
X6954357Y-76558800D01*
X6981799Y-76561503D01*
X7009241Y-76558800D01*
X16742680Y-76558800D01*
X16742680Y-77350000D01*
X16749546Y-77419710D01*
X16769879Y-77486740D01*
X16802899Y-77548516D01*
X16847337Y-77602663D01*
X16901484Y-77647101D01*
X16963260Y-77680121D01*
X17030290Y-77700454D01*
X17100000Y-77707320D01*
X20900000Y-77707320D01*
X20969710Y-77700454D01*
X21036740Y-77680121D01*
X21098516Y-77647101D01*
X21152663Y-77602663D01*
X21197101Y-77548516D01*
X21230121Y-77486740D01*
X21250454Y-77419710D01*
X21257320Y-77350000D01*
X21257320Y-74650000D01*
X21250454Y-74580290D01*
X21230121Y-74513260D01*
X21197101Y-74451484D01*
X21152663Y-74397337D01*
X21098516Y-74352899D01*
X21036740Y-74319879D01*
X20969710Y-74299546D01*
X20900000Y-74292680D01*
X17100000Y-74292680D01*
X17030290Y-74299546D01*
X16963260Y-74319879D01*
X16901484Y-74352899D01*
X16847337Y-74397337D01*
X16802899Y-74451484D01*
X16769879Y-74513260D01*
X16749546Y-74580290D01*
X16742680Y-74650000D01*
X16742680Y-75441200D01*
X7213262Y-75441200D01*
X6654800Y-74882738D01*
X6654800Y-69342000D01*
X16408400Y-69342000D01*
X16408400Y-73914000D01*
X16410352Y-73933821D01*
X16416134Y-73952881D01*
X16425523Y-73970446D01*
X16438158Y-73985842D01*
X16453554Y-73998477D01*
X16471119Y-74007866D01*
X16490179Y-74013648D01*
X16510000Y-74015600D01*
X21590000Y-74015600D01*
X21609821Y-74013648D01*
X21628881Y-74007866D01*
X21646446Y-73998477D01*
X21661842Y-73985842D01*
X21674477Y-73970446D01*
X21683866Y-73952881D01*
X21689648Y-73933821D01*
X21691600Y-73914000D01*
X21691600Y-73838950D01*
X25400000Y-73838950D01*
X25400000Y-73989050D01*
X25429283Y-74136267D01*
X25486724Y-74274942D01*
X25570116Y-74399747D01*
X25676253Y-74505884D01*
X25801058Y-74589276D01*
X25939733Y-74646717D01*
X26086950Y-74676000D01*
X26237050Y-74676000D01*
X26384267Y-74646717D01*
X26522942Y-74589276D01*
X26647747Y-74505884D01*
X26680831Y-74472800D01*
X32356738Y-74472800D01*
X32715200Y-74831263D01*
X32715200Y-75156557D01*
X32715201Y-84369368D01*
X32670116Y-84414453D01*
X32586724Y-84539258D01*
X32529283Y-84677933D01*
X32500000Y-84825150D01*
X32500000Y-84975250D01*
X32529283Y-85122467D01*
X32586724Y-85261142D01*
X32670116Y-85385947D01*
X32776253Y-85492084D01*
X32901058Y-85575476D01*
X33039733Y-85632917D01*
X33186950Y-85662200D01*
X33337050Y-85662200D01*
X33484267Y-85632917D01*
X33622942Y-85575476D01*
X33747747Y-85492084D01*
X33853884Y-85385947D01*
X33937276Y-85261142D01*
X33994717Y-85122467D01*
X34024000Y-84975250D01*
X34024000Y-84825150D01*
X33994717Y-84677933D01*
X33937276Y-84539258D01*
X33853884Y-84414453D01*
X33832800Y-84393369D01*
X33832800Y-74627244D01*
X33835503Y-74599800D01*
X33824714Y-74490255D01*
X33792761Y-74384922D01*
X33740873Y-74287845D01*
X33688537Y-74224074D01*
X33671043Y-74202757D01*
X33649724Y-74185262D01*
X33002743Y-73538281D01*
X32985243Y-73516957D01*
X32900154Y-73447127D01*
X32803078Y-73395239D01*
X32697744Y-73363286D01*
X32615644Y-73355200D01*
X32615642Y-73355200D01*
X32588200Y-73352497D01*
X32560758Y-73355200D01*
X26680831Y-73355200D01*
X26647747Y-73322116D01*
X26522942Y-73238724D01*
X26384267Y-73181283D01*
X26237050Y-73152000D01*
X26086950Y-73152000D01*
X25939733Y-73181283D01*
X25801058Y-73238724D01*
X25676253Y-73322116D01*
X25570116Y-73428253D01*
X25486724Y-73553058D01*
X25429283Y-73691733D01*
X25400000Y-73838950D01*
X21691600Y-73838950D01*
X21691600Y-69342000D01*
X21689648Y-69322179D01*
X21683866Y-69303119D01*
X21674477Y-69285554D01*
X21661842Y-69270158D01*
X21646446Y-69257523D01*
X21628881Y-69248134D01*
X21609821Y-69242352D01*
X21590000Y-69240400D01*
X16510000Y-69240400D01*
X16490179Y-69242352D01*
X16471119Y-69248134D01*
X16453554Y-69257523D01*
X16438158Y-69270158D01*
X16425523Y-69285554D01*
X16416134Y-69303119D01*
X16410352Y-69322179D01*
X16408400Y-69342000D01*
X6654800Y-69342000D01*
X6654800Y-65609350D01*
X17983200Y-65609350D01*
X17983200Y-65759450D01*
X18012483Y-65906667D01*
X18069924Y-66045342D01*
X18153316Y-66170147D01*
X18259453Y-66276284D01*
X18384258Y-66359676D01*
X18522933Y-66417117D01*
X18670150Y-66446400D01*
X18820250Y-66446400D01*
X18967467Y-66417117D01*
X19106142Y-66359676D01*
X19230947Y-66276284D01*
X19264031Y-66243200D01*
X24863738Y-66243200D01*
X25171400Y-66550863D01*
X25171400Y-66623050D01*
X25200683Y-66770267D01*
X25258124Y-66908942D01*
X25341516Y-67033747D01*
X25447653Y-67139884D01*
X25572458Y-67223276D01*
X25711133Y-67280717D01*
X25858350Y-67310000D01*
X26008450Y-67310000D01*
X26155667Y-67280717D01*
X26294342Y-67223276D01*
X26419147Y-67139884D01*
X26525284Y-67033747D01*
X26608676Y-66908942D01*
X26666117Y-66770267D01*
X26695400Y-66623050D01*
X26695400Y-66472950D01*
X26666117Y-66325733D01*
X26608676Y-66187058D01*
X26525284Y-66062253D01*
X26419147Y-65956116D01*
X26294342Y-65872724D01*
X26155667Y-65815283D01*
X26008450Y-65786000D01*
X25987063Y-65786000D01*
X25509743Y-65308681D01*
X25492243Y-65287357D01*
X25432535Y-65238356D01*
X32918400Y-65238356D01*
X32918400Y-65368444D01*
X32943779Y-65496031D01*
X32993561Y-65616217D01*
X33065834Y-65724380D01*
X33157820Y-65816366D01*
X33265983Y-65888639D01*
X33386169Y-65938421D01*
X33513756Y-65963800D01*
X33643844Y-65963800D01*
X33771431Y-65938421D01*
X33891617Y-65888639D01*
X33999780Y-65816366D01*
X34055546Y-65760600D01*
X34803854Y-65760600D01*
X34859620Y-65816366D01*
X34967783Y-65888639D01*
X35087969Y-65938421D01*
X35215556Y-65963800D01*
X35345644Y-65963800D01*
X35473231Y-65938421D01*
X35593417Y-65888639D01*
X35701580Y-65816366D01*
X35793566Y-65724380D01*
X35865839Y-65616217D01*
X35915621Y-65496031D01*
X35941000Y-65368444D01*
X35941000Y-65238356D01*
X35915621Y-65110769D01*
X35865839Y-64990583D01*
X35793566Y-64882420D01*
X35701580Y-64790434D01*
X35593417Y-64718161D01*
X35473231Y-64668379D01*
X35345644Y-64643000D01*
X35215556Y-64643000D01*
X35087969Y-64668379D01*
X34967783Y-64718161D01*
X34859620Y-64790434D01*
X34803854Y-64846200D01*
X34055546Y-64846200D01*
X33999780Y-64790434D01*
X33891617Y-64718161D01*
X33771431Y-64668379D01*
X33643844Y-64643000D01*
X33513756Y-64643000D01*
X33386169Y-64668379D01*
X33265983Y-64718161D01*
X33157820Y-64790434D01*
X33065834Y-64882420D01*
X32993561Y-64990583D01*
X32943779Y-65110769D01*
X32918400Y-65238356D01*
X25432535Y-65238356D01*
X25407154Y-65217527D01*
X25310078Y-65165639D01*
X25204744Y-65133686D01*
X25122644Y-65125600D01*
X25122642Y-65125600D01*
X25095200Y-65122897D01*
X25067758Y-65125600D01*
X19264031Y-65125600D01*
X19230947Y-65092516D01*
X19106142Y-65009124D01*
X18967467Y-64951683D01*
X18820250Y-64922400D01*
X18670150Y-64922400D01*
X18522933Y-64951683D01*
X18384258Y-65009124D01*
X18259453Y-65092516D01*
X18153316Y-65198653D01*
X18069924Y-65323458D01*
X18012483Y-65462133D01*
X17983200Y-65609350D01*
X6654800Y-65609350D01*
X6654800Y-62943242D01*
X6657503Y-62915800D01*
X6654800Y-62888356D01*
X6646714Y-62806256D01*
X6614761Y-62700922D01*
X6562873Y-62603846D01*
X6493043Y-62518757D01*
X6471725Y-62501262D01*
X3581400Y-59610938D01*
X3581400Y-53949600D01*
X4010989Y-53949600D01*
X4013201Y-53972060D01*
X4013200Y-55603550D01*
X4010989Y-55626000D01*
X4013200Y-55648450D01*
X4013200Y-55648459D01*
X4019815Y-55715626D01*
X4045959Y-55801808D01*
X4088413Y-55881235D01*
X4145547Y-55950853D01*
X4162997Y-55965174D01*
X4537630Y-56339808D01*
X4551947Y-56357253D01*
X4569392Y-56371570D01*
X4621563Y-56414387D01*
X4664017Y-56437078D01*
X4700991Y-56456841D01*
X4787173Y-56482985D01*
X4854340Y-56489600D01*
X4854349Y-56489600D01*
X4876799Y-56491811D01*
X4899249Y-56489600D01*
X5616350Y-56489600D01*
X5638800Y-56491811D01*
X5661250Y-56489600D01*
X5661260Y-56489600D01*
X5728427Y-56482985D01*
X5814609Y-56456841D01*
X5894036Y-56414387D01*
X5963653Y-56357253D01*
X5977974Y-56339803D01*
X6259978Y-56057800D01*
X15547750Y-56057800D01*
X15570200Y-56060011D01*
X15592650Y-56057800D01*
X15592660Y-56057800D01*
X15659827Y-56051185D01*
X15746009Y-56025041D01*
X15825436Y-55982587D01*
X15895053Y-55925453D01*
X15909374Y-55908003D01*
X16817408Y-54999970D01*
X16834853Y-54985653D01*
X16870341Y-54942412D01*
X16891987Y-54916036D01*
X16909082Y-54884053D01*
X16934441Y-54836609D01*
X16960585Y-54750427D01*
X16967200Y-54683260D01*
X16967200Y-54683250D01*
X16969411Y-54660800D01*
X16967200Y-54638350D01*
X16967200Y-53252000D01*
X30796680Y-53252000D01*
X30796680Y-54952000D01*
X30803546Y-55021710D01*
X30823879Y-55088740D01*
X30856899Y-55150516D01*
X30901337Y-55204663D01*
X30955484Y-55249101D01*
X31017260Y-55282121D01*
X31084290Y-55302454D01*
X31154000Y-55309320D01*
X32854000Y-55309320D01*
X32923710Y-55302454D01*
X32990740Y-55282121D01*
X33052516Y-55249101D01*
X33106663Y-55204663D01*
X33151101Y-55150516D01*
X33184121Y-55088740D01*
X33204454Y-55021710D01*
X33211320Y-54952000D01*
X33211320Y-53983259D01*
X33338400Y-53983259D01*
X33338400Y-54220741D01*
X33384731Y-54453660D01*
X33475611Y-54673066D01*
X33607550Y-54870525D01*
X33775475Y-55038450D01*
X33972934Y-55170389D01*
X34192340Y-55261269D01*
X34425259Y-55307600D01*
X34662741Y-55307600D01*
X34895660Y-55261269D01*
X35115066Y-55170389D01*
X35312525Y-55038450D01*
X35480450Y-54870525D01*
X35612389Y-54673066D01*
X35703269Y-54453660D01*
X35749600Y-54220741D01*
X35749600Y-53983259D01*
X35703269Y-53750340D01*
X35612389Y-53530934D01*
X35480450Y-53333475D01*
X35312525Y-53165550D01*
X35115066Y-53033611D01*
X34895660Y-52942731D01*
X34662741Y-52896400D01*
X34425259Y-52896400D01*
X34192340Y-52942731D01*
X33972934Y-53033611D01*
X33775475Y-53165550D01*
X33607550Y-53333475D01*
X33475611Y-53530934D01*
X33384731Y-53750340D01*
X33338400Y-53983259D01*
X33211320Y-53983259D01*
X33211320Y-53252000D01*
X33204454Y-53182290D01*
X33184121Y-53115260D01*
X33151101Y-53053484D01*
X33106663Y-52999337D01*
X33052516Y-52954899D01*
X32990740Y-52921879D01*
X32923710Y-52901546D01*
X32854000Y-52894680D01*
X31154000Y-52894680D01*
X31084290Y-52901546D01*
X31017260Y-52921879D01*
X30955484Y-52954899D01*
X30901337Y-52999337D01*
X30856899Y-53053484D01*
X30823879Y-53115260D01*
X30803546Y-53182290D01*
X30796680Y-53252000D01*
X16967200Y-53252000D01*
X16967200Y-44283777D01*
X17181978Y-44069000D01*
X22862950Y-44069000D01*
X22885400Y-44071211D01*
X22907850Y-44069000D01*
X22907860Y-44069000D01*
X22975027Y-44062385D01*
X23061209Y-44036241D01*
X23140636Y-43993787D01*
X23210253Y-43936653D01*
X23224574Y-43919203D01*
X24081808Y-43061970D01*
X24099253Y-43047653D01*
X24134741Y-43004412D01*
X24156387Y-42978036D01*
X24198840Y-42898610D01*
X24198841Y-42898609D01*
X24224985Y-42812427D01*
X24231600Y-42745260D01*
X24231600Y-42745250D01*
X24233811Y-42722800D01*
X24231600Y-42700350D01*
X24231600Y-33793577D01*
X26113808Y-31911370D01*
X26131253Y-31897053D01*
X26188387Y-31827436D01*
X26230841Y-31748009D01*
X26256985Y-31661827D01*
X26263600Y-31594660D01*
X26263600Y-31594650D01*
X26265811Y-31572200D01*
X26263600Y-31549750D01*
X26263600Y-24751177D01*
X26427578Y-24587200D01*
X28225254Y-24587200D01*
X28281020Y-24642966D01*
X28389183Y-24715239D01*
X28509369Y-24765021D01*
X28636956Y-24790400D01*
X28767044Y-24790400D01*
X28894631Y-24765021D01*
X29014817Y-24715239D01*
X29122980Y-24642966D01*
X29214966Y-24550980D01*
X29287239Y-24442817D01*
X29337021Y-24322631D01*
X29362400Y-24195044D01*
X29362400Y-24064956D01*
X29337021Y-23937369D01*
X29287239Y-23817183D01*
X29214966Y-23709020D01*
X29122980Y-23617034D01*
X29014817Y-23544761D01*
X28894631Y-23494979D01*
X28767044Y-23469600D01*
X28636956Y-23469600D01*
X28509369Y-23494979D01*
X28389183Y-23544761D01*
X28281020Y-23617034D01*
X28225254Y-23672800D01*
X26260649Y-23672800D01*
X26238199Y-23670589D01*
X26215749Y-23672800D01*
X26215740Y-23672800D01*
X26148573Y-23679415D01*
X26062391Y-23705559D01*
X26025417Y-23725322D01*
X25982963Y-23748013D01*
X25930792Y-23790830D01*
X25913347Y-23805147D01*
X25899030Y-23822592D01*
X25498997Y-24222626D01*
X25481547Y-24236947D01*
X25424413Y-24306565D01*
X25381959Y-24385992D01*
X25355815Y-24472174D01*
X25349200Y-24539341D01*
X25349200Y-24539350D01*
X25346989Y-24561800D01*
X25349200Y-24584250D01*
X25349201Y-31382821D01*
X23825200Y-32906823D01*
X23825200Y-30669377D01*
X23929404Y-30565173D01*
X23946853Y-30550853D01*
X24003987Y-30481236D01*
X24046441Y-30401809D01*
X24072585Y-30315627D01*
X24079200Y-30248460D01*
X24079200Y-30248451D01*
X24081411Y-30226001D01*
X24079200Y-30203551D01*
X24079200Y-27175050D01*
X24081411Y-27152600D01*
X24079200Y-27130150D01*
X24079200Y-27130140D01*
X24072585Y-27062973D01*
X24050260Y-26989380D01*
X24046441Y-26976790D01*
X24003987Y-26897364D01*
X23961171Y-26845192D01*
X23961165Y-26845186D01*
X23946853Y-26827747D01*
X23929413Y-26813434D01*
X23275374Y-26159397D01*
X23261053Y-26141947D01*
X23191436Y-26084813D01*
X23112009Y-26042359D01*
X23025827Y-26016215D01*
X22958660Y-26009600D01*
X22958650Y-26009600D01*
X22936200Y-26007389D01*
X22913750Y-26009600D01*
X21968049Y-26009600D01*
X21945599Y-26007389D01*
X21923149Y-26009600D01*
X21923140Y-26009600D01*
X21917776Y-26010128D01*
X21877417Y-25983161D01*
X21757231Y-25933379D01*
X21629644Y-25908000D01*
X21499556Y-25908000D01*
X21371969Y-25933379D01*
X21251783Y-25983161D01*
X21143620Y-26055434D01*
X21051634Y-26147420D01*
X20979361Y-26255583D01*
X20929579Y-26375769D01*
X20904200Y-26503356D01*
X20904200Y-26633444D01*
X20929579Y-26761031D01*
X20979361Y-26881217D01*
X21051634Y-26989380D01*
X21143620Y-27081366D01*
X21251783Y-27153639D01*
X21371969Y-27203421D01*
X21499556Y-27228800D01*
X21581976Y-27228800D01*
X21589979Y-27269031D01*
X21639761Y-27389217D01*
X21712034Y-27497380D01*
X21804020Y-27589366D01*
X21912183Y-27661639D01*
X22032369Y-27711421D01*
X22159956Y-27736800D01*
X22290044Y-27736800D01*
X22417631Y-27711421D01*
X22537817Y-27661639D01*
X22645980Y-27589366D01*
X22701746Y-27533600D01*
X22758401Y-27533600D01*
X22758400Y-29858823D01*
X22654193Y-29963030D01*
X22636748Y-29977347D01*
X22622431Y-29994792D01*
X22622430Y-29994793D01*
X22579613Y-30046965D01*
X22548265Y-30105615D01*
X22537160Y-30126391D01*
X22511467Y-30211088D01*
X22511016Y-30212574D01*
X22502189Y-30302200D01*
X22504401Y-30324660D01*
X22504400Y-33223200D01*
X22403647Y-33223200D01*
X22400469Y-33222614D01*
X22358665Y-33223200D01*
X22339389Y-33223200D01*
X22336190Y-33223515D01*
X22332983Y-33223560D01*
X22313875Y-33225713D01*
X22273218Y-33229717D01*
X22252408Y-33230593D01*
X22214873Y-33239716D01*
X22177126Y-33247776D01*
X22150496Y-33259247D01*
X22137815Y-33263684D01*
X22109854Y-33271316D01*
X22075302Y-33288556D01*
X22040264Y-33304828D01*
X22016860Y-33321934D01*
X22005494Y-33329075D01*
X21979920Y-33342744D01*
X21950078Y-33367235D01*
X21919546Y-33390890D01*
X21900524Y-33412786D01*
X21891036Y-33422274D01*
X21869140Y-33441296D01*
X21845479Y-33471836D01*
X21820994Y-33501671D01*
X21807327Y-33527240D01*
X21800185Y-33538607D01*
X21783078Y-33562014D01*
X21766806Y-33597052D01*
X21749566Y-33631604D01*
X21741934Y-33659565D01*
X21737497Y-33672244D01*
X21726029Y-33698868D01*
X21717964Y-33736633D01*
X21708844Y-33774157D01*
X21707624Y-33803122D01*
X21706120Y-33816472D01*
X21700862Y-33844990D01*
X21701404Y-33883601D01*
X21700862Y-33922211D01*
X21706121Y-33950735D01*
X21707624Y-33964071D01*
X21708844Y-33993042D01*
X21717967Y-34030578D01*
X21726029Y-34068332D01*
X21737499Y-34094960D01*
X21741934Y-34107634D01*
X21749566Y-34135595D01*
X21766806Y-34170147D01*
X21783078Y-34205185D01*
X21800185Y-34228592D01*
X21807327Y-34239959D01*
X21820994Y-34265528D01*
X21845479Y-34295363D01*
X21869140Y-34325903D01*
X21891036Y-34344925D01*
X21900524Y-34354413D01*
X21919546Y-34376309D01*
X21950078Y-34399964D01*
X21979920Y-34424455D01*
X22005494Y-34438124D01*
X22016860Y-34445265D01*
X22040264Y-34462371D01*
X22075302Y-34478643D01*
X22109854Y-34495883D01*
X22137815Y-34503515D01*
X22150493Y-34507951D01*
X22177117Y-34519420D01*
X22214860Y-34527479D01*
X22252408Y-34536606D01*
X22273200Y-34537481D01*
X22313896Y-34541489D01*
X22332973Y-34543639D01*
X22336181Y-34543684D01*
X22339389Y-34544000D01*
X22358671Y-34544000D01*
X22400458Y-34544587D01*
X22403642Y-34544000D01*
X22504401Y-34544000D01*
X22504400Y-42177822D01*
X22340423Y-42341800D01*
X16380050Y-42341800D01*
X16357600Y-42339589D01*
X16335150Y-42341800D01*
X16335140Y-42341800D01*
X16267973Y-42348415D01*
X16206046Y-42367201D01*
X16181790Y-42374559D01*
X16102364Y-42417013D01*
X16050192Y-42459829D01*
X16050186Y-42459835D01*
X16032747Y-42474147D01*
X16018434Y-42491587D01*
X15389792Y-43120231D01*
X15372348Y-43134547D01*
X15358031Y-43151992D01*
X15358030Y-43151993D01*
X15315213Y-43204165D01*
X15272760Y-43283591D01*
X15246616Y-43369774D01*
X15237789Y-43459400D01*
X15240001Y-43481860D01*
X15240000Y-54115822D01*
X15025223Y-54330600D01*
X6107577Y-54330600D01*
X6028774Y-54251797D01*
X6014453Y-54234347D01*
X5944836Y-54177213D01*
X5865409Y-54134759D01*
X5779227Y-54108615D01*
X5712060Y-54102000D01*
X5712050Y-54102000D01*
X5689600Y-54099789D01*
X5667150Y-54102000D01*
X5556746Y-54102000D01*
X5531346Y-54076600D01*
X5592966Y-54014980D01*
X5665239Y-53906817D01*
X5715021Y-53786631D01*
X5740400Y-53659044D01*
X5740400Y-53528956D01*
X5715021Y-53401369D01*
X5665239Y-53281183D01*
X5592966Y-53173020D01*
X5500980Y-53081034D01*
X5392817Y-53008761D01*
X5272631Y-52958979D01*
X5145044Y-52933600D01*
X5014956Y-52933600D01*
X4887369Y-52958979D01*
X4767183Y-53008761D01*
X4659020Y-53081034D01*
X4567034Y-53173020D01*
X4504814Y-53266137D01*
X4501147Y-53269147D01*
X4486830Y-53286592D01*
X4162992Y-53610431D01*
X4145548Y-53624747D01*
X4131231Y-53642192D01*
X4131230Y-53642193D01*
X4088413Y-53694365D01*
X4045960Y-53773791D01*
X4019816Y-53859974D01*
X4010989Y-53949600D01*
X3581400Y-53949600D01*
X3581400Y-48956630D01*
X3905116Y-49280346D01*
X3928978Y-49309422D01*
X4002619Y-49369857D01*
X4045007Y-49404645D01*
X4115764Y-49442465D01*
X4177385Y-49475402D01*
X4321022Y-49518974D01*
X4432974Y-49530000D01*
X4432977Y-49530000D01*
X4470400Y-49533686D01*
X4507823Y-49530000D01*
X8879170Y-49530000D01*
X8990000Y-49640831D01*
X8990000Y-49705050D01*
X8990001Y-49705054D01*
X8990000Y-50648750D01*
X8990000Y-50798850D01*
X8997340Y-50835751D01*
X9001026Y-50873177D01*
X9011943Y-50909164D01*
X9019283Y-50946067D01*
X9033682Y-50980830D01*
X9044598Y-51016814D01*
X9062323Y-51049976D01*
X9076724Y-51084742D01*
X9097630Y-51116031D01*
X9115355Y-51149191D01*
X9139209Y-51178258D01*
X9160116Y-51209547D01*
X9186722Y-51236153D01*
X9210578Y-51265222D01*
X9239648Y-51289079D01*
X9266253Y-51315684D01*
X9297538Y-51336588D01*
X9326608Y-51360445D01*
X9359773Y-51378172D01*
X9391058Y-51399076D01*
X9425820Y-51413475D01*
X9458985Y-51431202D01*
X9494972Y-51442119D01*
X9529733Y-51456517D01*
X9566633Y-51463857D01*
X9602622Y-51474774D01*
X9640050Y-51478460D01*
X9676950Y-51485800D01*
X9714574Y-51485800D01*
X9752000Y-51489486D01*
X9789425Y-51485800D01*
X9827050Y-51485800D01*
X9863951Y-51478460D01*
X9901377Y-51474774D01*
X9937364Y-51463857D01*
X9974267Y-51456517D01*
X10009030Y-51442118D01*
X10045014Y-51431202D01*
X10078176Y-51413477D01*
X10112942Y-51399076D01*
X10144231Y-51378170D01*
X10177391Y-51360445D01*
X10206458Y-51336591D01*
X10237747Y-51315684D01*
X10264353Y-51289078D01*
X10293422Y-51265222D01*
X10317279Y-51236152D01*
X10343884Y-51209547D01*
X10364788Y-51178262D01*
X10388645Y-51149192D01*
X10406372Y-51116027D01*
X10427276Y-51084742D01*
X10441675Y-51049980D01*
X10459402Y-51016815D01*
X10470319Y-50980828D01*
X10484717Y-50946067D01*
X10492057Y-50909167D01*
X10502974Y-50873178D01*
X10506660Y-50835750D01*
X10514000Y-50798850D01*
X10514000Y-49362623D01*
X10517686Y-49325200D01*
X10513269Y-49280351D01*
X10502974Y-49175822D01*
X10459402Y-49032185D01*
X10417998Y-48954724D01*
X10388645Y-48899807D01*
X10317279Y-48812848D01*
X10293422Y-48783778D01*
X10264351Y-48759920D01*
X9760083Y-48255653D01*
X9736222Y-48226578D01*
X9620192Y-48131355D01*
X9487815Y-48060598D01*
X9344178Y-48017026D01*
X9232226Y-48006000D01*
X9232223Y-48006000D01*
X9194800Y-48002314D01*
X9157377Y-48006000D01*
X4786030Y-48006000D01*
X4648200Y-47868170D01*
X4648200Y-45985156D01*
X6883400Y-45985156D01*
X6883400Y-46115244D01*
X6908779Y-46242831D01*
X6958561Y-46363017D01*
X7030834Y-46471180D01*
X7122820Y-46563166D01*
X7230983Y-46635439D01*
X7351169Y-46685221D01*
X7478756Y-46710600D01*
X7608844Y-46710600D01*
X7736431Y-46685221D01*
X7856617Y-46635439D01*
X7964780Y-46563166D01*
X8056766Y-46471180D01*
X8089900Y-46421592D01*
X8123034Y-46471180D01*
X8215020Y-46563166D01*
X8323183Y-46635439D01*
X8443369Y-46685221D01*
X8570956Y-46710600D01*
X8701044Y-46710600D01*
X8828631Y-46685221D01*
X8948817Y-46635439D01*
X9056980Y-46563166D01*
X9148966Y-46471180D01*
X9221239Y-46363017D01*
X9271021Y-46242831D01*
X9296400Y-46115244D01*
X9296400Y-45985156D01*
X9271021Y-45857569D01*
X9221239Y-45737383D01*
X9148966Y-45629220D01*
X9093200Y-45573454D01*
X9093200Y-45274377D01*
X9753600Y-44613978D01*
X10394801Y-45255179D01*
X10394800Y-45573454D01*
X10339034Y-45629220D01*
X10266761Y-45737383D01*
X10216979Y-45857569D01*
X10191600Y-45985156D01*
X10191600Y-46115244D01*
X10216979Y-46242831D01*
X10266761Y-46363017D01*
X10339034Y-46471180D01*
X10431020Y-46563166D01*
X10539183Y-46635439D01*
X10659369Y-46685221D01*
X10786956Y-46710600D01*
X10917044Y-46710600D01*
X11044631Y-46685221D01*
X11164817Y-46635439D01*
X11272980Y-46563166D01*
X11364966Y-46471180D01*
X11422379Y-46385256D01*
X11427392Y-46389370D01*
X11479563Y-46432187D01*
X11522017Y-46454878D01*
X11558991Y-46474641D01*
X11645173Y-46500785D01*
X11712340Y-46507400D01*
X11712349Y-46507400D01*
X11734799Y-46509611D01*
X11757249Y-46507400D01*
X12575254Y-46507400D01*
X12631020Y-46563166D01*
X12739183Y-46635439D01*
X12859369Y-46685221D01*
X12986956Y-46710600D01*
X13117044Y-46710600D01*
X13244631Y-46685221D01*
X13364817Y-46635439D01*
X13472980Y-46563166D01*
X13564966Y-46471180D01*
X13637239Y-46363017D01*
X13687021Y-46242831D01*
X13712400Y-46115244D01*
X13712400Y-45985156D01*
X13687021Y-45857569D01*
X13637239Y-45737383D01*
X13564966Y-45629220D01*
X13472980Y-45537234D01*
X13364817Y-45464961D01*
X13244631Y-45415179D01*
X13117044Y-45389800D01*
X12986956Y-45389800D01*
X12859369Y-45415179D01*
X12739183Y-45464961D01*
X12631020Y-45537234D01*
X12575254Y-45593000D01*
X11924178Y-45593000D01*
X11734800Y-45403623D01*
X11734800Y-44929650D01*
X11737011Y-44907200D01*
X11734800Y-44884750D01*
X11734800Y-44884740D01*
X11728185Y-44817573D01*
X11702041Y-44731391D01*
X11659587Y-44651964D01*
X11641571Y-44630012D01*
X11616770Y-44599792D01*
X11602453Y-44582347D01*
X11585008Y-44568030D01*
X10820400Y-43803423D01*
X10820400Y-31856156D01*
X14039600Y-31856156D01*
X14039600Y-31986244D01*
X14064979Y-32113831D01*
X14114761Y-32234017D01*
X14187034Y-32342180D01*
X14242801Y-32397947D01*
X14242800Y-37207350D01*
X14240589Y-37229800D01*
X14242800Y-37252250D01*
X14242800Y-37252259D01*
X14249415Y-37319426D01*
X14275559Y-37405608D01*
X14318013Y-37485035D01*
X14375147Y-37554653D01*
X14392597Y-37568974D01*
X14799230Y-37975608D01*
X14813547Y-37993053D01*
X14830992Y-38007370D01*
X14883163Y-38050187D01*
X14925617Y-38072878D01*
X14962591Y-38092641D01*
X15048773Y-38118785D01*
X15115940Y-38125400D01*
X15115949Y-38125400D01*
X15138399Y-38127611D01*
X15160849Y-38125400D01*
X15957054Y-38125400D01*
X16012820Y-38181166D01*
X16120983Y-38253439D01*
X16241169Y-38303221D01*
X16368756Y-38328600D01*
X16383000Y-38328600D01*
X16383000Y-38368244D01*
X16408379Y-38495831D01*
X16458161Y-38616017D01*
X16530434Y-38724180D01*
X16622420Y-38816166D01*
X16730583Y-38888439D01*
X16850769Y-38938221D01*
X16978356Y-38963600D01*
X17108444Y-38963600D01*
X17236031Y-38938221D01*
X17356217Y-38888439D01*
X17464380Y-38816166D01*
X17556366Y-38724180D01*
X17628639Y-38616017D01*
X17678421Y-38495831D01*
X17703800Y-38368244D01*
X17703800Y-38328600D01*
X17718044Y-38328600D01*
X17845631Y-38303221D01*
X17965817Y-38253439D01*
X18073980Y-38181166D01*
X18165966Y-38089180D01*
X18238239Y-37981017D01*
X18288021Y-37860831D01*
X18313400Y-37733244D01*
X18313400Y-37603156D01*
X18288021Y-37475569D01*
X18238239Y-37355383D01*
X18165966Y-37247220D01*
X18073980Y-37155234D01*
X17965817Y-37082961D01*
X17907000Y-37058599D01*
X17907000Y-34508081D01*
X17940417Y-34494239D01*
X18048580Y-34421966D01*
X18140566Y-34329980D01*
X18212839Y-34221817D01*
X18262621Y-34101631D01*
X18288000Y-33974044D01*
X18288000Y-33843956D01*
X18262621Y-33716369D01*
X18212839Y-33596183D01*
X18140566Y-33488020D01*
X18048580Y-33396034D01*
X17940417Y-33323761D01*
X17820231Y-33273979D01*
X17692644Y-33248600D01*
X17562556Y-33248600D01*
X17434969Y-33273979D01*
X17314783Y-33323761D01*
X17206620Y-33396034D01*
X17195800Y-33406854D01*
X17184980Y-33396034D01*
X17076817Y-33323761D01*
X16956631Y-33273979D01*
X16829044Y-33248600D01*
X16698956Y-33248600D01*
X16571369Y-33273979D01*
X16451183Y-33323761D01*
X16343020Y-33396034D01*
X16251034Y-33488020D01*
X16178761Y-33596183D01*
X16128979Y-33716369D01*
X16103600Y-33843956D01*
X16103600Y-33974044D01*
X16128979Y-34101631D01*
X16178761Y-34221817D01*
X16251034Y-34329980D01*
X16343020Y-34421966D01*
X16451183Y-34494239D01*
X16571369Y-34544021D01*
X16586201Y-34546971D01*
X16586200Y-37025177D01*
X16498844Y-37007800D01*
X16368756Y-37007800D01*
X16241169Y-37033179D01*
X16120983Y-37082961D01*
X16012820Y-37155234D01*
X15957054Y-37211000D01*
X15327778Y-37211000D01*
X15157200Y-37040423D01*
X15157200Y-32397946D01*
X15212966Y-32342180D01*
X15285239Y-32234017D01*
X15335021Y-32113831D01*
X15360400Y-31986244D01*
X15360400Y-31856156D01*
X15335021Y-31728569D01*
X15285239Y-31608383D01*
X15212966Y-31500220D01*
X15120980Y-31408234D01*
X15012817Y-31335961D01*
X14892631Y-31286179D01*
X14765044Y-31260800D01*
X14634956Y-31260800D01*
X14507369Y-31286179D01*
X14387183Y-31335961D01*
X14279020Y-31408234D01*
X14187034Y-31500220D01*
X14114761Y-31608383D01*
X14064979Y-31728569D01*
X14039600Y-31856156D01*
X10820400Y-31856156D01*
X10820400Y-31393278D01*
X10997058Y-31216620D01*
X18200223Y-31216620D01*
X18456810Y-31473208D01*
X18471127Y-31490653D01*
X18540744Y-31547787D01*
X18620171Y-31590241D01*
X18706353Y-31616385D01*
X18773520Y-31623000D01*
X18773529Y-31623000D01*
X18795979Y-31625211D01*
X18818429Y-31623000D01*
X20224254Y-31623000D01*
X20280020Y-31678766D01*
X20388183Y-31751039D01*
X20508369Y-31800821D01*
X20635956Y-31826200D01*
X20766044Y-31826200D01*
X20893631Y-31800821D01*
X21013817Y-31751039D01*
X21121980Y-31678766D01*
X21213966Y-31586780D01*
X21286239Y-31478617D01*
X21336021Y-31358431D01*
X21361400Y-31230844D01*
X21361400Y-31100756D01*
X21336021Y-30973169D01*
X21286239Y-30852983D01*
X21213966Y-30744820D01*
X21121980Y-30652834D01*
X21013817Y-30580561D01*
X20893631Y-30530779D01*
X20766044Y-30505400D01*
X20675600Y-30505400D01*
X20675600Y-30491156D01*
X20650221Y-30363569D01*
X20600439Y-30243383D01*
X20528166Y-30135220D01*
X20436180Y-30043234D01*
X20328017Y-29970961D01*
X20207831Y-29921179D01*
X20080244Y-29895800D01*
X19950156Y-29895800D01*
X19837400Y-29918229D01*
X19837400Y-29881556D01*
X19820024Y-29794200D01*
X21484040Y-29794200D01*
X21487361Y-29802217D01*
X21559634Y-29910380D01*
X21651620Y-30002366D01*
X21759783Y-30074639D01*
X21879969Y-30124421D01*
X22007556Y-30149800D01*
X22137644Y-30149800D01*
X22265231Y-30124421D01*
X22385417Y-30074639D01*
X22493580Y-30002366D01*
X22585566Y-29910380D01*
X22657839Y-29802217D01*
X22707621Y-29682031D01*
X22733000Y-29554444D01*
X22733000Y-29424356D01*
X22707621Y-29296769D01*
X22657839Y-29176583D01*
X22585566Y-29068420D01*
X22493580Y-28976434D01*
X22385417Y-28904161D01*
X22265231Y-28854379D01*
X22137644Y-28829000D01*
X22007556Y-28829000D01*
X21879969Y-28854379D01*
X21818596Y-28879800D01*
X18437449Y-28879800D01*
X18414999Y-28877589D01*
X18392549Y-28879800D01*
X18392540Y-28879800D01*
X18325373Y-28886415D01*
X18239191Y-28912559D01*
X18159764Y-28955013D01*
X18090147Y-29012147D01*
X18075826Y-29029597D01*
X18022423Y-29083000D01*
X10296750Y-29083000D01*
X10274300Y-29080789D01*
X10251850Y-29083000D01*
X10251840Y-29083000D01*
X10184673Y-29089615D01*
X10118549Y-29109674D01*
X10098490Y-29115759D01*
X10019064Y-29158213D01*
X9966892Y-29201029D01*
X9966886Y-29201035D01*
X9949447Y-29215347D01*
X9935135Y-29232786D01*
X8836592Y-30331331D01*
X8819148Y-30345647D01*
X8804831Y-30363092D01*
X8804830Y-30363093D01*
X8762013Y-30415265D01*
X8727412Y-30480000D01*
X8719560Y-30494691D01*
X8695042Y-30575515D01*
X8693416Y-30580874D01*
X8684589Y-30670500D01*
X8686801Y-30692960D01*
X8686800Y-43803422D01*
X7922192Y-44568030D01*
X7904748Y-44582347D01*
X7890431Y-44599792D01*
X7890430Y-44599793D01*
X7847613Y-44651965D01*
X7820328Y-44703013D01*
X7805160Y-44731391D01*
X7781143Y-44810564D01*
X7779016Y-44817574D01*
X7770189Y-44907200D01*
X7772401Y-44929659D01*
X7772400Y-45403622D01*
X7753693Y-45422329D01*
X7736431Y-45415179D01*
X7608844Y-45389800D01*
X7478756Y-45389800D01*
X7351169Y-45415179D01*
X7230983Y-45464961D01*
X7122820Y-45537234D01*
X7030834Y-45629220D01*
X6958561Y-45737383D01*
X6908779Y-45857569D01*
X6883400Y-45985156D01*
X4648200Y-45985156D01*
X4648200Y-26376356D01*
X15138400Y-26376356D01*
X15138400Y-26506444D01*
X15163779Y-26634031D01*
X15213561Y-26754217D01*
X15285834Y-26862380D01*
X15377820Y-26954366D01*
X15485983Y-27026639D01*
X15606169Y-27076421D01*
X15733756Y-27101800D01*
X15863844Y-27101800D01*
X15991431Y-27076421D01*
X16111617Y-27026639D01*
X16219780Y-26954366D01*
X16311766Y-26862380D01*
X16384039Y-26754217D01*
X16433821Y-26634031D01*
X16459200Y-26506444D01*
X16459200Y-26376356D01*
X16433821Y-26248769D01*
X16384039Y-26128583D01*
X16311766Y-26020420D01*
X16256000Y-25964654D01*
X16256000Y-25741777D01*
X16394578Y-25603200D01*
X24042223Y-25603200D01*
X24206200Y-25767178D01*
X24206201Y-30612853D01*
X24150434Y-30668620D01*
X24078161Y-30776783D01*
X24028379Y-30896969D01*
X24003000Y-31024556D01*
X24003000Y-31154644D01*
X24028379Y-31282231D01*
X24078161Y-31402417D01*
X24150434Y-31510580D01*
X24242420Y-31602566D01*
X24350583Y-31674839D01*
X24470769Y-31724621D01*
X24598356Y-31750000D01*
X24728444Y-31750000D01*
X24856031Y-31724621D01*
X24976217Y-31674839D01*
X25084380Y-31602566D01*
X25176366Y-31510580D01*
X25248639Y-31402417D01*
X25298421Y-31282231D01*
X25323800Y-31154644D01*
X25323800Y-31024556D01*
X25298421Y-30896969D01*
X25248639Y-30776783D01*
X25176366Y-30668620D01*
X25120600Y-30612854D01*
X25120600Y-25600249D01*
X25122811Y-25577799D01*
X25120600Y-25555349D01*
X25120600Y-25555340D01*
X25113985Y-25488173D01*
X25087841Y-25401991D01*
X25045388Y-25322565D01*
X25045387Y-25322563D01*
X25002570Y-25270392D01*
X24988253Y-25252947D01*
X24970809Y-25238631D01*
X24570774Y-24838597D01*
X24556453Y-24821147D01*
X24486836Y-24764013D01*
X24407409Y-24721559D01*
X24321227Y-24695415D01*
X24254060Y-24688800D01*
X24254050Y-24688800D01*
X24231600Y-24686589D01*
X24209150Y-24688800D01*
X16227649Y-24688800D01*
X16205199Y-24686589D01*
X16182749Y-24688800D01*
X16182740Y-24688800D01*
X16115573Y-24695415D01*
X16029391Y-24721559D01*
X15999363Y-24737609D01*
X15949963Y-24764013D01*
X15897792Y-24806830D01*
X15880347Y-24821147D01*
X15866030Y-24838592D01*
X15491392Y-25213231D01*
X15473948Y-25227547D01*
X15459631Y-25244992D01*
X15459630Y-25244993D01*
X15416813Y-25297165D01*
X15403237Y-25322565D01*
X15374360Y-25376591D01*
X15348216Y-25462773D01*
X15345714Y-25488174D01*
X15339389Y-25552400D01*
X15341601Y-25574859D01*
X15341601Y-25964653D01*
X15285834Y-26020420D01*
X15213561Y-26128583D01*
X15163779Y-26248769D01*
X15138400Y-26376356D01*
X4648200Y-26376356D01*
X4648200Y-22134556D01*
X15722600Y-22134556D01*
X15722600Y-22264644D01*
X15747979Y-22392231D01*
X15797761Y-22512417D01*
X15870034Y-22620580D01*
X15962020Y-22712566D01*
X16070183Y-22784839D01*
X16190369Y-22834621D01*
X16317956Y-22860000D01*
X16448044Y-22860000D01*
X16575631Y-22834621D01*
X16695817Y-22784839D01*
X16803980Y-22712566D01*
X16895966Y-22620580D01*
X16910345Y-22599060D01*
X16943036Y-22581587D01*
X16987821Y-22544833D01*
X17038434Y-22620580D01*
X17130420Y-22712566D01*
X17238583Y-22784839D01*
X17358769Y-22834621D01*
X17486356Y-22860000D01*
X17616444Y-22860000D01*
X17744031Y-22834621D01*
X17864217Y-22784839D01*
X17972380Y-22712566D01*
X18028146Y-22656800D01*
X18748150Y-22656800D01*
X18770600Y-22659011D01*
X18793050Y-22656800D01*
X18793060Y-22656800D01*
X18860227Y-22650185D01*
X18946409Y-22624041D01*
X19025836Y-22581587D01*
X19095453Y-22524453D01*
X19109774Y-22507003D01*
X19560609Y-22056169D01*
X19578053Y-22041853D01*
X19606682Y-22006969D01*
X19635187Y-21972237D01*
X19665858Y-21914853D01*
X19677641Y-21892809D01*
X19703785Y-21806627D01*
X19710400Y-21739460D01*
X19710400Y-21739451D01*
X19712611Y-21717001D01*
X19710400Y-21694551D01*
X19710400Y-13941649D01*
X19712611Y-13919199D01*
X19710400Y-13896749D01*
X19710400Y-13896740D01*
X19703785Y-13829573D01*
X19677641Y-13743391D01*
X19657878Y-13706417D01*
X19635187Y-13663963D01*
X19592370Y-13611792D01*
X19578053Y-13594347D01*
X19560608Y-13580030D01*
X19456400Y-13475822D01*
X19456400Y-13396956D01*
X19431021Y-13269369D01*
X19381239Y-13149183D01*
X19308966Y-13041020D01*
X19216980Y-12949034D01*
X19108817Y-12876761D01*
X18988631Y-12826979D01*
X18861044Y-12801600D01*
X18730956Y-12801600D01*
X18603369Y-12826979D01*
X18483183Y-12876761D01*
X18375020Y-12949034D01*
X18283034Y-13041020D01*
X18210761Y-13149183D01*
X18160979Y-13269369D01*
X18135600Y-13396956D01*
X18135600Y-13527044D01*
X18160979Y-13654631D01*
X18210761Y-13774817D01*
X18283034Y-13882980D01*
X18375020Y-13974966D01*
X18483183Y-14047239D01*
X18603318Y-14097000D01*
X18578556Y-14097000D01*
X18450969Y-14122379D01*
X18330783Y-14172161D01*
X18222620Y-14244434D01*
X18130634Y-14336420D01*
X18058361Y-14444583D01*
X18008579Y-14564769D01*
X17983200Y-14692356D01*
X17983200Y-14822444D01*
X18008579Y-14950031D01*
X18058361Y-15070217D01*
X18130634Y-15178380D01*
X18222620Y-15270366D01*
X18330783Y-15342639D01*
X18389601Y-15367002D01*
X18389600Y-21095813D01*
X18352613Y-21132800D01*
X17319850Y-21132800D01*
X17297400Y-21130589D01*
X17274950Y-21132800D01*
X17274940Y-21132800D01*
X17207773Y-21139415D01*
X17141649Y-21159474D01*
X17121590Y-21165559D01*
X17042164Y-21208013D01*
X16989992Y-21250829D01*
X16989986Y-21250835D01*
X16972547Y-21265147D01*
X16958234Y-21282587D01*
X16646775Y-21594047D01*
X16575631Y-21564579D01*
X16448044Y-21539200D01*
X16317956Y-21539200D01*
X16190369Y-21564579D01*
X16070183Y-21614361D01*
X15962020Y-21686634D01*
X15870034Y-21778620D01*
X15797761Y-21886783D01*
X15747979Y-22006969D01*
X15722600Y-22134556D01*
X4648200Y-22134556D01*
X4648200Y-16673230D01*
X4786030Y-16535400D01*
X5663050Y-16535400D01*
X5699950Y-16528060D01*
X5737378Y-16524374D01*
X5773367Y-16513457D01*
X5810267Y-16506117D01*
X5845028Y-16491719D01*
X5881015Y-16480802D01*
X5914180Y-16463075D01*
X5948942Y-16448676D01*
X5980227Y-16427772D01*
X6013392Y-16410045D01*
X6042462Y-16386188D01*
X6073747Y-16365284D01*
X6100352Y-16338679D01*
X6129422Y-16314822D01*
X6153280Y-16285751D01*
X6179884Y-16259147D01*
X6200788Y-16227862D01*
X6224645Y-16198792D01*
X6242372Y-16165627D01*
X6263276Y-16134342D01*
X6277675Y-16099580D01*
X6295402Y-16066415D01*
X6306319Y-16030428D01*
X6320717Y-15995667D01*
X6328057Y-15958767D01*
X6338974Y-15922778D01*
X6342660Y-15885350D01*
X6350000Y-15848450D01*
X6350000Y-15810826D01*
X6353686Y-15773400D01*
X6350000Y-15735974D01*
X6350000Y-15698350D01*
X6342660Y-15661450D01*
X6338974Y-15624022D01*
X6328057Y-15588033D01*
X6320717Y-15551133D01*
X6306319Y-15516372D01*
X6295402Y-15480385D01*
X6277675Y-15447220D01*
X6263276Y-15412458D01*
X6242372Y-15381173D01*
X6224645Y-15348008D01*
X6200788Y-15318938D01*
X6179884Y-15287653D01*
X6153279Y-15261048D01*
X6129422Y-15231978D01*
X6100352Y-15208121D01*
X6073747Y-15181516D01*
X6042462Y-15160612D01*
X6013392Y-15136755D01*
X5980227Y-15119028D01*
X5948942Y-15098124D01*
X5914180Y-15083725D01*
X5881015Y-15065998D01*
X5845028Y-15055081D01*
X5810267Y-15040683D01*
X5773367Y-15033343D01*
X5737378Y-15022426D01*
X5699950Y-15018740D01*
X5663050Y-15011400D01*
X4507823Y-15011400D01*
X4470400Y-15007714D01*
X4432977Y-15011400D01*
X4395350Y-15011400D01*
X4358450Y-15018740D01*
X4321022Y-15022426D01*
X4285033Y-15033343D01*
X4248133Y-15040683D01*
X4213372Y-15055081D01*
X4177385Y-15065998D01*
X4144220Y-15083725D01*
X4109458Y-15098124D01*
X4078175Y-15119026D01*
X4045007Y-15136755D01*
X4015936Y-15160613D01*
X3984653Y-15181516D01*
X3958048Y-15208121D01*
X3928978Y-15231978D01*
X3905121Y-15261048D01*
X3878516Y-15287653D01*
X3878514Y-15287656D01*
X3581400Y-15584770D01*
X3581400Y-9586956D01*
X17983200Y-9586956D01*
X17983200Y-9717044D01*
X18008579Y-9844631D01*
X18058361Y-9964817D01*
X18130634Y-10072980D01*
X18222620Y-10164966D01*
X18330783Y-10237239D01*
X18450969Y-10287021D01*
X18578556Y-10312400D01*
X18708644Y-10312400D01*
X18836231Y-10287021D01*
X18956417Y-10237239D01*
X19064580Y-10164966D01*
X19156566Y-10072980D01*
X19183280Y-10033000D01*
X19724223Y-10033000D01*
X19888201Y-10196979D01*
X19888200Y-21722854D01*
X19832434Y-21778620D01*
X19760161Y-21886783D01*
X19710379Y-22006969D01*
X19685000Y-22134556D01*
X19685000Y-22264644D01*
X19710379Y-22392231D01*
X19760161Y-22512417D01*
X19832434Y-22620580D01*
X19924420Y-22712566D01*
X20032583Y-22784839D01*
X20152769Y-22834621D01*
X20280356Y-22860000D01*
X20410444Y-22860000D01*
X20538031Y-22834621D01*
X20658217Y-22784839D01*
X20766380Y-22712566D01*
X20858366Y-22620580D01*
X20930639Y-22512417D01*
X20980421Y-22392231D01*
X21005800Y-22264644D01*
X21005800Y-22134556D01*
X20980421Y-22006969D01*
X20930639Y-21886783D01*
X20858366Y-21778620D01*
X20802600Y-21722854D01*
X20802600Y-17029156D01*
X30581600Y-17029156D01*
X30581600Y-17159244D01*
X30606979Y-17286831D01*
X30656761Y-17407017D01*
X30729034Y-17515180D01*
X30821020Y-17607166D01*
X30929183Y-17679439D01*
X31049369Y-17729221D01*
X31176956Y-17754600D01*
X31307044Y-17754600D01*
X31434631Y-17729221D01*
X31554817Y-17679439D01*
X31662980Y-17607166D01*
X31718746Y-17551400D01*
X32565750Y-17551400D01*
X32588200Y-17553611D01*
X32610650Y-17551400D01*
X32610660Y-17551400D01*
X32677827Y-17544785D01*
X32764009Y-17518641D01*
X32843436Y-17476187D01*
X32913053Y-17419053D01*
X32927374Y-17401603D01*
X33273409Y-17055569D01*
X33290853Y-17041253D01*
X33347987Y-16971636D01*
X33390441Y-16892209D01*
X33416585Y-16806027D01*
X33423200Y-16738860D01*
X33423200Y-16738850D01*
X33425411Y-16716400D01*
X33423200Y-16693950D01*
X33423200Y-10563746D01*
X33478966Y-10507980D01*
X33551239Y-10399817D01*
X33601021Y-10279631D01*
X33626400Y-10152044D01*
X33626400Y-10021956D01*
X33601021Y-9894369D01*
X33551239Y-9774183D01*
X33478966Y-9666020D01*
X33386980Y-9574034D01*
X33278817Y-9501761D01*
X33158631Y-9451979D01*
X33031044Y-9426600D01*
X32900956Y-9426600D01*
X32773369Y-9451979D01*
X32653183Y-9501761D01*
X32545020Y-9574034D01*
X32453034Y-9666020D01*
X32380761Y-9774183D01*
X32330979Y-9894369D01*
X32305600Y-10021956D01*
X32305600Y-10152044D01*
X32330979Y-10279631D01*
X32380761Y-10399817D01*
X32453034Y-10507980D01*
X32508801Y-10563747D01*
X32508800Y-16527022D01*
X32398823Y-16637000D01*
X31718746Y-16637000D01*
X31662980Y-16581234D01*
X31554817Y-16508961D01*
X31434631Y-16459179D01*
X31307044Y-16433800D01*
X31176956Y-16433800D01*
X31049369Y-16459179D01*
X30929183Y-16508961D01*
X30821020Y-16581234D01*
X30729034Y-16673220D01*
X30656761Y-16781383D01*
X30606979Y-16901569D01*
X30581600Y-17029156D01*
X20802600Y-17029156D01*
X20802600Y-10030049D01*
X20804811Y-10007599D01*
X20802600Y-9985149D01*
X20802600Y-9985140D01*
X20795985Y-9917973D01*
X20769841Y-9831791D01*
X20750078Y-9794817D01*
X20727387Y-9752363D01*
X20684570Y-9700192D01*
X20670253Y-9682747D01*
X20652808Y-9668430D01*
X20252774Y-9268397D01*
X20238453Y-9250947D01*
X20168836Y-9193813D01*
X20089409Y-9151359D01*
X20003227Y-9125215D01*
X19936060Y-9118600D01*
X19936050Y-9118600D01*
X19913600Y-9116389D01*
X19891150Y-9118600D01*
X19033999Y-9118600D01*
X18956417Y-9066761D01*
X18836231Y-9016979D01*
X18708644Y-8991600D01*
X18578556Y-8991600D01*
X18450969Y-9016979D01*
X18330783Y-9066761D01*
X18222620Y-9139034D01*
X18130634Y-9231020D01*
X18058361Y-9339183D01*
X18008579Y-9459369D01*
X17983200Y-9586956D01*
X3581400Y-9586956D01*
X3581400Y-5268956D01*
X5816600Y-5268956D01*
X5816600Y-5399044D01*
X5841979Y-5526631D01*
X5891761Y-5646817D01*
X5964034Y-5754980D01*
X6056020Y-5846966D01*
X6164183Y-5919239D01*
X6284369Y-5969021D01*
X6411956Y-5994400D01*
X6542044Y-5994400D01*
X6669631Y-5969021D01*
X6789817Y-5919239D01*
X6897980Y-5846966D01*
X6989966Y-5754980D01*
X7062239Y-5646817D01*
X7107643Y-5537200D01*
X13272622Y-5537200D01*
X13536301Y-5800879D01*
X13536300Y-8055754D01*
X13480534Y-8111520D01*
X13408261Y-8219683D01*
X13358479Y-8339869D01*
X13333100Y-8467456D01*
X13333100Y-8597544D01*
X13358479Y-8725131D01*
X13408261Y-8845317D01*
X13480534Y-8953480D01*
X13572520Y-9045466D01*
X13680683Y-9117739D01*
X13800869Y-9167521D01*
X13928456Y-9192900D01*
X14058544Y-9192900D01*
X14186131Y-9167521D01*
X14306317Y-9117739D01*
X14414480Y-9045466D01*
X14506466Y-8953480D01*
X14578739Y-8845317D01*
X14628521Y-8725131D01*
X14653900Y-8597544D01*
X14653900Y-8467456D01*
X14628521Y-8339869D01*
X14578739Y-8219683D01*
X14506466Y-8111520D01*
X14450700Y-8055754D01*
X14450700Y-5633952D01*
X14452911Y-5611500D01*
X14450700Y-5589048D01*
X14450700Y-5589040D01*
X14444085Y-5521873D01*
X14417941Y-5435691D01*
X14417941Y-5435690D01*
X14375487Y-5356264D01*
X14332671Y-5304092D01*
X14332665Y-5304086D01*
X14318353Y-5286647D01*
X14300913Y-5272334D01*
X13801174Y-4772597D01*
X13786853Y-4755147D01*
X13717236Y-4698013D01*
X13637809Y-4655559D01*
X13551627Y-4629415D01*
X13484460Y-4622800D01*
X13484450Y-4622800D01*
X13462000Y-4620589D01*
X13439550Y-4622800D01*
X6753449Y-4622800D01*
X6730999Y-4620589D01*
X6708549Y-4622800D01*
X6708540Y-4622800D01*
X6641373Y-4629415D01*
X6555191Y-4655559D01*
X6521438Y-4673600D01*
X6411956Y-4673600D01*
X6284369Y-4698979D01*
X6164183Y-4748761D01*
X6056020Y-4821034D01*
X5964034Y-4913020D01*
X5891761Y-5021183D01*
X5841979Y-5141369D01*
X5816600Y-5268956D01*
X3581400Y-5268956D01*
X3581400Y-4000000D01*
X16736148Y-4000000D01*
X16769079Y-4334356D01*
X16866607Y-4655863D01*
X17024984Y-4952165D01*
X17238124Y-5211876D01*
X17497835Y-5425016D01*
X17794137Y-5583393D01*
X18115644Y-5680921D01*
X18366216Y-5705600D01*
X19633784Y-5705600D01*
X19884356Y-5680921D01*
X20205863Y-5583393D01*
X20502165Y-5425016D01*
X20761876Y-5211876D01*
X20975016Y-4952165D01*
X21133393Y-4655863D01*
X21230921Y-4334356D01*
X21263852Y-4000000D01*
X21230921Y-3665644D01*
X21133393Y-3344137D01*
X20975016Y-3047835D01*
X20761876Y-2788124D01*
X20502165Y-2574984D01*
X20205863Y-2416607D01*
X19884356Y-2319079D01*
X19633784Y-2294400D01*
X18366216Y-2294400D01*
X18115644Y-2319079D01*
X17794137Y-2416607D01*
X17497835Y-2574984D01*
X17238124Y-2788124D01*
X17024984Y-3047835D01*
X16866607Y-3344137D01*
X16769079Y-3665644D01*
X16736148Y-4000000D01*
X3581400Y-4000000D01*
X3581400Y-3304862D01*
X4041463Y-2844800D01*
X14975169Y-2844800D01*
X15008253Y-2877884D01*
X15133058Y-2961276D01*
X15271733Y-3018717D01*
X15418950Y-3048000D01*
X15569050Y-3048000D01*
X15716267Y-3018717D01*
X15854942Y-2961276D01*
X15979747Y-2877884D01*
X16085884Y-2771747D01*
X16169276Y-2646942D01*
X16226717Y-2508267D01*
X16256000Y-2361050D01*
X16256000Y-2210950D01*
X16226717Y-2063733D01*
X16169276Y-1925058D01*
X16085884Y-1800253D01*
X15979747Y-1694116D01*
X15854942Y-1610724D01*
X15716267Y-1553283D01*
X15569050Y-1524000D01*
X15418950Y-1524000D01*
X15271733Y-1553283D01*
X15133058Y-1610724D01*
X15008253Y-1694116D01*
X14975169Y-1727200D01*
X3837444Y-1727200D01*
X3810000Y-1724497D01*
X3700455Y-1735286D01*
X3595122Y-1767239D01*
X3498045Y-1819127D01*
X3447995Y-1860202D01*
X3412957Y-1888957D01*
X3395462Y-1910276D01*
X2646881Y-2658857D01*
X2625557Y-2676357D01*
X2555727Y-2761446D01*
X2503839Y-2858523D01*
X2471886Y-2963857D01*
X2466483Y-3018717D01*
X2461097Y-3073400D01*
X380600Y-3073400D01*
X380600Y-380600D01*
X37619400Y-380600D01*
X37619401Y-89619400D01*
G04 #@! TA.AperFunction,Conductor*
D22*
G36*
X37619401Y-89619400D02*
G01*
X380600Y-89619400D01*
X380600Y-87974655D01*
X30206400Y-87974655D01*
X30206400Y-88133345D01*
X30237359Y-88288985D01*
X30298087Y-88435595D01*
X30386250Y-88567540D01*
X30498460Y-88679750D01*
X30630405Y-88767913D01*
X30777015Y-88828641D01*
X30932655Y-88859600D01*
X31091345Y-88859600D01*
X31246985Y-88828641D01*
X31393595Y-88767913D01*
X31525540Y-88679750D01*
X31637750Y-88567540D01*
X31725913Y-88435595D01*
X31786641Y-88288985D01*
X31817600Y-88133345D01*
X31817600Y-87974655D01*
X33206400Y-87974655D01*
X33206400Y-88133345D01*
X33237359Y-88288985D01*
X33298087Y-88435595D01*
X33386250Y-88567540D01*
X33498460Y-88679750D01*
X33630405Y-88767913D01*
X33777015Y-88828641D01*
X33932655Y-88859600D01*
X34091345Y-88859600D01*
X34246985Y-88828641D01*
X34393595Y-88767913D01*
X34525540Y-88679750D01*
X34637750Y-88567540D01*
X34725913Y-88435595D01*
X34786641Y-88288985D01*
X34817600Y-88133345D01*
X34817600Y-87974655D01*
X34786641Y-87819015D01*
X34725913Y-87672405D01*
X34637750Y-87540460D01*
X34525540Y-87428250D01*
X34393595Y-87340087D01*
X34246985Y-87279359D01*
X34091345Y-87248400D01*
X33932655Y-87248400D01*
X33777015Y-87279359D01*
X33630405Y-87340087D01*
X33498460Y-87428250D01*
X33386250Y-87540460D01*
X33298087Y-87672405D01*
X33237359Y-87819015D01*
X33206400Y-87974655D01*
X31817600Y-87974655D01*
X31786641Y-87819015D01*
X31725913Y-87672405D01*
X31637750Y-87540460D01*
X31525540Y-87428250D01*
X31393595Y-87340087D01*
X31246985Y-87279359D01*
X31091345Y-87248400D01*
X30932655Y-87248400D01*
X30777015Y-87279359D01*
X30630405Y-87340087D01*
X30498460Y-87428250D01*
X30386250Y-87540460D01*
X30298087Y-87672405D01*
X30237359Y-87819015D01*
X30206400Y-87974655D01*
X380600Y-87974655D01*
X380600Y-87190504D01*
X3866400Y-87190504D01*
X3866400Y-87329496D01*
X3893516Y-87465816D01*
X3946705Y-87594227D01*
X4023925Y-87709794D01*
X4122206Y-87808075D01*
X4237773Y-87885295D01*
X4366184Y-87938484D01*
X4502504Y-87965600D01*
X4641496Y-87965600D01*
X4777816Y-87938484D01*
X4906227Y-87885295D01*
X5021794Y-87808075D01*
X5120075Y-87709794D01*
X5197295Y-87594227D01*
X5250484Y-87465816D01*
X5277600Y-87329496D01*
X5277600Y-87190504D01*
X5250484Y-87054184D01*
X5197295Y-86925773D01*
X5120075Y-86810206D01*
X5021794Y-86711925D01*
X4906227Y-86634705D01*
X4777816Y-86581516D01*
X4641496Y-86554400D01*
X4502504Y-86554400D01*
X4366184Y-86581516D01*
X4237773Y-86634705D01*
X4122206Y-86711925D01*
X4023925Y-86810206D01*
X3946705Y-86925773D01*
X3893516Y-87054184D01*
X3866400Y-87190504D01*
X380600Y-87190504D01*
X380600Y-85390504D01*
X3866400Y-85390504D01*
X3866400Y-85529496D01*
X3893516Y-85665816D01*
X3946705Y-85794227D01*
X4023925Y-85909794D01*
X4122206Y-86008075D01*
X4237773Y-86085295D01*
X4366184Y-86138484D01*
X4502504Y-86165600D01*
X4641496Y-86165600D01*
X4777816Y-86138484D01*
X4906227Y-86085295D01*
X5021794Y-86008075D01*
X5120075Y-85909794D01*
X5197295Y-85794227D01*
X5250484Y-85665816D01*
X5277600Y-85529496D01*
X5277600Y-85390504D01*
X5250484Y-85254184D01*
X5197295Y-85125773D01*
X5183185Y-85104655D01*
X15994400Y-85104655D01*
X15994400Y-85263345D01*
X16025359Y-85418985D01*
X16086087Y-85565595D01*
X16174250Y-85697540D01*
X16286460Y-85809750D01*
X16418405Y-85897913D01*
X16565015Y-85958641D01*
X16720655Y-85989600D01*
X16879345Y-85989600D01*
X17034985Y-85958641D01*
X17181595Y-85897913D01*
X17313540Y-85809750D01*
X17425750Y-85697540D01*
X17513913Y-85565595D01*
X17574641Y-85418985D01*
X17605600Y-85263345D01*
X17605600Y-85104655D01*
X20394400Y-85104655D01*
X20394400Y-85263345D01*
X20425359Y-85418985D01*
X20486087Y-85565595D01*
X20574250Y-85697540D01*
X20686460Y-85809750D01*
X20818405Y-85897913D01*
X20965015Y-85958641D01*
X21120655Y-85989600D01*
X21279345Y-85989600D01*
X21434985Y-85958641D01*
X21581595Y-85897913D01*
X21713540Y-85809750D01*
X21825750Y-85697540D01*
X21913913Y-85565595D01*
X21974641Y-85418985D01*
X22005600Y-85263345D01*
X22005600Y-85104655D01*
X21974641Y-84949015D01*
X21913913Y-84802405D01*
X21825750Y-84670460D01*
X21713540Y-84558250D01*
X21581595Y-84470087D01*
X21434985Y-84409359D01*
X21279345Y-84378400D01*
X21120655Y-84378400D01*
X20965015Y-84409359D01*
X20818405Y-84470087D01*
X20686460Y-84558250D01*
X20574250Y-84670460D01*
X20486087Y-84802405D01*
X20425359Y-84949015D01*
X20394400Y-85104655D01*
X17605600Y-85104655D01*
X17574641Y-84949015D01*
X17513913Y-84802405D01*
X17425750Y-84670460D01*
X17313540Y-84558250D01*
X17181595Y-84470087D01*
X17034985Y-84409359D01*
X16879345Y-84378400D01*
X16720655Y-84378400D01*
X16565015Y-84409359D01*
X16418405Y-84470087D01*
X16286460Y-84558250D01*
X16174250Y-84670460D01*
X16086087Y-84802405D01*
X16025359Y-84949015D01*
X15994400Y-85104655D01*
X5183185Y-85104655D01*
X5120075Y-85010206D01*
X5021794Y-84911925D01*
X4906227Y-84834705D01*
X4777816Y-84781516D01*
X4641496Y-84754400D01*
X4502504Y-84754400D01*
X4366184Y-84781516D01*
X4237773Y-84834705D01*
X4122206Y-84911925D01*
X4023925Y-85010206D01*
X3946705Y-85125773D01*
X3893516Y-85254184D01*
X3866400Y-85390504D01*
X380600Y-85390504D01*
X380600Y-63983750D01*
X2438400Y-63983750D01*
X2438400Y-64133850D01*
X2467683Y-64281067D01*
X2525124Y-64419742D01*
X2608516Y-64544547D01*
X2641601Y-64577632D01*
X2641600Y-64657569D01*
X2608516Y-64690653D01*
X2525124Y-64815458D01*
X2467683Y-64954133D01*
X2438400Y-65101350D01*
X2438400Y-65251450D01*
X2467683Y-65398667D01*
X2525124Y-65537342D01*
X2608516Y-65662147D01*
X2641601Y-65695232D01*
X2641600Y-81684358D01*
X2638897Y-81711800D01*
X2641600Y-81739242D01*
X2641600Y-81739243D01*
X2649686Y-81821343D01*
X2681639Y-81926677D01*
X2733527Y-82023754D01*
X2803357Y-82108843D01*
X2824681Y-82126343D01*
X3547862Y-82849524D01*
X3565357Y-82870843D01*
X3586674Y-82888337D01*
X3650445Y-82940673D01*
X3747522Y-82992561D01*
X3852855Y-83024514D01*
X3962400Y-83035303D01*
X3989844Y-83032600D01*
X8625169Y-83032600D01*
X8658253Y-83065684D01*
X8783058Y-83149076D01*
X8921733Y-83206517D01*
X9068950Y-83235800D01*
X9219050Y-83235800D01*
X9366267Y-83206517D01*
X9504942Y-83149076D01*
X9629747Y-83065684D01*
X9735884Y-82959547D01*
X9819276Y-82834742D01*
X9876717Y-82696067D01*
X9906000Y-82548850D01*
X9906000Y-82398750D01*
X9876717Y-82251533D01*
X9819276Y-82112858D01*
X9735884Y-81988053D01*
X9629747Y-81881916D01*
X9504942Y-81798524D01*
X9366267Y-81741083D01*
X9219050Y-81711800D01*
X9068950Y-81711800D01*
X8921733Y-81741083D01*
X8783058Y-81798524D01*
X8658253Y-81881916D01*
X8625169Y-81915000D01*
X4193863Y-81915000D01*
X3759200Y-81480338D01*
X3759200Y-78740000D01*
X10206130Y-78740000D01*
X10224766Y-78929212D01*
X10279957Y-79111153D01*
X10369583Y-79278831D01*
X10490198Y-79425802D01*
X10637169Y-79546417D01*
X10804847Y-79636043D01*
X10986788Y-79691234D01*
X11128585Y-79705200D01*
X15348202Y-79705200D01*
X15668674Y-80025672D01*
X15671801Y-80057425D01*
X15671800Y-83359414D01*
X15685766Y-83501211D01*
X15740957Y-83683152D01*
X15830583Y-83850831D01*
X15951198Y-83997802D01*
X16098169Y-84118417D01*
X16265847Y-84208043D01*
X16447788Y-84263234D01*
X16637000Y-84281870D01*
X16826211Y-84263234D01*
X17008152Y-84208043D01*
X17175831Y-84118417D01*
X17322802Y-83997802D01*
X17443417Y-83850831D01*
X17533043Y-83683153D01*
X17588234Y-83501212D01*
X17602200Y-83359415D01*
X17602200Y-80975200D01*
X26869815Y-80975200D01*
X27011612Y-80961234D01*
X27193553Y-80906043D01*
X27361231Y-80816417D01*
X27508202Y-80695802D01*
X27628817Y-80548831D01*
X27718443Y-80381153D01*
X27773634Y-80199212D01*
X27792270Y-80010000D01*
X27773634Y-79820788D01*
X27718443Y-79638847D01*
X27628817Y-79471169D01*
X27508202Y-79324198D01*
X27361231Y-79203583D01*
X27193553Y-79113957D01*
X27011612Y-79058766D01*
X26869815Y-79044800D01*
X17406184Y-79044800D01*
X17322802Y-78943198D01*
X17285969Y-78912970D01*
X16464037Y-78091040D01*
X16433802Y-78054198D01*
X16286831Y-77933583D01*
X16119153Y-77843957D01*
X15937212Y-77788766D01*
X15795415Y-77774800D01*
X15795412Y-77774800D01*
X15748000Y-77770130D01*
X15700588Y-77774800D01*
X11128585Y-77774800D01*
X10986788Y-77788766D01*
X10804847Y-77843957D01*
X10637169Y-77933583D01*
X10490198Y-78054198D01*
X10369583Y-78201169D01*
X10279957Y-78368847D01*
X10224766Y-78550788D01*
X10206130Y-78740000D01*
X3759200Y-78740000D01*
X3759200Y-65695231D01*
X3792284Y-65662147D01*
X3875676Y-65537342D01*
X3933117Y-65398667D01*
X3962400Y-65251450D01*
X3962400Y-65101350D01*
X3933117Y-64954133D01*
X3875676Y-64815458D01*
X3792284Y-64690653D01*
X3759200Y-64657569D01*
X3759200Y-64577631D01*
X3792284Y-64544547D01*
X3875676Y-64419742D01*
X3933117Y-64281067D01*
X3962400Y-64133850D01*
X3962400Y-63983750D01*
X3933117Y-63836533D01*
X3875676Y-63697858D01*
X3792284Y-63573053D01*
X3686147Y-63466916D01*
X3561342Y-63383524D01*
X3422667Y-63326083D01*
X3275450Y-63296800D01*
X3125350Y-63296800D01*
X2978133Y-63326083D01*
X2839458Y-63383524D01*
X2714653Y-63466916D01*
X2608516Y-63573053D01*
X2525124Y-63697858D01*
X2467683Y-63836533D01*
X2438400Y-63983750D01*
X380600Y-63983750D01*
X380600Y-3073400D01*
X2461097Y-3073400D01*
X2463800Y-3100842D01*
X2463801Y-59814948D01*
X2461097Y-59842400D01*
X2471887Y-59951944D01*
X2503839Y-60057277D01*
X2503840Y-60057278D01*
X2555728Y-60154354D01*
X2625558Y-60239443D01*
X2646876Y-60256938D01*
X5537200Y-63147263D01*
X5537201Y-75086748D01*
X5534497Y-75114200D01*
X5545287Y-75223744D01*
X5577239Y-75329077D01*
X5600972Y-75373478D01*
X5629128Y-75426154D01*
X5698958Y-75511243D01*
X5720276Y-75528738D01*
X6567257Y-76375719D01*
X6584757Y-76397043D01*
X6669846Y-76466873D01*
X6766922Y-76518761D01*
X6872256Y-76550714D01*
X6954356Y-76558800D01*
X6954357Y-76558800D01*
X6981799Y-76561503D01*
X7009241Y-76558800D01*
X16742680Y-76558800D01*
X16742680Y-77350000D01*
X16749546Y-77419710D01*
X16769879Y-77486740D01*
X16802899Y-77548516D01*
X16847337Y-77602663D01*
X16901484Y-77647101D01*
X16963260Y-77680121D01*
X17030290Y-77700454D01*
X17100000Y-77707320D01*
X20900000Y-77707320D01*
X20969710Y-77700454D01*
X21036740Y-77680121D01*
X21098516Y-77647101D01*
X21152663Y-77602663D01*
X21197101Y-77548516D01*
X21230121Y-77486740D01*
X21250454Y-77419710D01*
X21257320Y-77350000D01*
X21257320Y-74650000D01*
X21250454Y-74580290D01*
X21230121Y-74513260D01*
X21197101Y-74451484D01*
X21152663Y-74397337D01*
X21098516Y-74352899D01*
X21036740Y-74319879D01*
X20969710Y-74299546D01*
X20900000Y-74292680D01*
X17100000Y-74292680D01*
X17030290Y-74299546D01*
X16963260Y-74319879D01*
X16901484Y-74352899D01*
X16847337Y-74397337D01*
X16802899Y-74451484D01*
X16769879Y-74513260D01*
X16749546Y-74580290D01*
X16742680Y-74650000D01*
X16742680Y-75441200D01*
X7213262Y-75441200D01*
X6654800Y-74882738D01*
X6654800Y-69342000D01*
X16408400Y-69342000D01*
X16408400Y-73914000D01*
X16410352Y-73933821D01*
X16416134Y-73952881D01*
X16425523Y-73970446D01*
X16438158Y-73985842D01*
X16453554Y-73998477D01*
X16471119Y-74007866D01*
X16490179Y-74013648D01*
X16510000Y-74015600D01*
X21590000Y-74015600D01*
X21609821Y-74013648D01*
X21628881Y-74007866D01*
X21646446Y-73998477D01*
X21661842Y-73985842D01*
X21674477Y-73970446D01*
X21683866Y-73952881D01*
X21689648Y-73933821D01*
X21691600Y-73914000D01*
X21691600Y-73838950D01*
X25400000Y-73838950D01*
X25400000Y-73989050D01*
X25429283Y-74136267D01*
X25486724Y-74274942D01*
X25570116Y-74399747D01*
X25676253Y-74505884D01*
X25801058Y-74589276D01*
X25939733Y-74646717D01*
X26086950Y-74676000D01*
X26237050Y-74676000D01*
X26384267Y-74646717D01*
X26522942Y-74589276D01*
X26647747Y-74505884D01*
X26680831Y-74472800D01*
X32356738Y-74472800D01*
X32715200Y-74831263D01*
X32715200Y-75156557D01*
X32715201Y-84369368D01*
X32670116Y-84414453D01*
X32586724Y-84539258D01*
X32529283Y-84677933D01*
X32500000Y-84825150D01*
X32500000Y-84975250D01*
X32529283Y-85122467D01*
X32586724Y-85261142D01*
X32670116Y-85385947D01*
X32776253Y-85492084D01*
X32901058Y-85575476D01*
X33039733Y-85632917D01*
X33186950Y-85662200D01*
X33337050Y-85662200D01*
X33484267Y-85632917D01*
X33622942Y-85575476D01*
X33747747Y-85492084D01*
X33853884Y-85385947D01*
X33937276Y-85261142D01*
X33994717Y-85122467D01*
X34024000Y-84975250D01*
X34024000Y-84825150D01*
X33994717Y-84677933D01*
X33937276Y-84539258D01*
X33853884Y-84414453D01*
X33832800Y-84393369D01*
X33832800Y-74627244D01*
X33835503Y-74599800D01*
X33824714Y-74490255D01*
X33792761Y-74384922D01*
X33740873Y-74287845D01*
X33688537Y-74224074D01*
X33671043Y-74202757D01*
X33649724Y-74185262D01*
X33002743Y-73538281D01*
X32985243Y-73516957D01*
X32900154Y-73447127D01*
X32803078Y-73395239D01*
X32697744Y-73363286D01*
X32615644Y-73355200D01*
X32615642Y-73355200D01*
X32588200Y-73352497D01*
X32560758Y-73355200D01*
X26680831Y-73355200D01*
X26647747Y-73322116D01*
X26522942Y-73238724D01*
X26384267Y-73181283D01*
X26237050Y-73152000D01*
X26086950Y-73152000D01*
X25939733Y-73181283D01*
X25801058Y-73238724D01*
X25676253Y-73322116D01*
X25570116Y-73428253D01*
X25486724Y-73553058D01*
X25429283Y-73691733D01*
X25400000Y-73838950D01*
X21691600Y-73838950D01*
X21691600Y-69342000D01*
X21689648Y-69322179D01*
X21683866Y-69303119D01*
X21674477Y-69285554D01*
X21661842Y-69270158D01*
X21646446Y-69257523D01*
X21628881Y-69248134D01*
X21609821Y-69242352D01*
X21590000Y-69240400D01*
X16510000Y-69240400D01*
X16490179Y-69242352D01*
X16471119Y-69248134D01*
X16453554Y-69257523D01*
X16438158Y-69270158D01*
X16425523Y-69285554D01*
X16416134Y-69303119D01*
X16410352Y-69322179D01*
X16408400Y-69342000D01*
X6654800Y-69342000D01*
X6654800Y-65609350D01*
X17983200Y-65609350D01*
X17983200Y-65759450D01*
X18012483Y-65906667D01*
X18069924Y-66045342D01*
X18153316Y-66170147D01*
X18259453Y-66276284D01*
X18384258Y-66359676D01*
X18522933Y-66417117D01*
X18670150Y-66446400D01*
X18820250Y-66446400D01*
X18967467Y-66417117D01*
X19106142Y-66359676D01*
X19230947Y-66276284D01*
X19264031Y-66243200D01*
X24863738Y-66243200D01*
X25171400Y-66550863D01*
X25171400Y-66623050D01*
X25200683Y-66770267D01*
X25258124Y-66908942D01*
X25341516Y-67033747D01*
X25447653Y-67139884D01*
X25572458Y-67223276D01*
X25711133Y-67280717D01*
X25858350Y-67310000D01*
X26008450Y-67310000D01*
X26155667Y-67280717D01*
X26294342Y-67223276D01*
X26419147Y-67139884D01*
X26525284Y-67033747D01*
X26608676Y-66908942D01*
X26666117Y-66770267D01*
X26695400Y-66623050D01*
X26695400Y-66472950D01*
X26666117Y-66325733D01*
X26608676Y-66187058D01*
X26525284Y-66062253D01*
X26419147Y-65956116D01*
X26294342Y-65872724D01*
X26155667Y-65815283D01*
X26008450Y-65786000D01*
X25987063Y-65786000D01*
X25509743Y-65308681D01*
X25492243Y-65287357D01*
X25432535Y-65238356D01*
X32918400Y-65238356D01*
X32918400Y-65368444D01*
X32943779Y-65496031D01*
X32993561Y-65616217D01*
X33065834Y-65724380D01*
X33157820Y-65816366D01*
X33265983Y-65888639D01*
X33386169Y-65938421D01*
X33513756Y-65963800D01*
X33643844Y-65963800D01*
X33771431Y-65938421D01*
X33891617Y-65888639D01*
X33999780Y-65816366D01*
X34055546Y-65760600D01*
X34803854Y-65760600D01*
X34859620Y-65816366D01*
X34967783Y-65888639D01*
X35087969Y-65938421D01*
X35215556Y-65963800D01*
X35345644Y-65963800D01*
X35473231Y-65938421D01*
X35593417Y-65888639D01*
X35701580Y-65816366D01*
X35793566Y-65724380D01*
X35865839Y-65616217D01*
X35915621Y-65496031D01*
X35941000Y-65368444D01*
X35941000Y-65238356D01*
X35915621Y-65110769D01*
X35865839Y-64990583D01*
X35793566Y-64882420D01*
X35701580Y-64790434D01*
X35593417Y-64718161D01*
X35473231Y-64668379D01*
X35345644Y-64643000D01*
X35215556Y-64643000D01*
X35087969Y-64668379D01*
X34967783Y-64718161D01*
X34859620Y-64790434D01*
X34803854Y-64846200D01*
X34055546Y-64846200D01*
X33999780Y-64790434D01*
X33891617Y-64718161D01*
X33771431Y-64668379D01*
X33643844Y-64643000D01*
X33513756Y-64643000D01*
X33386169Y-64668379D01*
X33265983Y-64718161D01*
X33157820Y-64790434D01*
X33065834Y-64882420D01*
X32993561Y-64990583D01*
X32943779Y-65110769D01*
X32918400Y-65238356D01*
X25432535Y-65238356D01*
X25407154Y-65217527D01*
X25310078Y-65165639D01*
X25204744Y-65133686D01*
X25122644Y-65125600D01*
X25122642Y-65125600D01*
X25095200Y-65122897D01*
X25067758Y-65125600D01*
X19264031Y-65125600D01*
X19230947Y-65092516D01*
X19106142Y-65009124D01*
X18967467Y-64951683D01*
X18820250Y-64922400D01*
X18670150Y-64922400D01*
X18522933Y-64951683D01*
X18384258Y-65009124D01*
X18259453Y-65092516D01*
X18153316Y-65198653D01*
X18069924Y-65323458D01*
X18012483Y-65462133D01*
X17983200Y-65609350D01*
X6654800Y-65609350D01*
X6654800Y-62943242D01*
X6657503Y-62915800D01*
X6654800Y-62888356D01*
X6646714Y-62806256D01*
X6614761Y-62700922D01*
X6562873Y-62603846D01*
X6493043Y-62518757D01*
X6471725Y-62501262D01*
X3581400Y-59610938D01*
X3581400Y-53949600D01*
X4010989Y-53949600D01*
X4013201Y-53972060D01*
X4013200Y-55603550D01*
X4010989Y-55626000D01*
X4013200Y-55648450D01*
X4013200Y-55648459D01*
X4019815Y-55715626D01*
X4045959Y-55801808D01*
X4088413Y-55881235D01*
X4145547Y-55950853D01*
X4162997Y-55965174D01*
X4537630Y-56339808D01*
X4551947Y-56357253D01*
X4569392Y-56371570D01*
X4621563Y-56414387D01*
X4664017Y-56437078D01*
X4700991Y-56456841D01*
X4787173Y-56482985D01*
X4854340Y-56489600D01*
X4854349Y-56489600D01*
X4876799Y-56491811D01*
X4899249Y-56489600D01*
X5616350Y-56489600D01*
X5638800Y-56491811D01*
X5661250Y-56489600D01*
X5661260Y-56489600D01*
X5728427Y-56482985D01*
X5814609Y-56456841D01*
X5894036Y-56414387D01*
X5963653Y-56357253D01*
X5977974Y-56339803D01*
X6259978Y-56057800D01*
X15547750Y-56057800D01*
X15570200Y-56060011D01*
X15592650Y-56057800D01*
X15592660Y-56057800D01*
X15659827Y-56051185D01*
X15746009Y-56025041D01*
X15825436Y-55982587D01*
X15895053Y-55925453D01*
X15909374Y-55908003D01*
X16817408Y-54999970D01*
X16834853Y-54985653D01*
X16870341Y-54942412D01*
X16891987Y-54916036D01*
X16909082Y-54884053D01*
X16934441Y-54836609D01*
X16960585Y-54750427D01*
X16967200Y-54683260D01*
X16967200Y-54683250D01*
X16969411Y-54660800D01*
X16967200Y-54638350D01*
X16967200Y-53252000D01*
X30796680Y-53252000D01*
X30796680Y-54952000D01*
X30803546Y-55021710D01*
X30823879Y-55088740D01*
X30856899Y-55150516D01*
X30901337Y-55204663D01*
X30955484Y-55249101D01*
X31017260Y-55282121D01*
X31084290Y-55302454D01*
X31154000Y-55309320D01*
X32854000Y-55309320D01*
X32923710Y-55302454D01*
X32990740Y-55282121D01*
X33052516Y-55249101D01*
X33106663Y-55204663D01*
X33151101Y-55150516D01*
X33184121Y-55088740D01*
X33204454Y-55021710D01*
X33211320Y-54952000D01*
X33211320Y-53983259D01*
X33338400Y-53983259D01*
X33338400Y-54220741D01*
X33384731Y-54453660D01*
X33475611Y-54673066D01*
X33607550Y-54870525D01*
X33775475Y-55038450D01*
X33972934Y-55170389D01*
X34192340Y-55261269D01*
X34425259Y-55307600D01*
X34662741Y-55307600D01*
X34895660Y-55261269D01*
X35115066Y-55170389D01*
X35312525Y-55038450D01*
X35480450Y-54870525D01*
X35612389Y-54673066D01*
X35703269Y-54453660D01*
X35749600Y-54220741D01*
X35749600Y-53983259D01*
X35703269Y-53750340D01*
X35612389Y-53530934D01*
X35480450Y-53333475D01*
X35312525Y-53165550D01*
X35115066Y-53033611D01*
X34895660Y-52942731D01*
X34662741Y-52896400D01*
X34425259Y-52896400D01*
X34192340Y-52942731D01*
X33972934Y-53033611D01*
X33775475Y-53165550D01*
X33607550Y-53333475D01*
X33475611Y-53530934D01*
X33384731Y-53750340D01*
X33338400Y-53983259D01*
X33211320Y-53983259D01*
X33211320Y-53252000D01*
X33204454Y-53182290D01*
X33184121Y-53115260D01*
X33151101Y-53053484D01*
X33106663Y-52999337D01*
X33052516Y-52954899D01*
X32990740Y-52921879D01*
X32923710Y-52901546D01*
X32854000Y-52894680D01*
X31154000Y-52894680D01*
X31084290Y-52901546D01*
X31017260Y-52921879D01*
X30955484Y-52954899D01*
X30901337Y-52999337D01*
X30856899Y-53053484D01*
X30823879Y-53115260D01*
X30803546Y-53182290D01*
X30796680Y-53252000D01*
X16967200Y-53252000D01*
X16967200Y-44283777D01*
X17181978Y-44069000D01*
X22862950Y-44069000D01*
X22885400Y-44071211D01*
X22907850Y-44069000D01*
X22907860Y-44069000D01*
X22975027Y-44062385D01*
X23061209Y-44036241D01*
X23140636Y-43993787D01*
X23210253Y-43936653D01*
X23224574Y-43919203D01*
X24081808Y-43061970D01*
X24099253Y-43047653D01*
X24134741Y-43004412D01*
X24156387Y-42978036D01*
X24198840Y-42898610D01*
X24198841Y-42898609D01*
X24224985Y-42812427D01*
X24231600Y-42745260D01*
X24231600Y-42745250D01*
X24233811Y-42722800D01*
X24231600Y-42700350D01*
X24231600Y-33793577D01*
X26113808Y-31911370D01*
X26131253Y-31897053D01*
X26188387Y-31827436D01*
X26230841Y-31748009D01*
X26256985Y-31661827D01*
X26263600Y-31594660D01*
X26263600Y-31594650D01*
X26265811Y-31572200D01*
X26263600Y-31549750D01*
X26263600Y-24751177D01*
X26427578Y-24587200D01*
X28225254Y-24587200D01*
X28281020Y-24642966D01*
X28389183Y-24715239D01*
X28509369Y-24765021D01*
X28636956Y-24790400D01*
X28767044Y-24790400D01*
X28894631Y-24765021D01*
X29014817Y-24715239D01*
X29122980Y-24642966D01*
X29214966Y-24550980D01*
X29287239Y-24442817D01*
X29337021Y-24322631D01*
X29362400Y-24195044D01*
X29362400Y-24064956D01*
X29337021Y-23937369D01*
X29287239Y-23817183D01*
X29214966Y-23709020D01*
X29122980Y-23617034D01*
X29014817Y-23544761D01*
X28894631Y-23494979D01*
X28767044Y-23469600D01*
X28636956Y-23469600D01*
X28509369Y-23494979D01*
X28389183Y-23544761D01*
X28281020Y-23617034D01*
X28225254Y-23672800D01*
X26260649Y-23672800D01*
X26238199Y-23670589D01*
X26215749Y-23672800D01*
X26215740Y-23672800D01*
X26148573Y-23679415D01*
X26062391Y-23705559D01*
X26025417Y-23725322D01*
X25982963Y-23748013D01*
X25930792Y-23790830D01*
X25913347Y-23805147D01*
X25899030Y-23822592D01*
X25498997Y-24222626D01*
X25481547Y-24236947D01*
X25424413Y-24306565D01*
X25381959Y-24385992D01*
X25355815Y-24472174D01*
X25349200Y-24539341D01*
X25349200Y-24539350D01*
X25346989Y-24561800D01*
X25349200Y-24584250D01*
X25349201Y-31382821D01*
X23825200Y-32906823D01*
X23825200Y-30669377D01*
X23929404Y-30565173D01*
X23946853Y-30550853D01*
X24003987Y-30481236D01*
X24046441Y-30401809D01*
X24072585Y-30315627D01*
X24079200Y-30248460D01*
X24079200Y-30248451D01*
X24081411Y-30226001D01*
X24079200Y-30203551D01*
X24079200Y-27175050D01*
X24081411Y-27152600D01*
X24079200Y-27130150D01*
X24079200Y-27130140D01*
X24072585Y-27062973D01*
X24050260Y-26989380D01*
X24046441Y-26976790D01*
X24003987Y-26897364D01*
X23961171Y-26845192D01*
X23961165Y-26845186D01*
X23946853Y-26827747D01*
X23929413Y-26813434D01*
X23275374Y-26159397D01*
X23261053Y-26141947D01*
X23191436Y-26084813D01*
X23112009Y-26042359D01*
X23025827Y-26016215D01*
X22958660Y-26009600D01*
X22958650Y-26009600D01*
X22936200Y-26007389D01*
X22913750Y-26009600D01*
X21968049Y-26009600D01*
X21945599Y-26007389D01*
X21923149Y-26009600D01*
X21923140Y-26009600D01*
X21917776Y-26010128D01*
X21877417Y-25983161D01*
X21757231Y-25933379D01*
X21629644Y-25908000D01*
X21499556Y-25908000D01*
X21371969Y-25933379D01*
X21251783Y-25983161D01*
X21143620Y-26055434D01*
X21051634Y-26147420D01*
X20979361Y-26255583D01*
X20929579Y-26375769D01*
X20904200Y-26503356D01*
X20904200Y-26633444D01*
X20929579Y-26761031D01*
X20979361Y-26881217D01*
X21051634Y-26989380D01*
X21143620Y-27081366D01*
X21251783Y-27153639D01*
X21371969Y-27203421D01*
X21499556Y-27228800D01*
X21581976Y-27228800D01*
X21589979Y-27269031D01*
X21639761Y-27389217D01*
X21712034Y-27497380D01*
X21804020Y-27589366D01*
X21912183Y-27661639D01*
X22032369Y-27711421D01*
X22159956Y-27736800D01*
X22290044Y-27736800D01*
X22417631Y-27711421D01*
X22537817Y-27661639D01*
X22645980Y-27589366D01*
X22701746Y-27533600D01*
X22758401Y-27533600D01*
X22758400Y-29858823D01*
X22654193Y-29963030D01*
X22636748Y-29977347D01*
X22622431Y-29994792D01*
X22622430Y-29994793D01*
X22579613Y-30046965D01*
X22548265Y-30105615D01*
X22537160Y-30126391D01*
X22511467Y-30211088D01*
X22511016Y-30212574D01*
X22502189Y-30302200D01*
X22504401Y-30324660D01*
X22504400Y-33223200D01*
X22403647Y-33223200D01*
X22400469Y-33222614D01*
X22358665Y-33223200D01*
X22339389Y-33223200D01*
X22336190Y-33223515D01*
X22332983Y-33223560D01*
X22313875Y-33225713D01*
X22273218Y-33229717D01*
X22252408Y-33230593D01*
X22214873Y-33239716D01*
X22177126Y-33247776D01*
X22150496Y-33259247D01*
X22137815Y-33263684D01*
X22109854Y-33271316D01*
X22075302Y-33288556D01*
X22040264Y-33304828D01*
X22016860Y-33321934D01*
X22005494Y-33329075D01*
X21979920Y-33342744D01*
X21950078Y-33367235D01*
X21919546Y-33390890D01*
X21900524Y-33412786D01*
X21891036Y-33422274D01*
X21869140Y-33441296D01*
X21845479Y-33471836D01*
X21820994Y-33501671D01*
X21807327Y-33527240D01*
X21800185Y-33538607D01*
X21783078Y-33562014D01*
X21766806Y-33597052D01*
X21749566Y-33631604D01*
X21741934Y-33659565D01*
X21737497Y-33672244D01*
X21726029Y-33698868D01*
X21717964Y-33736633D01*
X21708844Y-33774157D01*
X21707624Y-33803122D01*
X21706120Y-33816472D01*
X21700862Y-33844990D01*
X21701404Y-33883601D01*
X21700862Y-33922211D01*
X21706121Y-33950735D01*
X21707624Y-33964071D01*
X21708844Y-33993042D01*
X21717967Y-34030578D01*
X21726029Y-34068332D01*
X21737499Y-34094960D01*
X21741934Y-34107634D01*
X21749566Y-34135595D01*
X21766806Y-34170147D01*
X21783078Y-34205185D01*
X21800185Y-34228592D01*
X21807327Y-34239959D01*
X21820994Y-34265528D01*
X21845479Y-34295363D01*
X21869140Y-34325903D01*
X21891036Y-34344925D01*
X21900524Y-34354413D01*
X21919546Y-34376309D01*
X21950078Y-34399964D01*
X21979920Y-34424455D01*
X22005494Y-34438124D01*
X22016860Y-34445265D01*
X22040264Y-34462371D01*
X22075302Y-34478643D01*
X22109854Y-34495883D01*
X22137815Y-34503515D01*
X22150493Y-34507951D01*
X22177117Y-34519420D01*
X22214860Y-34527479D01*
X22252408Y-34536606D01*
X22273200Y-34537481D01*
X22313896Y-34541489D01*
X22332973Y-34543639D01*
X22336181Y-34543684D01*
X22339389Y-34544000D01*
X22358671Y-34544000D01*
X22400458Y-34544587D01*
X22403642Y-34544000D01*
X22504401Y-34544000D01*
X22504400Y-42177822D01*
X22340423Y-42341800D01*
X16380050Y-42341800D01*
X16357600Y-42339589D01*
X16335150Y-42341800D01*
X16335140Y-42341800D01*
X16267973Y-42348415D01*
X16206046Y-42367201D01*
X16181790Y-42374559D01*
X16102364Y-42417013D01*
X16050192Y-42459829D01*
X16050186Y-42459835D01*
X16032747Y-42474147D01*
X16018434Y-42491587D01*
X15389792Y-43120231D01*
X15372348Y-43134547D01*
X15358031Y-43151992D01*
X15358030Y-43151993D01*
X15315213Y-43204165D01*
X15272760Y-43283591D01*
X15246616Y-43369774D01*
X15237789Y-43459400D01*
X15240001Y-43481860D01*
X15240000Y-54115822D01*
X15025223Y-54330600D01*
X6107577Y-54330600D01*
X6028774Y-54251797D01*
X6014453Y-54234347D01*
X5944836Y-54177213D01*
X5865409Y-54134759D01*
X5779227Y-54108615D01*
X5712060Y-54102000D01*
X5712050Y-54102000D01*
X5689600Y-54099789D01*
X5667150Y-54102000D01*
X5556746Y-54102000D01*
X5531346Y-54076600D01*
X5592966Y-54014980D01*
X5665239Y-53906817D01*
X5715021Y-53786631D01*
X5740400Y-53659044D01*
X5740400Y-53528956D01*
X5715021Y-53401369D01*
X5665239Y-53281183D01*
X5592966Y-53173020D01*
X5500980Y-53081034D01*
X5392817Y-53008761D01*
X5272631Y-52958979D01*
X5145044Y-52933600D01*
X5014956Y-52933600D01*
X4887369Y-52958979D01*
X4767183Y-53008761D01*
X4659020Y-53081034D01*
X4567034Y-53173020D01*
X4504814Y-53266137D01*
X4501147Y-53269147D01*
X4486830Y-53286592D01*
X4162992Y-53610431D01*
X4145548Y-53624747D01*
X4131231Y-53642192D01*
X4131230Y-53642193D01*
X4088413Y-53694365D01*
X4045960Y-53773791D01*
X4019816Y-53859974D01*
X4010989Y-53949600D01*
X3581400Y-53949600D01*
X3581400Y-48956630D01*
X3905116Y-49280346D01*
X3928978Y-49309422D01*
X4002619Y-49369857D01*
X4045007Y-49404645D01*
X4115764Y-49442465D01*
X4177385Y-49475402D01*
X4321022Y-49518974D01*
X4432974Y-49530000D01*
X4432977Y-49530000D01*
X4470400Y-49533686D01*
X4507823Y-49530000D01*
X8879170Y-49530000D01*
X8990000Y-49640831D01*
X8990000Y-49705050D01*
X8990001Y-49705054D01*
X8990000Y-50648750D01*
X8990000Y-50798850D01*
X8997340Y-50835751D01*
X9001026Y-50873177D01*
X9011943Y-50909164D01*
X9019283Y-50946067D01*
X9033682Y-50980830D01*
X9044598Y-51016814D01*
X9062323Y-51049976D01*
X9076724Y-51084742D01*
X9097630Y-51116031D01*
X9115355Y-51149191D01*
X9139209Y-51178258D01*
X9160116Y-51209547D01*
X9186722Y-51236153D01*
X9210578Y-51265222D01*
X9239648Y-51289079D01*
X9266253Y-51315684D01*
X9297538Y-51336588D01*
X9326608Y-51360445D01*
X9359773Y-51378172D01*
X9391058Y-51399076D01*
X9425820Y-51413475D01*
X9458985Y-51431202D01*
X9494972Y-51442119D01*
X9529733Y-51456517D01*
X9566633Y-51463857D01*
X9602622Y-51474774D01*
X9640050Y-51478460D01*
X9676950Y-51485800D01*
X9714574Y-51485800D01*
X9752000Y-51489486D01*
X9789425Y-51485800D01*
X9827050Y-51485800D01*
X9863951Y-51478460D01*
X9901377Y-51474774D01*
X9937364Y-51463857D01*
X9974267Y-51456517D01*
X10009030Y-51442118D01*
X10045014Y-51431202D01*
X10078176Y-51413477D01*
X10112942Y-51399076D01*
X10144231Y-51378170D01*
X10177391Y-51360445D01*
X10206458Y-51336591D01*
X10237747Y-51315684D01*
X10264353Y-51289078D01*
X10293422Y-51265222D01*
X10317279Y-51236152D01*
X10343884Y-51209547D01*
X10364788Y-51178262D01*
X10388645Y-51149192D01*
X10406372Y-51116027D01*
X10427276Y-51084742D01*
X10441675Y-51049980D01*
X10459402Y-51016815D01*
X10470319Y-50980828D01*
X10484717Y-50946067D01*
X10492057Y-50909167D01*
X10502974Y-50873178D01*
X10506660Y-50835750D01*
X10514000Y-50798850D01*
X10514000Y-49362623D01*
X10517686Y-49325200D01*
X10513269Y-49280351D01*
X10502974Y-49175822D01*
X10459402Y-49032185D01*
X10417998Y-48954724D01*
X10388645Y-48899807D01*
X10317279Y-48812848D01*
X10293422Y-48783778D01*
X10264351Y-48759920D01*
X9760083Y-48255653D01*
X9736222Y-48226578D01*
X9620192Y-48131355D01*
X9487815Y-48060598D01*
X9344178Y-48017026D01*
X9232226Y-48006000D01*
X9232223Y-48006000D01*
X9194800Y-48002314D01*
X9157377Y-48006000D01*
X4786030Y-48006000D01*
X4648200Y-47868170D01*
X4648200Y-45985156D01*
X6883400Y-45985156D01*
X6883400Y-46115244D01*
X6908779Y-46242831D01*
X6958561Y-46363017D01*
X7030834Y-46471180D01*
X7122820Y-46563166D01*
X7230983Y-46635439D01*
X7351169Y-46685221D01*
X7478756Y-46710600D01*
X7608844Y-46710600D01*
X7736431Y-46685221D01*
X7856617Y-46635439D01*
X7964780Y-46563166D01*
X8056766Y-46471180D01*
X8089900Y-46421592D01*
X8123034Y-46471180D01*
X8215020Y-46563166D01*
X8323183Y-46635439D01*
X8443369Y-46685221D01*
X8570956Y-46710600D01*
X8701044Y-46710600D01*
X8828631Y-46685221D01*
X8948817Y-46635439D01*
X9056980Y-46563166D01*
X9148966Y-46471180D01*
X9221239Y-46363017D01*
X9271021Y-46242831D01*
X9296400Y-46115244D01*
X9296400Y-45985156D01*
X9271021Y-45857569D01*
X9221239Y-45737383D01*
X9148966Y-45629220D01*
X9093200Y-45573454D01*
X9093200Y-45274377D01*
X9753600Y-44613978D01*
X10394801Y-45255179D01*
X10394800Y-45573454D01*
X10339034Y-45629220D01*
X10266761Y-45737383D01*
X10216979Y-45857569D01*
X10191600Y-45985156D01*
X10191600Y-46115244D01*
X10216979Y-46242831D01*
X10266761Y-46363017D01*
X10339034Y-46471180D01*
X10431020Y-46563166D01*
X10539183Y-46635439D01*
X10659369Y-46685221D01*
X10786956Y-46710600D01*
X10917044Y-46710600D01*
X11044631Y-46685221D01*
X11164817Y-46635439D01*
X11272980Y-46563166D01*
X11364966Y-46471180D01*
X11422379Y-46385256D01*
X11427392Y-46389370D01*
X11479563Y-46432187D01*
X11522017Y-46454878D01*
X11558991Y-46474641D01*
X11645173Y-46500785D01*
X11712340Y-46507400D01*
X11712349Y-46507400D01*
X11734799Y-46509611D01*
X11757249Y-46507400D01*
X12575254Y-46507400D01*
X12631020Y-46563166D01*
X12739183Y-46635439D01*
X12859369Y-46685221D01*
X12986956Y-46710600D01*
X13117044Y-46710600D01*
X13244631Y-46685221D01*
X13364817Y-46635439D01*
X13472980Y-46563166D01*
X13564966Y-46471180D01*
X13637239Y-46363017D01*
X13687021Y-46242831D01*
X13712400Y-46115244D01*
X13712400Y-45985156D01*
X13687021Y-45857569D01*
X13637239Y-45737383D01*
X13564966Y-45629220D01*
X13472980Y-45537234D01*
X13364817Y-45464961D01*
X13244631Y-45415179D01*
X13117044Y-45389800D01*
X12986956Y-45389800D01*
X12859369Y-45415179D01*
X12739183Y-45464961D01*
X12631020Y-45537234D01*
X12575254Y-45593000D01*
X11924178Y-45593000D01*
X11734800Y-45403623D01*
X11734800Y-44929650D01*
X11737011Y-44907200D01*
X11734800Y-44884750D01*
X11734800Y-44884740D01*
X11728185Y-44817573D01*
X11702041Y-44731391D01*
X11659587Y-44651964D01*
X11641571Y-44630012D01*
X11616770Y-44599792D01*
X11602453Y-44582347D01*
X11585008Y-44568030D01*
X10820400Y-43803423D01*
X10820400Y-31856156D01*
X14039600Y-31856156D01*
X14039600Y-31986244D01*
X14064979Y-32113831D01*
X14114761Y-32234017D01*
X14187034Y-32342180D01*
X14242801Y-32397947D01*
X14242800Y-37207350D01*
X14240589Y-37229800D01*
X14242800Y-37252250D01*
X14242800Y-37252259D01*
X14249415Y-37319426D01*
X14275559Y-37405608D01*
X14318013Y-37485035D01*
X14375147Y-37554653D01*
X14392597Y-37568974D01*
X14799230Y-37975608D01*
X14813547Y-37993053D01*
X14830992Y-38007370D01*
X14883163Y-38050187D01*
X14925617Y-38072878D01*
X14962591Y-38092641D01*
X15048773Y-38118785D01*
X15115940Y-38125400D01*
X15115949Y-38125400D01*
X15138399Y-38127611D01*
X15160849Y-38125400D01*
X15957054Y-38125400D01*
X16012820Y-38181166D01*
X16120983Y-38253439D01*
X16241169Y-38303221D01*
X16368756Y-38328600D01*
X16383000Y-38328600D01*
X16383000Y-38368244D01*
X16408379Y-38495831D01*
X16458161Y-38616017D01*
X16530434Y-38724180D01*
X16622420Y-38816166D01*
X16730583Y-38888439D01*
X16850769Y-38938221D01*
X16978356Y-38963600D01*
X17108444Y-38963600D01*
X17236031Y-38938221D01*
X17356217Y-38888439D01*
X17464380Y-38816166D01*
X17556366Y-38724180D01*
X17628639Y-38616017D01*
X17678421Y-38495831D01*
X17703800Y-38368244D01*
X17703800Y-38328600D01*
X17718044Y-38328600D01*
X17845631Y-38303221D01*
X17965817Y-38253439D01*
X18073980Y-38181166D01*
X18165966Y-38089180D01*
X18238239Y-37981017D01*
X18288021Y-37860831D01*
X18313400Y-37733244D01*
X18313400Y-37603156D01*
X18288021Y-37475569D01*
X18238239Y-37355383D01*
X18165966Y-37247220D01*
X18073980Y-37155234D01*
X17965817Y-37082961D01*
X17907000Y-37058599D01*
X17907000Y-34508081D01*
X17940417Y-34494239D01*
X18048580Y-34421966D01*
X18140566Y-34329980D01*
X18212839Y-34221817D01*
X18262621Y-34101631D01*
X18288000Y-33974044D01*
X18288000Y-33843956D01*
X18262621Y-33716369D01*
X18212839Y-33596183D01*
X18140566Y-33488020D01*
X18048580Y-33396034D01*
X17940417Y-33323761D01*
X17820231Y-33273979D01*
X17692644Y-33248600D01*
X17562556Y-33248600D01*
X17434969Y-33273979D01*
X17314783Y-33323761D01*
X17206620Y-33396034D01*
X17195800Y-33406854D01*
X17184980Y-33396034D01*
X17076817Y-33323761D01*
X16956631Y-33273979D01*
X16829044Y-33248600D01*
X16698956Y-33248600D01*
X16571369Y-33273979D01*
X16451183Y-33323761D01*
X16343020Y-33396034D01*
X16251034Y-33488020D01*
X16178761Y-33596183D01*
X16128979Y-33716369D01*
X16103600Y-33843956D01*
X16103600Y-33974044D01*
X16128979Y-34101631D01*
X16178761Y-34221817D01*
X16251034Y-34329980D01*
X16343020Y-34421966D01*
X16451183Y-34494239D01*
X16571369Y-34544021D01*
X16586201Y-34546971D01*
X16586200Y-37025177D01*
X16498844Y-37007800D01*
X16368756Y-37007800D01*
X16241169Y-37033179D01*
X16120983Y-37082961D01*
X16012820Y-37155234D01*
X15957054Y-37211000D01*
X15327778Y-37211000D01*
X15157200Y-37040423D01*
X15157200Y-32397946D01*
X15212966Y-32342180D01*
X15285239Y-32234017D01*
X15335021Y-32113831D01*
X15360400Y-31986244D01*
X15360400Y-31856156D01*
X15335021Y-31728569D01*
X15285239Y-31608383D01*
X15212966Y-31500220D01*
X15120980Y-31408234D01*
X15012817Y-31335961D01*
X14892631Y-31286179D01*
X14765044Y-31260800D01*
X14634956Y-31260800D01*
X14507369Y-31286179D01*
X14387183Y-31335961D01*
X14279020Y-31408234D01*
X14187034Y-31500220D01*
X14114761Y-31608383D01*
X14064979Y-31728569D01*
X14039600Y-31856156D01*
X10820400Y-31856156D01*
X10820400Y-31393278D01*
X10997058Y-31216620D01*
X18200223Y-31216620D01*
X18456810Y-31473208D01*
X18471127Y-31490653D01*
X18540744Y-31547787D01*
X18620171Y-31590241D01*
X18706353Y-31616385D01*
X18773520Y-31623000D01*
X18773529Y-31623000D01*
X18795979Y-31625211D01*
X18818429Y-31623000D01*
X20224254Y-31623000D01*
X20280020Y-31678766D01*
X20388183Y-31751039D01*
X20508369Y-31800821D01*
X20635956Y-31826200D01*
X20766044Y-31826200D01*
X20893631Y-31800821D01*
X21013817Y-31751039D01*
X21121980Y-31678766D01*
X21213966Y-31586780D01*
X21286239Y-31478617D01*
X21336021Y-31358431D01*
X21361400Y-31230844D01*
X21361400Y-31100756D01*
X21336021Y-30973169D01*
X21286239Y-30852983D01*
X21213966Y-30744820D01*
X21121980Y-30652834D01*
X21013817Y-30580561D01*
X20893631Y-30530779D01*
X20766044Y-30505400D01*
X20675600Y-30505400D01*
X20675600Y-30491156D01*
X20650221Y-30363569D01*
X20600439Y-30243383D01*
X20528166Y-30135220D01*
X20436180Y-30043234D01*
X20328017Y-29970961D01*
X20207831Y-29921179D01*
X20080244Y-29895800D01*
X19950156Y-29895800D01*
X19837400Y-29918229D01*
X19837400Y-29881556D01*
X19820024Y-29794200D01*
X21484040Y-29794200D01*
X21487361Y-29802217D01*
X21559634Y-29910380D01*
X21651620Y-30002366D01*
X21759783Y-30074639D01*
X21879969Y-30124421D01*
X22007556Y-30149800D01*
X22137644Y-30149800D01*
X22265231Y-30124421D01*
X22385417Y-30074639D01*
X22493580Y-30002366D01*
X22585566Y-29910380D01*
X22657839Y-29802217D01*
X22707621Y-29682031D01*
X22733000Y-29554444D01*
X22733000Y-29424356D01*
X22707621Y-29296769D01*
X22657839Y-29176583D01*
X22585566Y-29068420D01*
X22493580Y-28976434D01*
X22385417Y-28904161D01*
X22265231Y-28854379D01*
X22137644Y-28829000D01*
X22007556Y-28829000D01*
X21879969Y-28854379D01*
X21818596Y-28879800D01*
X18437449Y-28879800D01*
X18414999Y-28877589D01*
X18392549Y-28879800D01*
X18392540Y-28879800D01*
X18325373Y-28886415D01*
X18239191Y-28912559D01*
X18159764Y-28955013D01*
X18090147Y-29012147D01*
X18075826Y-29029597D01*
X18022423Y-29083000D01*
X10296750Y-29083000D01*
X10274300Y-29080789D01*
X10251850Y-29083000D01*
X10251840Y-29083000D01*
X10184673Y-29089615D01*
X10118549Y-29109674D01*
X10098490Y-29115759D01*
X10019064Y-29158213D01*
X9966892Y-29201029D01*
X9966886Y-29201035D01*
X9949447Y-29215347D01*
X9935135Y-29232786D01*
X8836592Y-30331331D01*
X8819148Y-30345647D01*
X8804831Y-30363092D01*
X8804830Y-30363093D01*
X8762013Y-30415265D01*
X8727412Y-30480000D01*
X8719560Y-30494691D01*
X8695042Y-30575515D01*
X8693416Y-30580874D01*
X8684589Y-30670500D01*
X8686801Y-30692960D01*
X8686800Y-43803422D01*
X7922192Y-44568030D01*
X7904748Y-44582347D01*
X7890431Y-44599792D01*
X7890430Y-44599793D01*
X7847613Y-44651965D01*
X7820328Y-44703013D01*
X7805160Y-44731391D01*
X7781143Y-44810564D01*
X7779016Y-44817574D01*
X7770189Y-44907200D01*
X7772401Y-44929659D01*
X7772400Y-45403622D01*
X7753693Y-45422329D01*
X7736431Y-45415179D01*
X7608844Y-45389800D01*
X7478756Y-45389800D01*
X7351169Y-45415179D01*
X7230983Y-45464961D01*
X7122820Y-45537234D01*
X7030834Y-45629220D01*
X6958561Y-45737383D01*
X6908779Y-45857569D01*
X6883400Y-45985156D01*
X4648200Y-45985156D01*
X4648200Y-26376356D01*
X15138400Y-26376356D01*
X15138400Y-26506444D01*
X15163779Y-26634031D01*
X15213561Y-26754217D01*
X15285834Y-26862380D01*
X15377820Y-26954366D01*
X15485983Y-27026639D01*
X15606169Y-27076421D01*
X15733756Y-27101800D01*
X15863844Y-27101800D01*
X15991431Y-27076421D01*
X16111617Y-27026639D01*
X16219780Y-26954366D01*
X16311766Y-26862380D01*
X16384039Y-26754217D01*
X16433821Y-26634031D01*
X16459200Y-26506444D01*
X16459200Y-26376356D01*
X16433821Y-26248769D01*
X16384039Y-26128583D01*
X16311766Y-26020420D01*
X16256000Y-25964654D01*
X16256000Y-25741777D01*
X16394578Y-25603200D01*
X24042223Y-25603200D01*
X24206200Y-25767178D01*
X24206201Y-30612853D01*
X24150434Y-30668620D01*
X24078161Y-30776783D01*
X24028379Y-30896969D01*
X24003000Y-31024556D01*
X24003000Y-31154644D01*
X24028379Y-31282231D01*
X24078161Y-31402417D01*
X24150434Y-31510580D01*
X24242420Y-31602566D01*
X24350583Y-31674839D01*
X24470769Y-31724621D01*
X24598356Y-31750000D01*
X24728444Y-31750000D01*
X24856031Y-31724621D01*
X24976217Y-31674839D01*
X25084380Y-31602566D01*
X25176366Y-31510580D01*
X25248639Y-31402417D01*
X25298421Y-31282231D01*
X25323800Y-31154644D01*
X25323800Y-31024556D01*
X25298421Y-30896969D01*
X25248639Y-30776783D01*
X25176366Y-30668620D01*
X25120600Y-30612854D01*
X25120600Y-25600249D01*
X25122811Y-25577799D01*
X25120600Y-25555349D01*
X25120600Y-25555340D01*
X25113985Y-25488173D01*
X25087841Y-25401991D01*
X25045388Y-25322565D01*
X25045387Y-25322563D01*
X25002570Y-25270392D01*
X24988253Y-25252947D01*
X24970809Y-25238631D01*
X24570774Y-24838597D01*
X24556453Y-24821147D01*
X24486836Y-24764013D01*
X24407409Y-24721559D01*
X24321227Y-24695415D01*
X24254060Y-24688800D01*
X24254050Y-24688800D01*
X24231600Y-24686589D01*
X24209150Y-24688800D01*
X16227649Y-24688800D01*
X16205199Y-24686589D01*
X16182749Y-24688800D01*
X16182740Y-24688800D01*
X16115573Y-24695415D01*
X16029391Y-24721559D01*
X15999363Y-24737609D01*
X15949963Y-24764013D01*
X15897792Y-24806830D01*
X15880347Y-24821147D01*
X15866030Y-24838592D01*
X15491392Y-25213231D01*
X15473948Y-25227547D01*
X15459631Y-25244992D01*
X15459630Y-25244993D01*
X15416813Y-25297165D01*
X15403237Y-25322565D01*
X15374360Y-25376591D01*
X15348216Y-25462773D01*
X15345714Y-25488174D01*
X15339389Y-25552400D01*
X15341601Y-25574859D01*
X15341601Y-25964653D01*
X15285834Y-26020420D01*
X15213561Y-26128583D01*
X15163779Y-26248769D01*
X15138400Y-26376356D01*
X4648200Y-26376356D01*
X4648200Y-22134556D01*
X15722600Y-22134556D01*
X15722600Y-22264644D01*
X15747979Y-22392231D01*
X15797761Y-22512417D01*
X15870034Y-22620580D01*
X15962020Y-22712566D01*
X16070183Y-22784839D01*
X16190369Y-22834621D01*
X16317956Y-22860000D01*
X16448044Y-22860000D01*
X16575631Y-22834621D01*
X16695817Y-22784839D01*
X16803980Y-22712566D01*
X16895966Y-22620580D01*
X16910345Y-22599060D01*
X16943036Y-22581587D01*
X16987821Y-22544833D01*
X17038434Y-22620580D01*
X17130420Y-22712566D01*
X17238583Y-22784839D01*
X17358769Y-22834621D01*
X17486356Y-22860000D01*
X17616444Y-22860000D01*
X17744031Y-22834621D01*
X17864217Y-22784839D01*
X17972380Y-22712566D01*
X18028146Y-22656800D01*
X18748150Y-22656800D01*
X18770600Y-22659011D01*
X18793050Y-22656800D01*
X18793060Y-22656800D01*
X18860227Y-22650185D01*
X18946409Y-22624041D01*
X19025836Y-22581587D01*
X19095453Y-22524453D01*
X19109774Y-22507003D01*
X19560609Y-22056169D01*
X19578053Y-22041853D01*
X19606682Y-22006969D01*
X19635187Y-21972237D01*
X19665858Y-21914853D01*
X19677641Y-21892809D01*
X19703785Y-21806627D01*
X19710400Y-21739460D01*
X19710400Y-21739451D01*
X19712611Y-21717001D01*
X19710400Y-21694551D01*
X19710400Y-13941649D01*
X19712611Y-13919199D01*
X19710400Y-13896749D01*
X19710400Y-13896740D01*
X19703785Y-13829573D01*
X19677641Y-13743391D01*
X19657878Y-13706417D01*
X19635187Y-13663963D01*
X19592370Y-13611792D01*
X19578053Y-13594347D01*
X19560608Y-13580030D01*
X19456400Y-13475822D01*
X19456400Y-13396956D01*
X19431021Y-13269369D01*
X19381239Y-13149183D01*
X19308966Y-13041020D01*
X19216980Y-12949034D01*
X19108817Y-12876761D01*
X18988631Y-12826979D01*
X18861044Y-12801600D01*
X18730956Y-12801600D01*
X18603369Y-12826979D01*
X18483183Y-12876761D01*
X18375020Y-12949034D01*
X18283034Y-13041020D01*
X18210761Y-13149183D01*
X18160979Y-13269369D01*
X18135600Y-13396956D01*
X18135600Y-13527044D01*
X18160979Y-13654631D01*
X18210761Y-13774817D01*
X18283034Y-13882980D01*
X18375020Y-13974966D01*
X18483183Y-14047239D01*
X18603318Y-14097000D01*
X18578556Y-14097000D01*
X18450969Y-14122379D01*
X18330783Y-14172161D01*
X18222620Y-14244434D01*
X18130634Y-14336420D01*
X18058361Y-14444583D01*
X18008579Y-14564769D01*
X17983200Y-14692356D01*
X17983200Y-14822444D01*
X18008579Y-14950031D01*
X18058361Y-15070217D01*
X18130634Y-15178380D01*
X18222620Y-15270366D01*
X18330783Y-15342639D01*
X18389601Y-15367002D01*
X18389600Y-21095813D01*
X18352613Y-21132800D01*
X17319850Y-21132800D01*
X17297400Y-21130589D01*
X17274950Y-21132800D01*
X17274940Y-21132800D01*
X17207773Y-21139415D01*
X17141649Y-21159474D01*
X17121590Y-21165559D01*
X17042164Y-21208013D01*
X16989992Y-21250829D01*
X16989986Y-21250835D01*
X16972547Y-21265147D01*
X16958234Y-21282587D01*
X16646775Y-21594047D01*
X16575631Y-21564579D01*
X16448044Y-21539200D01*
X16317956Y-21539200D01*
X16190369Y-21564579D01*
X16070183Y-21614361D01*
X15962020Y-21686634D01*
X15870034Y-21778620D01*
X15797761Y-21886783D01*
X15747979Y-22006969D01*
X15722600Y-22134556D01*
X4648200Y-22134556D01*
X4648200Y-16673230D01*
X4786030Y-16535400D01*
X5663050Y-16535400D01*
X5699950Y-16528060D01*
X5737378Y-16524374D01*
X5773367Y-16513457D01*
X5810267Y-16506117D01*
X5845028Y-16491719D01*
X5881015Y-16480802D01*
X5914180Y-16463075D01*
X5948942Y-16448676D01*
X5980227Y-16427772D01*
X6013392Y-16410045D01*
X6042462Y-16386188D01*
X6073747Y-16365284D01*
X6100352Y-16338679D01*
X6129422Y-16314822D01*
X6153280Y-16285751D01*
X6179884Y-16259147D01*
X6200788Y-16227862D01*
X6224645Y-16198792D01*
X6242372Y-16165627D01*
X6263276Y-16134342D01*
X6277675Y-16099580D01*
X6295402Y-16066415D01*
X6306319Y-16030428D01*
X6320717Y-15995667D01*
X6328057Y-15958767D01*
X6338974Y-15922778D01*
X6342660Y-15885350D01*
X6350000Y-15848450D01*
X6350000Y-15810826D01*
X6353686Y-15773400D01*
X6350000Y-15735974D01*
X6350000Y-15698350D01*
X6342660Y-15661450D01*
X6338974Y-15624022D01*
X6328057Y-15588033D01*
X6320717Y-15551133D01*
X6306319Y-15516372D01*
X6295402Y-15480385D01*
X6277675Y-15447220D01*
X6263276Y-15412458D01*
X6242372Y-15381173D01*
X6224645Y-15348008D01*
X6200788Y-15318938D01*
X6179884Y-15287653D01*
X6153279Y-15261048D01*
X6129422Y-15231978D01*
X6100352Y-15208121D01*
X6073747Y-15181516D01*
X6042462Y-15160612D01*
X6013392Y-15136755D01*
X5980227Y-15119028D01*
X5948942Y-15098124D01*
X5914180Y-15083725D01*
X5881015Y-15065998D01*
X5845028Y-15055081D01*
X5810267Y-15040683D01*
X5773367Y-15033343D01*
X5737378Y-15022426D01*
X5699950Y-15018740D01*
X5663050Y-15011400D01*
X4507823Y-15011400D01*
X4470400Y-15007714D01*
X4432977Y-15011400D01*
X4395350Y-15011400D01*
X4358450Y-15018740D01*
X4321022Y-15022426D01*
X4285033Y-15033343D01*
X4248133Y-15040683D01*
X4213372Y-15055081D01*
X4177385Y-15065998D01*
X4144220Y-15083725D01*
X4109458Y-15098124D01*
X4078175Y-15119026D01*
X4045007Y-15136755D01*
X4015936Y-15160613D01*
X3984653Y-15181516D01*
X3958048Y-15208121D01*
X3928978Y-15231978D01*
X3905121Y-15261048D01*
X3878516Y-15287653D01*
X3878514Y-15287656D01*
X3581400Y-15584770D01*
X3581400Y-9586956D01*
X17983200Y-9586956D01*
X17983200Y-9717044D01*
X18008579Y-9844631D01*
X18058361Y-9964817D01*
X18130634Y-10072980D01*
X18222620Y-10164966D01*
X18330783Y-10237239D01*
X18450969Y-10287021D01*
X18578556Y-10312400D01*
X18708644Y-10312400D01*
X18836231Y-10287021D01*
X18956417Y-10237239D01*
X19064580Y-10164966D01*
X19156566Y-10072980D01*
X19183280Y-10033000D01*
X19724223Y-10033000D01*
X19888201Y-10196979D01*
X19888200Y-21722854D01*
X19832434Y-21778620D01*
X19760161Y-21886783D01*
X19710379Y-22006969D01*
X19685000Y-22134556D01*
X19685000Y-22264644D01*
X19710379Y-22392231D01*
X19760161Y-22512417D01*
X19832434Y-22620580D01*
X19924420Y-22712566D01*
X20032583Y-22784839D01*
X20152769Y-22834621D01*
X20280356Y-22860000D01*
X20410444Y-22860000D01*
X20538031Y-22834621D01*
X20658217Y-22784839D01*
X20766380Y-22712566D01*
X20858366Y-22620580D01*
X20930639Y-22512417D01*
X20980421Y-22392231D01*
X21005800Y-22264644D01*
X21005800Y-22134556D01*
X20980421Y-22006969D01*
X20930639Y-21886783D01*
X20858366Y-21778620D01*
X20802600Y-21722854D01*
X20802600Y-17029156D01*
X30581600Y-17029156D01*
X30581600Y-17159244D01*
X30606979Y-17286831D01*
X30656761Y-17407017D01*
X30729034Y-17515180D01*
X30821020Y-17607166D01*
X30929183Y-17679439D01*
X31049369Y-17729221D01*
X31176956Y-17754600D01*
X31307044Y-17754600D01*
X31434631Y-17729221D01*
X31554817Y-17679439D01*
X31662980Y-17607166D01*
X31718746Y-17551400D01*
X32565750Y-17551400D01*
X32588200Y-17553611D01*
X32610650Y-17551400D01*
X32610660Y-17551400D01*
X32677827Y-17544785D01*
X32764009Y-17518641D01*
X32843436Y-17476187D01*
X32913053Y-17419053D01*
X32927374Y-17401603D01*
X33273409Y-17055569D01*
X33290853Y-17041253D01*
X33347987Y-16971636D01*
X33390441Y-16892209D01*
X33416585Y-16806027D01*
X33423200Y-16738860D01*
X33423200Y-16738850D01*
X33425411Y-16716400D01*
X33423200Y-16693950D01*
X33423200Y-10563746D01*
X33478966Y-10507980D01*
X33551239Y-10399817D01*
X33601021Y-10279631D01*
X33626400Y-10152044D01*
X33626400Y-10021956D01*
X33601021Y-9894369D01*
X33551239Y-9774183D01*
X33478966Y-9666020D01*
X33386980Y-9574034D01*
X33278817Y-9501761D01*
X33158631Y-9451979D01*
X33031044Y-9426600D01*
X32900956Y-9426600D01*
X32773369Y-9451979D01*
X32653183Y-9501761D01*
X32545020Y-9574034D01*
X32453034Y-9666020D01*
X32380761Y-9774183D01*
X32330979Y-9894369D01*
X32305600Y-10021956D01*
X32305600Y-10152044D01*
X32330979Y-10279631D01*
X32380761Y-10399817D01*
X32453034Y-10507980D01*
X32508801Y-10563747D01*
X32508800Y-16527022D01*
X32398823Y-16637000D01*
X31718746Y-16637000D01*
X31662980Y-16581234D01*
X31554817Y-16508961D01*
X31434631Y-16459179D01*
X31307044Y-16433800D01*
X31176956Y-16433800D01*
X31049369Y-16459179D01*
X30929183Y-16508961D01*
X30821020Y-16581234D01*
X30729034Y-16673220D01*
X30656761Y-16781383D01*
X30606979Y-16901569D01*
X30581600Y-17029156D01*
X20802600Y-17029156D01*
X20802600Y-10030049D01*
X20804811Y-10007599D01*
X20802600Y-9985149D01*
X20802600Y-9985140D01*
X20795985Y-9917973D01*
X20769841Y-9831791D01*
X20750078Y-9794817D01*
X20727387Y-9752363D01*
X20684570Y-9700192D01*
X20670253Y-9682747D01*
X20652808Y-9668430D01*
X20252774Y-9268397D01*
X20238453Y-9250947D01*
X20168836Y-9193813D01*
X20089409Y-9151359D01*
X20003227Y-9125215D01*
X19936060Y-9118600D01*
X19936050Y-9118600D01*
X19913600Y-9116389D01*
X19891150Y-9118600D01*
X19033999Y-9118600D01*
X18956417Y-9066761D01*
X18836231Y-9016979D01*
X18708644Y-8991600D01*
X18578556Y-8991600D01*
X18450969Y-9016979D01*
X18330783Y-9066761D01*
X18222620Y-9139034D01*
X18130634Y-9231020D01*
X18058361Y-9339183D01*
X18008579Y-9459369D01*
X17983200Y-9586956D01*
X3581400Y-9586956D01*
X3581400Y-5268956D01*
X5816600Y-5268956D01*
X5816600Y-5399044D01*
X5841979Y-5526631D01*
X5891761Y-5646817D01*
X5964034Y-5754980D01*
X6056020Y-5846966D01*
X6164183Y-5919239D01*
X6284369Y-5969021D01*
X6411956Y-5994400D01*
X6542044Y-5994400D01*
X6669631Y-5969021D01*
X6789817Y-5919239D01*
X6897980Y-5846966D01*
X6989966Y-5754980D01*
X7062239Y-5646817D01*
X7107643Y-5537200D01*
X13272622Y-5537200D01*
X13536301Y-5800879D01*
X13536300Y-8055754D01*
X13480534Y-8111520D01*
X13408261Y-8219683D01*
X13358479Y-8339869D01*
X13333100Y-8467456D01*
X13333100Y-8597544D01*
X13358479Y-8725131D01*
X13408261Y-8845317D01*
X13480534Y-8953480D01*
X13572520Y-9045466D01*
X13680683Y-9117739D01*
X13800869Y-9167521D01*
X13928456Y-9192900D01*
X14058544Y-9192900D01*
X14186131Y-9167521D01*
X14306317Y-9117739D01*
X14414480Y-9045466D01*
X14506466Y-8953480D01*
X14578739Y-8845317D01*
X14628521Y-8725131D01*
X14653900Y-8597544D01*
X14653900Y-8467456D01*
X14628521Y-8339869D01*
X14578739Y-8219683D01*
X14506466Y-8111520D01*
X14450700Y-8055754D01*
X14450700Y-5633952D01*
X14452911Y-5611500D01*
X14450700Y-5589048D01*
X14450700Y-5589040D01*
X14444085Y-5521873D01*
X14417941Y-5435691D01*
X14417941Y-5435690D01*
X14375487Y-5356264D01*
X14332671Y-5304092D01*
X14332665Y-5304086D01*
X14318353Y-5286647D01*
X14300913Y-5272334D01*
X13801174Y-4772597D01*
X13786853Y-4755147D01*
X13717236Y-4698013D01*
X13637809Y-4655559D01*
X13551627Y-4629415D01*
X13484460Y-4622800D01*
X13484450Y-4622800D01*
X13462000Y-4620589D01*
X13439550Y-4622800D01*
X6753449Y-4622800D01*
X6730999Y-4620589D01*
X6708549Y-4622800D01*
X6708540Y-4622800D01*
X6641373Y-4629415D01*
X6555191Y-4655559D01*
X6521438Y-4673600D01*
X6411956Y-4673600D01*
X6284369Y-4698979D01*
X6164183Y-4748761D01*
X6056020Y-4821034D01*
X5964034Y-4913020D01*
X5891761Y-5021183D01*
X5841979Y-5141369D01*
X5816600Y-5268956D01*
X3581400Y-5268956D01*
X3581400Y-4000000D01*
X16736148Y-4000000D01*
X16769079Y-4334356D01*
X16866607Y-4655863D01*
X17024984Y-4952165D01*
X17238124Y-5211876D01*
X17497835Y-5425016D01*
X17794137Y-5583393D01*
X18115644Y-5680921D01*
X18366216Y-5705600D01*
X19633784Y-5705600D01*
X19884356Y-5680921D01*
X20205863Y-5583393D01*
X20502165Y-5425016D01*
X20761876Y-5211876D01*
X20975016Y-4952165D01*
X21133393Y-4655863D01*
X21230921Y-4334356D01*
X21263852Y-4000000D01*
X21230921Y-3665644D01*
X21133393Y-3344137D01*
X20975016Y-3047835D01*
X20761876Y-2788124D01*
X20502165Y-2574984D01*
X20205863Y-2416607D01*
X19884356Y-2319079D01*
X19633784Y-2294400D01*
X18366216Y-2294400D01*
X18115644Y-2319079D01*
X17794137Y-2416607D01*
X17497835Y-2574984D01*
X17238124Y-2788124D01*
X17024984Y-3047835D01*
X16866607Y-3344137D01*
X16769079Y-3665644D01*
X16736148Y-4000000D01*
X3581400Y-4000000D01*
X3581400Y-3304862D01*
X4041463Y-2844800D01*
X14975169Y-2844800D01*
X15008253Y-2877884D01*
X15133058Y-2961276D01*
X15271733Y-3018717D01*
X15418950Y-3048000D01*
X15569050Y-3048000D01*
X15716267Y-3018717D01*
X15854942Y-2961276D01*
X15979747Y-2877884D01*
X16085884Y-2771747D01*
X16169276Y-2646942D01*
X16226717Y-2508267D01*
X16256000Y-2361050D01*
X16256000Y-2210950D01*
X16226717Y-2063733D01*
X16169276Y-1925058D01*
X16085884Y-1800253D01*
X15979747Y-1694116D01*
X15854942Y-1610724D01*
X15716267Y-1553283D01*
X15569050Y-1524000D01*
X15418950Y-1524000D01*
X15271733Y-1553283D01*
X15133058Y-1610724D01*
X15008253Y-1694116D01*
X14975169Y-1727200D01*
X3837444Y-1727200D01*
X3810000Y-1724497D01*
X3700455Y-1735286D01*
X3595122Y-1767239D01*
X3498045Y-1819127D01*
X3447995Y-1860202D01*
X3412957Y-1888957D01*
X3395462Y-1910276D01*
X2646881Y-2658857D01*
X2625557Y-2676357D01*
X2555727Y-2761446D01*
X2503839Y-2858523D01*
X2471886Y-2963857D01*
X2466483Y-3018717D01*
X2461097Y-3073400D01*
X380600Y-3073400D01*
X380600Y-380600D01*
X37619400Y-380600D01*
X37619401Y-89619400D01*
G37*
G04 #@! TD.AperFunction*
M02*
