G04 #@! TF.GenerationSoftware,KiCad,Pcbnew,5.1.12-84ad8e8a86~92~ubuntu18.04.1*
G04 #@! TF.CreationDate,2023-10-05T13:55:54+02:00*
G04 #@! TF.ProjectId,acoustic-impact-ball,61636f75-7374-4696-932d-696d70616374,rev?*
G04 #@! TF.SameCoordinates,Original*
G04 #@! TF.FileFunction,Legend,Bot*
G04 #@! TF.FilePolarity,Positive*
%FSLAX46Y46*%
G04 Gerber Fmt 4.6, Leading zero omitted, Abs format (unit mm)*
G04 Created by KiCad (PCBNEW 5.1.12-84ad8e8a86~92~ubuntu18.04.1) date 2023-10-05 13:55:54*
%MOMM*%
%LPD*%
G01*
G04 APERTURE LIST*
%ADD10C,0.203200*%
%ADD11C,0.254000*%
%ADD12C,0.152400*%
%ADD13C,0.010000*%
%ADD14C,0.150000*%
%ADD15C,0.400000*%
G04 APERTURE END LIST*
D10*
X3914019Y-14066761D02*
X3430209Y-13728095D01*
X3914019Y-13486190D02*
X2898019Y-13486190D01*
X2898019Y-13873238D01*
X2946400Y-13970000D01*
X2994780Y-14018380D01*
X3091542Y-14066761D01*
X3236685Y-14066761D01*
X3333447Y-14018380D01*
X3381828Y-13970000D01*
X3430209Y-13873238D01*
X3430209Y-13486190D01*
X3865638Y-14889238D02*
X3914019Y-14792476D01*
X3914019Y-14598952D01*
X3865638Y-14502190D01*
X3768876Y-14453809D01*
X3381828Y-14453809D01*
X3285066Y-14502190D01*
X3236685Y-14598952D01*
X3236685Y-14792476D01*
X3285066Y-14889238D01*
X3381828Y-14937619D01*
X3478590Y-14937619D01*
X3575352Y-14453809D01*
X3914019Y-15518190D02*
X3865638Y-15421428D01*
X3768876Y-15373047D01*
X2898019Y-15373047D01*
X3865638Y-16292285D02*
X3914019Y-16195523D01*
X3914019Y-16002000D01*
X3865638Y-15905238D01*
X3768876Y-15856857D01*
X3381828Y-15856857D01*
X3285066Y-15905238D01*
X3236685Y-16002000D01*
X3236685Y-16195523D01*
X3285066Y-16292285D01*
X3381828Y-16340666D01*
X3478590Y-16340666D01*
X3575352Y-15856857D01*
X3914019Y-17211523D02*
X3381828Y-17211523D01*
X3285066Y-17163142D01*
X3236685Y-17066380D01*
X3236685Y-16872857D01*
X3285066Y-16776095D01*
X3865638Y-17211523D02*
X3914019Y-17114761D01*
X3914019Y-16872857D01*
X3865638Y-16776095D01*
X3768876Y-16727714D01*
X3672114Y-16727714D01*
X3575352Y-16776095D01*
X3526971Y-16872857D01*
X3526971Y-17114761D01*
X3478590Y-17211523D01*
X3865638Y-17646952D02*
X3914019Y-17743714D01*
X3914019Y-17937238D01*
X3865638Y-18034000D01*
X3768876Y-18082380D01*
X3720495Y-18082380D01*
X3623733Y-18034000D01*
X3575352Y-17937238D01*
X3575352Y-17792095D01*
X3526971Y-17695333D01*
X3430209Y-17646952D01*
X3381828Y-17646952D01*
X3285066Y-17695333D01*
X3236685Y-17792095D01*
X3236685Y-17937238D01*
X3285066Y-18034000D01*
X3865638Y-18904857D02*
X3914019Y-18808095D01*
X3914019Y-18614571D01*
X3865638Y-18517809D01*
X3768876Y-18469428D01*
X3381828Y-18469428D01*
X3285066Y-18517809D01*
X3236685Y-18614571D01*
X3236685Y-18808095D01*
X3285066Y-18904857D01*
X3381828Y-18953238D01*
X3478590Y-18953238D01*
X3575352Y-18469428D01*
X3914019Y-19824095D02*
X2898019Y-19824095D01*
X3865638Y-19824095D02*
X3914019Y-19727333D01*
X3914019Y-19533809D01*
X3865638Y-19437047D01*
X3817257Y-19388666D01*
X3720495Y-19340285D01*
X3430209Y-19340285D01*
X3333447Y-19388666D01*
X3285066Y-19437047D01*
X3236685Y-19533809D01*
X3236685Y-19727333D01*
X3285066Y-19824095D01*
X3236685Y-21517428D02*
X3914019Y-21517428D01*
X3236685Y-21081999D02*
X3768876Y-21081999D01*
X3865638Y-21130380D01*
X3914019Y-21227142D01*
X3914019Y-21372285D01*
X3865638Y-21469047D01*
X3817257Y-21517428D01*
X3236685Y-22001238D02*
X3914019Y-22001238D01*
X3333447Y-22001238D02*
X3285066Y-22049619D01*
X3236685Y-22146380D01*
X3236685Y-22291523D01*
X3285066Y-22388285D01*
X3381828Y-22436666D01*
X3914019Y-22436666D01*
X3914019Y-23355904D02*
X2898019Y-23355904D01*
X3865638Y-23355904D02*
X3914019Y-23259142D01*
X3914019Y-23065619D01*
X3865638Y-22968857D01*
X3817257Y-22920476D01*
X3720495Y-22872095D01*
X3430209Y-22872095D01*
X3333447Y-22920476D01*
X3285066Y-22968857D01*
X3236685Y-23065619D01*
X3236685Y-23259142D01*
X3285066Y-23355904D01*
X3865638Y-24226761D02*
X3914019Y-24130000D01*
X3914019Y-23936476D01*
X3865638Y-23839714D01*
X3768876Y-23791333D01*
X3381828Y-23791333D01*
X3285066Y-23839714D01*
X3236685Y-23936476D01*
X3236685Y-24130000D01*
X3285066Y-24226761D01*
X3381828Y-24275142D01*
X3478590Y-24275142D01*
X3575352Y-23791333D01*
X3914019Y-24710571D02*
X3236685Y-24710571D01*
X3430209Y-24710571D02*
X3333447Y-24758952D01*
X3285066Y-24807333D01*
X3236685Y-24904095D01*
X3236685Y-25000857D01*
X2946400Y-26645809D02*
X2898019Y-26549047D01*
X2898019Y-26403904D01*
X2946400Y-26258761D01*
X3043161Y-26162000D01*
X3139923Y-26113619D01*
X3333447Y-26065238D01*
X3478590Y-26065238D01*
X3672114Y-26113619D01*
X3768876Y-26162000D01*
X3865638Y-26258761D01*
X3914019Y-26403904D01*
X3914019Y-26500666D01*
X3865638Y-26645809D01*
X3817257Y-26694190D01*
X3478590Y-26694190D01*
X3478590Y-26500666D01*
X3914019Y-27129619D02*
X2898019Y-27129619D01*
X3914019Y-27710190D01*
X2898019Y-27710190D01*
X2898019Y-28194000D02*
X3720495Y-28194000D01*
X3817257Y-28242380D01*
X3865638Y-28290761D01*
X3914019Y-28387523D01*
X3914019Y-28581047D01*
X3865638Y-28677809D01*
X3817257Y-28726190D01*
X3720495Y-28774571D01*
X2898019Y-28774571D01*
X2849638Y-29984095D02*
X4155923Y-29113238D01*
X2946400Y-30854952D02*
X2898019Y-30758190D01*
X2898019Y-30613047D01*
X2946400Y-30467904D01*
X3043161Y-30371142D01*
X3139923Y-30322761D01*
X3333447Y-30274380D01*
X3478590Y-30274380D01*
X3672114Y-30322761D01*
X3768876Y-30371142D01*
X3865638Y-30467904D01*
X3914019Y-30613047D01*
X3914019Y-30709809D01*
X3865638Y-30854952D01*
X3817257Y-30903333D01*
X3478590Y-30903333D01*
X3478590Y-30709809D01*
X3914019Y-31338761D02*
X2898019Y-31338761D01*
X2898019Y-31725809D01*
X2946399Y-31822571D01*
X2994780Y-31870952D01*
X3091542Y-31919333D01*
X3236685Y-31919333D01*
X3333447Y-31870952D01*
X3381828Y-31822571D01*
X3430209Y-31725809D01*
X3430209Y-31338761D01*
X3914019Y-32838571D02*
X3914019Y-32354761D01*
X2898019Y-32354761D01*
X2898019Y-33854571D02*
X2898019Y-34483523D01*
X3285066Y-34144857D01*
X3285066Y-34290000D01*
X3333447Y-34386761D01*
X3381828Y-34435142D01*
X3478590Y-34483523D01*
X3720495Y-34483523D01*
X3817257Y-34435142D01*
X3865638Y-34386761D01*
X3914019Y-34290000D01*
X3914019Y-33999714D01*
X3865638Y-33902952D01*
X3817257Y-33854571D01*
X3914019Y-36176857D02*
X3914019Y-35693047D01*
X2898019Y-35693047D01*
X3914019Y-36515523D02*
X3236685Y-36515523D01*
X2898019Y-36515523D02*
X2946399Y-36467142D01*
X2994780Y-36515523D01*
X2946399Y-36563904D01*
X2898019Y-36515523D01*
X2994780Y-36515523D01*
X3865638Y-37434761D02*
X3914019Y-37338000D01*
X3914019Y-37144476D01*
X3865638Y-37047714D01*
X3817257Y-36999333D01*
X3720495Y-36950952D01*
X3430209Y-36950952D01*
X3333447Y-36999333D01*
X3285066Y-37047714D01*
X3236685Y-37144476D01*
X3236685Y-37338000D01*
X3285066Y-37434761D01*
X3865638Y-38257238D02*
X3914019Y-38160476D01*
X3914019Y-37966952D01*
X3865638Y-37870190D01*
X3768876Y-37821809D01*
X3381828Y-37821809D01*
X3285066Y-37870190D01*
X3236685Y-37966952D01*
X3236685Y-38160476D01*
X3285066Y-38257238D01*
X3381828Y-38305619D01*
X3478590Y-38305619D01*
X3575352Y-37821809D01*
X3236685Y-38741047D02*
X3914019Y-38741047D01*
X3333447Y-38741047D02*
X3285066Y-38789428D01*
X3236685Y-38886190D01*
X3236685Y-39031333D01*
X3285066Y-39128095D01*
X3381828Y-39176476D01*
X3914019Y-39176476D01*
X3865638Y-39611904D02*
X3914019Y-39708666D01*
X3914019Y-39902190D01*
X3865638Y-39998952D01*
X3768876Y-40047333D01*
X3720495Y-40047333D01*
X3623733Y-39998952D01*
X3575352Y-39902190D01*
X3575352Y-39757047D01*
X3526971Y-39660285D01*
X3430209Y-39611904D01*
X3381828Y-39611904D01*
X3285066Y-39660285D01*
X3236685Y-39757047D01*
X3236685Y-39902190D01*
X3285066Y-39998952D01*
X3865638Y-40869809D02*
X3914019Y-40773047D01*
X3914019Y-40579523D01*
X3865638Y-40482761D01*
X3768876Y-40434380D01*
X3381828Y-40434380D01*
X3285066Y-40482761D01*
X3236685Y-40579523D01*
X3236685Y-40773047D01*
X3285066Y-40869809D01*
X3381828Y-40918190D01*
X3478590Y-40918190D01*
X3575352Y-40434380D01*
X5641219Y-12228285D02*
X4625219Y-12228285D01*
X5641219Y-12663714D02*
X5109028Y-12663714D01*
X5012266Y-12615333D01*
X4963885Y-12518571D01*
X4963885Y-12373428D01*
X5012266Y-12276666D01*
X5060647Y-12228285D01*
X4963885Y-13002380D02*
X4963885Y-13389428D01*
X4625219Y-13147523D02*
X5496076Y-13147523D01*
X5592838Y-13195904D01*
X5641219Y-13292666D01*
X5641219Y-13389428D01*
X4963885Y-13582952D02*
X4963885Y-13969999D01*
X4625219Y-13728095D02*
X5496076Y-13728095D01*
X5592838Y-13776476D01*
X5641219Y-13873238D01*
X5641219Y-13969999D01*
X4963885Y-14308666D02*
X5979885Y-14308666D01*
X5012266Y-14308666D02*
X4963885Y-14405428D01*
X4963885Y-14598952D01*
X5012266Y-14695714D01*
X5060647Y-14744095D01*
X5157409Y-14792476D01*
X5447695Y-14792476D01*
X5544457Y-14744095D01*
X5592838Y-14695714D01*
X5641219Y-14598952D01*
X5641219Y-14405428D01*
X5592838Y-14308666D01*
X5592838Y-15179523D02*
X5641219Y-15276285D01*
X5641219Y-15469809D01*
X5592838Y-15566571D01*
X5496076Y-15614952D01*
X5447695Y-15614952D01*
X5350933Y-15566571D01*
X5302552Y-15469809D01*
X5302552Y-15324666D01*
X5254171Y-15227904D01*
X5157409Y-15179523D01*
X5109028Y-15179523D01*
X5012266Y-15227904D01*
X4963885Y-15324666D01*
X4963885Y-15469809D01*
X5012266Y-15566571D01*
X5544457Y-16050380D02*
X5592838Y-16098761D01*
X5641219Y-16050380D01*
X5592838Y-16002000D01*
X5544457Y-16050380D01*
X5641219Y-16050380D01*
X5012266Y-16050380D02*
X5060647Y-16098761D01*
X5109028Y-16050380D01*
X5060647Y-16002000D01*
X5012266Y-16050380D01*
X5109028Y-16050380D01*
X4576838Y-17259904D02*
X5883123Y-16389047D01*
X4576838Y-18324285D02*
X5883123Y-17453428D01*
X4963885Y-18566190D02*
X5641219Y-18759714D01*
X5157409Y-18953238D01*
X5641219Y-19146761D01*
X4963885Y-19340285D01*
X4963885Y-19630571D02*
X5641219Y-19824095D01*
X5157409Y-20017619D01*
X5641219Y-20211142D01*
X4963885Y-20404666D01*
X4963885Y-20694952D02*
X5641219Y-20888476D01*
X5157409Y-21081999D01*
X5641219Y-21275523D01*
X4963885Y-21469047D01*
X5544457Y-21856095D02*
X5592838Y-21904476D01*
X5641219Y-21856095D01*
X5592838Y-21807714D01*
X5544457Y-21856095D01*
X5641219Y-21856095D01*
X4963885Y-22775333D02*
X5786361Y-22775333D01*
X5883123Y-22726952D01*
X5931504Y-22678571D01*
X5979885Y-22581809D01*
X5979885Y-22436666D01*
X5931504Y-22339904D01*
X5592838Y-22775333D02*
X5641219Y-22678571D01*
X5641219Y-22485047D01*
X5592838Y-22388285D01*
X5544457Y-22339904D01*
X5447695Y-22291523D01*
X5157409Y-22291523D01*
X5060647Y-22339904D01*
X5012266Y-22388285D01*
X4963885Y-22485047D01*
X4963885Y-22678571D01*
X5012266Y-22775333D01*
X4963885Y-23259142D02*
X5641219Y-23259142D01*
X5060647Y-23259142D02*
X5012266Y-23307523D01*
X4963885Y-23404285D01*
X4963885Y-23549428D01*
X5012266Y-23646190D01*
X5109028Y-23694571D01*
X5641219Y-23694571D01*
X4963885Y-24613809D02*
X5641219Y-24613809D01*
X4963885Y-24178380D02*
X5496076Y-24178380D01*
X5592838Y-24226761D01*
X5641219Y-24323523D01*
X5641219Y-24468666D01*
X5592838Y-24565428D01*
X5544457Y-24613809D01*
X5544457Y-25097619D02*
X5592838Y-25145999D01*
X5641219Y-25097619D01*
X5592838Y-25049238D01*
X5544457Y-25097619D01*
X5641219Y-25097619D01*
X5641219Y-25726571D02*
X5592838Y-25629809D01*
X5544457Y-25581428D01*
X5447695Y-25533047D01*
X5157409Y-25533047D01*
X5060647Y-25581428D01*
X5012266Y-25629809D01*
X4963885Y-25726571D01*
X4963885Y-25871714D01*
X5012266Y-25968476D01*
X5060647Y-26016857D01*
X5157409Y-26065238D01*
X5447695Y-26065238D01*
X5544457Y-26016857D01*
X5592838Y-25968476D01*
X5641219Y-25871714D01*
X5641219Y-25726571D01*
X5641219Y-26500666D02*
X4963885Y-26500666D01*
X5157409Y-26500666D02*
X5060647Y-26549047D01*
X5012266Y-26597428D01*
X4963885Y-26694190D01*
X4963885Y-26790952D01*
X4963885Y-27565047D02*
X5786361Y-27565047D01*
X5883123Y-27516666D01*
X5931504Y-27468285D01*
X5979885Y-27371523D01*
X5979885Y-27226380D01*
X5931504Y-27129619D01*
X5592838Y-27565047D02*
X5641219Y-27468285D01*
X5641219Y-27274761D01*
X5592838Y-27177999D01*
X5544457Y-27129619D01*
X5447695Y-27081238D01*
X5157409Y-27081238D01*
X5060647Y-27129619D01*
X5012266Y-27177999D01*
X4963885Y-27274761D01*
X4963885Y-27468285D01*
X5012266Y-27565047D01*
X4576838Y-28774571D02*
X5883123Y-27903714D01*
X5641219Y-29258380D02*
X5592838Y-29161619D01*
X5496076Y-29113238D01*
X4625219Y-29113238D01*
X5641219Y-29645428D02*
X4963885Y-29645428D01*
X4625219Y-29645428D02*
X4673600Y-29597047D01*
X4721980Y-29645428D01*
X4673600Y-29693809D01*
X4625219Y-29645428D01*
X4721980Y-29645428D01*
X5592838Y-30564666D02*
X5641219Y-30467904D01*
X5641219Y-30274380D01*
X5592838Y-30177619D01*
X5544457Y-30129238D01*
X5447695Y-30080857D01*
X5157409Y-30080857D01*
X5060647Y-30129238D01*
X5012266Y-30177619D01*
X4963885Y-30274380D01*
X4963885Y-30467904D01*
X5012266Y-30564666D01*
X5592838Y-31387142D02*
X5641219Y-31290380D01*
X5641219Y-31096857D01*
X5592838Y-31000095D01*
X5496076Y-30951714D01*
X5109028Y-30951714D01*
X5012266Y-31000095D01*
X4963885Y-31096857D01*
X4963885Y-31290380D01*
X5012266Y-31387142D01*
X5109028Y-31435523D01*
X5205790Y-31435523D01*
X5302552Y-30951714D01*
X4963885Y-31870952D02*
X5641219Y-31870952D01*
X5060647Y-31870952D02*
X5012266Y-31919333D01*
X4963885Y-32016095D01*
X4963885Y-32161238D01*
X5012266Y-32257999D01*
X5109028Y-32306380D01*
X5641219Y-32306380D01*
X5592838Y-32741809D02*
X5641219Y-32838571D01*
X5641219Y-33032095D01*
X5592838Y-33128857D01*
X5496076Y-33177238D01*
X5447695Y-33177238D01*
X5350933Y-33128857D01*
X5302552Y-33032095D01*
X5302552Y-32886952D01*
X5254171Y-32790190D01*
X5157409Y-32741809D01*
X5109028Y-32741809D01*
X5012266Y-32790190D01*
X4963885Y-32886952D01*
X4963885Y-33032095D01*
X5012266Y-33128857D01*
X5592838Y-33999714D02*
X5641219Y-33902952D01*
X5641219Y-33709428D01*
X5592838Y-33612666D01*
X5496076Y-33564285D01*
X5109028Y-33564285D01*
X5012266Y-33612666D01*
X4963885Y-33709428D01*
X4963885Y-33902952D01*
X5012266Y-33999714D01*
X5109028Y-34048095D01*
X5205790Y-34048095D01*
X5302552Y-33564285D01*
X5592838Y-34435142D02*
X5641219Y-34531904D01*
X5641219Y-34725428D01*
X5592838Y-34822190D01*
X5496076Y-34870571D01*
X5447695Y-34870571D01*
X5350933Y-34822190D01*
X5302552Y-34725428D01*
X5302552Y-34580285D01*
X5254171Y-34483523D01*
X5157409Y-34435142D01*
X5109028Y-34435142D01*
X5012266Y-34483523D01*
X4963885Y-34580285D01*
X4963885Y-34725428D01*
X5012266Y-34822190D01*
X4576838Y-36031714D02*
X5883123Y-35160857D01*
X4963885Y-36805809D02*
X5786361Y-36805809D01*
X5883123Y-36757428D01*
X5931504Y-36709047D01*
X5979885Y-36612285D01*
X5979885Y-36467142D01*
X5931504Y-36370380D01*
X5592838Y-36805809D02*
X5641219Y-36709047D01*
X5641219Y-36515523D01*
X5592838Y-36418761D01*
X5544457Y-36370380D01*
X5447695Y-36322000D01*
X5157409Y-36322000D01*
X5060647Y-36370380D01*
X5012266Y-36418761D01*
X4963885Y-36515523D01*
X4963885Y-36709047D01*
X5012266Y-36805809D01*
X4963885Y-37289619D02*
X5979885Y-37289619D01*
X5012266Y-37289619D02*
X4963885Y-37386380D01*
X4963885Y-37579904D01*
X5012266Y-37676666D01*
X5060647Y-37725047D01*
X5157409Y-37773428D01*
X5447695Y-37773428D01*
X5544457Y-37725047D01*
X5592838Y-37676666D01*
X5641219Y-37579904D01*
X5641219Y-37386380D01*
X5592838Y-37289619D01*
X5641219Y-38354000D02*
X5592838Y-38257238D01*
X5496076Y-38208857D01*
X4625219Y-38208857D01*
X5544457Y-38741047D02*
X5592838Y-38789428D01*
X5641219Y-38741047D01*
X5592838Y-38692666D01*
X5544457Y-38741047D01*
X5641219Y-38741047D01*
X5641219Y-39224857D02*
X4625219Y-39224857D01*
X5641219Y-39660285D02*
X5109028Y-39660285D01*
X5012266Y-39611904D01*
X4963885Y-39515142D01*
X4963885Y-39370000D01*
X5012266Y-39273238D01*
X5060647Y-39224857D01*
X4963885Y-39998952D02*
X4963885Y-40386000D01*
X4625219Y-40144095D02*
X5496076Y-40144095D01*
X5592838Y-40192476D01*
X5641219Y-40289238D01*
X5641219Y-40386000D01*
X5641219Y-40724666D02*
X4963885Y-40724666D01*
X5060647Y-40724666D02*
X5012266Y-40773047D01*
X4963885Y-40869809D01*
X4963885Y-41014952D01*
X5012266Y-41111714D01*
X5109028Y-41160095D01*
X5641219Y-41160095D01*
X5109028Y-41160095D02*
X5012266Y-41208476D01*
X4963885Y-41305238D01*
X4963885Y-41450380D01*
X5012266Y-41547142D01*
X5109028Y-41595523D01*
X5641219Y-41595523D01*
X5641219Y-42224476D02*
X5592838Y-42127714D01*
X5496076Y-42079333D01*
X4625219Y-42079333D01*
D11*
X34235571Y-7819571D02*
X34296047Y-7759095D01*
X34356523Y-7577666D01*
X34356523Y-7456714D01*
X34296047Y-7275285D01*
X34175095Y-7154333D01*
X34054142Y-7093857D01*
X33812238Y-7033380D01*
X33630809Y-7033380D01*
X33388904Y-7093857D01*
X33267952Y-7154333D01*
X33147000Y-7275285D01*
X33086523Y-7456714D01*
X33086523Y-7577666D01*
X33147000Y-7759095D01*
X33207476Y-7819571D01*
X34356523Y-8545285D02*
X34296047Y-8424333D01*
X34235571Y-8363857D01*
X34114619Y-8303380D01*
X33751761Y-8303380D01*
X33630809Y-8363857D01*
X33570333Y-8424333D01*
X33509857Y-8545285D01*
X33509857Y-8726714D01*
X33570333Y-8847666D01*
X33630809Y-8908142D01*
X33751761Y-8968619D01*
X34114619Y-8968619D01*
X34235571Y-8908142D01*
X34296047Y-8847666D01*
X34356523Y-8726714D01*
X34356523Y-8545285D01*
X33509857Y-9512904D02*
X34779857Y-9512904D01*
X33570333Y-9512904D02*
X33509857Y-9633857D01*
X33509857Y-9875761D01*
X33570333Y-9996714D01*
X33630809Y-10057190D01*
X33751761Y-10117666D01*
X34114619Y-10117666D01*
X34235571Y-10057190D01*
X34296047Y-9996714D01*
X34356523Y-9875761D01*
X34356523Y-9633857D01*
X34296047Y-9512904D01*
X33509857Y-10541000D02*
X34356523Y-10843380D01*
X33509857Y-11145761D02*
X34356523Y-10843380D01*
X34658904Y-10722428D01*
X34719380Y-10661952D01*
X34779857Y-10541000D01*
X34356523Y-11629571D02*
X33509857Y-11629571D01*
X33751761Y-11629571D02*
X33630809Y-11690047D01*
X33570333Y-11750523D01*
X33509857Y-11871476D01*
X33509857Y-11992428D01*
X34356523Y-12415761D02*
X33509857Y-12415761D01*
X33086523Y-12415761D02*
X33147000Y-12355285D01*
X33207476Y-12415761D01*
X33147000Y-12476238D01*
X33086523Y-12415761D01*
X33207476Y-12415761D01*
X33509857Y-13564809D02*
X34537952Y-13564809D01*
X34658904Y-13504333D01*
X34719380Y-13443857D01*
X34779857Y-13322904D01*
X34779857Y-13141476D01*
X34719380Y-13020523D01*
X34296047Y-13564809D02*
X34356523Y-13443857D01*
X34356523Y-13201952D01*
X34296047Y-13081000D01*
X34235571Y-13020523D01*
X34114619Y-12960047D01*
X33751761Y-12960047D01*
X33630809Y-13020523D01*
X33570333Y-13081000D01*
X33509857Y-13201952D01*
X33509857Y-13443857D01*
X33570333Y-13564809D01*
X34356523Y-14169571D02*
X33086523Y-14169571D01*
X34356523Y-14713857D02*
X33691285Y-14713857D01*
X33570333Y-14653380D01*
X33509857Y-14532428D01*
X33509857Y-14351000D01*
X33570333Y-14230047D01*
X33630809Y-14169571D01*
X33509857Y-15137190D02*
X33509857Y-15621000D01*
X33086523Y-15318619D02*
X34175095Y-15318619D01*
X34296047Y-15379095D01*
X34356523Y-15500047D01*
X34356523Y-15621000D01*
X33388904Y-18040047D02*
X33328428Y-17919095D01*
X33328428Y-17677190D01*
X33388904Y-17556238D01*
X33509857Y-17435285D01*
X33630809Y-17374809D01*
X33872714Y-17374809D01*
X33993666Y-17435285D01*
X34114619Y-17556238D01*
X34175095Y-17677190D01*
X34175095Y-17919095D01*
X34114619Y-18040047D01*
X32905095Y-17798142D02*
X32965571Y-17495761D01*
X33147000Y-17193380D01*
X33449380Y-17011952D01*
X33751761Y-16951476D01*
X34054142Y-17011952D01*
X34356523Y-17193380D01*
X34537952Y-17495761D01*
X34598428Y-17798142D01*
X34537952Y-18100523D01*
X34356523Y-18402904D01*
X34054142Y-18584333D01*
X33751761Y-18644809D01*
X33449380Y-18584333D01*
X33147000Y-18402904D01*
X32965571Y-18100523D01*
X32905095Y-17798142D01*
X33207476Y-20096238D02*
X33147000Y-20156714D01*
X33086523Y-20277666D01*
X33086523Y-20580047D01*
X33147000Y-20701000D01*
X33207476Y-20761476D01*
X33328428Y-20821952D01*
X33449380Y-20821952D01*
X33630809Y-20761476D01*
X34356523Y-20035761D01*
X34356523Y-20821952D01*
X33086523Y-21608142D02*
X33086523Y-21729095D01*
X33147000Y-21850047D01*
X33207476Y-21910523D01*
X33328428Y-21971000D01*
X33570333Y-22031476D01*
X33872714Y-22031476D01*
X34114619Y-21971000D01*
X34235571Y-21910523D01*
X34296047Y-21850047D01*
X34356523Y-21729095D01*
X34356523Y-21608142D01*
X34296047Y-21487190D01*
X34235571Y-21426714D01*
X34114619Y-21366238D01*
X33872714Y-21305761D01*
X33570333Y-21305761D01*
X33328428Y-21366238D01*
X33207476Y-21426714D01*
X33147000Y-21487190D01*
X33086523Y-21608142D01*
X33207476Y-22515285D02*
X33147000Y-22575761D01*
X33086523Y-22696714D01*
X33086523Y-22999095D01*
X33147000Y-23120047D01*
X33207476Y-23180523D01*
X33328428Y-23241000D01*
X33449380Y-23241000D01*
X33630809Y-23180523D01*
X34356523Y-22454809D01*
X34356523Y-23241000D01*
X33086523Y-23664333D02*
X33086523Y-24450523D01*
X33570333Y-24027190D01*
X33570333Y-24208619D01*
X33630809Y-24329571D01*
X33691285Y-24390047D01*
X33812238Y-24450523D01*
X34114619Y-24450523D01*
X34235571Y-24390047D01*
X34296047Y-24329571D01*
X34356523Y-24208619D01*
X34356523Y-23845761D01*
X34296047Y-23724809D01*
X34235571Y-23664333D01*
X34356523Y-26688142D02*
X33751761Y-26264809D01*
X34356523Y-25962428D02*
X33086523Y-25962428D01*
X33086523Y-26446238D01*
X33147000Y-26567190D01*
X33207476Y-26627666D01*
X33328428Y-26688142D01*
X33509857Y-26688142D01*
X33630809Y-26627666D01*
X33691285Y-26567190D01*
X33751761Y-26446238D01*
X33751761Y-25962428D01*
X34356523Y-27232428D02*
X33509857Y-27232428D01*
X33086523Y-27232428D02*
X33147000Y-27171952D01*
X33207476Y-27232428D01*
X33147000Y-27292904D01*
X33086523Y-27232428D01*
X33207476Y-27232428D01*
X34356523Y-28018619D02*
X34296047Y-27897666D01*
X34175095Y-27837190D01*
X33086523Y-27837190D01*
X34296047Y-28986238D02*
X34356523Y-28865285D01*
X34356523Y-28623380D01*
X34296047Y-28502428D01*
X34175095Y-28441952D01*
X33691285Y-28441952D01*
X33570333Y-28502428D01*
X33509857Y-28623380D01*
X33509857Y-28865285D01*
X33570333Y-28986238D01*
X33691285Y-29046714D01*
X33812238Y-29046714D01*
X33933190Y-28441952D01*
X33509857Y-29470047D02*
X34356523Y-29772428D01*
X33509857Y-30074809D02*
X34356523Y-29772428D01*
X34658904Y-29651476D01*
X34719380Y-29591000D01*
X34779857Y-29470047D01*
X34296047Y-30498142D02*
X34356523Y-30679571D01*
X34356523Y-30981952D01*
X34296047Y-31102904D01*
X34235571Y-31163380D01*
X34114619Y-31223857D01*
X33993666Y-31223857D01*
X33872714Y-31163380D01*
X33812238Y-31102904D01*
X33751761Y-30981952D01*
X33691285Y-30740047D01*
X33630809Y-30619095D01*
X33570333Y-30558619D01*
X33449380Y-30498142D01*
X33328428Y-30498142D01*
X33207476Y-30558619D01*
X33147000Y-30619095D01*
X33086523Y-30740047D01*
X33086523Y-31042428D01*
X33147000Y-31223857D01*
X33509857Y-31586714D02*
X33509857Y-32070523D01*
X33086523Y-31768142D02*
X34175095Y-31768142D01*
X34296047Y-31828619D01*
X34356523Y-31949571D01*
X34356523Y-32070523D01*
X34356523Y-33038142D02*
X33691285Y-33038142D01*
X33570333Y-32977666D01*
X33509857Y-32856714D01*
X33509857Y-32614809D01*
X33570333Y-32493857D01*
X34296047Y-33038142D02*
X34356523Y-32917190D01*
X34356523Y-32614809D01*
X34296047Y-32493857D01*
X34175095Y-32433380D01*
X34054142Y-32433380D01*
X33933190Y-32493857D01*
X33872714Y-32614809D01*
X33872714Y-32917190D01*
X33812238Y-33038142D01*
X34356523Y-33642904D02*
X33509857Y-33642904D01*
X33751761Y-33642904D02*
X33630809Y-33703380D01*
X33570333Y-33763857D01*
X33509857Y-33884809D01*
X33509857Y-34005761D01*
X34356523Y-34610523D02*
X34296047Y-34489571D01*
X34175095Y-34429095D01*
X33086523Y-34429095D01*
X34356523Y-35094333D02*
X33509857Y-35094333D01*
X33086523Y-35094333D02*
X33147000Y-35033857D01*
X33207476Y-35094333D01*
X33147000Y-35154809D01*
X33086523Y-35094333D01*
X33207476Y-35094333D01*
X33509857Y-36243380D02*
X34537952Y-36243380D01*
X34658904Y-36182904D01*
X34719380Y-36122428D01*
X34779857Y-36001476D01*
X34779857Y-35820047D01*
X34719380Y-35699095D01*
X34296047Y-36243380D02*
X34356523Y-36122428D01*
X34356523Y-35880523D01*
X34296047Y-35759571D01*
X34235571Y-35699095D01*
X34114619Y-35638619D01*
X33751761Y-35638619D01*
X33630809Y-35699095D01*
X33570333Y-35759571D01*
X33509857Y-35880523D01*
X33509857Y-36122428D01*
X33570333Y-36243380D01*
X34356523Y-36848142D02*
X33086523Y-36848142D01*
X34356523Y-37392428D02*
X33691285Y-37392428D01*
X33570333Y-37331952D01*
X33509857Y-37211000D01*
X33509857Y-37029571D01*
X33570333Y-36908619D01*
X33630809Y-36848142D01*
X33509857Y-37815761D02*
X33509857Y-38299571D01*
X33086523Y-37997190D02*
X34175095Y-37997190D01*
X34296047Y-38057666D01*
X34356523Y-38178619D01*
X34356523Y-38299571D01*
D12*
X15106952Y-79683428D02*
X15881047Y-79683428D01*
X15494000Y-79296380D02*
X15494000Y-80070476D01*
X16376952Y-79683428D02*
X17151047Y-79683428D01*
X16764000Y-79296380D02*
X16764000Y-80070476D01*
X22218952Y-79683428D02*
X22993047Y-79683428D01*
X22606000Y-79296380D02*
X22606000Y-80070476D01*
X20948952Y-79683428D02*
X21723047Y-79683428D01*
X21336000Y-79296380D02*
X21336000Y-80070476D01*
D13*
G36*
X2040931Y-7159814D02*
G01*
X2485555Y-7243635D01*
X2613053Y-7552920D01*
X2740551Y-7862206D01*
X2488246Y-8233246D01*
X2417996Y-8337157D01*
X2355272Y-8431087D01*
X2302938Y-8510652D01*
X2263857Y-8571470D01*
X2240893Y-8609157D01*
X2235942Y-8619421D01*
X2248676Y-8637910D01*
X2283882Y-8677420D01*
X2337062Y-8733522D01*
X2403718Y-8801787D01*
X2479354Y-8877786D01*
X2559472Y-8957092D01*
X2639574Y-9035275D01*
X2715164Y-9107907D01*
X2781745Y-9170559D01*
X2834818Y-9218803D01*
X2869887Y-9248210D01*
X2881623Y-9255241D01*
X2903260Y-9245123D01*
X2950662Y-9216759D01*
X3019193Y-9173129D01*
X3104215Y-9117218D01*
X3201093Y-9052006D01*
X3256350Y-9014219D01*
X3357248Y-8945343D01*
X3448299Y-8884140D01*
X3524970Y-8833578D01*
X3582728Y-8796628D01*
X3617043Y-8776258D01*
X3624254Y-8773197D01*
X3644748Y-8780136D01*
X3692513Y-8799051D01*
X3760832Y-8827087D01*
X3842989Y-8861391D01*
X3932270Y-8899109D01*
X4021958Y-8937387D01*
X4105338Y-8973370D01*
X4175694Y-9004206D01*
X4226310Y-9027039D01*
X4250471Y-9039017D01*
X4251422Y-9039724D01*
X4256036Y-9058531D01*
X4266328Y-9108618D01*
X4281287Y-9184793D01*
X4299901Y-9281865D01*
X4321159Y-9394643D01*
X4333418Y-9460442D01*
X4356362Y-9580950D01*
X4378195Y-9689797D01*
X4397722Y-9781476D01*
X4413748Y-9850481D01*
X4425079Y-9891304D01*
X4428674Y-9899511D01*
X4453006Y-9907548D01*
X4507959Y-9914033D01*
X4587108Y-9918970D01*
X4684026Y-9922364D01*
X4792287Y-9924218D01*
X4905465Y-9924538D01*
X5017135Y-9923327D01*
X5120868Y-9920590D01*
X5210241Y-9916331D01*
X5278826Y-9910555D01*
X5320197Y-9903267D01*
X5328810Y-9898895D01*
X5339133Y-9872764D01*
X5353892Y-9817393D01*
X5371352Y-9740107D01*
X5389780Y-9648230D01*
X5395741Y-9616158D01*
X5424066Y-9461524D01*
X5446876Y-9339375D01*
X5465080Y-9245673D01*
X5479583Y-9176384D01*
X5491292Y-9127471D01*
X5501115Y-9094897D01*
X5509956Y-9074628D01*
X5518724Y-9062626D01*
X5520457Y-9060947D01*
X5548371Y-9044184D01*
X5602695Y-9018614D01*
X5676777Y-8986788D01*
X5763965Y-8951260D01*
X5857608Y-8914583D01*
X5951052Y-8879311D01*
X6037647Y-8847996D01*
X6110740Y-8823193D01*
X6163678Y-8807454D01*
X6189811Y-8803332D01*
X6190726Y-8803676D01*
X6212086Y-8817641D01*
X6259084Y-8849322D01*
X6326827Y-8895391D01*
X6410423Y-8952518D01*
X6504982Y-9017373D01*
X6531854Y-9035843D01*
X6629275Y-9101699D01*
X6718163Y-9159650D01*
X6793412Y-9206538D01*
X6849920Y-9239207D01*
X6882581Y-9254500D01*
X6886593Y-9255241D01*
X6907684Y-9242392D01*
X6949464Y-9206888D01*
X7007445Y-9153293D01*
X7077135Y-9086171D01*
X7154045Y-9010087D01*
X7233683Y-8929604D01*
X7311561Y-8849287D01*
X7383186Y-8773699D01*
X7444070Y-8707405D01*
X7489721Y-8654969D01*
X7515650Y-8620955D01*
X7519883Y-8611545D01*
X7509912Y-8589643D01*
X7483020Y-8544800D01*
X7443736Y-8484321D01*
X7412117Y-8437789D01*
X7354098Y-8353475D01*
X7285784Y-8253626D01*
X7217579Y-8153473D01*
X7181075Y-8099627D01*
X7057800Y-7917371D01*
X7140520Y-7764381D01*
X7176759Y-7694682D01*
X7204926Y-7635414D01*
X7220991Y-7595311D01*
X7223226Y-7585103D01*
X7206722Y-7572829D01*
X7160082Y-7548613D01*
X7087609Y-7514263D01*
X6993606Y-7471588D01*
X6882374Y-7422394D01*
X6758215Y-7368490D01*
X6625432Y-7311684D01*
X6488327Y-7253782D01*
X6351202Y-7196593D01*
X6218358Y-7141924D01*
X6094098Y-7091584D01*
X5982725Y-7047380D01*
X5888539Y-7011119D01*
X5815844Y-6984609D01*
X5768941Y-6969658D01*
X5752833Y-6967254D01*
X5732286Y-6986311D01*
X5698933Y-7028036D01*
X5659702Y-7083706D01*
X5656599Y-7088378D01*
X5541423Y-7232264D01*
X5407053Y-7348283D01*
X5257784Y-7435430D01*
X5097913Y-7492699D01*
X4931737Y-7519086D01*
X4763552Y-7513585D01*
X4597655Y-7475190D01*
X4438342Y-7402895D01*
X4403487Y-7381626D01*
X4262737Y-7270996D01*
X4149714Y-7140302D01*
X4065003Y-6994064D01*
X4009194Y-6836808D01*
X3982874Y-6673057D01*
X3986630Y-6507333D01*
X4021050Y-6344162D01*
X4086723Y-6188065D01*
X4184235Y-6043567D01*
X4223813Y-5998869D01*
X4347703Y-5885112D01*
X4478124Y-5802218D01*
X4624315Y-5745356D01*
X4769088Y-5713687D01*
X4931860Y-5705869D01*
X5095440Y-5731938D01*
X5254298Y-5789245D01*
X5402906Y-5875144D01*
X5535735Y-5986986D01*
X5647256Y-6122123D01*
X5659011Y-6139883D01*
X5697508Y-6196150D01*
X5730863Y-6238923D01*
X5752160Y-6259372D01*
X5752833Y-6259669D01*
X5775871Y-6255279D01*
X5828157Y-6237876D01*
X5905390Y-6209268D01*
X6003268Y-6171265D01*
X6117491Y-6125674D01*
X6243758Y-6074303D01*
X6377767Y-6018962D01*
X6515218Y-5961458D01*
X6651808Y-5903601D01*
X6783237Y-5847198D01*
X6905205Y-5794058D01*
X7013409Y-5745990D01*
X7103549Y-5704801D01*
X7171323Y-5672301D01*
X7212430Y-5650297D01*
X7223226Y-5641436D01*
X7214819Y-5614360D01*
X7192272Y-5563697D01*
X7159613Y-5498183D01*
X7140520Y-5462159D01*
X7057800Y-5309168D01*
X7181075Y-5126912D01*
X7244228Y-5033875D01*
X7313727Y-4932015D01*
X7379165Y-4836562D01*
X7412117Y-4788750D01*
X7457273Y-4721505D01*
X7493057Y-4664564D01*
X7514938Y-4625354D01*
X7519563Y-4612619D01*
X7507085Y-4594083D01*
X7472252Y-4553059D01*
X7418678Y-4493525D01*
X7349983Y-4419458D01*
X7269781Y-4334835D01*
X7218286Y-4281315D01*
X7126286Y-4187681D01*
X7043999Y-4106759D01*
X6974945Y-4041823D01*
X6922644Y-3996142D01*
X6890616Y-3972989D01*
X6884116Y-3970768D01*
X6859394Y-3981076D01*
X6809405Y-4009561D01*
X6739212Y-4053063D01*
X6653875Y-4108423D01*
X6558456Y-4172480D01*
X6531854Y-4190697D01*
X6435167Y-4257073D01*
X6348117Y-4316622D01*
X6275595Y-4366016D01*
X6222493Y-4401925D01*
X6193703Y-4421019D01*
X6190726Y-4422864D01*
X6167782Y-4420105D01*
X6117336Y-4405462D01*
X6046041Y-4381487D01*
X5960547Y-4350734D01*
X5867507Y-4315756D01*
X5773574Y-4279107D01*
X5685399Y-4243339D01*
X5609634Y-4211006D01*
X5552931Y-4184662D01*
X5521943Y-4166858D01*
X5520457Y-4165593D01*
X5511601Y-4154706D01*
X5502843Y-4136318D01*
X5493277Y-4106394D01*
X5481996Y-4060897D01*
X5468093Y-3995791D01*
X5450663Y-3907039D01*
X5428798Y-3790607D01*
X5401591Y-3642458D01*
X5395741Y-3610382D01*
X5377374Y-3515314D01*
X5359405Y-3432435D01*
X5343569Y-3369070D01*
X5331600Y-3332542D01*
X5328810Y-3327644D01*
X5304072Y-3319573D01*
X5248790Y-3313013D01*
X5169389Y-3307967D01*
X5072296Y-3304441D01*
X4963938Y-3302439D01*
X4850740Y-3301964D01*
X4739128Y-3303023D01*
X4635529Y-3305618D01*
X4546368Y-3309754D01*
X4478072Y-3315437D01*
X4437066Y-3322669D01*
X4428674Y-3327029D01*
X4420208Y-3351302D01*
X4406435Y-3406574D01*
X4388550Y-3487338D01*
X4367748Y-3588088D01*
X4345223Y-3703317D01*
X4333418Y-3766098D01*
X4311151Y-3885213D01*
X4290979Y-3991435D01*
X4273915Y-4079573D01*
X4260969Y-4144434D01*
X4253155Y-4180826D01*
X4251422Y-4186816D01*
X4231890Y-4196939D01*
X4184843Y-4218338D01*
X4117003Y-4248161D01*
X4035091Y-4283555D01*
X3945828Y-4321668D01*
X3855935Y-4359647D01*
X3772135Y-4394640D01*
X3701147Y-4423794D01*
X3649694Y-4444257D01*
X3624497Y-4453177D01*
X3623396Y-4453343D01*
X3603519Y-4443231D01*
X3557777Y-4414883D01*
X3490717Y-4371277D01*
X3406884Y-4315394D01*
X3310826Y-4250213D01*
X3255650Y-4212321D01*
X3154481Y-4143275D01*
X3062630Y-4081950D01*
X2984744Y-4031337D01*
X2925469Y-3994429D01*
X2889451Y-3974218D01*
X2881377Y-3971299D01*
X2862584Y-3983847D01*
X2822457Y-4018537D01*
X2765493Y-4070937D01*
X2696185Y-4136616D01*
X2619031Y-4211144D01*
X2538525Y-4290087D01*
X2459163Y-4369017D01*
X2385440Y-4443500D01*
X2321852Y-4509106D01*
X2272894Y-4561404D01*
X2243061Y-4595961D01*
X2235942Y-4607522D01*
X2245953Y-4626346D01*
X2274078Y-4671369D01*
X2317454Y-4738213D01*
X2373218Y-4822501D01*
X2438506Y-4919856D01*
X2488246Y-4993293D01*
X2740551Y-5364333D01*
X2485555Y-5982905D01*
X2040931Y-6066725D01*
X1596307Y-6150546D01*
X1596307Y-7075994D01*
X2040931Y-7159814D01*
G37*
X2040931Y-7159814D02*
X2485555Y-7243635D01*
X2613053Y-7552920D01*
X2740551Y-7862206D01*
X2488246Y-8233246D01*
X2417996Y-8337157D01*
X2355272Y-8431087D01*
X2302938Y-8510652D01*
X2263857Y-8571470D01*
X2240893Y-8609157D01*
X2235942Y-8619421D01*
X2248676Y-8637910D01*
X2283882Y-8677420D01*
X2337062Y-8733522D01*
X2403718Y-8801787D01*
X2479354Y-8877786D01*
X2559472Y-8957092D01*
X2639574Y-9035275D01*
X2715164Y-9107907D01*
X2781745Y-9170559D01*
X2834818Y-9218803D01*
X2869887Y-9248210D01*
X2881623Y-9255241D01*
X2903260Y-9245123D01*
X2950662Y-9216759D01*
X3019193Y-9173129D01*
X3104215Y-9117218D01*
X3201093Y-9052006D01*
X3256350Y-9014219D01*
X3357248Y-8945343D01*
X3448299Y-8884140D01*
X3524970Y-8833578D01*
X3582728Y-8796628D01*
X3617043Y-8776258D01*
X3624254Y-8773197D01*
X3644748Y-8780136D01*
X3692513Y-8799051D01*
X3760832Y-8827087D01*
X3842989Y-8861391D01*
X3932270Y-8899109D01*
X4021958Y-8937387D01*
X4105338Y-8973370D01*
X4175694Y-9004206D01*
X4226310Y-9027039D01*
X4250471Y-9039017D01*
X4251422Y-9039724D01*
X4256036Y-9058531D01*
X4266328Y-9108618D01*
X4281287Y-9184793D01*
X4299901Y-9281865D01*
X4321159Y-9394643D01*
X4333418Y-9460442D01*
X4356362Y-9580950D01*
X4378195Y-9689797D01*
X4397722Y-9781476D01*
X4413748Y-9850481D01*
X4425079Y-9891304D01*
X4428674Y-9899511D01*
X4453006Y-9907548D01*
X4507959Y-9914033D01*
X4587108Y-9918970D01*
X4684026Y-9922364D01*
X4792287Y-9924218D01*
X4905465Y-9924538D01*
X5017135Y-9923327D01*
X5120868Y-9920590D01*
X5210241Y-9916331D01*
X5278826Y-9910555D01*
X5320197Y-9903267D01*
X5328810Y-9898895D01*
X5339133Y-9872764D01*
X5353892Y-9817393D01*
X5371352Y-9740107D01*
X5389780Y-9648230D01*
X5395741Y-9616158D01*
X5424066Y-9461524D01*
X5446876Y-9339375D01*
X5465080Y-9245673D01*
X5479583Y-9176384D01*
X5491292Y-9127471D01*
X5501115Y-9094897D01*
X5509956Y-9074628D01*
X5518724Y-9062626D01*
X5520457Y-9060947D01*
X5548371Y-9044184D01*
X5602695Y-9018614D01*
X5676777Y-8986788D01*
X5763965Y-8951260D01*
X5857608Y-8914583D01*
X5951052Y-8879311D01*
X6037647Y-8847996D01*
X6110740Y-8823193D01*
X6163678Y-8807454D01*
X6189811Y-8803332D01*
X6190726Y-8803676D01*
X6212086Y-8817641D01*
X6259084Y-8849322D01*
X6326827Y-8895391D01*
X6410423Y-8952518D01*
X6504982Y-9017373D01*
X6531854Y-9035843D01*
X6629275Y-9101699D01*
X6718163Y-9159650D01*
X6793412Y-9206538D01*
X6849920Y-9239207D01*
X6882581Y-9254500D01*
X6886593Y-9255241D01*
X6907684Y-9242392D01*
X6949464Y-9206888D01*
X7007445Y-9153293D01*
X7077135Y-9086171D01*
X7154045Y-9010087D01*
X7233683Y-8929604D01*
X7311561Y-8849287D01*
X7383186Y-8773699D01*
X7444070Y-8707405D01*
X7489721Y-8654969D01*
X7515650Y-8620955D01*
X7519883Y-8611545D01*
X7509912Y-8589643D01*
X7483020Y-8544800D01*
X7443736Y-8484321D01*
X7412117Y-8437789D01*
X7354098Y-8353475D01*
X7285784Y-8253626D01*
X7217579Y-8153473D01*
X7181075Y-8099627D01*
X7057800Y-7917371D01*
X7140520Y-7764381D01*
X7176759Y-7694682D01*
X7204926Y-7635414D01*
X7220991Y-7595311D01*
X7223226Y-7585103D01*
X7206722Y-7572829D01*
X7160082Y-7548613D01*
X7087609Y-7514263D01*
X6993606Y-7471588D01*
X6882374Y-7422394D01*
X6758215Y-7368490D01*
X6625432Y-7311684D01*
X6488327Y-7253782D01*
X6351202Y-7196593D01*
X6218358Y-7141924D01*
X6094098Y-7091584D01*
X5982725Y-7047380D01*
X5888539Y-7011119D01*
X5815844Y-6984609D01*
X5768941Y-6969658D01*
X5752833Y-6967254D01*
X5732286Y-6986311D01*
X5698933Y-7028036D01*
X5659702Y-7083706D01*
X5656599Y-7088378D01*
X5541423Y-7232264D01*
X5407053Y-7348283D01*
X5257784Y-7435430D01*
X5097913Y-7492699D01*
X4931737Y-7519086D01*
X4763552Y-7513585D01*
X4597655Y-7475190D01*
X4438342Y-7402895D01*
X4403487Y-7381626D01*
X4262737Y-7270996D01*
X4149714Y-7140302D01*
X4065003Y-6994064D01*
X4009194Y-6836808D01*
X3982874Y-6673057D01*
X3986630Y-6507333D01*
X4021050Y-6344162D01*
X4086723Y-6188065D01*
X4184235Y-6043567D01*
X4223813Y-5998869D01*
X4347703Y-5885112D01*
X4478124Y-5802218D01*
X4624315Y-5745356D01*
X4769088Y-5713687D01*
X4931860Y-5705869D01*
X5095440Y-5731938D01*
X5254298Y-5789245D01*
X5402906Y-5875144D01*
X5535735Y-5986986D01*
X5647256Y-6122123D01*
X5659011Y-6139883D01*
X5697508Y-6196150D01*
X5730863Y-6238923D01*
X5752160Y-6259372D01*
X5752833Y-6259669D01*
X5775871Y-6255279D01*
X5828157Y-6237876D01*
X5905390Y-6209268D01*
X6003268Y-6171265D01*
X6117491Y-6125674D01*
X6243758Y-6074303D01*
X6377767Y-6018962D01*
X6515218Y-5961458D01*
X6651808Y-5903601D01*
X6783237Y-5847198D01*
X6905205Y-5794058D01*
X7013409Y-5745990D01*
X7103549Y-5704801D01*
X7171323Y-5672301D01*
X7212430Y-5650297D01*
X7223226Y-5641436D01*
X7214819Y-5614360D01*
X7192272Y-5563697D01*
X7159613Y-5498183D01*
X7140520Y-5462159D01*
X7057800Y-5309168D01*
X7181075Y-5126912D01*
X7244228Y-5033875D01*
X7313727Y-4932015D01*
X7379165Y-4836562D01*
X7412117Y-4788750D01*
X7457273Y-4721505D01*
X7493057Y-4664564D01*
X7514938Y-4625354D01*
X7519563Y-4612619D01*
X7507085Y-4594083D01*
X7472252Y-4553059D01*
X7418678Y-4493525D01*
X7349983Y-4419458D01*
X7269781Y-4334835D01*
X7218286Y-4281315D01*
X7126286Y-4187681D01*
X7043999Y-4106759D01*
X6974945Y-4041823D01*
X6922644Y-3996142D01*
X6890616Y-3972989D01*
X6884116Y-3970768D01*
X6859394Y-3981076D01*
X6809405Y-4009561D01*
X6739212Y-4053063D01*
X6653875Y-4108423D01*
X6558456Y-4172480D01*
X6531854Y-4190697D01*
X6435167Y-4257073D01*
X6348117Y-4316622D01*
X6275595Y-4366016D01*
X6222493Y-4401925D01*
X6193703Y-4421019D01*
X6190726Y-4422864D01*
X6167782Y-4420105D01*
X6117336Y-4405462D01*
X6046041Y-4381487D01*
X5960547Y-4350734D01*
X5867507Y-4315756D01*
X5773574Y-4279107D01*
X5685399Y-4243339D01*
X5609634Y-4211006D01*
X5552931Y-4184662D01*
X5521943Y-4166858D01*
X5520457Y-4165593D01*
X5511601Y-4154706D01*
X5502843Y-4136318D01*
X5493277Y-4106394D01*
X5481996Y-4060897D01*
X5468093Y-3995791D01*
X5450663Y-3907039D01*
X5428798Y-3790607D01*
X5401591Y-3642458D01*
X5395741Y-3610382D01*
X5377374Y-3515314D01*
X5359405Y-3432435D01*
X5343569Y-3369070D01*
X5331600Y-3332542D01*
X5328810Y-3327644D01*
X5304072Y-3319573D01*
X5248790Y-3313013D01*
X5169389Y-3307967D01*
X5072296Y-3304441D01*
X4963938Y-3302439D01*
X4850740Y-3301964D01*
X4739128Y-3303023D01*
X4635529Y-3305618D01*
X4546368Y-3309754D01*
X4478072Y-3315437D01*
X4437066Y-3322669D01*
X4428674Y-3327029D01*
X4420208Y-3351302D01*
X4406435Y-3406574D01*
X4388550Y-3487338D01*
X4367748Y-3588088D01*
X4345223Y-3703317D01*
X4333418Y-3766098D01*
X4311151Y-3885213D01*
X4290979Y-3991435D01*
X4273915Y-4079573D01*
X4260969Y-4144434D01*
X4253155Y-4180826D01*
X4251422Y-4186816D01*
X4231890Y-4196939D01*
X4184843Y-4218338D01*
X4117003Y-4248161D01*
X4035091Y-4283555D01*
X3945828Y-4321668D01*
X3855935Y-4359647D01*
X3772135Y-4394640D01*
X3701147Y-4423794D01*
X3649694Y-4444257D01*
X3624497Y-4453177D01*
X3623396Y-4453343D01*
X3603519Y-4443231D01*
X3557777Y-4414883D01*
X3490717Y-4371277D01*
X3406884Y-4315394D01*
X3310826Y-4250213D01*
X3255650Y-4212321D01*
X3154481Y-4143275D01*
X3062630Y-4081950D01*
X2984744Y-4031337D01*
X2925469Y-3994429D01*
X2889451Y-3974218D01*
X2881377Y-3971299D01*
X2862584Y-3983847D01*
X2822457Y-4018537D01*
X2765493Y-4070937D01*
X2696185Y-4136616D01*
X2619031Y-4211144D01*
X2538525Y-4290087D01*
X2459163Y-4369017D01*
X2385440Y-4443500D01*
X2321852Y-4509106D01*
X2272894Y-4561404D01*
X2243061Y-4595961D01*
X2235942Y-4607522D01*
X2245953Y-4626346D01*
X2274078Y-4671369D01*
X2317454Y-4738213D01*
X2373218Y-4822501D01*
X2438506Y-4919856D01*
X2488246Y-4993293D01*
X2740551Y-5364333D01*
X2485555Y-5982905D01*
X2040931Y-6066725D01*
X1596307Y-6150546D01*
X1596307Y-7075994D01*
X2040931Y-7159814D01*
D14*
X20600000Y-12195000D02*
G75*
G03*
X20600000Y-12195000I-1600000J0D01*
G01*
X29450000Y-1150000D02*
X8550000Y-1150000D01*
X29450000Y-1150000D02*
X29450000Y-78850000D01*
X29450000Y-78850000D02*
X8550000Y-78850000D01*
X8550000Y-1150000D02*
X8550000Y-78850000D01*
X20600000Y-67805000D02*
G75*
G03*
X20600000Y-67805000I-1600000J0D01*
G01*
D12*
X19688628Y-79697942D02*
X19572514Y-79736647D01*
X19533809Y-79775352D01*
X19495104Y-79852761D01*
X19495104Y-79968876D01*
X19533809Y-80046285D01*
X19572514Y-80084990D01*
X19649923Y-80123695D01*
X19959561Y-80123695D01*
X19959561Y-79310895D01*
X19688628Y-79310895D01*
X19611219Y-79349600D01*
X19572514Y-79388304D01*
X19533809Y-79465714D01*
X19533809Y-79543123D01*
X19572514Y-79620533D01*
X19611219Y-79659238D01*
X19688628Y-79697942D01*
X19959561Y-79697942D01*
X19262876Y-79310895D02*
X18798419Y-79310895D01*
X19030647Y-80123695D02*
X19030647Y-79310895D01*
X18101733Y-80123695D02*
X18566190Y-80123695D01*
X18333961Y-80123695D02*
X18333961Y-79310895D01*
X18411371Y-79427009D01*
X18488780Y-79504419D01*
X18566190Y-79543123D01*
D15*
X19214285Y-71877142D02*
X19214285Y-74162857D01*
X20357142Y-73020000D02*
X18071428Y-73020000D01*
X19214285Y-5837142D02*
X19214285Y-8122857D01*
M02*
