G04 #@! TF.GenerationSoftware,KiCad,Pcbnew,5.1.12-84ad8e8a86~92~ubuntu18.04.1*
G04 #@! TF.CreationDate,2023-10-05T13:55:54+02:00*
G04 #@! TF.ProjectId,acoustic-impact-ball,61636f75-7374-4696-932d-696d70616374,rev?*
G04 #@! TF.SameCoordinates,Original*
G04 #@! TF.FileFunction,Paste,Top*
G04 #@! TF.FilePolarity,Positive*
%FSLAX46Y46*%
G04 Gerber Fmt 4.6, Leading zero omitted, Abs format (unit mm)*
G04 Created by KiCad (PCBNEW 5.1.12-84ad8e8a86~92~ubuntu18.04.1) date 2023-10-05 13:55:54*
%MOMM*%
%LPD*%
G01*
G04 APERTURE LIST*
%ADD10R,1.400000X1.050000*%
%ADD11R,0.650000X1.060000*%
%ADD12R,0.800000X1.500000*%
%ADD13R,1.450000X2.000000*%
%ADD14R,2.400000X0.740000*%
%ADD15R,0.700000X1.500000*%
%ADD16R,1.000000X0.800000*%
%ADD17R,1.300000X0.250000*%
%ADD18R,0.250000X1.300000*%
%ADD19R,1.060000X0.650000*%
%ADD20R,3.800000X2.000000*%
%ADD21R,1.500000X2.000000*%
%ADD22R,1.800000X1.000000*%
%ADD23R,0.600000X0.250000*%
%ADD24R,3.700000X0.980000*%
%ADD25R,2.000000X2.500000*%
%ADD26R,0.500000X2.500000*%
%ADD27R,0.850000X0.280000*%
%ADD28R,0.750000X0.280000*%
G04 APERTURE END LIST*
D10*
X2772000Y-87085000D03*
X6372000Y-87085000D03*
X6372000Y-85635000D03*
X2772000Y-85635000D03*
G36*
G01*
X17346000Y-19017000D02*
X17346000Y-18067000D01*
G75*
G02*
X17596000Y-17817000I250000J0D01*
G01*
X18096000Y-17817000D01*
G75*
G02*
X18346000Y-18067000I0J-250000D01*
G01*
X18346000Y-19017000D01*
G75*
G02*
X18096000Y-19267000I-250000J0D01*
G01*
X17596000Y-19267000D01*
G75*
G02*
X17346000Y-19017000I0J250000D01*
G01*
G37*
G36*
G01*
X19246000Y-19017000D02*
X19246000Y-18067000D01*
G75*
G02*
X19496000Y-17817000I250000J0D01*
G01*
X19996000Y-17817000D01*
G75*
G02*
X20246000Y-18067000I0J-250000D01*
G01*
X20246000Y-19017000D01*
G75*
G02*
X19996000Y-19267000I-250000J0D01*
G01*
X19496000Y-19267000D01*
G75*
G02*
X19246000Y-19017000I0J250000D01*
G01*
G37*
G36*
G01*
X18992000Y-36035000D02*
X18992000Y-35085000D01*
G75*
G02*
X19242000Y-34835000I250000J0D01*
G01*
X19742000Y-34835000D01*
G75*
G02*
X19992000Y-35085000I0J-250000D01*
G01*
X19992000Y-36035000D01*
G75*
G02*
X19742000Y-36285000I-250000J0D01*
G01*
X19242000Y-36285000D01*
G75*
G02*
X18992000Y-36035000I0J250000D01*
G01*
G37*
G36*
G01*
X17092000Y-36035000D02*
X17092000Y-35085000D01*
G75*
G02*
X17342000Y-34835000I250000J0D01*
G01*
X17842000Y-34835000D01*
G75*
G02*
X18092000Y-35085000I0J-250000D01*
G01*
X18092000Y-36035000D01*
G75*
G02*
X17842000Y-36285000I-250000J0D01*
G01*
X17342000Y-36285000D01*
G75*
G02*
X17092000Y-36035000I0J250000D01*
G01*
G37*
G36*
G01*
X12159000Y-31168000D02*
X11209000Y-31168000D01*
G75*
G02*
X10959000Y-30918000I0J250000D01*
G01*
X10959000Y-30418000D01*
G75*
G02*
X11209000Y-30168000I250000J0D01*
G01*
X12159000Y-30168000D01*
G75*
G02*
X12409000Y-30418000I0J-250000D01*
G01*
X12409000Y-30918000D01*
G75*
G02*
X12159000Y-31168000I-250000J0D01*
G01*
G37*
G36*
G01*
X12159000Y-29268000D02*
X11209000Y-29268000D01*
G75*
G02*
X10959000Y-29018000I0J250000D01*
G01*
X10959000Y-28518000D01*
G75*
G02*
X11209000Y-28268000I250000J0D01*
G01*
X12159000Y-28268000D01*
G75*
G02*
X12409000Y-28518000I0J-250000D01*
G01*
X12409000Y-29018000D01*
G75*
G02*
X12159000Y-29268000I-250000J0D01*
G01*
G37*
G36*
G01*
X25687000Y-25850000D02*
X26637000Y-25850000D01*
G75*
G02*
X26887000Y-26100000I0J-250000D01*
G01*
X26887000Y-26600000D01*
G75*
G02*
X26637000Y-26850000I-250000J0D01*
G01*
X25687000Y-26850000D01*
G75*
G02*
X25437000Y-26600000I0J250000D01*
G01*
X25437000Y-26100000D01*
G75*
G02*
X25687000Y-25850000I250000J0D01*
G01*
G37*
G36*
G01*
X25687000Y-23950000D02*
X26637000Y-23950000D01*
G75*
G02*
X26887000Y-24200000I0J-250000D01*
G01*
X26887000Y-24700000D01*
G75*
G02*
X26637000Y-24950000I-250000J0D01*
G01*
X25687000Y-24950000D01*
G75*
G02*
X25437000Y-24700000I0J250000D01*
G01*
X25437000Y-24200000D01*
G75*
G02*
X25687000Y-23950000I250000J0D01*
G01*
G37*
G36*
G01*
X17346000Y-21303000D02*
X17346000Y-20353000D01*
G75*
G02*
X17596000Y-20103000I250000J0D01*
G01*
X18096000Y-20103000D01*
G75*
G02*
X18346000Y-20353000I0J-250000D01*
G01*
X18346000Y-21303000D01*
G75*
G02*
X18096000Y-21553000I-250000J0D01*
G01*
X17596000Y-21553000D01*
G75*
G02*
X17346000Y-21303000I0J250000D01*
G01*
G37*
G36*
G01*
X19246000Y-21303000D02*
X19246000Y-20353000D01*
G75*
G02*
X19496000Y-20103000I250000J0D01*
G01*
X19996000Y-20103000D01*
G75*
G02*
X20246000Y-20353000I0J-250000D01*
G01*
X20246000Y-21303000D01*
G75*
G02*
X19996000Y-21553000I-250000J0D01*
G01*
X19496000Y-21553000D01*
G75*
G02*
X19246000Y-21303000I0J250000D01*
G01*
G37*
G36*
G01*
X16223000Y-19108000D02*
X15273000Y-19108000D01*
G75*
G02*
X15023000Y-18858000I0J250000D01*
G01*
X15023000Y-18358000D01*
G75*
G02*
X15273000Y-18108000I250000J0D01*
G01*
X16223000Y-18108000D01*
G75*
G02*
X16473000Y-18358000I0J-250000D01*
G01*
X16473000Y-18858000D01*
G75*
G02*
X16223000Y-19108000I-250000J0D01*
G01*
G37*
G36*
G01*
X16223000Y-21008000D02*
X15273000Y-21008000D01*
G75*
G02*
X15023000Y-20758000I0J250000D01*
G01*
X15023000Y-20258000D01*
G75*
G02*
X15273000Y-20008000I250000J0D01*
G01*
X16223000Y-20008000D01*
G75*
G02*
X16473000Y-20258000I0J-250000D01*
G01*
X16473000Y-20758000D01*
G75*
G02*
X16223000Y-21008000I-250000J0D01*
G01*
G37*
G36*
G01*
X29939000Y-7546000D02*
X28989000Y-7546000D01*
G75*
G02*
X28739000Y-7296000I0J250000D01*
G01*
X28739000Y-6796000D01*
G75*
G02*
X28989000Y-6546000I250000J0D01*
G01*
X29939000Y-6546000D01*
G75*
G02*
X30189000Y-6796000I0J-250000D01*
G01*
X30189000Y-7296000D01*
G75*
G02*
X29939000Y-7546000I-250000J0D01*
G01*
G37*
G36*
G01*
X29939000Y-5646000D02*
X28989000Y-5646000D01*
G75*
G02*
X28739000Y-5396000I0J250000D01*
G01*
X28739000Y-4896000D01*
G75*
G02*
X28989000Y-4646000I250000J0D01*
G01*
X29939000Y-4646000D01*
G75*
G02*
X30189000Y-4896000I0J-250000D01*
G01*
X30189000Y-5396000D01*
G75*
G02*
X29939000Y-5646000I-250000J0D01*
G01*
G37*
G36*
G01*
X32225000Y-5646000D02*
X31275000Y-5646000D01*
G75*
G02*
X31025000Y-5396000I0J250000D01*
G01*
X31025000Y-4896000D01*
G75*
G02*
X31275000Y-4646000I250000J0D01*
G01*
X32225000Y-4646000D01*
G75*
G02*
X32475000Y-4896000I0J-250000D01*
G01*
X32475000Y-5396000D01*
G75*
G02*
X32225000Y-5646000I-250000J0D01*
G01*
G37*
G36*
G01*
X32225000Y-7546000D02*
X31275000Y-7546000D01*
G75*
G02*
X31025000Y-7296000I0J250000D01*
G01*
X31025000Y-6796000D01*
G75*
G02*
X31275000Y-6546000I250000J0D01*
G01*
X32225000Y-6546000D01*
G75*
G02*
X32475000Y-6796000I0J-250000D01*
G01*
X32475000Y-7296000D01*
G75*
G02*
X32225000Y-7546000I-250000J0D01*
G01*
G37*
G36*
G01*
X8832000Y-24859000D02*
X8832000Y-23909000D01*
G75*
G02*
X9082000Y-23659000I250000J0D01*
G01*
X9582000Y-23659000D01*
G75*
G02*
X9832000Y-23909000I0J-250000D01*
G01*
X9832000Y-24859000D01*
G75*
G02*
X9582000Y-25109000I-250000J0D01*
G01*
X9082000Y-25109000D01*
G75*
G02*
X8832000Y-24859000I0J250000D01*
G01*
G37*
G36*
G01*
X6932000Y-24859000D02*
X6932000Y-23909000D01*
G75*
G02*
X7182000Y-23659000I250000J0D01*
G01*
X7682000Y-23659000D01*
G75*
G02*
X7932000Y-23909000I0J-250000D01*
G01*
X7932000Y-24859000D01*
G75*
G02*
X7682000Y-25109000I-250000J0D01*
G01*
X7182000Y-25109000D01*
G75*
G02*
X6932000Y-24859000I0J250000D01*
G01*
G37*
G36*
G01*
X6932000Y-27399000D02*
X6932000Y-26449000D01*
G75*
G02*
X7182000Y-26199000I250000J0D01*
G01*
X7682000Y-26199000D01*
G75*
G02*
X7932000Y-26449000I0J-250000D01*
G01*
X7932000Y-27399000D01*
G75*
G02*
X7682000Y-27649000I-250000J0D01*
G01*
X7182000Y-27649000D01*
G75*
G02*
X6932000Y-27399000I0J250000D01*
G01*
G37*
G36*
G01*
X8832000Y-27399000D02*
X8832000Y-26449000D01*
G75*
G02*
X9082000Y-26199000I250000J0D01*
G01*
X9582000Y-26199000D01*
G75*
G02*
X9832000Y-26449000I0J-250000D01*
G01*
X9832000Y-27399000D01*
G75*
G02*
X9582000Y-27649000I-250000J0D01*
G01*
X9082000Y-27649000D01*
G75*
G02*
X8832000Y-27399000I0J250000D01*
G01*
G37*
G36*
G01*
X9218000Y-41369000D02*
X9218000Y-40419000D01*
G75*
G02*
X9468000Y-40169000I250000J0D01*
G01*
X9968000Y-40169000D01*
G75*
G02*
X10218000Y-40419000I0J-250000D01*
G01*
X10218000Y-41369000D01*
G75*
G02*
X9968000Y-41619000I-250000J0D01*
G01*
X9468000Y-41619000D01*
G75*
G02*
X9218000Y-41369000I0J250000D01*
G01*
G37*
G36*
G01*
X11118000Y-41369000D02*
X11118000Y-40419000D01*
G75*
G02*
X11368000Y-40169000I250000J0D01*
G01*
X11868000Y-40169000D01*
G75*
G02*
X12118000Y-40419000I0J-250000D01*
G01*
X12118000Y-41369000D01*
G75*
G02*
X11868000Y-41619000I-250000J0D01*
G01*
X11368000Y-41619000D01*
G75*
G02*
X11118000Y-41369000I0J250000D01*
G01*
G37*
G36*
G01*
X19779000Y-51112000D02*
X18829000Y-51112000D01*
G75*
G02*
X18579000Y-50862000I0J250000D01*
G01*
X18579000Y-50362000D01*
G75*
G02*
X18829000Y-50112000I250000J0D01*
G01*
X19779000Y-50112000D01*
G75*
G02*
X20029000Y-50362000I0J-250000D01*
G01*
X20029000Y-50862000D01*
G75*
G02*
X19779000Y-51112000I-250000J0D01*
G01*
G37*
G36*
G01*
X19779000Y-53012000D02*
X18829000Y-53012000D01*
G75*
G02*
X18579000Y-52762000I0J250000D01*
G01*
X18579000Y-52262000D01*
G75*
G02*
X18829000Y-52012000I250000J0D01*
G01*
X19779000Y-52012000D01*
G75*
G02*
X20029000Y-52262000I0J-250000D01*
G01*
X20029000Y-52762000D01*
G75*
G02*
X19779000Y-53012000I-250000J0D01*
G01*
G37*
G36*
G01*
X24326000Y-55339000D02*
X24326000Y-54389000D01*
G75*
G02*
X24576000Y-54139000I250000J0D01*
G01*
X25076000Y-54139000D01*
G75*
G02*
X25326000Y-54389000I0J-250000D01*
G01*
X25326000Y-55339000D01*
G75*
G02*
X25076000Y-55589000I-250000J0D01*
G01*
X24576000Y-55589000D01*
G75*
G02*
X24326000Y-55339000I0J250000D01*
G01*
G37*
G36*
G01*
X22426000Y-55339000D02*
X22426000Y-54389000D01*
G75*
G02*
X22676000Y-54139000I250000J0D01*
G01*
X23176000Y-54139000D01*
G75*
G02*
X23426000Y-54389000I0J-250000D01*
G01*
X23426000Y-55339000D01*
G75*
G02*
X23176000Y-55589000I-250000J0D01*
G01*
X22676000Y-55589000D01*
G75*
G02*
X22426000Y-55339000I0J250000D01*
G01*
G37*
G36*
G01*
X21516000Y-54389000D02*
X21516000Y-55339000D01*
G75*
G02*
X21266000Y-55589000I-250000J0D01*
G01*
X20766000Y-55589000D01*
G75*
G02*
X20516000Y-55339000I0J250000D01*
G01*
X20516000Y-54389000D01*
G75*
G02*
X20766000Y-54139000I250000J0D01*
G01*
X21266000Y-54139000D01*
G75*
G02*
X21516000Y-54389000I0J-250000D01*
G01*
G37*
G36*
G01*
X19616000Y-54389000D02*
X19616000Y-55339000D01*
G75*
G02*
X19366000Y-55589000I-250000J0D01*
G01*
X18866000Y-55589000D01*
G75*
G02*
X18616000Y-55339000I0J250000D01*
G01*
X18616000Y-54389000D01*
G75*
G02*
X18866000Y-54139000I250000J0D01*
G01*
X19366000Y-54139000D01*
G75*
G02*
X19616000Y-54389000I0J-250000D01*
G01*
G37*
G36*
G01*
X27236000Y-54389000D02*
X27236000Y-55339000D01*
G75*
G02*
X26986000Y-55589000I-250000J0D01*
G01*
X26486000Y-55589000D01*
G75*
G02*
X26236000Y-55339000I0J250000D01*
G01*
X26236000Y-54389000D01*
G75*
G02*
X26486000Y-54139000I250000J0D01*
G01*
X26986000Y-54139000D01*
G75*
G02*
X27236000Y-54389000I0J-250000D01*
G01*
G37*
G36*
G01*
X29136000Y-54389000D02*
X29136000Y-55339000D01*
G75*
G02*
X28886000Y-55589000I-250000J0D01*
G01*
X28386000Y-55589000D01*
G75*
G02*
X28136000Y-55339000I0J250000D01*
G01*
X28136000Y-54389000D01*
G75*
G02*
X28386000Y-54139000I250000J0D01*
G01*
X28886000Y-54139000D01*
G75*
G02*
X29136000Y-54389000I0J-250000D01*
G01*
G37*
G36*
G01*
X29136000Y-46769000D02*
X29136000Y-47719000D01*
G75*
G02*
X28886000Y-47969000I-250000J0D01*
G01*
X28386000Y-47969000D01*
G75*
G02*
X28136000Y-47719000I0J250000D01*
G01*
X28136000Y-46769000D01*
G75*
G02*
X28386000Y-46519000I250000J0D01*
G01*
X28886000Y-46519000D01*
G75*
G02*
X29136000Y-46769000I0J-250000D01*
G01*
G37*
G36*
G01*
X27236000Y-46769000D02*
X27236000Y-47719000D01*
G75*
G02*
X26986000Y-47969000I-250000J0D01*
G01*
X26486000Y-47969000D01*
G75*
G02*
X26236000Y-47719000I0J250000D01*
G01*
X26236000Y-46769000D01*
G75*
G02*
X26486000Y-46519000I250000J0D01*
G01*
X26986000Y-46519000D01*
G75*
G02*
X27236000Y-46769000I0J-250000D01*
G01*
G37*
G36*
G01*
X31209000Y-71686000D02*
X30259000Y-71686000D01*
G75*
G02*
X30009000Y-71436000I0J250000D01*
G01*
X30009000Y-70936000D01*
G75*
G02*
X30259000Y-70686000I250000J0D01*
G01*
X31209000Y-70686000D01*
G75*
G02*
X31459000Y-70936000I0J-250000D01*
G01*
X31459000Y-71436000D01*
G75*
G02*
X31209000Y-71686000I-250000J0D01*
G01*
G37*
G36*
G01*
X31209000Y-73586000D02*
X30259000Y-73586000D01*
G75*
G02*
X30009000Y-73336000I0J250000D01*
G01*
X30009000Y-72836000D01*
G75*
G02*
X30259000Y-72586000I250000J0D01*
G01*
X31209000Y-72586000D01*
G75*
G02*
X31459000Y-72836000I0J-250000D01*
G01*
X31459000Y-73336000D01*
G75*
G02*
X31209000Y-73586000I-250000J0D01*
G01*
G37*
G36*
G01*
X19108000Y-63787000D02*
X19108000Y-64737000D01*
G75*
G02*
X18858000Y-64987000I-250000J0D01*
G01*
X18358000Y-64987000D01*
G75*
G02*
X18108000Y-64737000I0J250000D01*
G01*
X18108000Y-63787000D01*
G75*
G02*
X18358000Y-63537000I250000J0D01*
G01*
X18858000Y-63537000D01*
G75*
G02*
X19108000Y-63787000I0J-250000D01*
G01*
G37*
G36*
G01*
X21008000Y-63787000D02*
X21008000Y-64737000D01*
G75*
G02*
X20758000Y-64987000I-250000J0D01*
G01*
X20258000Y-64987000D01*
G75*
G02*
X20008000Y-64737000I0J250000D01*
G01*
X20008000Y-63787000D01*
G75*
G02*
X20258000Y-63537000I250000J0D01*
G01*
X20758000Y-63537000D01*
G75*
G02*
X21008000Y-63787000I0J-250000D01*
G01*
G37*
G36*
G01*
X4097000Y-64336000D02*
X5047000Y-64336000D01*
G75*
G02*
X5297000Y-64586000I0J-250000D01*
G01*
X5297000Y-65086000D01*
G75*
G02*
X5047000Y-65336000I-250000J0D01*
G01*
X4097000Y-65336000D01*
G75*
G02*
X3847000Y-65086000I0J250000D01*
G01*
X3847000Y-64586000D01*
G75*
G02*
X4097000Y-64336000I250000J0D01*
G01*
G37*
G36*
G01*
X4097000Y-66236000D02*
X5047000Y-66236000D01*
G75*
G02*
X5297000Y-66486000I0J-250000D01*
G01*
X5297000Y-66986000D01*
G75*
G02*
X5047000Y-67236000I-250000J0D01*
G01*
X4097000Y-67236000D01*
G75*
G02*
X3847000Y-66986000I0J250000D01*
G01*
X3847000Y-66486000D01*
G75*
G02*
X4097000Y-66236000I250000J0D01*
G01*
G37*
G36*
G01*
X12159000Y-89080000D02*
X11209000Y-89080000D01*
G75*
G02*
X10959000Y-88830000I0J250000D01*
G01*
X10959000Y-88330000D01*
G75*
G02*
X11209000Y-88080000I250000J0D01*
G01*
X12159000Y-88080000D01*
G75*
G02*
X12409000Y-88330000I0J-250000D01*
G01*
X12409000Y-88830000D01*
G75*
G02*
X12159000Y-89080000I-250000J0D01*
G01*
G37*
G36*
G01*
X12159000Y-87180000D02*
X11209000Y-87180000D01*
G75*
G02*
X10959000Y-86930000I0J250000D01*
G01*
X10959000Y-86430000D01*
G75*
G02*
X11209000Y-86180000I250000J0D01*
G01*
X12159000Y-86180000D01*
G75*
G02*
X12409000Y-86430000I0J-250000D01*
G01*
X12409000Y-86930000D01*
G75*
G02*
X12159000Y-87180000I-250000J0D01*
G01*
G37*
G36*
G01*
X9939000Y-2360000D02*
X10889000Y-2360000D01*
G75*
G02*
X11139000Y-2610000I0J-250000D01*
G01*
X11139000Y-3110000D01*
G75*
G02*
X10889000Y-3360000I-250000J0D01*
G01*
X9939000Y-3360000D01*
G75*
G02*
X9689000Y-3110000I0J250000D01*
G01*
X9689000Y-2610000D01*
G75*
G02*
X9939000Y-2360000I250000J0D01*
G01*
G37*
G36*
G01*
X9939000Y-4260000D02*
X10889000Y-4260000D01*
G75*
G02*
X11139000Y-4510000I0J-250000D01*
G01*
X11139000Y-5010000D01*
G75*
G02*
X10889000Y-5260000I-250000J0D01*
G01*
X9939000Y-5260000D01*
G75*
G02*
X9689000Y-5010000I0J250000D01*
G01*
X9689000Y-4510000D01*
G75*
G02*
X9939000Y-4260000I250000J0D01*
G01*
G37*
D11*
X12258000Y-78824000D03*
X13208000Y-78824000D03*
X14158000Y-78824000D03*
X14158000Y-76624000D03*
X12258000Y-76624000D03*
X13208000Y-76624000D03*
G36*
G01*
X22031000Y-72451000D02*
X23181000Y-72451000D01*
G75*
G02*
X23431000Y-72701000I0J-250000D01*
G01*
X23431000Y-73801000D01*
G75*
G02*
X23181000Y-74051000I-250000J0D01*
G01*
X22031000Y-74051000D01*
G75*
G02*
X21781000Y-73801000I0J250000D01*
G01*
X21781000Y-72701000D01*
G75*
G02*
X22031000Y-72451000I250000J0D01*
G01*
G37*
G36*
G01*
X22031000Y-75301000D02*
X23181000Y-75301000D01*
G75*
G02*
X23431000Y-75551000I0J-250000D01*
G01*
X23431000Y-76651000D01*
G75*
G02*
X23181000Y-76901000I-250000J0D01*
G01*
X22031000Y-76901000D01*
G75*
G02*
X21781000Y-76651000I0J250000D01*
G01*
X21781000Y-75551000D01*
G75*
G02*
X22031000Y-75301000I250000J0D01*
G01*
G37*
D12*
X6452000Y-48018000D03*
X7552000Y-48018000D03*
X8652000Y-48018000D03*
X9752000Y-48018000D03*
X10852000Y-48018000D03*
X11952000Y-48018000D03*
X13052000Y-48018000D03*
X14152000Y-48018000D03*
D13*
X2777000Y-45418000D03*
X2777000Y-53718000D03*
X16527000Y-45418000D03*
X16527000Y-53718000D03*
D14*
X21000000Y-14732000D03*
X17100000Y-14732000D03*
X21000000Y-13462000D03*
X17100000Y-13462000D03*
X21000000Y-12192000D03*
X17100000Y-12192000D03*
X21000000Y-10922000D03*
X17100000Y-10922000D03*
X21000000Y-9652000D03*
X17100000Y-9652000D03*
G36*
G01*
X26186000Y-52705250D02*
X26186000Y-51942750D01*
G75*
G02*
X26404750Y-51724000I218750J0D01*
G01*
X26842250Y-51724000D01*
G75*
G02*
X27061000Y-51942750I0J-218750D01*
G01*
X27061000Y-52705250D01*
G75*
G02*
X26842250Y-52924000I-218750J0D01*
G01*
X26404750Y-52924000D01*
G75*
G02*
X26186000Y-52705250I0J218750D01*
G01*
G37*
G36*
G01*
X28311000Y-52705250D02*
X28311000Y-51942750D01*
G75*
G02*
X28529750Y-51724000I218750J0D01*
G01*
X28967250Y-51724000D01*
G75*
G02*
X29186000Y-51942750I0J-218750D01*
G01*
X29186000Y-52705250D01*
G75*
G02*
X28967250Y-52924000I-218750J0D01*
G01*
X28529750Y-52924000D01*
G75*
G02*
X28311000Y-52705250I0J218750D01*
G01*
G37*
G36*
G01*
X28311000Y-50165250D02*
X28311000Y-49402750D01*
G75*
G02*
X28529750Y-49184000I218750J0D01*
G01*
X28967250Y-49184000D01*
G75*
G02*
X29186000Y-49402750I0J-218750D01*
G01*
X29186000Y-50165250D01*
G75*
G02*
X28967250Y-50384000I-218750J0D01*
G01*
X28529750Y-50384000D01*
G75*
G02*
X28311000Y-50165250I0J218750D01*
G01*
G37*
G36*
G01*
X26186000Y-50165250D02*
X26186000Y-49402750D01*
G75*
G02*
X26404750Y-49184000I218750J0D01*
G01*
X26842250Y-49184000D01*
G75*
G02*
X27061000Y-49402750I0J-218750D01*
G01*
X27061000Y-50165250D01*
G75*
G02*
X26842250Y-50384000I-218750J0D01*
G01*
X26404750Y-50384000D01*
G75*
G02*
X26186000Y-50165250I0J218750D01*
G01*
G37*
G36*
G01*
X31905000Y-13011998D02*
X31905000Y-13912002D01*
G75*
G02*
X31655002Y-14162000I-249998J0D01*
G01*
X31129998Y-14162000D01*
G75*
G02*
X30880000Y-13912002I0J249998D01*
G01*
X30880000Y-13011998D01*
G75*
G02*
X31129998Y-12762000I249998J0D01*
G01*
X31655002Y-12762000D01*
G75*
G02*
X31905000Y-13011998I0J-249998D01*
G01*
G37*
G36*
G01*
X30080000Y-13011998D02*
X30080000Y-13912002D01*
G75*
G02*
X29830002Y-14162000I-249998J0D01*
G01*
X29304998Y-14162000D01*
G75*
G02*
X29055000Y-13912002I0J249998D01*
G01*
X29055000Y-13011998D01*
G75*
G02*
X29304998Y-12762000I249998J0D01*
G01*
X29830002Y-12762000D01*
G75*
G02*
X30080000Y-13011998I0J-249998D01*
G01*
G37*
G36*
G01*
X30080000Y-15297998D02*
X30080000Y-16198002D01*
G75*
G02*
X29830002Y-16448000I-249998J0D01*
G01*
X29304998Y-16448000D01*
G75*
G02*
X29055000Y-16198002I0J249998D01*
G01*
X29055000Y-15297998D01*
G75*
G02*
X29304998Y-15048000I249998J0D01*
G01*
X29830002Y-15048000D01*
G75*
G02*
X30080000Y-15297998I0J-249998D01*
G01*
G37*
G36*
G01*
X31905000Y-15297998D02*
X31905000Y-16198002D01*
G75*
G02*
X31655002Y-16448000I-249998J0D01*
G01*
X31129998Y-16448000D01*
G75*
G02*
X30880000Y-16198002I0J249998D01*
G01*
X30880000Y-15297998D01*
G75*
G02*
X31129998Y-15048000I249998J0D01*
G01*
X31655002Y-15048000D01*
G75*
G02*
X31905000Y-15297998I0J-249998D01*
G01*
G37*
G36*
G01*
X19754002Y-47352000D02*
X18853998Y-47352000D01*
G75*
G02*
X18604000Y-47102002I0J249998D01*
G01*
X18604000Y-46576998D01*
G75*
G02*
X18853998Y-46327000I249998J0D01*
G01*
X19754002Y-46327000D01*
G75*
G02*
X20004000Y-46576998I0J-249998D01*
G01*
X20004000Y-47102002D01*
G75*
G02*
X19754002Y-47352000I-249998J0D01*
G01*
G37*
G36*
G01*
X19754002Y-49177000D02*
X18853998Y-49177000D01*
G75*
G02*
X18604000Y-48927002I0J249998D01*
G01*
X18604000Y-48401998D01*
G75*
G02*
X18853998Y-48152000I249998J0D01*
G01*
X19754002Y-48152000D01*
G75*
G02*
X20004000Y-48401998I0J-249998D01*
G01*
X20004000Y-48927002D01*
G75*
G02*
X19754002Y-49177000I-249998J0D01*
G01*
G37*
G36*
G01*
X25711998Y-81379000D02*
X26612002Y-81379000D01*
G75*
G02*
X26862000Y-81628998I0J-249998D01*
G01*
X26862000Y-82154002D01*
G75*
G02*
X26612002Y-82404000I-249998J0D01*
G01*
X25711998Y-82404000D01*
G75*
G02*
X25462000Y-82154002I0J249998D01*
G01*
X25462000Y-81628998D01*
G75*
G02*
X25711998Y-81379000I249998J0D01*
G01*
G37*
G36*
G01*
X25711998Y-83204000D02*
X26612002Y-83204000D01*
G75*
G02*
X26862000Y-83453998I0J-249998D01*
G01*
X26862000Y-83979002D01*
G75*
G02*
X26612002Y-84229000I-249998J0D01*
G01*
X25711998Y-84229000D01*
G75*
G02*
X25462000Y-83979002I0J249998D01*
G01*
X25462000Y-83453998D01*
G75*
G02*
X25711998Y-83204000I249998J0D01*
G01*
G37*
G36*
G01*
X8693998Y-83919000D02*
X9594002Y-83919000D01*
G75*
G02*
X9844000Y-84168998I0J-249998D01*
G01*
X9844000Y-84694002D01*
G75*
G02*
X9594002Y-84944000I-249998J0D01*
G01*
X8693998Y-84944000D01*
G75*
G02*
X8444000Y-84694002I0J249998D01*
G01*
X8444000Y-84168998D01*
G75*
G02*
X8693998Y-83919000I249998J0D01*
G01*
G37*
G36*
G01*
X8693998Y-85744000D02*
X9594002Y-85744000D01*
G75*
G02*
X9844000Y-85993998I0J-249998D01*
G01*
X9844000Y-86519002D01*
G75*
G02*
X9594002Y-86769000I-249998J0D01*
G01*
X8693998Y-86769000D01*
G75*
G02*
X8444000Y-86519002I0J249998D01*
G01*
X8444000Y-85993998D01*
G75*
G02*
X8693998Y-85744000I249998J0D01*
G01*
G37*
G36*
G01*
X23476000Y-66097998D02*
X23476000Y-66998002D01*
G75*
G02*
X23226002Y-67248000I-249998J0D01*
G01*
X22700998Y-67248000D01*
G75*
G02*
X22451000Y-66998002I0J249998D01*
G01*
X22451000Y-66097998D01*
G75*
G02*
X22700998Y-65848000I249998J0D01*
G01*
X23226002Y-65848000D01*
G75*
G02*
X23476000Y-66097998I0J-249998D01*
G01*
G37*
G36*
G01*
X25301000Y-66097998D02*
X25301000Y-66998002D01*
G75*
G02*
X25051002Y-67248000I-249998J0D01*
G01*
X24525998Y-67248000D01*
G75*
G02*
X24276000Y-66998002I0J249998D01*
G01*
X24276000Y-66097998D01*
G75*
G02*
X24525998Y-65848000I249998J0D01*
G01*
X25051002Y-65848000D01*
G75*
G02*
X25301000Y-66097998I0J-249998D01*
G01*
G37*
G36*
G01*
X29111000Y-68383998D02*
X29111000Y-69284002D01*
G75*
G02*
X28861002Y-69534000I-249998J0D01*
G01*
X28335998Y-69534000D01*
G75*
G02*
X28086000Y-69284002I0J249998D01*
G01*
X28086000Y-68383998D01*
G75*
G02*
X28335998Y-68134000I249998J0D01*
G01*
X28861002Y-68134000D01*
G75*
G02*
X29111000Y-68383998I0J-249998D01*
G01*
G37*
G36*
G01*
X27286000Y-68384100D02*
X27286000Y-69283900D01*
G75*
G02*
X27035900Y-69534000I-250100J0D01*
G01*
X26511100Y-69534000D01*
G75*
G02*
X26261000Y-69283900I0J250100D01*
G01*
X26261000Y-68384100D01*
G75*
G02*
X26511100Y-68134000I250100J0D01*
G01*
X27035900Y-68134000D01*
G75*
G02*
X27286000Y-68384100I0J-250100D01*
G01*
G37*
G36*
G01*
X24276000Y-62426002D02*
X24276000Y-61525998D01*
G75*
G02*
X24525998Y-61276000I249998J0D01*
G01*
X25051002Y-61276000D01*
G75*
G02*
X25301000Y-61525998I0J-249998D01*
G01*
X25301000Y-62426002D01*
G75*
G02*
X25051002Y-62676000I-249998J0D01*
G01*
X24525998Y-62676000D01*
G75*
G02*
X24276000Y-62426002I0J249998D01*
G01*
G37*
G36*
G01*
X22451000Y-62426002D02*
X22451000Y-61525998D01*
G75*
G02*
X22700998Y-61276000I249998J0D01*
G01*
X23226002Y-61276000D01*
G75*
G02*
X23476000Y-61525998I0J-249998D01*
G01*
X23476000Y-62426002D01*
G75*
G02*
X23226002Y-62676000I-249998J0D01*
G01*
X22700998Y-62676000D01*
G75*
G02*
X22451000Y-62426002I0J249998D01*
G01*
G37*
G36*
G01*
X22451000Y-69284002D02*
X22451000Y-68383998D01*
G75*
G02*
X22700998Y-68134000I249998J0D01*
G01*
X23226002Y-68134000D01*
G75*
G02*
X23476000Y-68383998I0J-249998D01*
G01*
X23476000Y-69284002D01*
G75*
G02*
X23226002Y-69534000I-249998J0D01*
G01*
X22700998Y-69534000D01*
G75*
G02*
X22451000Y-69284002I0J249998D01*
G01*
G37*
G36*
G01*
X24276000Y-69283900D02*
X24276000Y-68384100D01*
G75*
G02*
X24526100Y-68134000I250100J0D01*
G01*
X25050900Y-68134000D01*
G75*
G02*
X25301000Y-68384100I0J-250100D01*
G01*
X25301000Y-69283900D01*
G75*
G02*
X25050900Y-69534000I-250100J0D01*
G01*
X24526100Y-69534000D01*
G75*
G02*
X24276000Y-69283900I0J250100D01*
G01*
G37*
G36*
G01*
X36264002Y-84229000D02*
X35363998Y-84229000D01*
G75*
G02*
X35114000Y-83979002I0J249998D01*
G01*
X35114000Y-83453998D01*
G75*
G02*
X35363998Y-83204000I249998J0D01*
G01*
X36264002Y-83204000D01*
G75*
G02*
X36514000Y-83453998I0J-249998D01*
G01*
X36514000Y-83979002D01*
G75*
G02*
X36264002Y-84229000I-249998J0D01*
G01*
G37*
G36*
G01*
X36264002Y-82404000D02*
X35363998Y-82404000D01*
G75*
G02*
X35114000Y-82154002I0J249998D01*
G01*
X35114000Y-81628998D01*
G75*
G02*
X35363998Y-81379000I249998J0D01*
G01*
X36264002Y-81379000D01*
G75*
G02*
X36514000Y-81628998I0J-249998D01*
G01*
X36514000Y-82154002D01*
G75*
G02*
X36264002Y-82404000I-249998J0D01*
G01*
G37*
G36*
G01*
X11233998Y-84220000D02*
X12134002Y-84220000D01*
G75*
G02*
X12384000Y-84469998I0J-249998D01*
G01*
X12384000Y-84995002D01*
G75*
G02*
X12134002Y-85245000I-249998J0D01*
G01*
X11233998Y-85245000D01*
G75*
G02*
X10984000Y-84995002I0J249998D01*
G01*
X10984000Y-84469998D01*
G75*
G02*
X11233998Y-84220000I249998J0D01*
G01*
G37*
G36*
G01*
X11233998Y-82395000D02*
X12134002Y-82395000D01*
G75*
G02*
X12384000Y-82644998I0J-249998D01*
G01*
X12384000Y-83170002D01*
G75*
G02*
X12134002Y-83420000I-249998J0D01*
G01*
X11233998Y-83420000D01*
G75*
G02*
X10984000Y-83170002I0J249998D01*
G01*
X10984000Y-82644998D01*
G75*
G02*
X11233998Y-82395000I249998J0D01*
G01*
G37*
G36*
G01*
X36264002Y-78594000D02*
X35363998Y-78594000D01*
G75*
G02*
X35114000Y-78344002I0J249998D01*
G01*
X35114000Y-77818998D01*
G75*
G02*
X35363998Y-77569000I249998J0D01*
G01*
X36264002Y-77569000D01*
G75*
G02*
X36514000Y-77818998I0J-249998D01*
G01*
X36514000Y-78344002D01*
G75*
G02*
X36264002Y-78594000I-249998J0D01*
G01*
G37*
G36*
G01*
X36264002Y-80419000D02*
X35363998Y-80419000D01*
G75*
G02*
X35114000Y-80169002I0J249998D01*
G01*
X35114000Y-79643998D01*
G75*
G02*
X35363998Y-79394000I249998J0D01*
G01*
X36264002Y-79394000D01*
G75*
G02*
X36514000Y-79643998I0J-249998D01*
G01*
X36514000Y-80169002D01*
G75*
G02*
X36264002Y-80419000I-249998J0D01*
G01*
G37*
G36*
G01*
X14887000Y-1835998D02*
X14887000Y-2736002D01*
G75*
G02*
X14637002Y-2986000I-249998J0D01*
G01*
X14111998Y-2986000D01*
G75*
G02*
X13862000Y-2736002I0J249998D01*
G01*
X13862000Y-1835998D01*
G75*
G02*
X14111998Y-1586000I249998J0D01*
G01*
X14637002Y-1586000D01*
G75*
G02*
X14887000Y-1835998I0J-249998D01*
G01*
G37*
G36*
G01*
X13062000Y-1835998D02*
X13062000Y-2736002D01*
G75*
G02*
X12812002Y-2986000I-249998J0D01*
G01*
X12286998Y-2986000D01*
G75*
G02*
X12037000Y-2736002I0J249998D01*
G01*
X12037000Y-1835998D01*
G75*
G02*
X12286998Y-1586000I249998J0D01*
G01*
X12812002Y-1586000D01*
G75*
G02*
X13062000Y-1835998I0J-249998D01*
G01*
G37*
G36*
G01*
X8791000Y-1835998D02*
X8791000Y-2736002D01*
G75*
G02*
X8541002Y-2986000I-249998J0D01*
G01*
X8015998Y-2986000D01*
G75*
G02*
X7766000Y-2736002I0J249998D01*
G01*
X7766000Y-1835998D01*
G75*
G02*
X8015998Y-1586000I249998J0D01*
G01*
X8541002Y-1586000D01*
G75*
G02*
X8791000Y-1835998I0J-249998D01*
G01*
G37*
G36*
G01*
X6966000Y-1835998D02*
X6966000Y-2736002D01*
G75*
G02*
X6716002Y-2986000I-249998J0D01*
G01*
X6190998Y-2986000D01*
G75*
G02*
X5941000Y-2736002I0J249998D01*
G01*
X5941000Y-1835998D01*
G75*
G02*
X6190998Y-1586000I249998J0D01*
G01*
X6716002Y-1586000D01*
G75*
G02*
X6966000Y-1835998I0J-249998D01*
G01*
G37*
D15*
X30262000Y-86294000D03*
X33262000Y-86294000D03*
X34762000Y-86294000D03*
D16*
X28862000Y-89154000D03*
X36162000Y-89154000D03*
X36162000Y-86944000D03*
X28862000Y-86944000D03*
G36*
G01*
X29137000Y-9174500D02*
X29137000Y-8999500D01*
G75*
G02*
X29224500Y-8912000I87500J0D01*
G01*
X29599500Y-8912000D01*
G75*
G02*
X29687000Y-8999500I0J-87500D01*
G01*
X29687000Y-9174500D01*
G75*
G02*
X29599500Y-9262000I-87500J0D01*
G01*
X29224500Y-9262000D01*
G75*
G02*
X29137000Y-9174500I0J87500D01*
G01*
G37*
G36*
G01*
X29137000Y-9674500D02*
X29137000Y-9499500D01*
G75*
G02*
X29224500Y-9412000I87500J0D01*
G01*
X29599500Y-9412000D01*
G75*
G02*
X29687000Y-9499500I0J-87500D01*
G01*
X29687000Y-9674500D01*
G75*
G02*
X29599500Y-9762000I-87500J0D01*
G01*
X29224500Y-9762000D01*
G75*
G02*
X29137000Y-9674500I0J87500D01*
G01*
G37*
G36*
G01*
X29137000Y-10174500D02*
X29137000Y-9999500D01*
G75*
G02*
X29224500Y-9912000I87500J0D01*
G01*
X29599500Y-9912000D01*
G75*
G02*
X29687000Y-9999500I0J-87500D01*
G01*
X29687000Y-10174500D01*
G75*
G02*
X29599500Y-10262000I-87500J0D01*
G01*
X29224500Y-10262000D01*
G75*
G02*
X29137000Y-10174500I0J87500D01*
G01*
G37*
G36*
G01*
X29137000Y-10674500D02*
X29137000Y-10499500D01*
G75*
G02*
X29224500Y-10412000I87500J0D01*
G01*
X29599500Y-10412000D01*
G75*
G02*
X29687000Y-10499500I0J-87500D01*
G01*
X29687000Y-10674500D01*
G75*
G02*
X29599500Y-10762000I-87500J0D01*
G01*
X29224500Y-10762000D01*
G75*
G02*
X29137000Y-10674500I0J87500D01*
G01*
G37*
G36*
G01*
X29137000Y-11174500D02*
X29137000Y-10999500D01*
G75*
G02*
X29224500Y-10912000I87500J0D01*
G01*
X29599500Y-10912000D01*
G75*
G02*
X29687000Y-10999500I0J-87500D01*
G01*
X29687000Y-11174500D01*
G75*
G02*
X29599500Y-11262000I-87500J0D01*
G01*
X29224500Y-11262000D01*
G75*
G02*
X29137000Y-11174500I0J87500D01*
G01*
G37*
G36*
G01*
X29962000Y-11499500D02*
X29962000Y-11124500D01*
G75*
G02*
X30049500Y-11037000I87500J0D01*
G01*
X30224500Y-11037000D01*
G75*
G02*
X30312000Y-11124500I0J-87500D01*
G01*
X30312000Y-11499500D01*
G75*
G02*
X30224500Y-11587000I-87500J0D01*
G01*
X30049500Y-11587000D01*
G75*
G02*
X29962000Y-11499500I0J87500D01*
G01*
G37*
G36*
G01*
X30462000Y-11499500D02*
X30462000Y-11124500D01*
G75*
G02*
X30549500Y-11037000I87500J0D01*
G01*
X30724500Y-11037000D01*
G75*
G02*
X30812000Y-11124500I0J-87500D01*
G01*
X30812000Y-11499500D01*
G75*
G02*
X30724500Y-11587000I-87500J0D01*
G01*
X30549500Y-11587000D01*
G75*
G02*
X30462000Y-11499500I0J87500D01*
G01*
G37*
G36*
G01*
X30962000Y-11499500D02*
X30962000Y-11124500D01*
G75*
G02*
X31049500Y-11037000I87500J0D01*
G01*
X31224500Y-11037000D01*
G75*
G02*
X31312000Y-11124500I0J-87500D01*
G01*
X31312000Y-11499500D01*
G75*
G02*
X31224500Y-11587000I-87500J0D01*
G01*
X31049500Y-11587000D01*
G75*
G02*
X30962000Y-11499500I0J87500D01*
G01*
G37*
G36*
G01*
X31587000Y-11174500D02*
X31587000Y-10999500D01*
G75*
G02*
X31674500Y-10912000I87500J0D01*
G01*
X32049500Y-10912000D01*
G75*
G02*
X32137000Y-10999500I0J-87500D01*
G01*
X32137000Y-11174500D01*
G75*
G02*
X32049500Y-11262000I-87500J0D01*
G01*
X31674500Y-11262000D01*
G75*
G02*
X31587000Y-11174500I0J87500D01*
G01*
G37*
G36*
G01*
X31587000Y-10674500D02*
X31587000Y-10499500D01*
G75*
G02*
X31674500Y-10412000I87500J0D01*
G01*
X32049500Y-10412000D01*
G75*
G02*
X32137000Y-10499500I0J-87500D01*
G01*
X32137000Y-10674500D01*
G75*
G02*
X32049500Y-10762000I-87500J0D01*
G01*
X31674500Y-10762000D01*
G75*
G02*
X31587000Y-10674500I0J87500D01*
G01*
G37*
G36*
G01*
X31587000Y-10174500D02*
X31587000Y-9999500D01*
G75*
G02*
X31674500Y-9912000I87500J0D01*
G01*
X32049500Y-9912000D01*
G75*
G02*
X32137000Y-9999500I0J-87500D01*
G01*
X32137000Y-10174500D01*
G75*
G02*
X32049500Y-10262000I-87500J0D01*
G01*
X31674500Y-10262000D01*
G75*
G02*
X31587000Y-10174500I0J87500D01*
G01*
G37*
G36*
G01*
X31587000Y-9674500D02*
X31587000Y-9499500D01*
G75*
G02*
X31674500Y-9412000I87500J0D01*
G01*
X32049500Y-9412000D01*
G75*
G02*
X32137000Y-9499500I0J-87500D01*
G01*
X32137000Y-9674500D01*
G75*
G02*
X32049500Y-9762000I-87500J0D01*
G01*
X31674500Y-9762000D01*
G75*
G02*
X31587000Y-9674500I0J87500D01*
G01*
G37*
G36*
G01*
X31587000Y-9174500D02*
X31587000Y-8999500D01*
G75*
G02*
X31674500Y-8912000I87500J0D01*
G01*
X32049500Y-8912000D01*
G75*
G02*
X32137000Y-8999500I0J-87500D01*
G01*
X32137000Y-9174500D01*
G75*
G02*
X32049500Y-9262000I-87500J0D01*
G01*
X31674500Y-9262000D01*
G75*
G02*
X31587000Y-9174500I0J87500D01*
G01*
G37*
G36*
G01*
X30962000Y-9049500D02*
X30962000Y-8674500D01*
G75*
G02*
X31049500Y-8587000I87500J0D01*
G01*
X31224500Y-8587000D01*
G75*
G02*
X31312000Y-8674500I0J-87500D01*
G01*
X31312000Y-9049500D01*
G75*
G02*
X31224500Y-9137000I-87500J0D01*
G01*
X31049500Y-9137000D01*
G75*
G02*
X30962000Y-9049500I0J87500D01*
G01*
G37*
G36*
G01*
X30462000Y-9049500D02*
X30462000Y-8674500D01*
G75*
G02*
X30549500Y-8587000I87500J0D01*
G01*
X30724500Y-8587000D01*
G75*
G02*
X30812000Y-8674500I0J-87500D01*
G01*
X30812000Y-9049500D01*
G75*
G02*
X30724500Y-9137000I-87500J0D01*
G01*
X30549500Y-9137000D01*
G75*
G02*
X30462000Y-9049500I0J87500D01*
G01*
G37*
G36*
G01*
X29962000Y-9049500D02*
X29962000Y-8674500D01*
G75*
G02*
X30049500Y-8587000I87500J0D01*
G01*
X30224500Y-8587000D01*
G75*
G02*
X30312000Y-8674500I0J-87500D01*
G01*
X30312000Y-9049500D01*
G75*
G02*
X30224500Y-9137000I-87500J0D01*
G01*
X30049500Y-9137000D01*
G75*
G02*
X29962000Y-9049500I0J87500D01*
G01*
G37*
D17*
X14700000Y-25444000D03*
X14700000Y-25944000D03*
X14700000Y-26444000D03*
X14700000Y-26944000D03*
X14700000Y-27444000D03*
X14700000Y-27944000D03*
X14700000Y-28444000D03*
X14700000Y-28944000D03*
X14700000Y-29444000D03*
X14700000Y-29944000D03*
X14700000Y-30444000D03*
X14700000Y-30944000D03*
D18*
X16300000Y-32544000D03*
X16800000Y-32544000D03*
X17300000Y-32544000D03*
X17800000Y-32544000D03*
X18300000Y-32544000D03*
X18800000Y-32544000D03*
X19300000Y-32544000D03*
X19800000Y-32544000D03*
X20300000Y-32544000D03*
X20800000Y-32544000D03*
X21300000Y-32544000D03*
X21800000Y-32544000D03*
D17*
X23400000Y-30944000D03*
X23400000Y-30444000D03*
X23400000Y-29944000D03*
X23400000Y-29444000D03*
X23400000Y-28944000D03*
X23400000Y-28444000D03*
X23400000Y-27944000D03*
X23400000Y-27444000D03*
X23400000Y-26944000D03*
X23400000Y-26444000D03*
X23400000Y-25944000D03*
X23400000Y-25444000D03*
D18*
X21800000Y-23844000D03*
X21300000Y-23844000D03*
X20800000Y-23844000D03*
X20300000Y-23844000D03*
X19800000Y-23844000D03*
X19300000Y-23844000D03*
X18800000Y-23844000D03*
X18300000Y-23844000D03*
X17800000Y-23844000D03*
X17300000Y-23844000D03*
X16800000Y-23844000D03*
X16300000Y-23844000D03*
G36*
G01*
X21239000Y-49604500D02*
X21239000Y-49479500D01*
G75*
G02*
X21301500Y-49417000I62500J0D01*
G01*
X22051500Y-49417000D01*
G75*
G02*
X22114000Y-49479500I0J-62500D01*
G01*
X22114000Y-49604500D01*
G75*
G02*
X22051500Y-49667000I-62500J0D01*
G01*
X21301500Y-49667000D01*
G75*
G02*
X21239000Y-49604500I0J62500D01*
G01*
G37*
G36*
G01*
X21239000Y-50104500D02*
X21239000Y-49979500D01*
G75*
G02*
X21301500Y-49917000I62500J0D01*
G01*
X22051500Y-49917000D01*
G75*
G02*
X22114000Y-49979500I0J-62500D01*
G01*
X22114000Y-50104500D01*
G75*
G02*
X22051500Y-50167000I-62500J0D01*
G01*
X21301500Y-50167000D01*
G75*
G02*
X21239000Y-50104500I0J62500D01*
G01*
G37*
G36*
G01*
X21239000Y-50604500D02*
X21239000Y-50479500D01*
G75*
G02*
X21301500Y-50417000I62500J0D01*
G01*
X22051500Y-50417000D01*
G75*
G02*
X22114000Y-50479500I0J-62500D01*
G01*
X22114000Y-50604500D01*
G75*
G02*
X22051500Y-50667000I-62500J0D01*
G01*
X21301500Y-50667000D01*
G75*
G02*
X21239000Y-50604500I0J62500D01*
G01*
G37*
G36*
G01*
X21239000Y-51104500D02*
X21239000Y-50979500D01*
G75*
G02*
X21301500Y-50917000I62500J0D01*
G01*
X22051500Y-50917000D01*
G75*
G02*
X22114000Y-50979500I0J-62500D01*
G01*
X22114000Y-51104500D01*
G75*
G02*
X22051500Y-51167000I-62500J0D01*
G01*
X21301500Y-51167000D01*
G75*
G02*
X21239000Y-51104500I0J62500D01*
G01*
G37*
G36*
G01*
X22239000Y-52104500D02*
X22239000Y-51354500D01*
G75*
G02*
X22301500Y-51292000I62500J0D01*
G01*
X22426500Y-51292000D01*
G75*
G02*
X22489000Y-51354500I0J-62500D01*
G01*
X22489000Y-52104500D01*
G75*
G02*
X22426500Y-52167000I-62500J0D01*
G01*
X22301500Y-52167000D01*
G75*
G02*
X22239000Y-52104500I0J62500D01*
G01*
G37*
G36*
G01*
X22739000Y-52104500D02*
X22739000Y-51354500D01*
G75*
G02*
X22801500Y-51292000I62500J0D01*
G01*
X22926500Y-51292000D01*
G75*
G02*
X22989000Y-51354500I0J-62500D01*
G01*
X22989000Y-52104500D01*
G75*
G02*
X22926500Y-52167000I-62500J0D01*
G01*
X22801500Y-52167000D01*
G75*
G02*
X22739000Y-52104500I0J62500D01*
G01*
G37*
G36*
G01*
X23239000Y-52104500D02*
X23239000Y-51354500D01*
G75*
G02*
X23301500Y-51292000I62500J0D01*
G01*
X23426500Y-51292000D01*
G75*
G02*
X23489000Y-51354500I0J-62500D01*
G01*
X23489000Y-52104500D01*
G75*
G02*
X23426500Y-52167000I-62500J0D01*
G01*
X23301500Y-52167000D01*
G75*
G02*
X23239000Y-52104500I0J62500D01*
G01*
G37*
G36*
G01*
X23739000Y-52104500D02*
X23739000Y-51354500D01*
G75*
G02*
X23801500Y-51292000I62500J0D01*
G01*
X23926500Y-51292000D01*
G75*
G02*
X23989000Y-51354500I0J-62500D01*
G01*
X23989000Y-52104500D01*
G75*
G02*
X23926500Y-52167000I-62500J0D01*
G01*
X23801500Y-52167000D01*
G75*
G02*
X23739000Y-52104500I0J62500D01*
G01*
G37*
G36*
G01*
X24114000Y-51104500D02*
X24114000Y-50979500D01*
G75*
G02*
X24176500Y-50917000I62500J0D01*
G01*
X24926500Y-50917000D01*
G75*
G02*
X24989000Y-50979500I0J-62500D01*
G01*
X24989000Y-51104500D01*
G75*
G02*
X24926500Y-51167000I-62500J0D01*
G01*
X24176500Y-51167000D01*
G75*
G02*
X24114000Y-51104500I0J62500D01*
G01*
G37*
G36*
G01*
X24114000Y-50604500D02*
X24114000Y-50479500D01*
G75*
G02*
X24176500Y-50417000I62500J0D01*
G01*
X24926500Y-50417000D01*
G75*
G02*
X24989000Y-50479500I0J-62500D01*
G01*
X24989000Y-50604500D01*
G75*
G02*
X24926500Y-50667000I-62500J0D01*
G01*
X24176500Y-50667000D01*
G75*
G02*
X24114000Y-50604500I0J62500D01*
G01*
G37*
G36*
G01*
X24114000Y-50104500D02*
X24114000Y-49979500D01*
G75*
G02*
X24176500Y-49917000I62500J0D01*
G01*
X24926500Y-49917000D01*
G75*
G02*
X24989000Y-49979500I0J-62500D01*
G01*
X24989000Y-50104500D01*
G75*
G02*
X24926500Y-50167000I-62500J0D01*
G01*
X24176500Y-50167000D01*
G75*
G02*
X24114000Y-50104500I0J62500D01*
G01*
G37*
G36*
G01*
X24114000Y-49604500D02*
X24114000Y-49479500D01*
G75*
G02*
X24176500Y-49417000I62500J0D01*
G01*
X24926500Y-49417000D01*
G75*
G02*
X24989000Y-49479500I0J-62500D01*
G01*
X24989000Y-49604500D01*
G75*
G02*
X24926500Y-49667000I-62500J0D01*
G01*
X24176500Y-49667000D01*
G75*
G02*
X24114000Y-49604500I0J62500D01*
G01*
G37*
G36*
G01*
X23739000Y-49229500D02*
X23739000Y-48479500D01*
G75*
G02*
X23801500Y-48417000I62500J0D01*
G01*
X23926500Y-48417000D01*
G75*
G02*
X23989000Y-48479500I0J-62500D01*
G01*
X23989000Y-49229500D01*
G75*
G02*
X23926500Y-49292000I-62500J0D01*
G01*
X23801500Y-49292000D01*
G75*
G02*
X23739000Y-49229500I0J62500D01*
G01*
G37*
G36*
G01*
X23239000Y-49229500D02*
X23239000Y-48479500D01*
G75*
G02*
X23301500Y-48417000I62500J0D01*
G01*
X23426500Y-48417000D01*
G75*
G02*
X23489000Y-48479500I0J-62500D01*
G01*
X23489000Y-49229500D01*
G75*
G02*
X23426500Y-49292000I-62500J0D01*
G01*
X23301500Y-49292000D01*
G75*
G02*
X23239000Y-49229500I0J62500D01*
G01*
G37*
G36*
G01*
X22739000Y-49229500D02*
X22739000Y-48479500D01*
G75*
G02*
X22801500Y-48417000I62500J0D01*
G01*
X22926500Y-48417000D01*
G75*
G02*
X22989000Y-48479500I0J-62500D01*
G01*
X22989000Y-49229500D01*
G75*
G02*
X22926500Y-49292000I-62500J0D01*
G01*
X22801500Y-49292000D01*
G75*
G02*
X22739000Y-49229500I0J62500D01*
G01*
G37*
G36*
G01*
X22239000Y-49229500D02*
X22239000Y-48479500D01*
G75*
G02*
X22301500Y-48417000I62500J0D01*
G01*
X22426500Y-48417000D01*
G75*
G02*
X22489000Y-48479500I0J-62500D01*
G01*
X22489000Y-49229500D01*
G75*
G02*
X22426500Y-49292000I-62500J0D01*
G01*
X22301500Y-49292000D01*
G75*
G02*
X22239000Y-49229500I0J62500D01*
G01*
G37*
G36*
G01*
X22439000Y-50089500D02*
X22439000Y-49774500D01*
G75*
G02*
X22596500Y-49617000I157500J0D01*
G01*
X22911500Y-49617000D01*
G75*
G02*
X23069000Y-49774500I0J-157500D01*
G01*
X23069000Y-50089500D01*
G75*
G02*
X22911500Y-50247000I-157500J0D01*
G01*
X22596500Y-50247000D01*
G75*
G02*
X22439000Y-50089500I0J157500D01*
G01*
G37*
G36*
G01*
X22439000Y-50809500D02*
X22439000Y-50494500D01*
G75*
G02*
X22596500Y-50337000I157500J0D01*
G01*
X22911500Y-50337000D01*
G75*
G02*
X23069000Y-50494500I0J-157500D01*
G01*
X23069000Y-50809500D01*
G75*
G02*
X22911500Y-50967000I-157500J0D01*
G01*
X22596500Y-50967000D01*
G75*
G02*
X22439000Y-50809500I0J157500D01*
G01*
G37*
G36*
G01*
X23159000Y-50089500D02*
X23159000Y-49774500D01*
G75*
G02*
X23316500Y-49617000I157500J0D01*
G01*
X23631500Y-49617000D01*
G75*
G02*
X23789000Y-49774500I0J-157500D01*
G01*
X23789000Y-50089500D01*
G75*
G02*
X23631500Y-50247000I-157500J0D01*
G01*
X23316500Y-50247000D01*
G75*
G02*
X23159000Y-50089500I0J157500D01*
G01*
G37*
G36*
G01*
X23159000Y-50809500D02*
X23159000Y-50494500D01*
G75*
G02*
X23316500Y-50337000I157500J0D01*
G01*
X23631500Y-50337000D01*
G75*
G02*
X23789000Y-50494500I0J-157500D01*
G01*
X23789000Y-50809500D01*
G75*
G02*
X23631500Y-50967000I-157500J0D01*
G01*
X23316500Y-50967000D01*
G75*
G02*
X23159000Y-50809500I0J157500D01*
G01*
G37*
D19*
X26332000Y-71186000D03*
X26332000Y-72136000D03*
X26332000Y-73086000D03*
X28532000Y-73086000D03*
X28532000Y-71186000D03*
D20*
X9398000Y-70968000D03*
D21*
X9398000Y-64668000D03*
X7098000Y-64668000D03*
X11698000Y-64668000D03*
D22*
X11684000Y-24404000D03*
X11684000Y-26904000D03*
D23*
X20473000Y-66560000D03*
G36*
G01*
X20235500Y-66935000D02*
X20710500Y-66935000D01*
G75*
G02*
X20773000Y-66997500I0J-62500D01*
G01*
X20773000Y-67122500D01*
G75*
G02*
X20710500Y-67185000I-62500J0D01*
G01*
X20235500Y-67185000D01*
G75*
G02*
X20173000Y-67122500I0J62500D01*
G01*
X20173000Y-66997500D01*
G75*
G02*
X20235500Y-66935000I62500J0D01*
G01*
G37*
G36*
G01*
X20235500Y-67435000D02*
X20710500Y-67435000D01*
G75*
G02*
X20773000Y-67497500I0J-62500D01*
G01*
X20773000Y-67622500D01*
G75*
G02*
X20710500Y-67685000I-62500J0D01*
G01*
X20235500Y-67685000D01*
G75*
G02*
X20173000Y-67622500I0J62500D01*
G01*
X20173000Y-67497500D01*
G75*
G02*
X20235500Y-67435000I62500J0D01*
G01*
G37*
G36*
G01*
X20235500Y-67935000D02*
X20710500Y-67935000D01*
G75*
G02*
X20773000Y-67997500I0J-62500D01*
G01*
X20773000Y-68122500D01*
G75*
G02*
X20710500Y-68185000I-62500J0D01*
G01*
X20235500Y-68185000D01*
G75*
G02*
X20173000Y-68122500I0J62500D01*
G01*
X20173000Y-67997500D01*
G75*
G02*
X20235500Y-67935000I62500J0D01*
G01*
G37*
G36*
G01*
X19495500Y-66110000D02*
X19620500Y-66110000D01*
G75*
G02*
X19683000Y-66172500I0J-62500D01*
G01*
X19683000Y-68447500D01*
G75*
G02*
X19620500Y-68510000I-62500J0D01*
G01*
X19495500Y-68510000D01*
G75*
G02*
X19433000Y-68447500I0J62500D01*
G01*
X19433000Y-66172500D01*
G75*
G02*
X19495500Y-66110000I62500J0D01*
G01*
G37*
G36*
G01*
X18958000Y-67610000D02*
X19108000Y-67610000D01*
G75*
G02*
X19183000Y-67685000I0J-75000D01*
G01*
X19183000Y-68435000D01*
G75*
G02*
X19108000Y-68510000I-75000J0D01*
G01*
X18958000Y-68510000D01*
G75*
G02*
X18883000Y-68435000I0J75000D01*
G01*
X18883000Y-67685000D01*
G75*
G02*
X18958000Y-67610000I75000J0D01*
G01*
G37*
G36*
G01*
X18958000Y-66110000D02*
X19108000Y-66110000D01*
G75*
G02*
X19183000Y-66185000I0J-75000D01*
G01*
X19183000Y-67235000D01*
G75*
G02*
X19108000Y-67310000I-75000J0D01*
G01*
X18958000Y-67310000D01*
G75*
G02*
X18883000Y-67235000I0J75000D01*
G01*
X18883000Y-66185000D01*
G75*
G02*
X18958000Y-66110000I75000J0D01*
G01*
G37*
G36*
G01*
X21516000Y-56929000D02*
X21516000Y-57879000D01*
G75*
G02*
X21266000Y-58129000I-250000J0D01*
G01*
X20766000Y-58129000D01*
G75*
G02*
X20516000Y-57879000I0J250000D01*
G01*
X20516000Y-56929000D01*
G75*
G02*
X20766000Y-56679000I250000J0D01*
G01*
X21266000Y-56679000D01*
G75*
G02*
X21516000Y-56929000I0J-250000D01*
G01*
G37*
G36*
G01*
X19616000Y-56929000D02*
X19616000Y-57879000D01*
G75*
G02*
X19366000Y-58129000I-250000J0D01*
G01*
X18866000Y-58129000D01*
G75*
G02*
X18616000Y-57879000I0J250000D01*
G01*
X18616000Y-56929000D01*
G75*
G02*
X18866000Y-56679000I250000J0D01*
G01*
X19366000Y-56679000D01*
G75*
G02*
X19616000Y-56929000I0J-250000D01*
G01*
G37*
G36*
G01*
X24326000Y-57879000D02*
X24326000Y-56929000D01*
G75*
G02*
X24576000Y-56679000I250000J0D01*
G01*
X25076000Y-56679000D01*
G75*
G02*
X25326000Y-56929000I0J-250000D01*
G01*
X25326000Y-57879000D01*
G75*
G02*
X25076000Y-58129000I-250000J0D01*
G01*
X24576000Y-58129000D01*
G75*
G02*
X24326000Y-57879000I0J250000D01*
G01*
G37*
G36*
G01*
X22426000Y-57879000D02*
X22426000Y-56929000D01*
G75*
G02*
X22676000Y-56679000I250000J0D01*
G01*
X23176000Y-56679000D01*
G75*
G02*
X23426000Y-56929000I0J-250000D01*
G01*
X23426000Y-57879000D01*
G75*
G02*
X23176000Y-58129000I-250000J0D01*
G01*
X22676000Y-58129000D01*
G75*
G02*
X22426000Y-57879000I0J250000D01*
G01*
G37*
G36*
G01*
X16035000Y-65352000D02*
X16985000Y-65352000D01*
G75*
G02*
X17235000Y-65602000I0J-250000D01*
G01*
X17235000Y-66102000D01*
G75*
G02*
X16985000Y-66352000I-250000J0D01*
G01*
X16035000Y-66352000D01*
G75*
G02*
X15785000Y-66102000I0J250000D01*
G01*
X15785000Y-65602000D01*
G75*
G02*
X16035000Y-65352000I250000J0D01*
G01*
G37*
G36*
G01*
X16035000Y-67252000D02*
X16985000Y-67252000D01*
G75*
G02*
X17235000Y-67502000I0J-250000D01*
G01*
X17235000Y-68002000D01*
G75*
G02*
X16985000Y-68252000I-250000J0D01*
G01*
X16035000Y-68252000D01*
G75*
G02*
X15785000Y-68002000I0J250000D01*
G01*
X15785000Y-67502000D01*
G75*
G02*
X16035000Y-67252000I250000J0D01*
G01*
G37*
G36*
G01*
X13749000Y-67252000D02*
X14699000Y-67252000D01*
G75*
G02*
X14949000Y-67502000I0J-250000D01*
G01*
X14949000Y-68002000D01*
G75*
G02*
X14699000Y-68252000I-250000J0D01*
G01*
X13749000Y-68252000D01*
G75*
G02*
X13499000Y-68002000I0J250000D01*
G01*
X13499000Y-67502000D01*
G75*
G02*
X13749000Y-67252000I250000J0D01*
G01*
G37*
G36*
G01*
X13749000Y-65352000D02*
X14699000Y-65352000D01*
G75*
G02*
X14949000Y-65602000I0J-250000D01*
G01*
X14949000Y-66102000D01*
G75*
G02*
X14699000Y-66352000I-250000J0D01*
G01*
X13749000Y-66352000D01*
G75*
G02*
X13499000Y-66102000I0J250000D01*
G01*
X13499000Y-65602000D01*
G75*
G02*
X13749000Y-65352000I250000J0D01*
G01*
G37*
D24*
X19050000Y-72813000D03*
X19050000Y-70443000D03*
G36*
G01*
X8364000Y-88564500D02*
X8364000Y-88219500D01*
G75*
G02*
X8511500Y-88072000I147500J0D01*
G01*
X8806500Y-88072000D01*
G75*
G02*
X8954000Y-88219500I0J-147500D01*
G01*
X8954000Y-88564500D01*
G75*
G02*
X8806500Y-88712000I-147500J0D01*
G01*
X8511500Y-88712000D01*
G75*
G02*
X8364000Y-88564500I0J147500D01*
G01*
G37*
G36*
G01*
X9334000Y-88564500D02*
X9334000Y-88219500D01*
G75*
G02*
X9481500Y-88072000I147500J0D01*
G01*
X9776500Y-88072000D01*
G75*
G02*
X9924000Y-88219500I0J-147500D01*
G01*
X9924000Y-88564500D01*
G75*
G02*
X9776500Y-88712000I-147500J0D01*
G01*
X9481500Y-88712000D01*
G75*
G02*
X9334000Y-88564500I0J147500D01*
G01*
G37*
D25*
X14600000Y-88084000D03*
X23400000Y-88084000D03*
X14600000Y-82584000D03*
X23400000Y-82584000D03*
D26*
X17400000Y-82584000D03*
X18200000Y-82584000D03*
X19000000Y-82584000D03*
X19800000Y-82584000D03*
X20600000Y-82584000D03*
G36*
G01*
X24552000Y-77987000D02*
X24552000Y-75937000D01*
G75*
G02*
X24802000Y-75687000I250000J0D01*
G01*
X26377000Y-75687000D01*
G75*
G02*
X26627000Y-75937000I0J-250000D01*
G01*
X26627000Y-77987000D01*
G75*
G02*
X26377000Y-78237000I-250000J0D01*
G01*
X24802000Y-78237000D01*
G75*
G02*
X24552000Y-77987000I0J250000D01*
G01*
G37*
G36*
G01*
X30777000Y-77988000D02*
X30777000Y-75936000D01*
G75*
G02*
X31026000Y-75687000I249000J0D01*
G01*
X32603000Y-75687000D01*
G75*
G02*
X32852000Y-75936000I0J-249000D01*
G01*
X32852000Y-77988000D01*
G75*
G02*
X32603000Y-78237000I-249000J0D01*
G01*
X31026000Y-78237000D01*
G75*
G02*
X30777000Y-77988000I0J249000D01*
G01*
G37*
G36*
G01*
X25326000Y-63787000D02*
X25326000Y-64737000D01*
G75*
G02*
X25076000Y-64987000I-250000J0D01*
G01*
X24576000Y-64987000D01*
G75*
G02*
X24326000Y-64737000I0J250000D01*
G01*
X24326000Y-63787000D01*
G75*
G02*
X24576000Y-63537000I250000J0D01*
G01*
X25076000Y-63537000D01*
G75*
G02*
X25326000Y-63787000I0J-250000D01*
G01*
G37*
G36*
G01*
X23426000Y-63787000D02*
X23426000Y-64737000D01*
G75*
G02*
X23176000Y-64987000I-250000J0D01*
G01*
X22676000Y-64987000D01*
G75*
G02*
X22426000Y-64737000I0J250000D01*
G01*
X22426000Y-63787000D01*
G75*
G02*
X22676000Y-63537000I250000J0D01*
G01*
X23176000Y-63537000D01*
G75*
G02*
X23426000Y-63787000I0J-250000D01*
G01*
G37*
G36*
G01*
X27096500Y-88202000D02*
X26751500Y-88202000D01*
G75*
G02*
X26604000Y-88054500I0J147500D01*
G01*
X26604000Y-87759500D01*
G75*
G02*
X26751500Y-87612000I147500J0D01*
G01*
X27096500Y-87612000D01*
G75*
G02*
X27244000Y-87759500I0J-147500D01*
G01*
X27244000Y-88054500D01*
G75*
G02*
X27096500Y-88202000I-147500J0D01*
G01*
G37*
G36*
G01*
X27096500Y-89172000D02*
X26751500Y-89172000D01*
G75*
G02*
X26604000Y-89024500I0J147500D01*
G01*
X26604000Y-88729500D01*
G75*
G02*
X26751500Y-88582000I147500J0D01*
G01*
X27096500Y-88582000D01*
G75*
G02*
X27244000Y-88729500I0J-147500D01*
G01*
X27244000Y-89024500D01*
G75*
G02*
X27096500Y-89172000I-147500J0D01*
G01*
G37*
G36*
G01*
X25826500Y-89172000D02*
X25481500Y-89172000D01*
G75*
G02*
X25334000Y-89024500I0J147500D01*
G01*
X25334000Y-88729500D01*
G75*
G02*
X25481500Y-88582000I147500J0D01*
G01*
X25826500Y-88582000D01*
G75*
G02*
X25974000Y-88729500I0J-147500D01*
G01*
X25974000Y-89024500D01*
G75*
G02*
X25826500Y-89172000I-147500J0D01*
G01*
G37*
G36*
G01*
X25826500Y-88202000D02*
X25481500Y-88202000D01*
G75*
G02*
X25334000Y-88054500I0J147500D01*
G01*
X25334000Y-87759500D01*
G75*
G02*
X25481500Y-87612000I147500J0D01*
G01*
X25826500Y-87612000D01*
G75*
G02*
X25974000Y-87759500I0J-147500D01*
G01*
X25974000Y-88054500D01*
G75*
G02*
X25826500Y-88202000I-147500J0D01*
G01*
G37*
G36*
G01*
X10905121Y-7875000D02*
X10714879Y-7875000D01*
G75*
G02*
X10665000Y-7825121I0J49879D01*
G01*
X10665000Y-7224879D01*
G75*
G02*
X10714879Y-7175000I49879J0D01*
G01*
X10905121Y-7175000D01*
G75*
G02*
X10955000Y-7224879I0J-49879D01*
G01*
X10955000Y-7825121D01*
G75*
G02*
X10905121Y-7875000I-49879J0D01*
G01*
G37*
G36*
G01*
X10215120Y-8070000D02*
X9454880Y-8070000D01*
G75*
G02*
X9405000Y-8020120I0J49880D01*
G01*
X9405000Y-7219880D01*
G75*
G02*
X9454880Y-7170000I49880J0D01*
G01*
X10215120Y-7170000D01*
G75*
G02*
X10265000Y-7219880I0J-49880D01*
G01*
X10265000Y-8020120D01*
G75*
G02*
X10215120Y-8070000I-49880J0D01*
G01*
G37*
G36*
G01*
X9609900Y-8820000D02*
X9410100Y-8820000D01*
G75*
G02*
X9360000Y-8769900I0J50100D01*
G01*
X9360000Y-8420100D01*
G75*
G02*
X9410100Y-8370000I50100J0D01*
G01*
X9609900Y-8370000D01*
G75*
G02*
X9660000Y-8420100I0J-50100D01*
G01*
X9660000Y-8769900D01*
G75*
G02*
X9609900Y-8820000I-50100J0D01*
G01*
G37*
G36*
G01*
X10259900Y-8820000D02*
X10060100Y-8820000D01*
G75*
G02*
X10010000Y-8769900I0J50100D01*
G01*
X10010000Y-8420100D01*
G75*
G02*
X10060100Y-8370000I50100J0D01*
G01*
X10259900Y-8370000D01*
G75*
G02*
X10310000Y-8420100I0J-50100D01*
G01*
X10310000Y-8769900D01*
G75*
G02*
X10259900Y-8820000I-50100J0D01*
G01*
G37*
G36*
G01*
X10909900Y-8820000D02*
X10710100Y-8820000D01*
G75*
G02*
X10660000Y-8769900I0J50100D01*
G01*
X10660000Y-8420100D01*
G75*
G02*
X10710100Y-8370000I50100J0D01*
G01*
X10909900Y-8370000D01*
G75*
G02*
X10960000Y-8420100I0J-50100D01*
G01*
X10960000Y-8769900D01*
G75*
G02*
X10909900Y-8820000I-50100J0D01*
G01*
G37*
G36*
G01*
X10909900Y-6870000D02*
X10710100Y-6870000D01*
G75*
G02*
X10660000Y-6819900I0J50100D01*
G01*
X10660000Y-6470100D01*
G75*
G02*
X10710100Y-6420000I50100J0D01*
G01*
X10909900Y-6420000D01*
G75*
G02*
X10960000Y-6470100I0J-50100D01*
G01*
X10960000Y-6819900D01*
G75*
G02*
X10909900Y-6870000I-50100J0D01*
G01*
G37*
G36*
G01*
X10259900Y-6870000D02*
X10060100Y-6870000D01*
G75*
G02*
X10010000Y-6819900I0J50100D01*
G01*
X10010000Y-6470100D01*
G75*
G02*
X10060100Y-6420000I50100J0D01*
G01*
X10259900Y-6420000D01*
G75*
G02*
X10310000Y-6470100I0J-50100D01*
G01*
X10310000Y-6819900D01*
G75*
G02*
X10259900Y-6870000I-50100J0D01*
G01*
G37*
G36*
G01*
X9609900Y-6870000D02*
X9410100Y-6870000D01*
G75*
G02*
X9360000Y-6819900I0J50100D01*
G01*
X9360000Y-6470100D01*
G75*
G02*
X9410100Y-6420000I50100J0D01*
G01*
X9609900Y-6420000D01*
G75*
G02*
X9660000Y-6470100I0J-50100D01*
G01*
X9660000Y-6819900D01*
G75*
G02*
X9609900Y-6870000I-50100J0D01*
G01*
G37*
G36*
G01*
X7662100Y-8370000D02*
X7861900Y-8370000D01*
G75*
G02*
X7912000Y-8420100I0J-50100D01*
G01*
X7912000Y-8769900D01*
G75*
G02*
X7861900Y-8820000I-50100J0D01*
G01*
X7662100Y-8820000D01*
G75*
G02*
X7612000Y-8769900I0J50100D01*
G01*
X7612000Y-8420100D01*
G75*
G02*
X7662100Y-8370000I50100J0D01*
G01*
G37*
G36*
G01*
X7012100Y-8370000D02*
X7211900Y-8370000D01*
G75*
G02*
X7262000Y-8420100I0J-50100D01*
G01*
X7262000Y-8769900D01*
G75*
G02*
X7211900Y-8820000I-50100J0D01*
G01*
X7012100Y-8820000D01*
G75*
G02*
X6962000Y-8769900I0J50100D01*
G01*
X6962000Y-8420100D01*
G75*
G02*
X7012100Y-8370000I50100J0D01*
G01*
G37*
G36*
G01*
X6362100Y-8370000D02*
X6561900Y-8370000D01*
G75*
G02*
X6612000Y-8420100I0J-50100D01*
G01*
X6612000Y-8769900D01*
G75*
G02*
X6561900Y-8820000I-50100J0D01*
G01*
X6362100Y-8820000D01*
G75*
G02*
X6312000Y-8769900I0J50100D01*
G01*
X6312000Y-8420100D01*
G75*
G02*
X6362100Y-8370000I50100J0D01*
G01*
G37*
G36*
G01*
X6362100Y-6420000D02*
X6561900Y-6420000D01*
G75*
G02*
X6612000Y-6470100I0J-50100D01*
G01*
X6612000Y-6819900D01*
G75*
G02*
X6561900Y-6870000I-50100J0D01*
G01*
X6362100Y-6870000D01*
G75*
G02*
X6312000Y-6819900I0J50100D01*
G01*
X6312000Y-6470100D01*
G75*
G02*
X6362100Y-6420000I50100J0D01*
G01*
G37*
G36*
G01*
X7012100Y-6420000D02*
X7211900Y-6420000D01*
G75*
G02*
X7262000Y-6470100I0J-50100D01*
G01*
X7262000Y-6819900D01*
G75*
G02*
X7211900Y-6870000I-50100J0D01*
G01*
X7012100Y-6870000D01*
G75*
G02*
X6962000Y-6819900I0J50100D01*
G01*
X6962000Y-6470100D01*
G75*
G02*
X7012100Y-6420000I50100J0D01*
G01*
G37*
G36*
G01*
X7662100Y-6420000D02*
X7861900Y-6420000D01*
G75*
G02*
X7912000Y-6470100I0J-50100D01*
G01*
X7912000Y-6819900D01*
G75*
G02*
X7861900Y-6870000I-50100J0D01*
G01*
X7662100Y-6870000D01*
G75*
G02*
X7612000Y-6819900I0J50100D01*
G01*
X7612000Y-6470100D01*
G75*
G02*
X7662100Y-6420000I50100J0D01*
G01*
G37*
G36*
G01*
X7056880Y-7170000D02*
X7817120Y-7170000D01*
G75*
G02*
X7867000Y-7219880I0J-49880D01*
G01*
X7867000Y-8020120D01*
G75*
G02*
X7817120Y-8070000I-49880J0D01*
G01*
X7056880Y-8070000D01*
G75*
G02*
X7007000Y-8020120I0J49880D01*
G01*
X7007000Y-7219880D01*
G75*
G02*
X7056880Y-7170000I49880J0D01*
G01*
G37*
G36*
G01*
X6366879Y-7365000D02*
X6557121Y-7365000D01*
G75*
G02*
X6607000Y-7414879I0J-49879D01*
G01*
X6607000Y-8015121D01*
G75*
G02*
X6557121Y-8065000I-49879J0D01*
G01*
X6366879Y-8065000D01*
G75*
G02*
X6317000Y-8015121I0J49879D01*
G01*
X6317000Y-7414879D01*
G75*
G02*
X6366879Y-7365000I49879J0D01*
G01*
G37*
G36*
G01*
X28898001Y-84229000D02*
X27997999Y-84229000D01*
G75*
G02*
X27748000Y-83979001I0J249999D01*
G01*
X27748000Y-83453999D01*
G75*
G02*
X27997999Y-83204000I249999J0D01*
G01*
X28898001Y-83204000D01*
G75*
G02*
X29148000Y-83453999I0J-249999D01*
G01*
X29148000Y-83979001D01*
G75*
G02*
X28898001Y-84229000I-249999J0D01*
G01*
G37*
G36*
G01*
X28898001Y-82404000D02*
X27997999Y-82404000D01*
G75*
G02*
X27748000Y-82154001I0J249999D01*
G01*
X27748000Y-81628999D01*
G75*
G02*
X27997999Y-81379000I249999J0D01*
G01*
X28898001Y-81379000D01*
G75*
G02*
X29148000Y-81628999I0J-249999D01*
G01*
X29148000Y-82154001D01*
G75*
G02*
X28898001Y-82404000I-249999J0D01*
G01*
G37*
G36*
G01*
X12249999Y-8020000D02*
X13150001Y-8020000D01*
G75*
G02*
X13400000Y-8269999I0J-249999D01*
G01*
X13400000Y-8795001D01*
G75*
G02*
X13150001Y-9045000I-249999J0D01*
G01*
X12249999Y-9045000D01*
G75*
G02*
X12000000Y-8795001I0J249999D01*
G01*
X12000000Y-8269999D01*
G75*
G02*
X12249999Y-8020000I249999J0D01*
G01*
G37*
G36*
G01*
X12249999Y-6195000D02*
X13150001Y-6195000D01*
G75*
G02*
X13400000Y-6444999I0J-249999D01*
G01*
X13400000Y-6970001D01*
G75*
G02*
X13150001Y-7220000I-249999J0D01*
G01*
X12249999Y-7220000D01*
G75*
G02*
X12000000Y-6970001I0J249999D01*
G01*
X12000000Y-6444999D01*
G75*
G02*
X12249999Y-6195000I249999J0D01*
G01*
G37*
G36*
G01*
X4121999Y-6195000D02*
X5022001Y-6195000D01*
G75*
G02*
X5272000Y-6444999I0J-249999D01*
G01*
X5272000Y-6970001D01*
G75*
G02*
X5022001Y-7220000I-249999J0D01*
G01*
X4121999Y-7220000D01*
G75*
G02*
X3872000Y-6970001I0J249999D01*
G01*
X3872000Y-6444999D01*
G75*
G02*
X4121999Y-6195000I249999J0D01*
G01*
G37*
G36*
G01*
X4122100Y-8020000D02*
X5021900Y-8020000D01*
G75*
G02*
X5272000Y-8270100I0J-250100D01*
G01*
X5272000Y-8794900D01*
G75*
G02*
X5021900Y-9045000I-250100J0D01*
G01*
X4122100Y-9045000D01*
G75*
G02*
X3872000Y-8794900I0J250100D01*
G01*
X3872000Y-8270100D01*
G75*
G02*
X4122100Y-8020000I250100J0D01*
G01*
G37*
D27*
X7349000Y-4072000D03*
D28*
X7299000Y-4572000D03*
X7299000Y-5072000D03*
X8449000Y-5072000D03*
X8449000Y-4572000D03*
X8449000Y-4072000D03*
G36*
G01*
X23739001Y-6851000D02*
X22488999Y-6851000D01*
G75*
G02*
X22239000Y-6601001I0J249999D01*
G01*
X22239000Y-5975999D01*
G75*
G02*
X22488999Y-5726000I249999J0D01*
G01*
X23739001Y-5726000D01*
G75*
G02*
X23989000Y-5975999I0J-249999D01*
G01*
X23989000Y-6601001D01*
G75*
G02*
X23739001Y-6851000I-249999J0D01*
G01*
G37*
G36*
G01*
X23739250Y-3926000D02*
X22488750Y-3926000D01*
G75*
G02*
X22239000Y-3676250I0J249750D01*
G01*
X22239000Y-3050750D01*
G75*
G02*
X22488750Y-2801000I249750J0D01*
G01*
X23739250Y-2801000D01*
G75*
G02*
X23989000Y-3050750I0J-249750D01*
G01*
X23989000Y-3676250D01*
G75*
G02*
X23739250Y-3926000I-249750J0D01*
G01*
G37*
M02*
