M48
; DRILL file {KiCad 5.1.12-84ad8e8a86~92~ubuntu18.04.1} date jue 05 oct 2023 13:55:52 CEST
; FORMAT={-:-/ absolute / inch / decimal}
; #@! TF.CreationDate,2023-10-05T13:55:52+02:00
; #@! TF.GenerationSoftware,Kicad,Pcbnew,5.1.12-84ad8e8a86~92~ubuntu18.04.1
FMAT,2
INCH
T1C0.0118
T2C0.0120
T3C0.0180
T4C0.0394
T5C0.0709
T6C0.0276
T7C0.0354
%
G90
G05
T1
X0.8933Y-1.9633
X0.8933Y-1.9967
X0.9267Y-1.9633
X0.9267Y-1.9967
T2
X0.2Y-2.11
X0.2Y-2.148
X0.2Y-2.18
X0.255Y-0.21
X0.27Y-2.629
X0.27Y-2.669
X0.27Y-2.709
X0.297Y-1.813
X0.31Y-2.629
X0.31Y-2.669
X0.31Y-2.709
X0.34Y-1.813
X0.35Y-2.629
X0.35Y-2.669
X0.35Y-2.709
X0.39Y-2.629
X0.39Y-2.669
X0.39Y-2.709
X0.4272Y-1.813
X0.43Y-2.629
X0.43Y-2.669
X0.43Y-2.709
X0.47Y-2.629
X0.47Y-2.669
X0.47Y-2.709
X0.5139Y-1.813
X0.5509Y-0.3359
X0.5787Y-1.2567
X0.622Y-1.041
X0.645Y-0.874
X0.647Y-1.483
X0.66Y-1.335
X0.671Y-1.508
X0.691Y-0.874
X0.694Y-1.335
X0.695Y-1.483
X0.734Y-0.38
X0.734Y-0.581
X0.74Y-0.53
X0.755Y-1.179
X0.788Y-1.203
X0.801Y-0.874
X0.815Y-1.227
X0.849Y-1.046
X0.869Y-1.161
X0.875Y-1.066
X0.965Y-2.775
X0.965Y-2.805
X0.965Y-2.835
X0.971Y-1.224
X0.99Y-2.76
X0.99Y-2.79
X0.99Y-2.82
X1.02Y-2.76
X1.05Y-2.76
X1.13Y-0.95
X1.23Y-0.673
X1.2979Y-0.3971
X1.322Y-2.571
X1.389Y-2.571
T3
X0.11Y-3.29
X0.126Y-2.522
X0.126Y-2.566
X0.155Y-0.4
X0.155Y-0.45
X0.155Y-0.5
X0.16Y-2.72
X0.176Y-0.621
X0.18Y-2.68
X0.2Y-2.72
X0.205Y-0.4
X0.205Y-0.45
X0.205Y-0.5
X0.21Y-1.48
X0.22Y-0.621
X0.25Y-3.29
X0.255Y-0.4
X0.255Y-0.45
X0.255Y-0.5
X0.26Y-1.48
X0.292Y-0.89
X0.292Y-1.13
X0.305Y-0.4
X0.305Y-0.45
X0.305Y-0.5
X0.31Y-1.48
X0.36Y-0.78
X0.36Y-3.247
X0.37Y-2.35
X0.3839Y-1.9539
X0.3839Y-1.997
X0.41Y-0.78
X0.42Y-2.35
X0.44Y-3.1
X0.46Y-0.78
X0.47Y-2.35
X0.52Y-3.16
X0.55Y-2.73
X0.55Y-2.77
X0.56Y-1.56
X0.56Y-1.61
X0.56Y-1.66
X0.59Y-2.73
X0.59Y-2.77
X0.61Y-0.09
X0.63Y-2.73
X0.63Y-2.77
X0.655Y-3.2
X0.655Y-3.24
X0.655Y-3.28
X0.69Y-2.19
X0.69Y-2.24
X0.69Y-2.29
X0.738Y-2.586
X0.83Y-1.4
X0.84Y-0.775
X0.84Y-3.2
X0.84Y-3.24
X0.84Y-3.28
X0.985Y-0.06
X0.985Y-0.11
X0.985Y-0.16
X0.985Y-0.21
X0.985Y-2.07
X1.016Y-3.15
X1.021Y-2.62
X1.03Y-2.91
X1.035Y-0.06
X1.035Y-0.11
X1.035Y-0.16
X1.035Y-0.21
X1.055Y-1.785
X1.055Y-2.235
X1.055Y-2.28
X1.056Y-3.15
X1.065Y-2.64
X1.085Y-0.06
X1.085Y-0.11
X1.085Y-0.16
X1.085Y-0.21
X1.1Y-1.04
X1.1Y-2.235
X1.1Y-2.28
X1.105Y-2.64
X1.14Y-0.465
X1.14Y-3.37
X1.16Y-0.14
X1.18Y-3.01
X1.18Y-3.05
X1.2062Y-0.3971
X1.23Y-2.95
X1.23Y-3.11
X1.25Y-0.14
X1.27Y-2.95
X1.27Y-3.11
X1.3Y-0.33
X1.3095Y-3.3425
X1.34Y-0.94
X1.34Y-0.99
X1.34Y-1.04
X1.34Y-1.51
X1.34Y-1.56
X1.34Y-1.61
X1.41Y-3.01
T4
X1.26Y-2.13
X1.36Y-2.13
T5
X0.748Y-0.1575
X0.748Y-2.9921
T6
X0.18Y-3.3646
X0.18Y-3.4354
T7
X0.6614Y-3.3537
X0.8346Y-3.3537
X1.2209Y-3.4667
X1.3391Y-3.4667
T0
M30
