M48
;DRILL file {KiCad 4.0.7-e2-6376~61~ubuntu18.04.1} date Fri Jan 24 00:19:14 2020
;FORMAT={-:-/ absolute / inch / decimal}
FMAT,2
INCH,TZ
T1C0.010
T2C0.018
T3C0.020
T4C0.039
T5C0.047
T6C0.071
T7C0.035
%
G90
G05
M72
T1
X0.22Y-1.99
X0.2386Y-2.6832
X0.27Y-2.5969
X0.28Y-0.43
X0.32Y-0.43
X0.41Y-0.43
X0.49Y-0.43
X0.54Y-1.26
X0.54Y-1.43
X0.6567Y-1.4401
X0.7015Y-1.4288
X0.71Y-1.94
X0.71Y-2.01
X0.78Y-1.4
X0.79Y-1.85
X0.81Y-1.38
X0.83Y-1.85
X0.84Y-1.36
X0.85Y-1.44
X0.87Y-1.85
X0.88Y-1.27
X0.97Y-1.95
X0.98Y-1.41
X0.9901Y-1.2601
X1.22Y-2.76
T2
X0.12Y-2.74
X0.16Y-2.74
X0.18Y-2.8
X0.18Y-2.84
X0.18Y-2.88
X0.2Y-2.74
X0.32Y-2.7
X0.32Y-2.74
X0.36Y-2.7
X0.36Y-2.74
X0.42Y-1.26
X0.46Y-2.56
X0.54Y-2.88
X0.64Y-0.91
X0.75Y-2.845
X0.75Y-2.885
X0.76Y-2.22
X0.78Y-1.545
X0.785Y-2.845
X0.785Y-2.885
X0.8Y-0.9
X0.8Y-2.22
X0.8Y-2.265
X0.84Y-2.22
X0.84Y-2.6925
X0.88Y-2.6925
X0.88Y-3.1
X0.92Y-2.22
X0.92Y-2.6925
X0.96Y-2.22
X0.96Y-3.1
X1.Y-2.22
X1.04Y-3.1
X1.1Y-1.22
X1.135Y-0.475
X1.205Y-0.39
X1.22Y-1.14
X1.22Y-2.54
X1.24Y-2.37
X1.28Y-0.56
X1.32Y-1.14
X1.34Y-0.44
X1.36Y-0.3971
T3
X0.6369Y-2.6506
X0.6369Y-2.6969
X0.6369Y-2.7431
X0.6369Y-2.7894
X0.6831Y-2.6506
X0.6831Y-2.6969
X0.6831Y-2.7431
X0.6831Y-2.7894
X0.8243Y-1.9643
X0.8243Y-1.9957
X0.8557Y-1.9643
X0.8557Y-1.9957
T4
X1.255Y-2.14
X1.355Y-2.14
T5
X0.14Y-1.674
X0.14Y-1.926
T6
X0.748Y-0.1575
X0.748Y-2.9921
T7
X0.1834Y-2.9521
X0.3566Y-2.9521
X1.2209Y-3.073
X1.3391Y-3.073
T0
M30
