G04 #@! TF.FileFunction,Copper,L2,Bot,Signal*
%FSLAX46Y46*%
G04 Gerber Fmt 4.6, Leading zero omitted, Abs format (unit mm)*
G04 Created by KiCad (PCBNEW 4.0.7-e2-6376~61~ubuntu18.04.1) date Fri Jan 24 00:19:11 2020*
%MOMM*%
%LPD*%
G01*
G04 APERTURE LIST*
%ADD10C,0.100000*%
%ADD11R,0.800000X0.800000*%
%ADD12R,1.175000X1.175000*%
%ADD13R,3.800000X2.700000*%
%ADD14O,3.800000X2.700000*%
%ADD15R,1.700000X1.700000*%
%ADD16O,1.700000X1.700000*%
%ADD17C,1.800000*%
%ADD18C,0.812800*%
%ADD19C,0.609600*%
%ADD20C,0.406400*%
%ADD21C,0.762000*%
%ADD22C,0.203200*%
G04 APERTURE END LIST*
D10*
D11*
X21736000Y-50692000D03*
X21736000Y-49892000D03*
X20936000Y-50692000D03*
X20936000Y-49892000D03*
D12*
X17351500Y-69675500D03*
X17351500Y-68500500D03*
X16176500Y-69675500D03*
X16176500Y-68500500D03*
X16176500Y-70850500D03*
X17351500Y-70850500D03*
X17351500Y-67325500D03*
X16176500Y-67325500D03*
D13*
X19000000Y-76000000D03*
D14*
X19000000Y-4000000D03*
D15*
X31877000Y-54356000D03*
D16*
X34417000Y-54356000D03*
D17*
X3556000Y-48920000D03*
X3556000Y-42520000D03*
D18*
X28829000Y-12065000D03*
X10668000Y-32004000D03*
X27940000Y-30988000D03*
X16256000Y-23114000D03*
X20320000Y-22860000D03*
X34036000Y-11176000D03*
X30607000Y-9906000D03*
X19812000Y-39243000D03*
D19*
X18034000Y-51054000D03*
D18*
X31496000Y-60198000D03*
D19*
X24638000Y-49530000D03*
X21082000Y-46990000D03*
D18*
X20320000Y-57531000D03*
X5080000Y-69596000D03*
X11684000Y-65024000D03*
X9144000Y-68580000D03*
X30988000Y-64516000D03*
X4064000Y-69596000D03*
X3048000Y-69596000D03*
X8128000Y-68580000D03*
X8128000Y-69596000D03*
X9144000Y-69596000D03*
X23368000Y-68389500D03*
X22352000Y-68389500D03*
X21336000Y-68389500D03*
X26416000Y-78740000D03*
X24384000Y-78740000D03*
X22352000Y-78740000D03*
X13716000Y-73152000D03*
X33528000Y-28956000D03*
X30988000Y-28956000D03*
X19304000Y-56388000D03*
X20320000Y-56388000D03*
X21336000Y-56388000D03*
X25400000Y-56388000D03*
X24384000Y-56388000D03*
X23368000Y-56388000D03*
X4572000Y-71120000D03*
X4572000Y-73152000D03*
X4572000Y-72136000D03*
X19050000Y-72263000D03*
X19050000Y-73279000D03*
X19939000Y-73279000D03*
X19939000Y-72263000D03*
D19*
X22352000Y-32258000D03*
X6059375Y-68152791D03*
X25147375Y-32005953D03*
X6857983Y-65960119D03*
X5588000Y-50546000D03*
X24892000Y-35814000D03*
X13716000Y-32004000D03*
X30988000Y-70104000D03*
X18034000Y-49276000D03*
X13716000Y-36322000D03*
X16680671Y-36579541D03*
X20066000Y-46990000D03*
X17819328Y-36290981D03*
X22098000Y-46990000D03*
X8128000Y-10922000D03*
X19812000Y-35560000D03*
X10414000Y-10922000D03*
X20574000Y-35052000D03*
X12446000Y-10922000D03*
X21336000Y-34544000D03*
X7112000Y-10922000D03*
X21590000Y-36576000D03*
D18*
X32512000Y-14224000D03*
X34544000Y-10087000D03*
D20*
X30988000Y-28956000D02*
X33528000Y-28956000D01*
D21*
X20320000Y-56388000D02*
X19304000Y-56388000D01*
X21336000Y-56388000D02*
X20320000Y-56388000D01*
X24384000Y-56388000D02*
X25400000Y-56388000D01*
X23368000Y-56388000D02*
X24384000Y-56388000D01*
X23368000Y-56388000D02*
X21336000Y-56388000D01*
D22*
X22352000Y-32258000D02*
X24532439Y-32258000D01*
X24532439Y-32258000D02*
X24901166Y-32626727D01*
X24901166Y-32626727D02*
X25321267Y-32626727D01*
X25321267Y-32626727D02*
X25376963Y-32571031D01*
X28772353Y-32571031D02*
X29151013Y-32949691D01*
X25376963Y-32571031D02*
X28772353Y-32571031D01*
X29151013Y-32949691D02*
X29151013Y-57832758D01*
X29151013Y-57832758D02*
X28683758Y-58300013D01*
X28683758Y-58300013D02*
X7024495Y-58300013D01*
X7024495Y-58300013D02*
X6062366Y-59262142D01*
X6062366Y-59262142D02*
X6062366Y-68149800D01*
X6062366Y-68149800D02*
X6059375Y-68152791D01*
X25147375Y-32005953D02*
X25590603Y-32005953D01*
X25590603Y-32005953D02*
X25747261Y-32162611D01*
X29562099Y-32784420D02*
X29562099Y-57997568D01*
X6470434Y-59435607D02*
X6470434Y-65572570D01*
X25747261Y-32162611D02*
X28940290Y-32162611D01*
X28940290Y-32162611D02*
X29562099Y-32784420D01*
X29562099Y-57997568D02*
X28853014Y-58706653D01*
X28853014Y-58706653D02*
X7199388Y-58706653D01*
X7199388Y-58706653D02*
X6470434Y-59435607D01*
X6470434Y-65572570D02*
X6857983Y-65960119D01*
X24892000Y-35814000D02*
X28003064Y-35814000D01*
X28003064Y-35814000D02*
X28743597Y-36554533D01*
X28743597Y-55136405D02*
X28256459Y-55623543D01*
X28256459Y-55623543D02*
X6257317Y-55623543D01*
X28743597Y-36554533D02*
X28743597Y-55136405D01*
X6257317Y-55623543D02*
X5588000Y-54954226D01*
X5588000Y-54954226D02*
X5588000Y-50546000D01*
X13716000Y-32004000D02*
X13716000Y-31991251D01*
X29115315Y-31755458D02*
X29972000Y-32612143D01*
X13716000Y-31991251D02*
X14601856Y-31105395D01*
X14601856Y-31105395D02*
X25274620Y-31105395D01*
X25274620Y-31105395D02*
X25924683Y-31755458D01*
X25924683Y-31755458D02*
X29115315Y-31755458D01*
X29972000Y-32612143D02*
X29972000Y-69088000D01*
X29972000Y-69088000D02*
X30988000Y-70104000D01*
X13716000Y-36322000D02*
X15557794Y-36322000D01*
X16272667Y-40663396D02*
X17064845Y-41455574D01*
X15557794Y-36322000D02*
X16272667Y-37036873D01*
X16272667Y-37036873D02*
X16272667Y-40663396D01*
X19289764Y-41455574D02*
X19658581Y-41824391D01*
X17064845Y-41455574D02*
X19289764Y-41455574D01*
X19658581Y-41824391D02*
X19658581Y-46470425D01*
X19658581Y-46470425D02*
X18034000Y-48095006D01*
X18034000Y-48095006D02*
X18034000Y-49276000D01*
X16680671Y-36579541D02*
X16680671Y-40493584D01*
X16680671Y-40493584D02*
X17234328Y-41047241D01*
X17234328Y-41047241D02*
X19456896Y-41047241D01*
X19456896Y-41047241D02*
X20066000Y-41656345D01*
X20066000Y-41656345D02*
X20066000Y-43302264D01*
X20066000Y-43302264D02*
X20066000Y-46990000D01*
X17819328Y-36290981D02*
X17819328Y-36303874D01*
X19625120Y-40640000D02*
X20472531Y-41487411D01*
X17819328Y-36303874D02*
X17087443Y-37035759D01*
X17087443Y-37035759D02*
X17087443Y-40325444D01*
X17087443Y-40325444D02*
X17401999Y-40640000D01*
X17401999Y-40640000D02*
X19625120Y-40640000D01*
X22019138Y-46990000D02*
X22098000Y-46990000D01*
X20472531Y-41487411D02*
X20472531Y-45443393D01*
X20472531Y-45443393D02*
X22019138Y-46990000D01*
X19812000Y-35560000D02*
X19459217Y-35560000D01*
X19169352Y-35270135D02*
X9923256Y-35270135D01*
X19459217Y-35560000D02*
X19169352Y-35270135D01*
X9038560Y-34385439D02*
X9038560Y-13102560D01*
X9923256Y-35270135D02*
X9038560Y-34385439D01*
X9038560Y-13102560D02*
X8128000Y-12192000D01*
X8128000Y-12192000D02*
X8128000Y-10922000D01*
X20574000Y-35052000D02*
X20154643Y-35052000D01*
X20154643Y-35052000D02*
X19963139Y-34860496D01*
X19963139Y-34860496D02*
X10090997Y-34860496D01*
X10414000Y-12128339D02*
X10414000Y-10922000D01*
X10090997Y-34860496D02*
X9446201Y-34215700D01*
X9446201Y-34215700D02*
X9446201Y-13096138D01*
X9446201Y-13096138D02*
X10414000Y-12128339D01*
X21336000Y-34544000D02*
X20916067Y-34544000D01*
X20916067Y-34544000D02*
X20814460Y-34442393D01*
X9853330Y-34045449D02*
X9853330Y-13264990D01*
X20814460Y-34442393D02*
X10250274Y-34442393D01*
X10250274Y-34442393D02*
X9853330Y-34045449D01*
X9853330Y-13264990D02*
X10826784Y-12291536D01*
X10826784Y-12291536D02*
X10826784Y-11374039D01*
X10826784Y-11374039D02*
X11278823Y-10922000D01*
X11278823Y-10922000D02*
X12446000Y-10922000D01*
X21590000Y-36576000D02*
X21252827Y-36913173D01*
X8631909Y-34560354D02*
X8631909Y-13272032D01*
X21252827Y-36913173D02*
X18757235Y-36913173D01*
X18757235Y-36913173D02*
X18452857Y-36608795D01*
X18452857Y-36608795D02*
X18452857Y-35978857D01*
X18452857Y-35978857D02*
X18151744Y-35677744D01*
X18151744Y-35677744D02*
X9749299Y-35677744D01*
X9749299Y-35677744D02*
X8631909Y-34560354D01*
X8631909Y-13272032D02*
X7719705Y-12359828D01*
X7719705Y-12359828D02*
X7719705Y-11529705D01*
X7719705Y-11529705D02*
X7112000Y-10922000D01*
X32512000Y-14224000D02*
X32512000Y-10613163D01*
X32512000Y-10613163D02*
X33038163Y-10087000D01*
X33038163Y-10087000D02*
X34544000Y-10087000D01*
G36*
X37569400Y-79569400D02*
X430600Y-79569400D01*
X430600Y-78121737D01*
X30205341Y-78121737D01*
X30233861Y-78277128D01*
X30292019Y-78424020D01*
X30377602Y-78556818D01*
X30487348Y-78670464D01*
X30617079Y-78760629D01*
X30761851Y-78823878D01*
X30916152Y-78857804D01*
X31074104Y-78861112D01*
X31229690Y-78833678D01*
X31376984Y-78776546D01*
X31510377Y-78691893D01*
X31624786Y-78582943D01*
X31715854Y-78453845D01*
X31780113Y-78309517D01*
X31815115Y-78155457D01*
X31815585Y-78121737D01*
X33205341Y-78121737D01*
X33233861Y-78277128D01*
X33292019Y-78424020D01*
X33377602Y-78556818D01*
X33487348Y-78670464D01*
X33617079Y-78760629D01*
X33761851Y-78823878D01*
X33916152Y-78857804D01*
X34074104Y-78861112D01*
X34229690Y-78833678D01*
X34376984Y-78776546D01*
X34510377Y-78691893D01*
X34624786Y-78582943D01*
X34715854Y-78453845D01*
X34780113Y-78309517D01*
X34815115Y-78155457D01*
X34817635Y-77975007D01*
X34786948Y-77820029D01*
X34726744Y-77673964D01*
X34639316Y-77542374D01*
X34527993Y-77430271D01*
X34397017Y-77341926D01*
X34251375Y-77280704D01*
X34096616Y-77248937D01*
X33938633Y-77247834D01*
X33783445Y-77277437D01*
X33636963Y-77336620D01*
X33504765Y-77423127D01*
X33391889Y-77533665D01*
X33302631Y-77664021D01*
X33240394Y-77809232D01*
X33207547Y-77963766D01*
X33205341Y-78121737D01*
X31815585Y-78121737D01*
X31817635Y-77975007D01*
X31786948Y-77820029D01*
X31726744Y-77673964D01*
X31639316Y-77542374D01*
X31527993Y-77430271D01*
X31397017Y-77341926D01*
X31251375Y-77280704D01*
X31096616Y-77248937D01*
X30938633Y-77247834D01*
X30783445Y-77277437D01*
X30636963Y-77336620D01*
X30504765Y-77423127D01*
X30391889Y-77533665D01*
X30302631Y-77664021D01*
X30240394Y-77809232D01*
X30207547Y-77963766D01*
X30205341Y-78121737D01*
X430600Y-78121737D01*
X430600Y-75051737D01*
X3851341Y-75051737D01*
X3879861Y-75207128D01*
X3938019Y-75354020D01*
X4023602Y-75486818D01*
X4133348Y-75600464D01*
X4263079Y-75690629D01*
X4407851Y-75753878D01*
X4562152Y-75787804D01*
X4720104Y-75791112D01*
X4875690Y-75763678D01*
X5022984Y-75706546D01*
X5156377Y-75621893D01*
X5270786Y-75512943D01*
X5361854Y-75383845D01*
X5426113Y-75239517D01*
X5461115Y-75085457D01*
X5461585Y-75051737D01*
X8251341Y-75051737D01*
X8279861Y-75207128D01*
X8338019Y-75354020D01*
X8423602Y-75486818D01*
X8533348Y-75600464D01*
X8663079Y-75690629D01*
X8807851Y-75753878D01*
X8962152Y-75787804D01*
X9120104Y-75791112D01*
X9275690Y-75763678D01*
X9422984Y-75706546D01*
X9556377Y-75621893D01*
X9670786Y-75512943D01*
X9761854Y-75383845D01*
X9826113Y-75239517D01*
X9861115Y-75085457D01*
X9863635Y-74905007D01*
X9832948Y-74750029D01*
X9791719Y-74650000D01*
X16742680Y-74650000D01*
X16742680Y-77350000D01*
X16747196Y-77406628D01*
X16776940Y-77502675D01*
X16832264Y-77586633D01*
X16908788Y-77651854D01*
X17000453Y-77693173D01*
X17100000Y-77707320D01*
X20900000Y-77707320D01*
X20956628Y-77702804D01*
X21052675Y-77673060D01*
X21136633Y-77617736D01*
X21201854Y-77541212D01*
X21243173Y-77449547D01*
X21257320Y-77350000D01*
X21257320Y-74650000D01*
X21252804Y-74593372D01*
X21223060Y-74497325D01*
X21167736Y-74413367D01*
X21091212Y-74348146D01*
X20999547Y-74306827D01*
X20900000Y-74292680D01*
X17100000Y-74292680D01*
X17043372Y-74297196D01*
X16947325Y-74326940D01*
X16863367Y-74382264D01*
X16798146Y-74458788D01*
X16756827Y-74550453D01*
X16742680Y-74650000D01*
X9791719Y-74650000D01*
X9772744Y-74603964D01*
X9685316Y-74472374D01*
X9573993Y-74360271D01*
X9443017Y-74271926D01*
X9297375Y-74210704D01*
X9142616Y-74178937D01*
X8984633Y-74177834D01*
X8829445Y-74207437D01*
X8682963Y-74266620D01*
X8550765Y-74353127D01*
X8437889Y-74463665D01*
X8348631Y-74594021D01*
X8286394Y-74739232D01*
X8253547Y-74893766D01*
X8251341Y-75051737D01*
X5461585Y-75051737D01*
X5463635Y-74905007D01*
X5432948Y-74750029D01*
X5372744Y-74603964D01*
X5285316Y-74472374D01*
X5173993Y-74360271D01*
X5043017Y-74271926D01*
X4897375Y-74210704D01*
X4742616Y-74178937D01*
X4584633Y-74177834D01*
X4429445Y-74207437D01*
X4282963Y-74266620D01*
X4150765Y-74353127D01*
X4037889Y-74463665D01*
X3948631Y-74594021D01*
X3886394Y-74739232D01*
X3853547Y-74893766D01*
X3851341Y-75051737D01*
X430600Y-75051737D01*
X430600Y-70612000D01*
X3708400Y-70612000D01*
X3708400Y-73660000D01*
X3732719Y-73789245D01*
X3809103Y-73907950D01*
X3925652Y-73987584D01*
X4064000Y-74015600D01*
X5588000Y-74015600D01*
X5717245Y-73991281D01*
X5835950Y-73914897D01*
X5915584Y-73798348D01*
X5943600Y-73660000D01*
X5943600Y-72745600D01*
X14122400Y-72745600D01*
X14122400Y-73787000D01*
X14146719Y-73916245D01*
X14223103Y-74034950D01*
X14339652Y-74114584D01*
X14478000Y-74142600D01*
X20447000Y-74142600D01*
X20576245Y-74118281D01*
X20694950Y-74041897D01*
X20774584Y-73925348D01*
X20802600Y-73787000D01*
X20802600Y-71755000D01*
X20778281Y-71625755D01*
X20701897Y-71507050D01*
X20585348Y-71427416D01*
X20447000Y-71399400D01*
X15595600Y-71399400D01*
X15595600Y-70612000D01*
X15571281Y-70482755D01*
X15494897Y-70364050D01*
X15378348Y-70284416D01*
X15240000Y-70256400D01*
X4064000Y-70256400D01*
X3934755Y-70280719D01*
X3816050Y-70357103D01*
X3736416Y-70473652D01*
X3708400Y-70612000D01*
X430600Y-70612000D01*
X430600Y-50601528D01*
X4926732Y-50601528D01*
X4950112Y-50728912D01*
X4997788Y-50849328D01*
X5067945Y-50958191D01*
X5130800Y-51023279D01*
X5130800Y-54954226D01*
X5134922Y-54996269D01*
X5138602Y-55038329D01*
X5139272Y-55040636D01*
X5139507Y-55043030D01*
X5151704Y-55083426D01*
X5163496Y-55124016D01*
X5164605Y-55126155D01*
X5165298Y-55128451D01*
X5185115Y-55165722D01*
X5204560Y-55203235D01*
X5206058Y-55205111D01*
X5207188Y-55207237D01*
X5233917Y-55240010D01*
X5260228Y-55272969D01*
X5263523Y-55276311D01*
X5263584Y-55276385D01*
X5263653Y-55276442D01*
X5264711Y-55277515D01*
X5934028Y-55946832D01*
X5966656Y-55973634D01*
X5999014Y-56000785D01*
X6001120Y-56001943D01*
X6002978Y-56003469D01*
X6040173Y-56023413D01*
X6077207Y-56043772D01*
X6079502Y-56044500D01*
X6081617Y-56045634D01*
X6121973Y-56057972D01*
X6162260Y-56070752D01*
X6164648Y-56071020D01*
X6166948Y-56071723D01*
X6208980Y-56075992D01*
X6250933Y-56080698D01*
X6255634Y-56080731D01*
X6255721Y-56080740D01*
X6255802Y-56080732D01*
X6257317Y-56080743D01*
X18606614Y-56080743D01*
X18574154Y-56156479D01*
X18543085Y-56302650D01*
X18540998Y-56452071D01*
X18567974Y-56599052D01*
X18622985Y-56737994D01*
X18703936Y-56863605D01*
X18807743Y-56971100D01*
X18930452Y-57056385D01*
X19067390Y-57116212D01*
X19213340Y-57148301D01*
X19362743Y-57151430D01*
X19509908Y-57125481D01*
X19512179Y-57124600D01*
X20121541Y-57124600D01*
X20229340Y-57148301D01*
X20378743Y-57151430D01*
X20525908Y-57125481D01*
X20528179Y-57124600D01*
X21137541Y-57124600D01*
X21245340Y-57148301D01*
X21394743Y-57151430D01*
X21541908Y-57125481D01*
X21544179Y-57124600D01*
X23169541Y-57124600D01*
X23277340Y-57148301D01*
X23426743Y-57151430D01*
X23573908Y-57125481D01*
X23576179Y-57124600D01*
X24185541Y-57124600D01*
X24293340Y-57148301D01*
X24442743Y-57151430D01*
X24589908Y-57125481D01*
X24592179Y-57124600D01*
X25201541Y-57124600D01*
X25309340Y-57148301D01*
X25458743Y-57151430D01*
X25605908Y-57125481D01*
X25745231Y-57071441D01*
X25871404Y-56991370D01*
X25979621Y-56888316D01*
X26065761Y-56766205D01*
X26126542Y-56629688D01*
X26159649Y-56483966D01*
X26162033Y-56313282D01*
X26133007Y-56166692D01*
X26097581Y-56080743D01*
X28256459Y-56080743D01*
X28298502Y-56076621D01*
X28340562Y-56072941D01*
X28342869Y-56072271D01*
X28345263Y-56072036D01*
X28385659Y-56059839D01*
X28426249Y-56048047D01*
X28428388Y-56046938D01*
X28430684Y-56046245D01*
X28467955Y-56026428D01*
X28505468Y-56006983D01*
X28507344Y-56005485D01*
X28509470Y-56004355D01*
X28542243Y-55977626D01*
X28575202Y-55951315D01*
X28578544Y-55948020D01*
X28578618Y-55947959D01*
X28578675Y-55947890D01*
X28579748Y-55946832D01*
X28693813Y-55832767D01*
X28693813Y-57643380D01*
X28494380Y-57842813D01*
X7024495Y-57842813D01*
X6982448Y-57846936D01*
X6940393Y-57850615D01*
X6938086Y-57851285D01*
X6935691Y-57851520D01*
X6895282Y-57863720D01*
X6854705Y-57875509D01*
X6852566Y-57876618D01*
X6850270Y-57877311D01*
X6812999Y-57897128D01*
X6775486Y-57916573D01*
X6773610Y-57918071D01*
X6771484Y-57919201D01*
X6738711Y-57945930D01*
X6705752Y-57972241D01*
X6702410Y-57975536D01*
X6702336Y-57975597D01*
X6702279Y-57975666D01*
X6701206Y-57976724D01*
X5739077Y-58938853D01*
X5712275Y-58971481D01*
X5685124Y-59003839D01*
X5683966Y-59005945D01*
X5682440Y-59007803D01*
X5662496Y-59044998D01*
X5642137Y-59082032D01*
X5641409Y-59084327D01*
X5640275Y-59086442D01*
X5627924Y-59126839D01*
X5615157Y-59167085D01*
X5614890Y-59169468D01*
X5614185Y-59171773D01*
X5609906Y-59213899D01*
X5605211Y-59255758D01*
X5605178Y-59260448D01*
X5605168Y-59260546D01*
X5605177Y-59260637D01*
X5605166Y-59262142D01*
X5605166Y-67673228D01*
X5551032Y-67726240D01*
X5477862Y-67833102D01*
X5426842Y-67952140D01*
X5399916Y-68078821D01*
X5398107Y-68208319D01*
X5421487Y-68335703D01*
X5469163Y-68456119D01*
X5539320Y-68564982D01*
X5629286Y-68658144D01*
X5735634Y-68732058D01*
X5854313Y-68783907D01*
X5980803Y-68811718D01*
X6110285Y-68814430D01*
X6237829Y-68791941D01*
X6358575Y-68745106D01*
X6467925Y-68675711D01*
X6561713Y-68586398D01*
X6636367Y-68480568D01*
X6689044Y-68362254D01*
X6717737Y-68235962D01*
X6719803Y-68088035D01*
X6694647Y-67960991D01*
X6645295Y-67841252D01*
X6573624Y-67733380D01*
X6519566Y-67678943D01*
X6519566Y-66529186D01*
X6534242Y-66539386D01*
X6652921Y-66591235D01*
X6779411Y-66619046D01*
X6908893Y-66621758D01*
X7036437Y-66599269D01*
X7157183Y-66552434D01*
X7266533Y-66483039D01*
X7360321Y-66393726D01*
X7434975Y-66287896D01*
X7487652Y-66169582D01*
X7516345Y-66043290D01*
X7518411Y-65895363D01*
X7493255Y-65768319D01*
X7443903Y-65648580D01*
X7372232Y-65540708D01*
X7280974Y-65448810D01*
X7173605Y-65376389D01*
X7054213Y-65326201D01*
X6927634Y-65300218D01*
X6927634Y-59624985D01*
X7388766Y-59163853D01*
X28853014Y-59163853D01*
X28895057Y-59159731D01*
X28937117Y-59156051D01*
X28939424Y-59155381D01*
X28941818Y-59155146D01*
X28982214Y-59142949D01*
X29022804Y-59131157D01*
X29024943Y-59130048D01*
X29027239Y-59129355D01*
X29064510Y-59109538D01*
X29102023Y-59090093D01*
X29103899Y-59088595D01*
X29106025Y-59087465D01*
X29138798Y-59060736D01*
X29171757Y-59034425D01*
X29175099Y-59031130D01*
X29175173Y-59031069D01*
X29175230Y-59031000D01*
X29176303Y-59029942D01*
X29514800Y-58691445D01*
X29514800Y-69088000D01*
X29518922Y-69130043D01*
X29522602Y-69172103D01*
X29523272Y-69174410D01*
X29523507Y-69176804D01*
X29535704Y-69217200D01*
X29547496Y-69257790D01*
X29548605Y-69259929D01*
X29549298Y-69262225D01*
X29569115Y-69299496D01*
X29588560Y-69337009D01*
X29590058Y-69338885D01*
X29591188Y-69341011D01*
X29617917Y-69373784D01*
X29644228Y-69406743D01*
X29647523Y-69410085D01*
X29647584Y-69410159D01*
X29647653Y-69410216D01*
X29648711Y-69411289D01*
X30327699Y-70090277D01*
X30326732Y-70159528D01*
X30350112Y-70286912D01*
X30397788Y-70407328D01*
X30467945Y-70516191D01*
X30557911Y-70609353D01*
X30664259Y-70683267D01*
X30782938Y-70735116D01*
X30909428Y-70762927D01*
X31038910Y-70765639D01*
X31166454Y-70743150D01*
X31287200Y-70696315D01*
X31396550Y-70626920D01*
X31490338Y-70537607D01*
X31564992Y-70431777D01*
X31617669Y-70313463D01*
X31646362Y-70187171D01*
X31648428Y-70039244D01*
X31623272Y-69912200D01*
X31573920Y-69792461D01*
X31502249Y-69684589D01*
X31410991Y-69592691D01*
X31303622Y-69520270D01*
X31184230Y-69470082D01*
X31057365Y-69444040D01*
X30974036Y-69443458D01*
X30429200Y-68898622D01*
X30429200Y-53506000D01*
X30669680Y-53506000D01*
X30669680Y-55206000D01*
X30674196Y-55262628D01*
X30703940Y-55358675D01*
X30759264Y-55442633D01*
X30835788Y-55507854D01*
X30927453Y-55549173D01*
X31027000Y-55563320D01*
X32727000Y-55563320D01*
X32783628Y-55558804D01*
X32879675Y-55529060D01*
X32963633Y-55473736D01*
X33028854Y-55397212D01*
X33070173Y-55305547D01*
X33084320Y-55206000D01*
X33084320Y-54350167D01*
X33211400Y-54350167D01*
X33211400Y-54361833D01*
X33234360Y-54596002D01*
X33302367Y-54821251D01*
X33412830Y-55029002D01*
X33561542Y-55211340D01*
X33742837Y-55361321D01*
X33949811Y-55473231D01*
X34174580Y-55542809D01*
X34408583Y-55567404D01*
X34642907Y-55546079D01*
X34868626Y-55479646D01*
X35077142Y-55370636D01*
X35260514Y-55223201D01*
X35411757Y-55042957D01*
X35525110Y-54836769D01*
X35596255Y-54612491D01*
X35622482Y-54378666D01*
X35622600Y-54361833D01*
X35622600Y-54350167D01*
X35599640Y-54115998D01*
X35531633Y-53890749D01*
X35421170Y-53682998D01*
X35272458Y-53500660D01*
X35091163Y-53350679D01*
X34884189Y-53238769D01*
X34659420Y-53169191D01*
X34425417Y-53144596D01*
X34191093Y-53165921D01*
X33965374Y-53232354D01*
X33756858Y-53341364D01*
X33573486Y-53488799D01*
X33422243Y-53669043D01*
X33308890Y-53875231D01*
X33237745Y-54099509D01*
X33211518Y-54333334D01*
X33211400Y-54350167D01*
X33084320Y-54350167D01*
X33084320Y-53506000D01*
X33079804Y-53449372D01*
X33050060Y-53353325D01*
X32994736Y-53269367D01*
X32918212Y-53204146D01*
X32826547Y-53162827D01*
X32727000Y-53148680D01*
X31027000Y-53148680D01*
X30970372Y-53153196D01*
X30874325Y-53182940D01*
X30790367Y-53238264D01*
X30725146Y-53314788D01*
X30683827Y-53406453D01*
X30669680Y-53506000D01*
X30429200Y-53506000D01*
X30429200Y-32612143D01*
X30425082Y-32570146D01*
X30421399Y-32528041D01*
X30420727Y-32525729D01*
X30420493Y-32523339D01*
X30408301Y-32482959D01*
X30396504Y-32442354D01*
X30395396Y-32440216D01*
X30394702Y-32437918D01*
X30374876Y-32400629D01*
X30355440Y-32363134D01*
X30353942Y-32361258D01*
X30352812Y-32359132D01*
X30326083Y-32326359D01*
X30299772Y-32293400D01*
X30296473Y-32290054D01*
X30296416Y-32289984D01*
X30296351Y-32289931D01*
X30295290Y-32288854D01*
X29438604Y-31432169D01*
X29405976Y-31405367D01*
X29373618Y-31378216D01*
X29371512Y-31377058D01*
X29369654Y-31375532D01*
X29332459Y-31355588D01*
X29295425Y-31335229D01*
X29293130Y-31334501D01*
X29291015Y-31333367D01*
X29250618Y-31321016D01*
X29210372Y-31308249D01*
X29207989Y-31307982D01*
X29205684Y-31307277D01*
X29163558Y-31302998D01*
X29121699Y-31298303D01*
X29117009Y-31298270D01*
X29116911Y-31298260D01*
X29116820Y-31298269D01*
X29115315Y-31298258D01*
X26114061Y-31298258D01*
X25597909Y-30782106D01*
X25565281Y-30755304D01*
X25532923Y-30728153D01*
X25530817Y-30726995D01*
X25528959Y-30725469D01*
X25491764Y-30705525D01*
X25454730Y-30685166D01*
X25452435Y-30684438D01*
X25450320Y-30683304D01*
X25409923Y-30670953D01*
X25369677Y-30658186D01*
X25367294Y-30657919D01*
X25364989Y-30657214D01*
X25322863Y-30652935D01*
X25281004Y-30648240D01*
X25276314Y-30648207D01*
X25276216Y-30648197D01*
X25276125Y-30648206D01*
X25274620Y-30648195D01*
X14601856Y-30648195D01*
X14559809Y-30652318D01*
X14517754Y-30655997D01*
X14515447Y-30656667D01*
X14513052Y-30656902D01*
X14472630Y-30669107D01*
X14432067Y-30680891D01*
X14429929Y-30681999D01*
X14427631Y-30682693D01*
X14390342Y-30702519D01*
X14352847Y-30721955D01*
X14350971Y-30723453D01*
X14348845Y-30724583D01*
X14316072Y-30751312D01*
X14283113Y-30777623D01*
X14279767Y-30780922D01*
X14279697Y-30780979D01*
X14279644Y-30781044D01*
X14278567Y-30782105D01*
X13717109Y-31343564D01*
X13655857Y-31343136D01*
X13528640Y-31367404D01*
X13408559Y-31415920D01*
X13300189Y-31486835D01*
X13207657Y-31577449D01*
X13134487Y-31684311D01*
X13083467Y-31803349D01*
X13056541Y-31930030D01*
X13054732Y-32059528D01*
X13078112Y-32186912D01*
X13125788Y-32307328D01*
X13195945Y-32416191D01*
X13285911Y-32509353D01*
X13392259Y-32583267D01*
X13510938Y-32635116D01*
X13637428Y-32662927D01*
X13766910Y-32665639D01*
X13894454Y-32643150D01*
X14015200Y-32596315D01*
X14124550Y-32526920D01*
X14218338Y-32437607D01*
X14292992Y-32331777D01*
X14345669Y-32213463D01*
X14374362Y-32087171D01*
X14375888Y-31977942D01*
X14791235Y-31562595D01*
X24656195Y-31562595D01*
X24639032Y-31579402D01*
X24565862Y-31686264D01*
X24516772Y-31800800D01*
X22828723Y-31800800D01*
X22774991Y-31746691D01*
X22667622Y-31674270D01*
X22548230Y-31624082D01*
X22421365Y-31598040D01*
X22291857Y-31597136D01*
X22164640Y-31621404D01*
X22044559Y-31669920D01*
X21936189Y-31740835D01*
X21843657Y-31831449D01*
X21770487Y-31938311D01*
X21719467Y-32057349D01*
X21692541Y-32184030D01*
X21690732Y-32313528D01*
X21714112Y-32440912D01*
X21761788Y-32561328D01*
X21831945Y-32670191D01*
X21921911Y-32763353D01*
X22028259Y-32837267D01*
X22146938Y-32889116D01*
X22273428Y-32916927D01*
X22402910Y-32919639D01*
X22530454Y-32897150D01*
X22651200Y-32850315D01*
X22760550Y-32780920D01*
X22829563Y-32715200D01*
X24343061Y-32715200D01*
X24577877Y-32950016D01*
X24610510Y-32976822D01*
X24642863Y-33003969D01*
X24644968Y-33005126D01*
X24646828Y-33006654D01*
X24684040Y-33026607D01*
X24721056Y-33046956D01*
X24723351Y-33047684D01*
X24725466Y-33048818D01*
X24765863Y-33061169D01*
X24806109Y-33073936D01*
X24808492Y-33074203D01*
X24810797Y-33074908D01*
X24852923Y-33079187D01*
X24894782Y-33083882D01*
X24899472Y-33083915D01*
X24899570Y-33083925D01*
X24899661Y-33083916D01*
X24901166Y-33083927D01*
X25321267Y-33083927D01*
X25363310Y-33079805D01*
X25405370Y-33076125D01*
X25407677Y-33075455D01*
X25410071Y-33075220D01*
X25450467Y-33063023D01*
X25491057Y-33051231D01*
X25493196Y-33050122D01*
X25495492Y-33049429D01*
X25532763Y-33029612D01*
X25535428Y-33028231D01*
X28582975Y-33028231D01*
X28693813Y-33139069D01*
X28693813Y-35858171D01*
X28326353Y-35490711D01*
X28293725Y-35463909D01*
X28261367Y-35436758D01*
X28259261Y-35435600D01*
X28257403Y-35434074D01*
X28220208Y-35414130D01*
X28183174Y-35393771D01*
X28180879Y-35393043D01*
X28178764Y-35391909D01*
X28138367Y-35379558D01*
X28098121Y-35366791D01*
X28095738Y-35366524D01*
X28093433Y-35365819D01*
X28051307Y-35361540D01*
X28009448Y-35356845D01*
X28004758Y-35356812D01*
X28004660Y-35356802D01*
X28004569Y-35356811D01*
X28003064Y-35356800D01*
X25368723Y-35356800D01*
X25314991Y-35302691D01*
X25207622Y-35230270D01*
X25088230Y-35180082D01*
X24961365Y-35154040D01*
X24831857Y-35153136D01*
X24704640Y-35177404D01*
X24584559Y-35225920D01*
X24476189Y-35296835D01*
X24383657Y-35387449D01*
X24310487Y-35494311D01*
X24259467Y-35613349D01*
X24232541Y-35740030D01*
X24230732Y-35869528D01*
X24254112Y-35996912D01*
X24301788Y-36117328D01*
X24371945Y-36226191D01*
X24461911Y-36319353D01*
X24568259Y-36393267D01*
X24686938Y-36445116D01*
X24813428Y-36472927D01*
X24942910Y-36475639D01*
X25070454Y-36453150D01*
X25191200Y-36406315D01*
X25300550Y-36336920D01*
X25369563Y-36271200D01*
X27813686Y-36271200D01*
X28286397Y-36743911D01*
X28286397Y-54947027D01*
X28067081Y-55166343D01*
X6446695Y-55166343D01*
X6045200Y-54764848D01*
X6045200Y-51022591D01*
X6090338Y-50979607D01*
X6164992Y-50873777D01*
X6217669Y-50755463D01*
X6246362Y-50629171D01*
X6248428Y-50481244D01*
X6223272Y-50354200D01*
X6173920Y-50234461D01*
X6102249Y-50126589D01*
X6010991Y-50034691D01*
X5903622Y-49962270D01*
X5784230Y-49912082D01*
X5657365Y-49886040D01*
X5527857Y-49885136D01*
X5400640Y-49909404D01*
X5280559Y-49957920D01*
X5172189Y-50028835D01*
X5079657Y-50119449D01*
X5006487Y-50226311D01*
X4955467Y-50345349D01*
X4928541Y-50472030D01*
X4926732Y-50601528D01*
X430600Y-50601528D01*
X430600Y-49986577D01*
X2704950Y-49986577D01*
X2792192Y-50230570D01*
X3062548Y-50354399D01*
X3351867Y-50423105D01*
X3649031Y-50434048D01*
X3942619Y-50386807D01*
X4221350Y-50283197D01*
X4319808Y-50230570D01*
X4407050Y-49986577D01*
X3556000Y-49135526D01*
X2704950Y-49986577D01*
X430600Y-49986577D01*
X430600Y-49013031D01*
X2041952Y-49013031D01*
X2089193Y-49306619D01*
X2192803Y-49585350D01*
X2245430Y-49683808D01*
X2489423Y-49771050D01*
X3340474Y-48920000D01*
X3771526Y-48920000D01*
X4622577Y-49771050D01*
X4866570Y-49683808D01*
X4990399Y-49413452D01*
X5059105Y-49124133D01*
X5070048Y-48826969D01*
X5022807Y-48533381D01*
X4919197Y-48254650D01*
X4866570Y-48156192D01*
X4622577Y-48068950D01*
X3771526Y-48920000D01*
X3340474Y-48920000D01*
X2489423Y-48068950D01*
X2245430Y-48156192D01*
X2121601Y-48426548D01*
X2052895Y-48715867D01*
X2041952Y-49013031D01*
X430600Y-49013031D01*
X430600Y-47853423D01*
X2704950Y-47853423D01*
X3556000Y-48704474D01*
X4407050Y-47853423D01*
X4319808Y-47609430D01*
X4049452Y-47485601D01*
X3760133Y-47416895D01*
X3462969Y-47405952D01*
X3169381Y-47453193D01*
X2890650Y-47556803D01*
X2792192Y-47609430D01*
X2704950Y-47853423D01*
X430600Y-47853423D01*
X430600Y-42625574D01*
X2298750Y-42625574D01*
X2343200Y-42867765D01*
X2433846Y-43096709D01*
X2567234Y-43303687D01*
X2738283Y-43480814D01*
X2940480Y-43621344D01*
X3166121Y-43719924D01*
X3406613Y-43772800D01*
X3652794Y-43777957D01*
X3895289Y-43735198D01*
X4124861Y-43646153D01*
X4332765Y-43514213D01*
X4511082Y-43344404D01*
X4653020Y-43143194D01*
X4753173Y-42918246D01*
X4807726Y-42678130D01*
X4811654Y-42396882D01*
X4763826Y-42155336D01*
X4669993Y-41927679D01*
X4533728Y-41722584D01*
X4360222Y-41547863D01*
X4156083Y-41410169D01*
X3929087Y-41314749D01*
X3687881Y-41265237D01*
X3441651Y-41263518D01*
X3199777Y-41309658D01*
X2971471Y-41401899D01*
X2765430Y-41536729D01*
X2589501Y-41709011D01*
X2450386Y-41912183D01*
X2353383Y-42138507D01*
X2302188Y-42379362D01*
X2298750Y-42625574D01*
X430600Y-42625574D01*
X430600Y-10977528D01*
X6450732Y-10977528D01*
X6474112Y-11104912D01*
X6521788Y-11225328D01*
X6591945Y-11334191D01*
X6681911Y-11427353D01*
X6788259Y-11501267D01*
X6906938Y-11553116D01*
X7033428Y-11580927D01*
X7126294Y-11582872D01*
X7262505Y-11719083D01*
X7262505Y-12359828D01*
X7266627Y-12401871D01*
X7270307Y-12443931D01*
X7270977Y-12446238D01*
X7271212Y-12448632D01*
X7283409Y-12489028D01*
X7295201Y-12529618D01*
X7296310Y-12531757D01*
X7297003Y-12534053D01*
X7316820Y-12571324D01*
X7336265Y-12608837D01*
X7337763Y-12610713D01*
X7338893Y-12612839D01*
X7365622Y-12645612D01*
X7391933Y-12678571D01*
X7395228Y-12681913D01*
X7395289Y-12681987D01*
X7395358Y-12682044D01*
X7396416Y-12683117D01*
X8174709Y-13461410D01*
X8174709Y-34560354D01*
X8178831Y-34602397D01*
X8182511Y-34644457D01*
X8183181Y-34646764D01*
X8183416Y-34649158D01*
X8195613Y-34689554D01*
X8207405Y-34730144D01*
X8208514Y-34732283D01*
X8209207Y-34734579D01*
X8229024Y-34771850D01*
X8248469Y-34809363D01*
X8249967Y-34811239D01*
X8251097Y-34813365D01*
X8277826Y-34846138D01*
X8304137Y-34879097D01*
X8307432Y-34882439D01*
X8307493Y-34882513D01*
X8307562Y-34882570D01*
X8308620Y-34883643D01*
X9426010Y-36001033D01*
X9458638Y-36027835D01*
X9490996Y-36054986D01*
X9493102Y-36056144D01*
X9494960Y-36057670D01*
X9532155Y-36077614D01*
X9569189Y-36097973D01*
X9571484Y-36098701D01*
X9573599Y-36099835D01*
X9613955Y-36112173D01*
X9654242Y-36124953D01*
X9656630Y-36125221D01*
X9658930Y-36125924D01*
X9701007Y-36130198D01*
X9742915Y-36134899D01*
X9747605Y-36134932D01*
X9747703Y-36134942D01*
X9747794Y-36134933D01*
X9749299Y-36134944D01*
X13080577Y-36134944D01*
X13056541Y-36248030D01*
X13054732Y-36377528D01*
X13078112Y-36504912D01*
X13125788Y-36625328D01*
X13195945Y-36734191D01*
X13285911Y-36827353D01*
X13392259Y-36901267D01*
X13510938Y-36953116D01*
X13637428Y-36980927D01*
X13766910Y-36983639D01*
X13894454Y-36961150D01*
X14015200Y-36914315D01*
X14124550Y-36844920D01*
X14193563Y-36779200D01*
X15368416Y-36779200D01*
X15815467Y-37226251D01*
X15815467Y-40663396D01*
X15819589Y-40705439D01*
X15823269Y-40747499D01*
X15823939Y-40749806D01*
X15824174Y-40752200D01*
X15836371Y-40792596D01*
X15848163Y-40833186D01*
X15849272Y-40835325D01*
X15849965Y-40837621D01*
X15869782Y-40874892D01*
X15889227Y-40912405D01*
X15890725Y-40914281D01*
X15891855Y-40916407D01*
X15918584Y-40949180D01*
X15944895Y-40982139D01*
X15948190Y-40985481D01*
X15948251Y-40985555D01*
X15948320Y-40985612D01*
X15949378Y-40986685D01*
X16741556Y-41778863D01*
X16774162Y-41805646D01*
X16806542Y-41832816D01*
X16808651Y-41833975D01*
X16810507Y-41835500D01*
X16847681Y-41855432D01*
X16884735Y-41875803D01*
X16887030Y-41876531D01*
X16889145Y-41877665D01*
X16929542Y-41890016D01*
X16969788Y-41902783D01*
X16972171Y-41903050D01*
X16974476Y-41903755D01*
X17016602Y-41908034D01*
X17058461Y-41912729D01*
X17063151Y-41912762D01*
X17063249Y-41912772D01*
X17063340Y-41912763D01*
X17064845Y-41912774D01*
X19100386Y-41912774D01*
X19201381Y-42013769D01*
X19201381Y-46281046D01*
X17710711Y-47771717D01*
X17683909Y-47804345D01*
X17656758Y-47836703D01*
X17655600Y-47838809D01*
X17654074Y-47840667D01*
X17634130Y-47877862D01*
X17613771Y-47914896D01*
X17613043Y-47917191D01*
X17611909Y-47919306D01*
X17599558Y-47959703D01*
X17586791Y-47999949D01*
X17586524Y-48002332D01*
X17585819Y-48004637D01*
X17581540Y-48046763D01*
X17576845Y-48088622D01*
X17576812Y-48093312D01*
X17576802Y-48093410D01*
X17576811Y-48093501D01*
X17576800Y-48095006D01*
X17576800Y-48799366D01*
X17525657Y-48849449D01*
X17452487Y-48956311D01*
X17401467Y-49075349D01*
X17374541Y-49202030D01*
X17372732Y-49331528D01*
X17396112Y-49458912D01*
X17443788Y-49579328D01*
X17513945Y-49688191D01*
X17603911Y-49781353D01*
X17710259Y-49855267D01*
X17828938Y-49907116D01*
X17955428Y-49934927D01*
X18084910Y-49937639D01*
X18212454Y-49915150D01*
X18333200Y-49868315D01*
X18442550Y-49798920D01*
X18536338Y-49709607D01*
X18610992Y-49603777D01*
X18663669Y-49485463D01*
X18692362Y-49359171D01*
X18694428Y-49211244D01*
X18669272Y-49084200D01*
X18619920Y-48964461D01*
X18548249Y-48856589D01*
X18491200Y-48799140D01*
X18491200Y-48284384D01*
X19478323Y-47297262D01*
X19545945Y-47402191D01*
X19635911Y-47495353D01*
X19742259Y-47569267D01*
X19860938Y-47621116D01*
X19987428Y-47648927D01*
X20116910Y-47651639D01*
X20244454Y-47629150D01*
X20365200Y-47582315D01*
X20474550Y-47512920D01*
X20568338Y-47423607D01*
X20642992Y-47317777D01*
X20695669Y-47199463D01*
X20724362Y-47073171D01*
X20726428Y-46925244D01*
X20701272Y-46798200D01*
X20651920Y-46678461D01*
X20580249Y-46570589D01*
X20523200Y-46513140D01*
X20523200Y-46140640D01*
X21438675Y-47056116D01*
X21460112Y-47172912D01*
X21507788Y-47293328D01*
X21577945Y-47402191D01*
X21667911Y-47495353D01*
X21774259Y-47569267D01*
X21892938Y-47621116D01*
X22019428Y-47648927D01*
X22148910Y-47651639D01*
X22276454Y-47629150D01*
X22397200Y-47582315D01*
X22506550Y-47512920D01*
X22600338Y-47423607D01*
X22674992Y-47317777D01*
X22727669Y-47199463D01*
X22756362Y-47073171D01*
X22758428Y-46925244D01*
X22733272Y-46798200D01*
X22683920Y-46678461D01*
X22612249Y-46570589D01*
X22520991Y-46478691D01*
X22413622Y-46406270D01*
X22294230Y-46356082D01*
X22167365Y-46330040D01*
X22037857Y-46329136D01*
X22010140Y-46334423D01*
X20929731Y-45254015D01*
X20929731Y-41487411D01*
X20925608Y-41445355D01*
X20921929Y-41403308D01*
X20921259Y-41401001D01*
X20921024Y-41398607D01*
X20908827Y-41358211D01*
X20897035Y-41317621D01*
X20895926Y-41315482D01*
X20895233Y-41313186D01*
X20875416Y-41275915D01*
X20855971Y-41238402D01*
X20854473Y-41236526D01*
X20853343Y-41234400D01*
X20826589Y-41201596D01*
X20800302Y-41168668D01*
X20797009Y-41165328D01*
X20796947Y-41165252D01*
X20796877Y-41165194D01*
X20795820Y-41164122D01*
X19948409Y-40316711D01*
X19915781Y-40289909D01*
X19883423Y-40262758D01*
X19881317Y-40261600D01*
X19879459Y-40260074D01*
X19842264Y-40240130D01*
X19805230Y-40219771D01*
X19802935Y-40219043D01*
X19800820Y-40217909D01*
X19760423Y-40205558D01*
X19720177Y-40192791D01*
X19717794Y-40192524D01*
X19715489Y-40191819D01*
X19673363Y-40187540D01*
X19631504Y-40182845D01*
X19626814Y-40182812D01*
X19626716Y-40182802D01*
X19626625Y-40182811D01*
X19625120Y-40182800D01*
X17591377Y-40182800D01*
X17544643Y-40136066D01*
X17544643Y-37225137D01*
X17818249Y-36951531D01*
X17870238Y-36952620D01*
X17997782Y-36930131D01*
X18096531Y-36891828D01*
X18098774Y-36894579D01*
X18125085Y-36927538D01*
X18128380Y-36930880D01*
X18128441Y-36930954D01*
X18128510Y-36931011D01*
X18129568Y-36932084D01*
X18433945Y-37236462D01*
X18466599Y-37263284D01*
X18498932Y-37290415D01*
X18501038Y-37291573D01*
X18502896Y-37293099D01*
X18540091Y-37313043D01*
X18577125Y-37333402D01*
X18579420Y-37334130D01*
X18581535Y-37335264D01*
X18621891Y-37347602D01*
X18662178Y-37360382D01*
X18664566Y-37360650D01*
X18666866Y-37361353D01*
X18708898Y-37365622D01*
X18750851Y-37370328D01*
X18755552Y-37370361D01*
X18755639Y-37370370D01*
X18755720Y-37370362D01*
X18757235Y-37370373D01*
X21252827Y-37370373D01*
X21294870Y-37366251D01*
X21336930Y-37362571D01*
X21339237Y-37361901D01*
X21341631Y-37361666D01*
X21382027Y-37349469D01*
X21422617Y-37337677D01*
X21424756Y-37336568D01*
X21427052Y-37335875D01*
X21464323Y-37316058D01*
X21501836Y-37296613D01*
X21503712Y-37295115D01*
X21505838Y-37293985D01*
X21538611Y-37267256D01*
X21571570Y-37240945D01*
X21574912Y-37237650D01*
X21574986Y-37237589D01*
X21575043Y-37237520D01*
X21576116Y-37236462D01*
X21576292Y-37236286D01*
X21640910Y-37237639D01*
X21768454Y-37215150D01*
X21889200Y-37168315D01*
X21998550Y-37098920D01*
X22092338Y-37009607D01*
X22166992Y-36903777D01*
X22219669Y-36785463D01*
X22248362Y-36659171D01*
X22250428Y-36511244D01*
X22225272Y-36384200D01*
X22175920Y-36264461D01*
X22104249Y-36156589D01*
X22012991Y-36064691D01*
X21905622Y-35992270D01*
X21786230Y-35942082D01*
X21659365Y-35916040D01*
X21529857Y-35915136D01*
X21402640Y-35939404D01*
X21282559Y-35987920D01*
X21174189Y-36058835D01*
X21081657Y-36149449D01*
X21008487Y-36256311D01*
X20957467Y-36375349D01*
X20940330Y-36455973D01*
X18946614Y-36455973D01*
X18910057Y-36419417D01*
X18910057Y-35978857D01*
X18905935Y-35936814D01*
X18902255Y-35894754D01*
X18901585Y-35892447D01*
X18901350Y-35890053D01*
X18889153Y-35849657D01*
X18877361Y-35809067D01*
X18876252Y-35806928D01*
X18875559Y-35804632D01*
X18855742Y-35767361D01*
X18836297Y-35729848D01*
X18834799Y-35727972D01*
X18834461Y-35727335D01*
X18979974Y-35727335D01*
X19135928Y-35883289D01*
X19168556Y-35910091D01*
X19200914Y-35937242D01*
X19203020Y-35938400D01*
X19204878Y-35939926D01*
X19242073Y-35959870D01*
X19279107Y-35980229D01*
X19281402Y-35980957D01*
X19283517Y-35982091D01*
X19309042Y-35989895D01*
X19381911Y-36065353D01*
X19488259Y-36139267D01*
X19606938Y-36191116D01*
X19733428Y-36218927D01*
X19862910Y-36221639D01*
X19990454Y-36199150D01*
X20111200Y-36152315D01*
X20220550Y-36082920D01*
X20314338Y-35993607D01*
X20388992Y-35887777D01*
X20441669Y-35769463D01*
X20456893Y-35702454D01*
X20495428Y-35710927D01*
X20624910Y-35713639D01*
X20752454Y-35691150D01*
X20873200Y-35644315D01*
X20982550Y-35574920D01*
X21076338Y-35485607D01*
X21150992Y-35379777D01*
X21203669Y-35261463D01*
X21218893Y-35194454D01*
X21257428Y-35202927D01*
X21386910Y-35205639D01*
X21514454Y-35183150D01*
X21635200Y-35136315D01*
X21744550Y-35066920D01*
X21838338Y-34977607D01*
X21912992Y-34871777D01*
X21965669Y-34753463D01*
X21994362Y-34627171D01*
X21996428Y-34479244D01*
X21971272Y-34352200D01*
X21921920Y-34232461D01*
X21850249Y-34124589D01*
X21758991Y-34032691D01*
X21651622Y-33960270D01*
X21532230Y-33910082D01*
X21405365Y-33884040D01*
X21275857Y-33883136D01*
X21148640Y-33907404D01*
X21028559Y-33955920D01*
X20949281Y-34007798D01*
X20909517Y-33995184D01*
X20907134Y-33994917D01*
X20904829Y-33994212D01*
X20862703Y-33989933D01*
X20820844Y-33985238D01*
X20816154Y-33985205D01*
X20816056Y-33985195D01*
X20815965Y-33985204D01*
X20814460Y-33985193D01*
X10439653Y-33985193D01*
X10310530Y-33856071D01*
X10310530Y-29020071D01*
X30224998Y-29020071D01*
X30251974Y-29167052D01*
X30306985Y-29305994D01*
X30387936Y-29431605D01*
X30491743Y-29539100D01*
X30614452Y-29624385D01*
X30751390Y-29684212D01*
X30897340Y-29716301D01*
X31046743Y-29719430D01*
X31193908Y-29693481D01*
X31333231Y-29639441D01*
X31459404Y-29559370D01*
X31506207Y-29514800D01*
X33008277Y-29514800D01*
X33031743Y-29539100D01*
X33154452Y-29624385D01*
X33291390Y-29684212D01*
X33437340Y-29716301D01*
X33586743Y-29719430D01*
X33733908Y-29693481D01*
X33873231Y-29639441D01*
X33999404Y-29559370D01*
X34107621Y-29456316D01*
X34193761Y-29334205D01*
X34254542Y-29197688D01*
X34287649Y-29051966D01*
X34290033Y-28881282D01*
X34261007Y-28734692D01*
X34204061Y-28596532D01*
X34121365Y-28472063D01*
X34016067Y-28366028D01*
X33892179Y-28282465D01*
X33754420Y-28224556D01*
X33608036Y-28194508D01*
X33458604Y-28193464D01*
X33311815Y-28221466D01*
X33173260Y-28277445D01*
X33048218Y-28359271D01*
X33009486Y-28397200D01*
X31507022Y-28397200D01*
X31476067Y-28366028D01*
X31352179Y-28282465D01*
X31214420Y-28224556D01*
X31068036Y-28194508D01*
X30918604Y-28193464D01*
X30771815Y-28221466D01*
X30633260Y-28277445D01*
X30508218Y-28359271D01*
X30401450Y-28463826D01*
X30317023Y-28587127D01*
X30258154Y-28724479D01*
X30227085Y-28870650D01*
X30224998Y-29020071D01*
X10310530Y-29020071D01*
X10310530Y-14288071D01*
X31748998Y-14288071D01*
X31775974Y-14435052D01*
X31830985Y-14573994D01*
X31911936Y-14699605D01*
X32015743Y-14807100D01*
X32138452Y-14892385D01*
X32275390Y-14952212D01*
X32421340Y-14984301D01*
X32570743Y-14987430D01*
X32717908Y-14961481D01*
X32857231Y-14907441D01*
X32983404Y-14827370D01*
X33091621Y-14724316D01*
X33177761Y-14602205D01*
X33238542Y-14465688D01*
X33271649Y-14319966D01*
X33274033Y-14149282D01*
X33245007Y-14002692D01*
X33188061Y-13864532D01*
X33105365Y-13740063D01*
X33000067Y-13634028D01*
X32969200Y-13613208D01*
X32969200Y-10802541D01*
X33227541Y-10544200D01*
X33932075Y-10544200D01*
X33943936Y-10562605D01*
X34047743Y-10670100D01*
X34170452Y-10755385D01*
X34307390Y-10815212D01*
X34453340Y-10847301D01*
X34602743Y-10850430D01*
X34749908Y-10824481D01*
X34889231Y-10770441D01*
X35015404Y-10690370D01*
X35123621Y-10587316D01*
X35209761Y-10465205D01*
X35270542Y-10328688D01*
X35303649Y-10182966D01*
X35306033Y-10012282D01*
X35277007Y-9865692D01*
X35220061Y-9727532D01*
X35137365Y-9603063D01*
X35032067Y-9497028D01*
X34908179Y-9413465D01*
X34770420Y-9355556D01*
X34624036Y-9325508D01*
X34474604Y-9324464D01*
X34327815Y-9352466D01*
X34189260Y-9408445D01*
X34064218Y-9490271D01*
X33957450Y-9594826D01*
X33933503Y-9629800D01*
X33038163Y-9629800D01*
X32996116Y-9633923D01*
X32954061Y-9637602D01*
X32951754Y-9638272D01*
X32949359Y-9638507D01*
X32908950Y-9650707D01*
X32868373Y-9662496D01*
X32866234Y-9663605D01*
X32863938Y-9664298D01*
X32826667Y-9684115D01*
X32789154Y-9703560D01*
X32787278Y-9705058D01*
X32785152Y-9706188D01*
X32752379Y-9732917D01*
X32719420Y-9759228D01*
X32716078Y-9762523D01*
X32716004Y-9762584D01*
X32715947Y-9762653D01*
X32714874Y-9763711D01*
X32188711Y-10289874D01*
X32161909Y-10322502D01*
X32134758Y-10354860D01*
X32133600Y-10356966D01*
X32132074Y-10358824D01*
X32112130Y-10396019D01*
X32091771Y-10433053D01*
X32091043Y-10435348D01*
X32089909Y-10437463D01*
X32077558Y-10477860D01*
X32064791Y-10518106D01*
X32064524Y-10520489D01*
X32063819Y-10522794D01*
X32059540Y-10564920D01*
X32054845Y-10606779D01*
X32054812Y-10611469D01*
X32054802Y-10611567D01*
X32054811Y-10611658D01*
X32054800Y-10613163D01*
X32054800Y-13612494D01*
X32032218Y-13627271D01*
X31925450Y-13731826D01*
X31841023Y-13855127D01*
X31782154Y-13992479D01*
X31751085Y-14138650D01*
X31748998Y-14288071D01*
X10310530Y-14288071D01*
X10310530Y-13454368D01*
X11150073Y-12614825D01*
X11176856Y-12582219D01*
X11204026Y-12549839D01*
X11205185Y-12547730D01*
X11206710Y-12545874D01*
X11226642Y-12508700D01*
X11247013Y-12471646D01*
X11247741Y-12469351D01*
X11248875Y-12467236D01*
X11261226Y-12426839D01*
X11273993Y-12386593D01*
X11274260Y-12384210D01*
X11274965Y-12381905D01*
X11279244Y-12339779D01*
X11283939Y-12297920D01*
X11283972Y-12293230D01*
X11283982Y-12293132D01*
X11283973Y-12293041D01*
X11283984Y-12291536D01*
X11283984Y-11563417D01*
X11468201Y-11379200D01*
X11969410Y-11379200D01*
X12015911Y-11427353D01*
X12122259Y-11501267D01*
X12240938Y-11553116D01*
X12367428Y-11580927D01*
X12496910Y-11583639D01*
X12624454Y-11561150D01*
X12745200Y-11514315D01*
X12854550Y-11444920D01*
X12948338Y-11355607D01*
X13022992Y-11249777D01*
X13075669Y-11131463D01*
X13104362Y-11005171D01*
X13106428Y-10857244D01*
X13081272Y-10730200D01*
X13031920Y-10610461D01*
X12960249Y-10502589D01*
X12868991Y-10410691D01*
X12761622Y-10338270D01*
X12642230Y-10288082D01*
X12515365Y-10262040D01*
X12385857Y-10261136D01*
X12258640Y-10285404D01*
X12138559Y-10333920D01*
X12030189Y-10404835D01*
X11968955Y-10464800D01*
X11278823Y-10464800D01*
X11236776Y-10468923D01*
X11194721Y-10472602D01*
X11192414Y-10473272D01*
X11190019Y-10473507D01*
X11149610Y-10485707D01*
X11109033Y-10497496D01*
X11106894Y-10498605D01*
X11104598Y-10499298D01*
X11067327Y-10519115D01*
X11029814Y-10538560D01*
X11027938Y-10540058D01*
X11025812Y-10541188D01*
X10993039Y-10567917D01*
X10979065Y-10579072D01*
X10928249Y-10502589D01*
X10836991Y-10410691D01*
X10729622Y-10338270D01*
X10610230Y-10288082D01*
X10483365Y-10262040D01*
X10353857Y-10261136D01*
X10226640Y-10285404D01*
X10106559Y-10333920D01*
X9998189Y-10404835D01*
X9905657Y-10495449D01*
X9832487Y-10602311D01*
X9781467Y-10721349D01*
X9754541Y-10848030D01*
X9752732Y-10977528D01*
X9776112Y-11104912D01*
X9823788Y-11225328D01*
X9893945Y-11334191D01*
X9956800Y-11399279D01*
X9956800Y-11938960D01*
X9239169Y-12656591D01*
X8585200Y-12002622D01*
X8585200Y-11398591D01*
X8630338Y-11355607D01*
X8704992Y-11249777D01*
X8757669Y-11131463D01*
X8786362Y-11005171D01*
X8788428Y-10857244D01*
X8763272Y-10730200D01*
X8713920Y-10610461D01*
X8642249Y-10502589D01*
X8550991Y-10410691D01*
X8443622Y-10338270D01*
X8324230Y-10288082D01*
X8197365Y-10262040D01*
X8067857Y-10261136D01*
X7940640Y-10285404D01*
X7820559Y-10333920D01*
X7712189Y-10404835D01*
X7619657Y-10495449D01*
X7619454Y-10495746D01*
X7534991Y-10410691D01*
X7427622Y-10338270D01*
X7308230Y-10288082D01*
X7181365Y-10262040D01*
X7051857Y-10261136D01*
X6924640Y-10285404D01*
X6804559Y-10333920D01*
X6696189Y-10404835D01*
X6603657Y-10495449D01*
X6530487Y-10602311D01*
X6479467Y-10721349D01*
X6452541Y-10848030D01*
X6450732Y-10977528D01*
X430600Y-10977528D01*
X430600Y-4579377D01*
X16578008Y-4579377D01*
X16589055Y-4725062D01*
X16766265Y-5074183D01*
X17008180Y-5382023D01*
X17305504Y-5636753D01*
X17646810Y-5828583D01*
X18018982Y-5950142D01*
X18407718Y-5996758D01*
X18720600Y-5826389D01*
X18720600Y-4279400D01*
X19279400Y-4279400D01*
X19279400Y-5826389D01*
X19592282Y-5996758D01*
X19981018Y-5950142D01*
X20353190Y-5828583D01*
X20694496Y-5636753D01*
X20991820Y-5382023D01*
X21233735Y-5074183D01*
X21410945Y-4725062D01*
X21421992Y-4579377D01*
X21335471Y-4279400D01*
X19279400Y-4279400D01*
X18720600Y-4279400D01*
X16664529Y-4279400D01*
X16578008Y-4579377D01*
X430600Y-4579377D01*
X430600Y-3420623D01*
X16578008Y-3420623D01*
X16664529Y-3720600D01*
X18720600Y-3720600D01*
X18720600Y-2173611D01*
X19279400Y-2173611D01*
X19279400Y-3720600D01*
X21335471Y-3720600D01*
X21421992Y-3420623D01*
X21410945Y-3274938D01*
X21233735Y-2925817D01*
X20991820Y-2617977D01*
X20694496Y-2363247D01*
X20353190Y-2171417D01*
X19981018Y-2049858D01*
X19592282Y-2003242D01*
X19279400Y-2173611D01*
X18720600Y-2173611D01*
X18407718Y-2003242D01*
X18018982Y-2049858D01*
X17646810Y-2171417D01*
X17305504Y-2363247D01*
X17008180Y-2617977D01*
X16766265Y-2925817D01*
X16589055Y-3274938D01*
X16578008Y-3420623D01*
X430600Y-3420623D01*
X430600Y-430600D01*
X37569400Y-430600D01*
X37569400Y-79569400D01*
X37569400Y-79569400D01*
G37*
X37569400Y-79569400D02*
X430600Y-79569400D01*
X430600Y-78121737D01*
X30205341Y-78121737D01*
X30233861Y-78277128D01*
X30292019Y-78424020D01*
X30377602Y-78556818D01*
X30487348Y-78670464D01*
X30617079Y-78760629D01*
X30761851Y-78823878D01*
X30916152Y-78857804D01*
X31074104Y-78861112D01*
X31229690Y-78833678D01*
X31376984Y-78776546D01*
X31510377Y-78691893D01*
X31624786Y-78582943D01*
X31715854Y-78453845D01*
X31780113Y-78309517D01*
X31815115Y-78155457D01*
X31815585Y-78121737D01*
X33205341Y-78121737D01*
X33233861Y-78277128D01*
X33292019Y-78424020D01*
X33377602Y-78556818D01*
X33487348Y-78670464D01*
X33617079Y-78760629D01*
X33761851Y-78823878D01*
X33916152Y-78857804D01*
X34074104Y-78861112D01*
X34229690Y-78833678D01*
X34376984Y-78776546D01*
X34510377Y-78691893D01*
X34624786Y-78582943D01*
X34715854Y-78453845D01*
X34780113Y-78309517D01*
X34815115Y-78155457D01*
X34817635Y-77975007D01*
X34786948Y-77820029D01*
X34726744Y-77673964D01*
X34639316Y-77542374D01*
X34527993Y-77430271D01*
X34397017Y-77341926D01*
X34251375Y-77280704D01*
X34096616Y-77248937D01*
X33938633Y-77247834D01*
X33783445Y-77277437D01*
X33636963Y-77336620D01*
X33504765Y-77423127D01*
X33391889Y-77533665D01*
X33302631Y-77664021D01*
X33240394Y-77809232D01*
X33207547Y-77963766D01*
X33205341Y-78121737D01*
X31815585Y-78121737D01*
X31817635Y-77975007D01*
X31786948Y-77820029D01*
X31726744Y-77673964D01*
X31639316Y-77542374D01*
X31527993Y-77430271D01*
X31397017Y-77341926D01*
X31251375Y-77280704D01*
X31096616Y-77248937D01*
X30938633Y-77247834D01*
X30783445Y-77277437D01*
X30636963Y-77336620D01*
X30504765Y-77423127D01*
X30391889Y-77533665D01*
X30302631Y-77664021D01*
X30240394Y-77809232D01*
X30207547Y-77963766D01*
X30205341Y-78121737D01*
X430600Y-78121737D01*
X430600Y-75051737D01*
X3851341Y-75051737D01*
X3879861Y-75207128D01*
X3938019Y-75354020D01*
X4023602Y-75486818D01*
X4133348Y-75600464D01*
X4263079Y-75690629D01*
X4407851Y-75753878D01*
X4562152Y-75787804D01*
X4720104Y-75791112D01*
X4875690Y-75763678D01*
X5022984Y-75706546D01*
X5156377Y-75621893D01*
X5270786Y-75512943D01*
X5361854Y-75383845D01*
X5426113Y-75239517D01*
X5461115Y-75085457D01*
X5461585Y-75051737D01*
X8251341Y-75051737D01*
X8279861Y-75207128D01*
X8338019Y-75354020D01*
X8423602Y-75486818D01*
X8533348Y-75600464D01*
X8663079Y-75690629D01*
X8807851Y-75753878D01*
X8962152Y-75787804D01*
X9120104Y-75791112D01*
X9275690Y-75763678D01*
X9422984Y-75706546D01*
X9556377Y-75621893D01*
X9670786Y-75512943D01*
X9761854Y-75383845D01*
X9826113Y-75239517D01*
X9861115Y-75085457D01*
X9863635Y-74905007D01*
X9832948Y-74750029D01*
X9791719Y-74650000D01*
X16742680Y-74650000D01*
X16742680Y-77350000D01*
X16747196Y-77406628D01*
X16776940Y-77502675D01*
X16832264Y-77586633D01*
X16908788Y-77651854D01*
X17000453Y-77693173D01*
X17100000Y-77707320D01*
X20900000Y-77707320D01*
X20956628Y-77702804D01*
X21052675Y-77673060D01*
X21136633Y-77617736D01*
X21201854Y-77541212D01*
X21243173Y-77449547D01*
X21257320Y-77350000D01*
X21257320Y-74650000D01*
X21252804Y-74593372D01*
X21223060Y-74497325D01*
X21167736Y-74413367D01*
X21091212Y-74348146D01*
X20999547Y-74306827D01*
X20900000Y-74292680D01*
X17100000Y-74292680D01*
X17043372Y-74297196D01*
X16947325Y-74326940D01*
X16863367Y-74382264D01*
X16798146Y-74458788D01*
X16756827Y-74550453D01*
X16742680Y-74650000D01*
X9791719Y-74650000D01*
X9772744Y-74603964D01*
X9685316Y-74472374D01*
X9573993Y-74360271D01*
X9443017Y-74271926D01*
X9297375Y-74210704D01*
X9142616Y-74178937D01*
X8984633Y-74177834D01*
X8829445Y-74207437D01*
X8682963Y-74266620D01*
X8550765Y-74353127D01*
X8437889Y-74463665D01*
X8348631Y-74594021D01*
X8286394Y-74739232D01*
X8253547Y-74893766D01*
X8251341Y-75051737D01*
X5461585Y-75051737D01*
X5463635Y-74905007D01*
X5432948Y-74750029D01*
X5372744Y-74603964D01*
X5285316Y-74472374D01*
X5173993Y-74360271D01*
X5043017Y-74271926D01*
X4897375Y-74210704D01*
X4742616Y-74178937D01*
X4584633Y-74177834D01*
X4429445Y-74207437D01*
X4282963Y-74266620D01*
X4150765Y-74353127D01*
X4037889Y-74463665D01*
X3948631Y-74594021D01*
X3886394Y-74739232D01*
X3853547Y-74893766D01*
X3851341Y-75051737D01*
X430600Y-75051737D01*
X430600Y-70612000D01*
X3708400Y-70612000D01*
X3708400Y-73660000D01*
X3732719Y-73789245D01*
X3809103Y-73907950D01*
X3925652Y-73987584D01*
X4064000Y-74015600D01*
X5588000Y-74015600D01*
X5717245Y-73991281D01*
X5835950Y-73914897D01*
X5915584Y-73798348D01*
X5943600Y-73660000D01*
X5943600Y-72745600D01*
X14122400Y-72745600D01*
X14122400Y-73787000D01*
X14146719Y-73916245D01*
X14223103Y-74034950D01*
X14339652Y-74114584D01*
X14478000Y-74142600D01*
X20447000Y-74142600D01*
X20576245Y-74118281D01*
X20694950Y-74041897D01*
X20774584Y-73925348D01*
X20802600Y-73787000D01*
X20802600Y-71755000D01*
X20778281Y-71625755D01*
X20701897Y-71507050D01*
X20585348Y-71427416D01*
X20447000Y-71399400D01*
X15595600Y-71399400D01*
X15595600Y-70612000D01*
X15571281Y-70482755D01*
X15494897Y-70364050D01*
X15378348Y-70284416D01*
X15240000Y-70256400D01*
X4064000Y-70256400D01*
X3934755Y-70280719D01*
X3816050Y-70357103D01*
X3736416Y-70473652D01*
X3708400Y-70612000D01*
X430600Y-70612000D01*
X430600Y-50601528D01*
X4926732Y-50601528D01*
X4950112Y-50728912D01*
X4997788Y-50849328D01*
X5067945Y-50958191D01*
X5130800Y-51023279D01*
X5130800Y-54954226D01*
X5134922Y-54996269D01*
X5138602Y-55038329D01*
X5139272Y-55040636D01*
X5139507Y-55043030D01*
X5151704Y-55083426D01*
X5163496Y-55124016D01*
X5164605Y-55126155D01*
X5165298Y-55128451D01*
X5185115Y-55165722D01*
X5204560Y-55203235D01*
X5206058Y-55205111D01*
X5207188Y-55207237D01*
X5233917Y-55240010D01*
X5260228Y-55272969D01*
X5263523Y-55276311D01*
X5263584Y-55276385D01*
X5263653Y-55276442D01*
X5264711Y-55277515D01*
X5934028Y-55946832D01*
X5966656Y-55973634D01*
X5999014Y-56000785D01*
X6001120Y-56001943D01*
X6002978Y-56003469D01*
X6040173Y-56023413D01*
X6077207Y-56043772D01*
X6079502Y-56044500D01*
X6081617Y-56045634D01*
X6121973Y-56057972D01*
X6162260Y-56070752D01*
X6164648Y-56071020D01*
X6166948Y-56071723D01*
X6208980Y-56075992D01*
X6250933Y-56080698D01*
X6255634Y-56080731D01*
X6255721Y-56080740D01*
X6255802Y-56080732D01*
X6257317Y-56080743D01*
X18606614Y-56080743D01*
X18574154Y-56156479D01*
X18543085Y-56302650D01*
X18540998Y-56452071D01*
X18567974Y-56599052D01*
X18622985Y-56737994D01*
X18703936Y-56863605D01*
X18807743Y-56971100D01*
X18930452Y-57056385D01*
X19067390Y-57116212D01*
X19213340Y-57148301D01*
X19362743Y-57151430D01*
X19509908Y-57125481D01*
X19512179Y-57124600D01*
X20121541Y-57124600D01*
X20229340Y-57148301D01*
X20378743Y-57151430D01*
X20525908Y-57125481D01*
X20528179Y-57124600D01*
X21137541Y-57124600D01*
X21245340Y-57148301D01*
X21394743Y-57151430D01*
X21541908Y-57125481D01*
X21544179Y-57124600D01*
X23169541Y-57124600D01*
X23277340Y-57148301D01*
X23426743Y-57151430D01*
X23573908Y-57125481D01*
X23576179Y-57124600D01*
X24185541Y-57124600D01*
X24293340Y-57148301D01*
X24442743Y-57151430D01*
X24589908Y-57125481D01*
X24592179Y-57124600D01*
X25201541Y-57124600D01*
X25309340Y-57148301D01*
X25458743Y-57151430D01*
X25605908Y-57125481D01*
X25745231Y-57071441D01*
X25871404Y-56991370D01*
X25979621Y-56888316D01*
X26065761Y-56766205D01*
X26126542Y-56629688D01*
X26159649Y-56483966D01*
X26162033Y-56313282D01*
X26133007Y-56166692D01*
X26097581Y-56080743D01*
X28256459Y-56080743D01*
X28298502Y-56076621D01*
X28340562Y-56072941D01*
X28342869Y-56072271D01*
X28345263Y-56072036D01*
X28385659Y-56059839D01*
X28426249Y-56048047D01*
X28428388Y-56046938D01*
X28430684Y-56046245D01*
X28467955Y-56026428D01*
X28505468Y-56006983D01*
X28507344Y-56005485D01*
X28509470Y-56004355D01*
X28542243Y-55977626D01*
X28575202Y-55951315D01*
X28578544Y-55948020D01*
X28578618Y-55947959D01*
X28578675Y-55947890D01*
X28579748Y-55946832D01*
X28693813Y-55832767D01*
X28693813Y-57643380D01*
X28494380Y-57842813D01*
X7024495Y-57842813D01*
X6982448Y-57846936D01*
X6940393Y-57850615D01*
X6938086Y-57851285D01*
X6935691Y-57851520D01*
X6895282Y-57863720D01*
X6854705Y-57875509D01*
X6852566Y-57876618D01*
X6850270Y-57877311D01*
X6812999Y-57897128D01*
X6775486Y-57916573D01*
X6773610Y-57918071D01*
X6771484Y-57919201D01*
X6738711Y-57945930D01*
X6705752Y-57972241D01*
X6702410Y-57975536D01*
X6702336Y-57975597D01*
X6702279Y-57975666D01*
X6701206Y-57976724D01*
X5739077Y-58938853D01*
X5712275Y-58971481D01*
X5685124Y-59003839D01*
X5683966Y-59005945D01*
X5682440Y-59007803D01*
X5662496Y-59044998D01*
X5642137Y-59082032D01*
X5641409Y-59084327D01*
X5640275Y-59086442D01*
X5627924Y-59126839D01*
X5615157Y-59167085D01*
X5614890Y-59169468D01*
X5614185Y-59171773D01*
X5609906Y-59213899D01*
X5605211Y-59255758D01*
X5605178Y-59260448D01*
X5605168Y-59260546D01*
X5605177Y-59260637D01*
X5605166Y-59262142D01*
X5605166Y-67673228D01*
X5551032Y-67726240D01*
X5477862Y-67833102D01*
X5426842Y-67952140D01*
X5399916Y-68078821D01*
X5398107Y-68208319D01*
X5421487Y-68335703D01*
X5469163Y-68456119D01*
X5539320Y-68564982D01*
X5629286Y-68658144D01*
X5735634Y-68732058D01*
X5854313Y-68783907D01*
X5980803Y-68811718D01*
X6110285Y-68814430D01*
X6237829Y-68791941D01*
X6358575Y-68745106D01*
X6467925Y-68675711D01*
X6561713Y-68586398D01*
X6636367Y-68480568D01*
X6689044Y-68362254D01*
X6717737Y-68235962D01*
X6719803Y-68088035D01*
X6694647Y-67960991D01*
X6645295Y-67841252D01*
X6573624Y-67733380D01*
X6519566Y-67678943D01*
X6519566Y-66529186D01*
X6534242Y-66539386D01*
X6652921Y-66591235D01*
X6779411Y-66619046D01*
X6908893Y-66621758D01*
X7036437Y-66599269D01*
X7157183Y-66552434D01*
X7266533Y-66483039D01*
X7360321Y-66393726D01*
X7434975Y-66287896D01*
X7487652Y-66169582D01*
X7516345Y-66043290D01*
X7518411Y-65895363D01*
X7493255Y-65768319D01*
X7443903Y-65648580D01*
X7372232Y-65540708D01*
X7280974Y-65448810D01*
X7173605Y-65376389D01*
X7054213Y-65326201D01*
X6927634Y-65300218D01*
X6927634Y-59624985D01*
X7388766Y-59163853D01*
X28853014Y-59163853D01*
X28895057Y-59159731D01*
X28937117Y-59156051D01*
X28939424Y-59155381D01*
X28941818Y-59155146D01*
X28982214Y-59142949D01*
X29022804Y-59131157D01*
X29024943Y-59130048D01*
X29027239Y-59129355D01*
X29064510Y-59109538D01*
X29102023Y-59090093D01*
X29103899Y-59088595D01*
X29106025Y-59087465D01*
X29138798Y-59060736D01*
X29171757Y-59034425D01*
X29175099Y-59031130D01*
X29175173Y-59031069D01*
X29175230Y-59031000D01*
X29176303Y-59029942D01*
X29514800Y-58691445D01*
X29514800Y-69088000D01*
X29518922Y-69130043D01*
X29522602Y-69172103D01*
X29523272Y-69174410D01*
X29523507Y-69176804D01*
X29535704Y-69217200D01*
X29547496Y-69257790D01*
X29548605Y-69259929D01*
X29549298Y-69262225D01*
X29569115Y-69299496D01*
X29588560Y-69337009D01*
X29590058Y-69338885D01*
X29591188Y-69341011D01*
X29617917Y-69373784D01*
X29644228Y-69406743D01*
X29647523Y-69410085D01*
X29647584Y-69410159D01*
X29647653Y-69410216D01*
X29648711Y-69411289D01*
X30327699Y-70090277D01*
X30326732Y-70159528D01*
X30350112Y-70286912D01*
X30397788Y-70407328D01*
X30467945Y-70516191D01*
X30557911Y-70609353D01*
X30664259Y-70683267D01*
X30782938Y-70735116D01*
X30909428Y-70762927D01*
X31038910Y-70765639D01*
X31166454Y-70743150D01*
X31287200Y-70696315D01*
X31396550Y-70626920D01*
X31490338Y-70537607D01*
X31564992Y-70431777D01*
X31617669Y-70313463D01*
X31646362Y-70187171D01*
X31648428Y-70039244D01*
X31623272Y-69912200D01*
X31573920Y-69792461D01*
X31502249Y-69684589D01*
X31410991Y-69592691D01*
X31303622Y-69520270D01*
X31184230Y-69470082D01*
X31057365Y-69444040D01*
X30974036Y-69443458D01*
X30429200Y-68898622D01*
X30429200Y-53506000D01*
X30669680Y-53506000D01*
X30669680Y-55206000D01*
X30674196Y-55262628D01*
X30703940Y-55358675D01*
X30759264Y-55442633D01*
X30835788Y-55507854D01*
X30927453Y-55549173D01*
X31027000Y-55563320D01*
X32727000Y-55563320D01*
X32783628Y-55558804D01*
X32879675Y-55529060D01*
X32963633Y-55473736D01*
X33028854Y-55397212D01*
X33070173Y-55305547D01*
X33084320Y-55206000D01*
X33084320Y-54350167D01*
X33211400Y-54350167D01*
X33211400Y-54361833D01*
X33234360Y-54596002D01*
X33302367Y-54821251D01*
X33412830Y-55029002D01*
X33561542Y-55211340D01*
X33742837Y-55361321D01*
X33949811Y-55473231D01*
X34174580Y-55542809D01*
X34408583Y-55567404D01*
X34642907Y-55546079D01*
X34868626Y-55479646D01*
X35077142Y-55370636D01*
X35260514Y-55223201D01*
X35411757Y-55042957D01*
X35525110Y-54836769D01*
X35596255Y-54612491D01*
X35622482Y-54378666D01*
X35622600Y-54361833D01*
X35622600Y-54350167D01*
X35599640Y-54115998D01*
X35531633Y-53890749D01*
X35421170Y-53682998D01*
X35272458Y-53500660D01*
X35091163Y-53350679D01*
X34884189Y-53238769D01*
X34659420Y-53169191D01*
X34425417Y-53144596D01*
X34191093Y-53165921D01*
X33965374Y-53232354D01*
X33756858Y-53341364D01*
X33573486Y-53488799D01*
X33422243Y-53669043D01*
X33308890Y-53875231D01*
X33237745Y-54099509D01*
X33211518Y-54333334D01*
X33211400Y-54350167D01*
X33084320Y-54350167D01*
X33084320Y-53506000D01*
X33079804Y-53449372D01*
X33050060Y-53353325D01*
X32994736Y-53269367D01*
X32918212Y-53204146D01*
X32826547Y-53162827D01*
X32727000Y-53148680D01*
X31027000Y-53148680D01*
X30970372Y-53153196D01*
X30874325Y-53182940D01*
X30790367Y-53238264D01*
X30725146Y-53314788D01*
X30683827Y-53406453D01*
X30669680Y-53506000D01*
X30429200Y-53506000D01*
X30429200Y-32612143D01*
X30425082Y-32570146D01*
X30421399Y-32528041D01*
X30420727Y-32525729D01*
X30420493Y-32523339D01*
X30408301Y-32482959D01*
X30396504Y-32442354D01*
X30395396Y-32440216D01*
X30394702Y-32437918D01*
X30374876Y-32400629D01*
X30355440Y-32363134D01*
X30353942Y-32361258D01*
X30352812Y-32359132D01*
X30326083Y-32326359D01*
X30299772Y-32293400D01*
X30296473Y-32290054D01*
X30296416Y-32289984D01*
X30296351Y-32289931D01*
X30295290Y-32288854D01*
X29438604Y-31432169D01*
X29405976Y-31405367D01*
X29373618Y-31378216D01*
X29371512Y-31377058D01*
X29369654Y-31375532D01*
X29332459Y-31355588D01*
X29295425Y-31335229D01*
X29293130Y-31334501D01*
X29291015Y-31333367D01*
X29250618Y-31321016D01*
X29210372Y-31308249D01*
X29207989Y-31307982D01*
X29205684Y-31307277D01*
X29163558Y-31302998D01*
X29121699Y-31298303D01*
X29117009Y-31298270D01*
X29116911Y-31298260D01*
X29116820Y-31298269D01*
X29115315Y-31298258D01*
X26114061Y-31298258D01*
X25597909Y-30782106D01*
X25565281Y-30755304D01*
X25532923Y-30728153D01*
X25530817Y-30726995D01*
X25528959Y-30725469D01*
X25491764Y-30705525D01*
X25454730Y-30685166D01*
X25452435Y-30684438D01*
X25450320Y-30683304D01*
X25409923Y-30670953D01*
X25369677Y-30658186D01*
X25367294Y-30657919D01*
X25364989Y-30657214D01*
X25322863Y-30652935D01*
X25281004Y-30648240D01*
X25276314Y-30648207D01*
X25276216Y-30648197D01*
X25276125Y-30648206D01*
X25274620Y-30648195D01*
X14601856Y-30648195D01*
X14559809Y-30652318D01*
X14517754Y-30655997D01*
X14515447Y-30656667D01*
X14513052Y-30656902D01*
X14472630Y-30669107D01*
X14432067Y-30680891D01*
X14429929Y-30681999D01*
X14427631Y-30682693D01*
X14390342Y-30702519D01*
X14352847Y-30721955D01*
X14350971Y-30723453D01*
X14348845Y-30724583D01*
X14316072Y-30751312D01*
X14283113Y-30777623D01*
X14279767Y-30780922D01*
X14279697Y-30780979D01*
X14279644Y-30781044D01*
X14278567Y-30782105D01*
X13717109Y-31343564D01*
X13655857Y-31343136D01*
X13528640Y-31367404D01*
X13408559Y-31415920D01*
X13300189Y-31486835D01*
X13207657Y-31577449D01*
X13134487Y-31684311D01*
X13083467Y-31803349D01*
X13056541Y-31930030D01*
X13054732Y-32059528D01*
X13078112Y-32186912D01*
X13125788Y-32307328D01*
X13195945Y-32416191D01*
X13285911Y-32509353D01*
X13392259Y-32583267D01*
X13510938Y-32635116D01*
X13637428Y-32662927D01*
X13766910Y-32665639D01*
X13894454Y-32643150D01*
X14015200Y-32596315D01*
X14124550Y-32526920D01*
X14218338Y-32437607D01*
X14292992Y-32331777D01*
X14345669Y-32213463D01*
X14374362Y-32087171D01*
X14375888Y-31977942D01*
X14791235Y-31562595D01*
X24656195Y-31562595D01*
X24639032Y-31579402D01*
X24565862Y-31686264D01*
X24516772Y-31800800D01*
X22828723Y-31800800D01*
X22774991Y-31746691D01*
X22667622Y-31674270D01*
X22548230Y-31624082D01*
X22421365Y-31598040D01*
X22291857Y-31597136D01*
X22164640Y-31621404D01*
X22044559Y-31669920D01*
X21936189Y-31740835D01*
X21843657Y-31831449D01*
X21770487Y-31938311D01*
X21719467Y-32057349D01*
X21692541Y-32184030D01*
X21690732Y-32313528D01*
X21714112Y-32440912D01*
X21761788Y-32561328D01*
X21831945Y-32670191D01*
X21921911Y-32763353D01*
X22028259Y-32837267D01*
X22146938Y-32889116D01*
X22273428Y-32916927D01*
X22402910Y-32919639D01*
X22530454Y-32897150D01*
X22651200Y-32850315D01*
X22760550Y-32780920D01*
X22829563Y-32715200D01*
X24343061Y-32715200D01*
X24577877Y-32950016D01*
X24610510Y-32976822D01*
X24642863Y-33003969D01*
X24644968Y-33005126D01*
X24646828Y-33006654D01*
X24684040Y-33026607D01*
X24721056Y-33046956D01*
X24723351Y-33047684D01*
X24725466Y-33048818D01*
X24765863Y-33061169D01*
X24806109Y-33073936D01*
X24808492Y-33074203D01*
X24810797Y-33074908D01*
X24852923Y-33079187D01*
X24894782Y-33083882D01*
X24899472Y-33083915D01*
X24899570Y-33083925D01*
X24899661Y-33083916D01*
X24901166Y-33083927D01*
X25321267Y-33083927D01*
X25363310Y-33079805D01*
X25405370Y-33076125D01*
X25407677Y-33075455D01*
X25410071Y-33075220D01*
X25450467Y-33063023D01*
X25491057Y-33051231D01*
X25493196Y-33050122D01*
X25495492Y-33049429D01*
X25532763Y-33029612D01*
X25535428Y-33028231D01*
X28582975Y-33028231D01*
X28693813Y-33139069D01*
X28693813Y-35858171D01*
X28326353Y-35490711D01*
X28293725Y-35463909D01*
X28261367Y-35436758D01*
X28259261Y-35435600D01*
X28257403Y-35434074D01*
X28220208Y-35414130D01*
X28183174Y-35393771D01*
X28180879Y-35393043D01*
X28178764Y-35391909D01*
X28138367Y-35379558D01*
X28098121Y-35366791D01*
X28095738Y-35366524D01*
X28093433Y-35365819D01*
X28051307Y-35361540D01*
X28009448Y-35356845D01*
X28004758Y-35356812D01*
X28004660Y-35356802D01*
X28004569Y-35356811D01*
X28003064Y-35356800D01*
X25368723Y-35356800D01*
X25314991Y-35302691D01*
X25207622Y-35230270D01*
X25088230Y-35180082D01*
X24961365Y-35154040D01*
X24831857Y-35153136D01*
X24704640Y-35177404D01*
X24584559Y-35225920D01*
X24476189Y-35296835D01*
X24383657Y-35387449D01*
X24310487Y-35494311D01*
X24259467Y-35613349D01*
X24232541Y-35740030D01*
X24230732Y-35869528D01*
X24254112Y-35996912D01*
X24301788Y-36117328D01*
X24371945Y-36226191D01*
X24461911Y-36319353D01*
X24568259Y-36393267D01*
X24686938Y-36445116D01*
X24813428Y-36472927D01*
X24942910Y-36475639D01*
X25070454Y-36453150D01*
X25191200Y-36406315D01*
X25300550Y-36336920D01*
X25369563Y-36271200D01*
X27813686Y-36271200D01*
X28286397Y-36743911D01*
X28286397Y-54947027D01*
X28067081Y-55166343D01*
X6446695Y-55166343D01*
X6045200Y-54764848D01*
X6045200Y-51022591D01*
X6090338Y-50979607D01*
X6164992Y-50873777D01*
X6217669Y-50755463D01*
X6246362Y-50629171D01*
X6248428Y-50481244D01*
X6223272Y-50354200D01*
X6173920Y-50234461D01*
X6102249Y-50126589D01*
X6010991Y-50034691D01*
X5903622Y-49962270D01*
X5784230Y-49912082D01*
X5657365Y-49886040D01*
X5527857Y-49885136D01*
X5400640Y-49909404D01*
X5280559Y-49957920D01*
X5172189Y-50028835D01*
X5079657Y-50119449D01*
X5006487Y-50226311D01*
X4955467Y-50345349D01*
X4928541Y-50472030D01*
X4926732Y-50601528D01*
X430600Y-50601528D01*
X430600Y-49986577D01*
X2704950Y-49986577D01*
X2792192Y-50230570D01*
X3062548Y-50354399D01*
X3351867Y-50423105D01*
X3649031Y-50434048D01*
X3942619Y-50386807D01*
X4221350Y-50283197D01*
X4319808Y-50230570D01*
X4407050Y-49986577D01*
X3556000Y-49135526D01*
X2704950Y-49986577D01*
X430600Y-49986577D01*
X430600Y-49013031D01*
X2041952Y-49013031D01*
X2089193Y-49306619D01*
X2192803Y-49585350D01*
X2245430Y-49683808D01*
X2489423Y-49771050D01*
X3340474Y-48920000D01*
X3771526Y-48920000D01*
X4622577Y-49771050D01*
X4866570Y-49683808D01*
X4990399Y-49413452D01*
X5059105Y-49124133D01*
X5070048Y-48826969D01*
X5022807Y-48533381D01*
X4919197Y-48254650D01*
X4866570Y-48156192D01*
X4622577Y-48068950D01*
X3771526Y-48920000D01*
X3340474Y-48920000D01*
X2489423Y-48068950D01*
X2245430Y-48156192D01*
X2121601Y-48426548D01*
X2052895Y-48715867D01*
X2041952Y-49013031D01*
X430600Y-49013031D01*
X430600Y-47853423D01*
X2704950Y-47853423D01*
X3556000Y-48704474D01*
X4407050Y-47853423D01*
X4319808Y-47609430D01*
X4049452Y-47485601D01*
X3760133Y-47416895D01*
X3462969Y-47405952D01*
X3169381Y-47453193D01*
X2890650Y-47556803D01*
X2792192Y-47609430D01*
X2704950Y-47853423D01*
X430600Y-47853423D01*
X430600Y-42625574D01*
X2298750Y-42625574D01*
X2343200Y-42867765D01*
X2433846Y-43096709D01*
X2567234Y-43303687D01*
X2738283Y-43480814D01*
X2940480Y-43621344D01*
X3166121Y-43719924D01*
X3406613Y-43772800D01*
X3652794Y-43777957D01*
X3895289Y-43735198D01*
X4124861Y-43646153D01*
X4332765Y-43514213D01*
X4511082Y-43344404D01*
X4653020Y-43143194D01*
X4753173Y-42918246D01*
X4807726Y-42678130D01*
X4811654Y-42396882D01*
X4763826Y-42155336D01*
X4669993Y-41927679D01*
X4533728Y-41722584D01*
X4360222Y-41547863D01*
X4156083Y-41410169D01*
X3929087Y-41314749D01*
X3687881Y-41265237D01*
X3441651Y-41263518D01*
X3199777Y-41309658D01*
X2971471Y-41401899D01*
X2765430Y-41536729D01*
X2589501Y-41709011D01*
X2450386Y-41912183D01*
X2353383Y-42138507D01*
X2302188Y-42379362D01*
X2298750Y-42625574D01*
X430600Y-42625574D01*
X430600Y-10977528D01*
X6450732Y-10977528D01*
X6474112Y-11104912D01*
X6521788Y-11225328D01*
X6591945Y-11334191D01*
X6681911Y-11427353D01*
X6788259Y-11501267D01*
X6906938Y-11553116D01*
X7033428Y-11580927D01*
X7126294Y-11582872D01*
X7262505Y-11719083D01*
X7262505Y-12359828D01*
X7266627Y-12401871D01*
X7270307Y-12443931D01*
X7270977Y-12446238D01*
X7271212Y-12448632D01*
X7283409Y-12489028D01*
X7295201Y-12529618D01*
X7296310Y-12531757D01*
X7297003Y-12534053D01*
X7316820Y-12571324D01*
X7336265Y-12608837D01*
X7337763Y-12610713D01*
X7338893Y-12612839D01*
X7365622Y-12645612D01*
X7391933Y-12678571D01*
X7395228Y-12681913D01*
X7395289Y-12681987D01*
X7395358Y-12682044D01*
X7396416Y-12683117D01*
X8174709Y-13461410D01*
X8174709Y-34560354D01*
X8178831Y-34602397D01*
X8182511Y-34644457D01*
X8183181Y-34646764D01*
X8183416Y-34649158D01*
X8195613Y-34689554D01*
X8207405Y-34730144D01*
X8208514Y-34732283D01*
X8209207Y-34734579D01*
X8229024Y-34771850D01*
X8248469Y-34809363D01*
X8249967Y-34811239D01*
X8251097Y-34813365D01*
X8277826Y-34846138D01*
X8304137Y-34879097D01*
X8307432Y-34882439D01*
X8307493Y-34882513D01*
X8307562Y-34882570D01*
X8308620Y-34883643D01*
X9426010Y-36001033D01*
X9458638Y-36027835D01*
X9490996Y-36054986D01*
X9493102Y-36056144D01*
X9494960Y-36057670D01*
X9532155Y-36077614D01*
X9569189Y-36097973D01*
X9571484Y-36098701D01*
X9573599Y-36099835D01*
X9613955Y-36112173D01*
X9654242Y-36124953D01*
X9656630Y-36125221D01*
X9658930Y-36125924D01*
X9701007Y-36130198D01*
X9742915Y-36134899D01*
X9747605Y-36134932D01*
X9747703Y-36134942D01*
X9747794Y-36134933D01*
X9749299Y-36134944D01*
X13080577Y-36134944D01*
X13056541Y-36248030D01*
X13054732Y-36377528D01*
X13078112Y-36504912D01*
X13125788Y-36625328D01*
X13195945Y-36734191D01*
X13285911Y-36827353D01*
X13392259Y-36901267D01*
X13510938Y-36953116D01*
X13637428Y-36980927D01*
X13766910Y-36983639D01*
X13894454Y-36961150D01*
X14015200Y-36914315D01*
X14124550Y-36844920D01*
X14193563Y-36779200D01*
X15368416Y-36779200D01*
X15815467Y-37226251D01*
X15815467Y-40663396D01*
X15819589Y-40705439D01*
X15823269Y-40747499D01*
X15823939Y-40749806D01*
X15824174Y-40752200D01*
X15836371Y-40792596D01*
X15848163Y-40833186D01*
X15849272Y-40835325D01*
X15849965Y-40837621D01*
X15869782Y-40874892D01*
X15889227Y-40912405D01*
X15890725Y-40914281D01*
X15891855Y-40916407D01*
X15918584Y-40949180D01*
X15944895Y-40982139D01*
X15948190Y-40985481D01*
X15948251Y-40985555D01*
X15948320Y-40985612D01*
X15949378Y-40986685D01*
X16741556Y-41778863D01*
X16774162Y-41805646D01*
X16806542Y-41832816D01*
X16808651Y-41833975D01*
X16810507Y-41835500D01*
X16847681Y-41855432D01*
X16884735Y-41875803D01*
X16887030Y-41876531D01*
X16889145Y-41877665D01*
X16929542Y-41890016D01*
X16969788Y-41902783D01*
X16972171Y-41903050D01*
X16974476Y-41903755D01*
X17016602Y-41908034D01*
X17058461Y-41912729D01*
X17063151Y-41912762D01*
X17063249Y-41912772D01*
X17063340Y-41912763D01*
X17064845Y-41912774D01*
X19100386Y-41912774D01*
X19201381Y-42013769D01*
X19201381Y-46281046D01*
X17710711Y-47771717D01*
X17683909Y-47804345D01*
X17656758Y-47836703D01*
X17655600Y-47838809D01*
X17654074Y-47840667D01*
X17634130Y-47877862D01*
X17613771Y-47914896D01*
X17613043Y-47917191D01*
X17611909Y-47919306D01*
X17599558Y-47959703D01*
X17586791Y-47999949D01*
X17586524Y-48002332D01*
X17585819Y-48004637D01*
X17581540Y-48046763D01*
X17576845Y-48088622D01*
X17576812Y-48093312D01*
X17576802Y-48093410D01*
X17576811Y-48093501D01*
X17576800Y-48095006D01*
X17576800Y-48799366D01*
X17525657Y-48849449D01*
X17452487Y-48956311D01*
X17401467Y-49075349D01*
X17374541Y-49202030D01*
X17372732Y-49331528D01*
X17396112Y-49458912D01*
X17443788Y-49579328D01*
X17513945Y-49688191D01*
X17603911Y-49781353D01*
X17710259Y-49855267D01*
X17828938Y-49907116D01*
X17955428Y-49934927D01*
X18084910Y-49937639D01*
X18212454Y-49915150D01*
X18333200Y-49868315D01*
X18442550Y-49798920D01*
X18536338Y-49709607D01*
X18610992Y-49603777D01*
X18663669Y-49485463D01*
X18692362Y-49359171D01*
X18694428Y-49211244D01*
X18669272Y-49084200D01*
X18619920Y-48964461D01*
X18548249Y-48856589D01*
X18491200Y-48799140D01*
X18491200Y-48284384D01*
X19478323Y-47297262D01*
X19545945Y-47402191D01*
X19635911Y-47495353D01*
X19742259Y-47569267D01*
X19860938Y-47621116D01*
X19987428Y-47648927D01*
X20116910Y-47651639D01*
X20244454Y-47629150D01*
X20365200Y-47582315D01*
X20474550Y-47512920D01*
X20568338Y-47423607D01*
X20642992Y-47317777D01*
X20695669Y-47199463D01*
X20724362Y-47073171D01*
X20726428Y-46925244D01*
X20701272Y-46798200D01*
X20651920Y-46678461D01*
X20580249Y-46570589D01*
X20523200Y-46513140D01*
X20523200Y-46140640D01*
X21438675Y-47056116D01*
X21460112Y-47172912D01*
X21507788Y-47293328D01*
X21577945Y-47402191D01*
X21667911Y-47495353D01*
X21774259Y-47569267D01*
X21892938Y-47621116D01*
X22019428Y-47648927D01*
X22148910Y-47651639D01*
X22276454Y-47629150D01*
X22397200Y-47582315D01*
X22506550Y-47512920D01*
X22600338Y-47423607D01*
X22674992Y-47317777D01*
X22727669Y-47199463D01*
X22756362Y-47073171D01*
X22758428Y-46925244D01*
X22733272Y-46798200D01*
X22683920Y-46678461D01*
X22612249Y-46570589D01*
X22520991Y-46478691D01*
X22413622Y-46406270D01*
X22294230Y-46356082D01*
X22167365Y-46330040D01*
X22037857Y-46329136D01*
X22010140Y-46334423D01*
X20929731Y-45254015D01*
X20929731Y-41487411D01*
X20925608Y-41445355D01*
X20921929Y-41403308D01*
X20921259Y-41401001D01*
X20921024Y-41398607D01*
X20908827Y-41358211D01*
X20897035Y-41317621D01*
X20895926Y-41315482D01*
X20895233Y-41313186D01*
X20875416Y-41275915D01*
X20855971Y-41238402D01*
X20854473Y-41236526D01*
X20853343Y-41234400D01*
X20826589Y-41201596D01*
X20800302Y-41168668D01*
X20797009Y-41165328D01*
X20796947Y-41165252D01*
X20796877Y-41165194D01*
X20795820Y-41164122D01*
X19948409Y-40316711D01*
X19915781Y-40289909D01*
X19883423Y-40262758D01*
X19881317Y-40261600D01*
X19879459Y-40260074D01*
X19842264Y-40240130D01*
X19805230Y-40219771D01*
X19802935Y-40219043D01*
X19800820Y-40217909D01*
X19760423Y-40205558D01*
X19720177Y-40192791D01*
X19717794Y-40192524D01*
X19715489Y-40191819D01*
X19673363Y-40187540D01*
X19631504Y-40182845D01*
X19626814Y-40182812D01*
X19626716Y-40182802D01*
X19626625Y-40182811D01*
X19625120Y-40182800D01*
X17591377Y-40182800D01*
X17544643Y-40136066D01*
X17544643Y-37225137D01*
X17818249Y-36951531D01*
X17870238Y-36952620D01*
X17997782Y-36930131D01*
X18096531Y-36891828D01*
X18098774Y-36894579D01*
X18125085Y-36927538D01*
X18128380Y-36930880D01*
X18128441Y-36930954D01*
X18128510Y-36931011D01*
X18129568Y-36932084D01*
X18433945Y-37236462D01*
X18466599Y-37263284D01*
X18498932Y-37290415D01*
X18501038Y-37291573D01*
X18502896Y-37293099D01*
X18540091Y-37313043D01*
X18577125Y-37333402D01*
X18579420Y-37334130D01*
X18581535Y-37335264D01*
X18621891Y-37347602D01*
X18662178Y-37360382D01*
X18664566Y-37360650D01*
X18666866Y-37361353D01*
X18708898Y-37365622D01*
X18750851Y-37370328D01*
X18755552Y-37370361D01*
X18755639Y-37370370D01*
X18755720Y-37370362D01*
X18757235Y-37370373D01*
X21252827Y-37370373D01*
X21294870Y-37366251D01*
X21336930Y-37362571D01*
X21339237Y-37361901D01*
X21341631Y-37361666D01*
X21382027Y-37349469D01*
X21422617Y-37337677D01*
X21424756Y-37336568D01*
X21427052Y-37335875D01*
X21464323Y-37316058D01*
X21501836Y-37296613D01*
X21503712Y-37295115D01*
X21505838Y-37293985D01*
X21538611Y-37267256D01*
X21571570Y-37240945D01*
X21574912Y-37237650D01*
X21574986Y-37237589D01*
X21575043Y-37237520D01*
X21576116Y-37236462D01*
X21576292Y-37236286D01*
X21640910Y-37237639D01*
X21768454Y-37215150D01*
X21889200Y-37168315D01*
X21998550Y-37098920D01*
X22092338Y-37009607D01*
X22166992Y-36903777D01*
X22219669Y-36785463D01*
X22248362Y-36659171D01*
X22250428Y-36511244D01*
X22225272Y-36384200D01*
X22175920Y-36264461D01*
X22104249Y-36156589D01*
X22012991Y-36064691D01*
X21905622Y-35992270D01*
X21786230Y-35942082D01*
X21659365Y-35916040D01*
X21529857Y-35915136D01*
X21402640Y-35939404D01*
X21282559Y-35987920D01*
X21174189Y-36058835D01*
X21081657Y-36149449D01*
X21008487Y-36256311D01*
X20957467Y-36375349D01*
X20940330Y-36455973D01*
X18946614Y-36455973D01*
X18910057Y-36419417D01*
X18910057Y-35978857D01*
X18905935Y-35936814D01*
X18902255Y-35894754D01*
X18901585Y-35892447D01*
X18901350Y-35890053D01*
X18889153Y-35849657D01*
X18877361Y-35809067D01*
X18876252Y-35806928D01*
X18875559Y-35804632D01*
X18855742Y-35767361D01*
X18836297Y-35729848D01*
X18834799Y-35727972D01*
X18834461Y-35727335D01*
X18979974Y-35727335D01*
X19135928Y-35883289D01*
X19168556Y-35910091D01*
X19200914Y-35937242D01*
X19203020Y-35938400D01*
X19204878Y-35939926D01*
X19242073Y-35959870D01*
X19279107Y-35980229D01*
X19281402Y-35980957D01*
X19283517Y-35982091D01*
X19309042Y-35989895D01*
X19381911Y-36065353D01*
X19488259Y-36139267D01*
X19606938Y-36191116D01*
X19733428Y-36218927D01*
X19862910Y-36221639D01*
X19990454Y-36199150D01*
X20111200Y-36152315D01*
X20220550Y-36082920D01*
X20314338Y-35993607D01*
X20388992Y-35887777D01*
X20441669Y-35769463D01*
X20456893Y-35702454D01*
X20495428Y-35710927D01*
X20624910Y-35713639D01*
X20752454Y-35691150D01*
X20873200Y-35644315D01*
X20982550Y-35574920D01*
X21076338Y-35485607D01*
X21150992Y-35379777D01*
X21203669Y-35261463D01*
X21218893Y-35194454D01*
X21257428Y-35202927D01*
X21386910Y-35205639D01*
X21514454Y-35183150D01*
X21635200Y-35136315D01*
X21744550Y-35066920D01*
X21838338Y-34977607D01*
X21912992Y-34871777D01*
X21965669Y-34753463D01*
X21994362Y-34627171D01*
X21996428Y-34479244D01*
X21971272Y-34352200D01*
X21921920Y-34232461D01*
X21850249Y-34124589D01*
X21758991Y-34032691D01*
X21651622Y-33960270D01*
X21532230Y-33910082D01*
X21405365Y-33884040D01*
X21275857Y-33883136D01*
X21148640Y-33907404D01*
X21028559Y-33955920D01*
X20949281Y-34007798D01*
X20909517Y-33995184D01*
X20907134Y-33994917D01*
X20904829Y-33994212D01*
X20862703Y-33989933D01*
X20820844Y-33985238D01*
X20816154Y-33985205D01*
X20816056Y-33985195D01*
X20815965Y-33985204D01*
X20814460Y-33985193D01*
X10439653Y-33985193D01*
X10310530Y-33856071D01*
X10310530Y-29020071D01*
X30224998Y-29020071D01*
X30251974Y-29167052D01*
X30306985Y-29305994D01*
X30387936Y-29431605D01*
X30491743Y-29539100D01*
X30614452Y-29624385D01*
X30751390Y-29684212D01*
X30897340Y-29716301D01*
X31046743Y-29719430D01*
X31193908Y-29693481D01*
X31333231Y-29639441D01*
X31459404Y-29559370D01*
X31506207Y-29514800D01*
X33008277Y-29514800D01*
X33031743Y-29539100D01*
X33154452Y-29624385D01*
X33291390Y-29684212D01*
X33437340Y-29716301D01*
X33586743Y-29719430D01*
X33733908Y-29693481D01*
X33873231Y-29639441D01*
X33999404Y-29559370D01*
X34107621Y-29456316D01*
X34193761Y-29334205D01*
X34254542Y-29197688D01*
X34287649Y-29051966D01*
X34290033Y-28881282D01*
X34261007Y-28734692D01*
X34204061Y-28596532D01*
X34121365Y-28472063D01*
X34016067Y-28366028D01*
X33892179Y-28282465D01*
X33754420Y-28224556D01*
X33608036Y-28194508D01*
X33458604Y-28193464D01*
X33311815Y-28221466D01*
X33173260Y-28277445D01*
X33048218Y-28359271D01*
X33009486Y-28397200D01*
X31507022Y-28397200D01*
X31476067Y-28366028D01*
X31352179Y-28282465D01*
X31214420Y-28224556D01*
X31068036Y-28194508D01*
X30918604Y-28193464D01*
X30771815Y-28221466D01*
X30633260Y-28277445D01*
X30508218Y-28359271D01*
X30401450Y-28463826D01*
X30317023Y-28587127D01*
X30258154Y-28724479D01*
X30227085Y-28870650D01*
X30224998Y-29020071D01*
X10310530Y-29020071D01*
X10310530Y-14288071D01*
X31748998Y-14288071D01*
X31775974Y-14435052D01*
X31830985Y-14573994D01*
X31911936Y-14699605D01*
X32015743Y-14807100D01*
X32138452Y-14892385D01*
X32275390Y-14952212D01*
X32421340Y-14984301D01*
X32570743Y-14987430D01*
X32717908Y-14961481D01*
X32857231Y-14907441D01*
X32983404Y-14827370D01*
X33091621Y-14724316D01*
X33177761Y-14602205D01*
X33238542Y-14465688D01*
X33271649Y-14319966D01*
X33274033Y-14149282D01*
X33245007Y-14002692D01*
X33188061Y-13864532D01*
X33105365Y-13740063D01*
X33000067Y-13634028D01*
X32969200Y-13613208D01*
X32969200Y-10802541D01*
X33227541Y-10544200D01*
X33932075Y-10544200D01*
X33943936Y-10562605D01*
X34047743Y-10670100D01*
X34170452Y-10755385D01*
X34307390Y-10815212D01*
X34453340Y-10847301D01*
X34602743Y-10850430D01*
X34749908Y-10824481D01*
X34889231Y-10770441D01*
X35015404Y-10690370D01*
X35123621Y-10587316D01*
X35209761Y-10465205D01*
X35270542Y-10328688D01*
X35303649Y-10182966D01*
X35306033Y-10012282D01*
X35277007Y-9865692D01*
X35220061Y-9727532D01*
X35137365Y-9603063D01*
X35032067Y-9497028D01*
X34908179Y-9413465D01*
X34770420Y-9355556D01*
X34624036Y-9325508D01*
X34474604Y-9324464D01*
X34327815Y-9352466D01*
X34189260Y-9408445D01*
X34064218Y-9490271D01*
X33957450Y-9594826D01*
X33933503Y-9629800D01*
X33038163Y-9629800D01*
X32996116Y-9633923D01*
X32954061Y-9637602D01*
X32951754Y-9638272D01*
X32949359Y-9638507D01*
X32908950Y-9650707D01*
X32868373Y-9662496D01*
X32866234Y-9663605D01*
X32863938Y-9664298D01*
X32826667Y-9684115D01*
X32789154Y-9703560D01*
X32787278Y-9705058D01*
X32785152Y-9706188D01*
X32752379Y-9732917D01*
X32719420Y-9759228D01*
X32716078Y-9762523D01*
X32716004Y-9762584D01*
X32715947Y-9762653D01*
X32714874Y-9763711D01*
X32188711Y-10289874D01*
X32161909Y-10322502D01*
X32134758Y-10354860D01*
X32133600Y-10356966D01*
X32132074Y-10358824D01*
X32112130Y-10396019D01*
X32091771Y-10433053D01*
X32091043Y-10435348D01*
X32089909Y-10437463D01*
X32077558Y-10477860D01*
X32064791Y-10518106D01*
X32064524Y-10520489D01*
X32063819Y-10522794D01*
X32059540Y-10564920D01*
X32054845Y-10606779D01*
X32054812Y-10611469D01*
X32054802Y-10611567D01*
X32054811Y-10611658D01*
X32054800Y-10613163D01*
X32054800Y-13612494D01*
X32032218Y-13627271D01*
X31925450Y-13731826D01*
X31841023Y-13855127D01*
X31782154Y-13992479D01*
X31751085Y-14138650D01*
X31748998Y-14288071D01*
X10310530Y-14288071D01*
X10310530Y-13454368D01*
X11150073Y-12614825D01*
X11176856Y-12582219D01*
X11204026Y-12549839D01*
X11205185Y-12547730D01*
X11206710Y-12545874D01*
X11226642Y-12508700D01*
X11247013Y-12471646D01*
X11247741Y-12469351D01*
X11248875Y-12467236D01*
X11261226Y-12426839D01*
X11273993Y-12386593D01*
X11274260Y-12384210D01*
X11274965Y-12381905D01*
X11279244Y-12339779D01*
X11283939Y-12297920D01*
X11283972Y-12293230D01*
X11283982Y-12293132D01*
X11283973Y-12293041D01*
X11283984Y-12291536D01*
X11283984Y-11563417D01*
X11468201Y-11379200D01*
X11969410Y-11379200D01*
X12015911Y-11427353D01*
X12122259Y-11501267D01*
X12240938Y-11553116D01*
X12367428Y-11580927D01*
X12496910Y-11583639D01*
X12624454Y-11561150D01*
X12745200Y-11514315D01*
X12854550Y-11444920D01*
X12948338Y-11355607D01*
X13022992Y-11249777D01*
X13075669Y-11131463D01*
X13104362Y-11005171D01*
X13106428Y-10857244D01*
X13081272Y-10730200D01*
X13031920Y-10610461D01*
X12960249Y-10502589D01*
X12868991Y-10410691D01*
X12761622Y-10338270D01*
X12642230Y-10288082D01*
X12515365Y-10262040D01*
X12385857Y-10261136D01*
X12258640Y-10285404D01*
X12138559Y-10333920D01*
X12030189Y-10404835D01*
X11968955Y-10464800D01*
X11278823Y-10464800D01*
X11236776Y-10468923D01*
X11194721Y-10472602D01*
X11192414Y-10473272D01*
X11190019Y-10473507D01*
X11149610Y-10485707D01*
X11109033Y-10497496D01*
X11106894Y-10498605D01*
X11104598Y-10499298D01*
X11067327Y-10519115D01*
X11029814Y-10538560D01*
X11027938Y-10540058D01*
X11025812Y-10541188D01*
X10993039Y-10567917D01*
X10979065Y-10579072D01*
X10928249Y-10502589D01*
X10836991Y-10410691D01*
X10729622Y-10338270D01*
X10610230Y-10288082D01*
X10483365Y-10262040D01*
X10353857Y-10261136D01*
X10226640Y-10285404D01*
X10106559Y-10333920D01*
X9998189Y-10404835D01*
X9905657Y-10495449D01*
X9832487Y-10602311D01*
X9781467Y-10721349D01*
X9754541Y-10848030D01*
X9752732Y-10977528D01*
X9776112Y-11104912D01*
X9823788Y-11225328D01*
X9893945Y-11334191D01*
X9956800Y-11399279D01*
X9956800Y-11938960D01*
X9239169Y-12656591D01*
X8585200Y-12002622D01*
X8585200Y-11398591D01*
X8630338Y-11355607D01*
X8704992Y-11249777D01*
X8757669Y-11131463D01*
X8786362Y-11005171D01*
X8788428Y-10857244D01*
X8763272Y-10730200D01*
X8713920Y-10610461D01*
X8642249Y-10502589D01*
X8550991Y-10410691D01*
X8443622Y-10338270D01*
X8324230Y-10288082D01*
X8197365Y-10262040D01*
X8067857Y-10261136D01*
X7940640Y-10285404D01*
X7820559Y-10333920D01*
X7712189Y-10404835D01*
X7619657Y-10495449D01*
X7619454Y-10495746D01*
X7534991Y-10410691D01*
X7427622Y-10338270D01*
X7308230Y-10288082D01*
X7181365Y-10262040D01*
X7051857Y-10261136D01*
X6924640Y-10285404D01*
X6804559Y-10333920D01*
X6696189Y-10404835D01*
X6603657Y-10495449D01*
X6530487Y-10602311D01*
X6479467Y-10721349D01*
X6452541Y-10848030D01*
X6450732Y-10977528D01*
X430600Y-10977528D01*
X430600Y-4579377D01*
X16578008Y-4579377D01*
X16589055Y-4725062D01*
X16766265Y-5074183D01*
X17008180Y-5382023D01*
X17305504Y-5636753D01*
X17646810Y-5828583D01*
X18018982Y-5950142D01*
X18407718Y-5996758D01*
X18720600Y-5826389D01*
X18720600Y-4279400D01*
X19279400Y-4279400D01*
X19279400Y-5826389D01*
X19592282Y-5996758D01*
X19981018Y-5950142D01*
X20353190Y-5828583D01*
X20694496Y-5636753D01*
X20991820Y-5382023D01*
X21233735Y-5074183D01*
X21410945Y-4725062D01*
X21421992Y-4579377D01*
X21335471Y-4279400D01*
X19279400Y-4279400D01*
X18720600Y-4279400D01*
X16664529Y-4279400D01*
X16578008Y-4579377D01*
X430600Y-4579377D01*
X430600Y-3420623D01*
X16578008Y-3420623D01*
X16664529Y-3720600D01*
X18720600Y-3720600D01*
X18720600Y-2173611D01*
X19279400Y-2173611D01*
X19279400Y-3720600D01*
X21335471Y-3720600D01*
X21421992Y-3420623D01*
X21410945Y-3274938D01*
X21233735Y-2925817D01*
X20991820Y-2617977D01*
X20694496Y-2363247D01*
X20353190Y-2171417D01*
X19981018Y-2049858D01*
X19592282Y-2003242D01*
X19279400Y-2173611D01*
X18720600Y-2173611D01*
X18407718Y-2003242D01*
X18018982Y-2049858D01*
X17646810Y-2171417D01*
X17305504Y-2363247D01*
X17008180Y-2617977D01*
X16766265Y-2925817D01*
X16589055Y-3274938D01*
X16578008Y-3420623D01*
X430600Y-3420623D01*
X430600Y-430600D01*
X37569400Y-430600D01*
X37569400Y-79569400D01*
G36*
X15138400Y-71755000D02*
X15142422Y-71783305D01*
X15154171Y-71809369D01*
X15172716Y-71831128D01*
X15196589Y-71846859D01*
X15223898Y-71855316D01*
X15240000Y-71856600D01*
X20345400Y-71856600D01*
X20345400Y-73685400D01*
X14579600Y-73685400D01*
X14579600Y-72390000D01*
X14575578Y-72361695D01*
X14563829Y-72335631D01*
X14545284Y-72313872D01*
X14521411Y-72298141D01*
X14494102Y-72289684D01*
X14478000Y-72288400D01*
X5588000Y-72288400D01*
X5559695Y-72292422D01*
X5533631Y-72304171D01*
X5511872Y-72322716D01*
X5496141Y-72346589D01*
X5487684Y-72373898D01*
X5486400Y-72390000D01*
X5486400Y-73558400D01*
X4165600Y-73558400D01*
X4165600Y-70713600D01*
X15138400Y-70713600D01*
X15138400Y-71755000D01*
X15138400Y-71755000D01*
G37*
X15138400Y-71755000D02*
X15142422Y-71783305D01*
X15154171Y-71809369D01*
X15172716Y-71831128D01*
X15196589Y-71846859D01*
X15223898Y-71855316D01*
X15240000Y-71856600D01*
X20345400Y-71856600D01*
X20345400Y-73685400D01*
X14579600Y-73685400D01*
X14579600Y-72390000D01*
X14575578Y-72361695D01*
X14563829Y-72335631D01*
X14545284Y-72313872D01*
X14521411Y-72298141D01*
X14494102Y-72289684D01*
X14478000Y-72288400D01*
X5588000Y-72288400D01*
X5559695Y-72292422D01*
X5533631Y-72304171D01*
X5511872Y-72322716D01*
X5496141Y-72346589D01*
X5487684Y-72373898D01*
X5486400Y-72390000D01*
X5486400Y-73558400D01*
X4165600Y-73558400D01*
X4165600Y-70713600D01*
X15138400Y-70713600D01*
X15138400Y-71755000D01*
M02*
